<svg width="28" height="33" viewBox="0 0 28 33" fill="none" xmlns="http://www.w3.org/2000/svg"><path d="M26.35 5.642L14.103.548a1.248 1.248 0 00-.958 0L.896 5.642c-.466.194-.77.65-.77 1.157v6.193a20.968 20.968 0 0013.025 19.42c.303.124.642.124.945 0a20.968 20.968 0 0013.025-19.42V6.799c0-.506-.304-.963-.77-1.157zm-1.729 7.35c0 7.249-4.249 13.922-10.998 16.9a18.47 18.47 0 01-10.998-16.9V7.634L13.623 3.06l10.999 4.575v5.357zm-12.38 4.22l5.373-5.382a1.248 1.248 0 011.767 0 1.254 1.254 0 010 1.771l-6.255 6.267a1.249 1.249 0 01-1.768 0l-3.493-3.5a1.254 1.254 0 010-1.77 1.248 1.248 0 011.768 0l2.609 2.614z" fill="#fff"/></svg>