<svg width="28" height="27" viewBox="0 0 28 27" fill="none" xmlns="http://www.w3.org/2000/svg"><path d="M26.721 12.068c.544-.53.735-1.309.5-2.031a1.967 1.967 0 00-1.596-1.35l-6.563-.954a.396.396 0 01-.298-.217l-2.935-5.958A1.965 1.965 0 0014.055.453c-.758 0-1.438.423-1.774 1.105L9.346 7.516a.396.396 0 01-.298.217l-6.563.955a1.97 1.97 0 00-1.597 1.349 1.972 1.972 0 00.5 2.031l4.75 4.638a.397.397 0 01.114.35L5.13 23.605a1.971 1.971 0 00.787 1.938A1.963 1.963 0 008 25.694l5.87-3.092a.395.395 0 01.368 0l5.87 3.092a1.968 1.968 0 002.083-.151c.614-.447.916-1.19.788-1.938l-1.122-6.549a.397.397 0 01.114-.35l4.75-4.638zM20.3 17.325l1.121 6.548a.387.387 0 01-.157.388.385.385 0 01-.417.03l-5.87-3.092a1.975 1.975 0 00-1.841 0l-5.87 3.092a.385.385 0 01-.417-.03.386.386 0 01-.157-.388l1.12-6.548a1.983 1.983 0 00-.568-1.755l-4.75-4.637a.387.387 0 01-.1-.406c.023-.07.1-.238.32-.27L9.276 9.3a1.978 1.978 0 001.49-1.084L13.7 2.26a.386.386 0 01.355-.22c.074 0 .257.02.355.22v0l2.935 5.958c.288.586.845.99 1.49 1.084l6.563.956c.22.032.296.2.319.27a.387.387 0 01-.1.406l-4.75 4.638a1.984 1.984 0 00-.568 1.754z" fill="#fff" stroke="#fff" stroke-width=".8"/></svg>