<svg width="31" height="31" viewBox="0 0 31 31" fill="none" xmlns="http://www.w3.org/2000/svg"><path d="M15.192.775C6.922.775.194 7.515.194 15.8c0 8.284 6.729 15.025 14.998 15.025 8.27 0 14.997-6.74 14.997-15.025C30.19 7.516 23.461.775 15.192.775zm0 28.172c-7.236 0-13.123-5.898-13.123-13.147 0-7.25 5.887-13.147 13.123-13.147S28.315 8.551 28.315 15.8c0 7.25-5.887 13.147-13.123 13.147z" fill="#fff"/><path d="M15.192 14.861c-1.524 0-2.812-.86-2.812-1.878 0-1.018 1.288-1.878 2.812-1.878.863 0 1.661.27 2.19.74a.939.939 0 001.245-1.405c-.657-.584-1.538-.979-2.497-1.134V8.288a.939.939 0 10-1.875 0v1.014c-2.137.35-3.75 1.867-3.75 3.68 0 2.072 2.104 3.757 4.687 3.757 1.524 0 2.812.86 2.812 1.878 0 1.018-1.288 1.878-2.812 1.878-.862 0-1.66-.27-2.19-.74a.939.939 0 00-1.245 1.405c.657.586 1.538.979 2.498 1.136v1.016a.939.939 0 101.874 0v-1.014c2.138-.35 3.75-1.867 3.75-3.68 0-2.072-2.104-3.757-4.687-3.757z" fill="#fff"/></svg>