<svg width="28" height="26" viewBox="0 0 28 26" fill="none" xmlns="http://www.w3.org/2000/svg"><path d="M26.209.78H1.038a.913.913 0 00-.913.914v18.913c0 .504.409.913.913.913h14.105v3.027a.914.914 0 001.32.817l2.214-1.109 2.214 1.11a.91.91 0 00.887-.04.914.914 0 00.433-.778V21.52h3.998a.912.912 0 00.912-.913V1.694A.913.913 0 0026.21.78zm-7.532 16.668a3.481 3.481 0 010-6.96 3.481 3.481 0 010 6.96zm.407 4.968a.91.91 0 00-.815 0l-1.302.653V18.99a5.266 5.266 0 003.42 0v4.078l-1.303-.653zm6.213-2.723h-3.086v-1.775a5.3 5.3 0 001.764-3.95c0-2.926-2.377-5.307-5.298-5.307-2.922 0-5.298 2.38-5.298 5.307a5.3 5.3 0 001.764 3.95v1.775H1.95V2.608h23.347v17.085z" fill="#fff"/><path d="M4.184 7.336h11.013a.913.913 0 000-1.827H4.184a.913.913 0 000 1.827zm0 4.728h6.293a.913.913 0 000-1.828H4.184a.913.913 0 000 1.828zm0 4.728h4.72a.913.913 0 000-1.828h-4.72a.913.913 0 000 1.828z" fill="#fff"/></svg>