<svg width="31" height="31" viewBox="0 0 31 31" fill="none" xmlns="http://www.w3.org/2000/svg"><path d="M15.082.775C6.81.775.057 7.541.057 15.828c0 8.278 6.753 14.997 15.025 14.997 8.263 0 14.97-6.72 14.97-14.997 0-8.287-6.707-15.053-14.97-15.053zm0 27.446A12.383 12.383 0 012.656 15.82 12.387 12.387 0 0115.082 3.37c6.847 0 12.38 5.544 12.38 12.45 0 6.859-5.533 12.402-12.38 12.402z" fill="#fff"/><path d="M22.033 9.11c-.392 0-.783.195-1.025.494l-8.374 9.65-3.568-3.575c-1.22-1.222-3.084.635-1.863 1.867l4.555 4.563c.54.541 1.416.495 1.91-.047L23.01 11.33c.726-.849.14-2.22-.978-2.22z" fill="#fff"/></svg>