<svg width="309" height="309" viewBox="0 0 309 309" fill="none" xmlns="http://www.w3.org/2000/svg"><path d="M264.3 251.597c-7.67 7.904-14.524 12.543-19.778 16.054-51.207 34.186-109.749 24.337-127.839 20.961-29.203-5.433-53.845-9.268-75.021-28.396C-6.46 216.751-4.123 126.064 32.65 69.887c4.36-6.652 41.066-61.073 99.731-68.742 1.431-.19 2.504-.29 3.443-.391 9.079-.962 65.317-6.037 111.169 32.386 6.562 5.5 17.128 15.417 26.922 30.542 35.823 55.305 35.935 140.973-9.615 187.915z" fill="url(#paint0_linear)"/><path d="M236.527 106.746l26.118-6.081s17.464-1.565 19.823 13.952c2.359 15.517 1.677 107.467.939 126.439-.246 6.249-.212 12.029.313 17.06 1.107 10.486-7.077 19.653-17.62 19.832l-48.624.838 19.051-172.04z" fill="url(#paint1_linear)"/><path d="M222.63 286.265s5.221-73.158 42.329-117.753c.481-.581 1.32-.436 1.577.279 4.047 11.292 26.777 83.947-43.906 117.474z" fill="#BDD0FB"/><path d="M263.361 189.742c-.313 4.27-.928 8.485-1.644 12.688a184.43 184.43 0 01-2.638 12.51c-2.046 8.284-4.596 16.445-7.737 24.394-1.588 3.968-3.265 7.903-5.143 11.738-.917 1.934-1.935 3.812-2.907 5.713-1.04 1.867-2.046 3.756-3.164 5.578-4.35 7.367-9.437 14.299-15.24 20.548a.449.449 0 01-.648.022.465.465 0 01-.056-.615v-.011c5.165-6.696 9.828-13.739 13.864-21.129 1.04-1.833 1.968-3.723 2.963-5.578.917-1.89 1.878-3.768 2.739-5.691.425-.961.894-1.9 1.319-2.873l1.275-2.895c.414-.962.805-1.945 1.219-2.918.413-.973.793-1.945 1.174-2.929.782-1.956 1.509-3.935 2.247-5.903.704-1.99 1.409-3.968 2.057-5.981 1.353-3.991 2.56-8.038 3.723-12.096a269.068 269.068 0 003.142-12.275 225.813 225.813 0 002.56-12.409v-.011a.46.46 0 01.537-.369c.212.045.38.257.358.492z" fill="url(#paint2_linear)"/><path d="M227.237 278.259s38.26-64.349 79.885-65.355c.738-.022 1.297.66 1.152 1.387-1.778 8.407-14.177 52.431-81.037 63.968z" fill="#91B3FA"/><path d="M298.3 223.11c-2.527 2.649-5.121 5.198-7.748 7.714-1.331 1.241-2.661 2.493-4.003 3.722-1.353 1.219-2.694 2.449-4.07 3.656a323.554 323.554 0 01-16.871 13.896c-2.874 2.247-5.836 4.36-8.777 6.529l-4.483 3.13c-.749.514-1.498 1.04-2.248 1.554l-2.292 1.498c-6.048 4.069-12.365 7.725-18.738 11.269a.459.459 0 01-.459-.794l.012-.011 4.695-2.75 2.348-1.375c.772-.47 1.543-.962 2.304-1.442l4.617-2.885c1.521-.995 3.019-2.012 4.539-3.007l2.27-1.509 2.225-1.565 4.461-3.13c2.918-2.169 5.87-4.282 8.721-6.529 2.884-2.203 5.713-4.483 8.542-6.753l4.181-3.476 4.137-3.544c1.375-1.185 2.728-2.404 4.092-3.6a304.16 304.16 0 004.025-3.667c2.661-2.459 5.311-4.952 7.86-7.524l.011-.011a.46.46 0 01.649 0c.167.134.179.425 0 .604z" fill="#BDD0FB"/><path d="M183.43 108.009s47.563 2.616 79.226-7.345c0 0-21.042-1.442-21.042 47.143 0 37.149 5.512 108.049.704 121.509-4.807 13.46-22.797 31.549-48.59 16.009-25.805-15.55-10.298-177.316-10.298-177.316z" fill="#7D97F4"/><path d="M170.785 35.163s52.47 5.724 59.235-3.174c0 0-5.378-16.009-21.344-14.935-15.966 1.073-37.891 18.11-37.891 18.11z" fill="url(#paint3_linear)"/><path d="M.115 53.173c4.584 51.414 14.188 160.178 18.37 213.158.927 11.816 10.397 21.14 22.226 21.9 42.118 2.705 136.917 7.949 173.299 3.063a24.204 24.204 0 01-13.506-21.911l1.934-237.742c.067-8.395 8.441-14.432 16.301-11.492 4.953 1.856 8.71 5.813 11.281 11.828-3.432-10.006-8.832-17.328-21.343-14.936 0 0-122.36 1.218-181.729 4.908C10.803 22.944-1.316 37.063.115 53.173z" fill="#91B3FA"/><mask id="a" maskUnits="userSpaceOnUse" x="4" y="22" width="199" height="268"><path d="M30.381 28.758l164.41-6.327c-6.786 50.195-3.924 152.42-1.33 253.157a15.82 15.82 0 009.056 13.896s-109.659 1.264-156.785-2.079c-11.09-.783-20.147-9.178-21.79-20.179C17.478 224.074 2.004 112.57 5.224 53.532c.738-13.516 11.628-24.26 25.156-24.774z" fill="url(#paint4_linear)"/></mask><g mask="url(#a)"><path opacity=".53" d="M30.381 28.758l164.41-6.327c-6.786 50.195-3.924 152.42-1.33 253.157a15.82 15.82 0 009.056 13.896s-109.659 1.264-156.785-2.079c-11.09-.783-20.147-9.178-21.79-20.179C17.478 224.074 2.004 112.57 5.224 53.532c.738-13.516 11.628-24.26 25.156-24.774z" fill="url(#paint5_linear)"/><path d="M28.212 106.61l1.923 18.412a6.804 6.804 0 006.518 6.104l10.723.414c3.868.145 7.088-2.952 7.088-6.82v-19.854c0-3.991-3.41-7.122-7.38-6.797l-12.644 1.04c-3.813.312-6.63 3.7-6.228 7.501z" fill="url(#paint6_linear)"/><path d="M65.912 100.942c17.844-.559 86.348-2.783 103.644-3.342a3.86 3.86 0 01.257 7.713l-103.588 3.846a3.872 3.872 0 01-3.98-3.365l-.067-.503c-.268-2.259 1.454-4.282 3.734-4.349z" fill="url(#paint7_linear)"/><path d="M64.794 125.212c.302.503.861.816 1.443.805l71.13-1.542a1.647 1.647 0 001.61-1.644v-4.684c0-.928-.771-1.677-1.699-1.643l-69.14 2.582c-3.086.112-4.92 3.477-3.344 6.126z" fill="url(#paint8_linear)"/><path d="M28.212 157.723l1.923 18.412a6.804 6.804 0 006.518 6.104l10.723.414c3.868.145 7.088-2.951 7.088-6.82v-19.865c0-3.991-3.41-7.122-7.38-6.797L34.44 150.21c-3.813.324-6.63 3.712-6.228 7.513z" fill="url(#paint9_linear)"/><path d="M65.912 152.044c17.844-.559 86.348-2.783 103.644-3.342a3.86 3.86 0 01.257 7.713l-103.588 3.846a3.872 3.872 0 01-3.98-3.365l-.067-.503c-.268-2.258 1.454-4.282 3.734-4.349z" fill="url(#paint10_linear)"/><path opacity=".78" d="M64.794 176.326c.302.503.861.816 1.443.805l71.13-1.543a1.646 1.646 0 001.61-1.643v-4.684c0-.928-.771-1.677-1.699-1.643l-69.14 2.582c-3.086.101-4.92 3.477-3.344 6.126z" fill="#fff"/><path d="M28.212 208.823l1.923 18.413a6.804 6.804 0 006.518 6.104l10.723.413c3.868.146 7.088-2.951 7.088-6.819v-19.866c0-3.991-3.41-7.121-7.38-6.797l-12.644 1.04c-3.813.324-6.63 3.711-6.228 7.512z" fill="url(#paint11_linear)"/><path d="M65.912 203.157c17.844-.559 86.348-2.784 103.644-3.343a3.86 3.86 0 01.257 7.714l-103.588 3.845a3.87 3.87 0 01-3.98-3.364l-.067-.504c-.268-2.258 1.454-4.281 3.734-4.348z" fill="url(#paint12_linear)"/><path d="M64.794 227.427c.302.503.861.816 1.443.805l71.13-1.543a1.646 1.646 0 001.61-1.643v-4.695c0-.928-.771-1.677-1.699-1.643l-69.14 2.582c-3.086.123-4.92 3.488-3.344 6.137z" fill="url(#paint13_linear)"/><path d="M118.852 279.367c-.816 0-1.621-.381-2.482-1.174-3.153-2.896-3.969-7.345-4.193-11.582-1.453 1.632-2.94 3.208-4.416 4.785l-.816-.761c1.733-1.844 3.477-3.711 5.165-5.634-.145-5.802.123-11.66.794-17.417.414-3.533.995-7.278 2.527-10.688.492-1.084 1.297-2.649 2.694-3.622 1.454-1.017 3.366-1.129 4.64-.268 1.431.961 1.823 2.794 1.99 4.08.973 7.58-1.979 14.533-4.639 19.027-1.968 3.332-4.35 6.395-6.877 9.291.135 4.337.727 9.077 3.88 11.973.66.603 1.241.894 1.778.872.883-.034 1.599-.895 2.191-1.733a47.408 47.408 0 006.172-12.309 12.979 12.979 0 011.096-3.812l1.051.369a50.102 50.102 0 01-1.051 3.689 11.861 11.861 0 00.145 3.723c.134.648.682 2.806 2.27 3.108 1.185.223 2.415-.671 3.779-2.75l5.59-8.497-.705 3.041c-.245 1.073-.67 3.634.828 4.26.85.346 1.755-.157 2.795-.749 1.04-.582 2.113-1.197 3.332-1.029l.57.078-.101.57c-.056.325-.503 3.209.984 3.533.682.157 1.252-.324 2.113-1.118.682-.626 1.376-1.274 2.292-1.498l.258 1.085c-.638.156-1.208.682-1.801 1.229-.849.783-1.811 1.677-3.119 1.387-1.699-.381-2.113-2.292-1.934-4.159-.671.1-1.353.48-2.069.883-1.129.637-2.415 1.364-3.767.805-1.118-.458-1.722-1.565-1.767-3.153l-2.594 3.935c-1.051 1.588-2.694 3.656-4.93 3.231-1.532-.29-2.717-1.777-3.153-3.98a12.443 12.443 0 01-.146-.927 49.489 49.489 0 01-5.243 9.681c-.694 1.006-1.677 2.158-3.064 2.202-.011.023-.033.023-.067.023zm1.946-45.825c-.738 0-1.476.28-2.013.649-1.163.816-1.878 2.191-2.314 3.163-1.465 3.276-2.046 6.909-2.438 10.352-.615 5.3-.883 10.688-.816 16.021 2.191-2.583 4.238-5.277 5.948-8.184 2.561-4.349 5.423-11.045 4.495-18.312-.224-1.71-.693-2.75-1.498-3.298a2.421 2.421 0 00-1.364-.391z" fill="url(#paint14_linear)"/><path opacity=".78" d="M167.856 77.936l-130.98 3.88a8.647 8.647 0 01-8.889-8.217l-.48-9.794c-.235-4.84 3.555-8.932 8.396-9.055l131.629-3.477c4.919-.134 8.955 3.868 8.866 8.798l-.168 9.391c-.078 4.595-3.768 8.329-8.374 8.474z" fill="#fff"/></g><path d="M126.6 181.111s-4.372-2.862-4.976-2.202c-.212.235-.715 1.028-1.185 1.9a1.609 1.609 0 00.257 1.878l1.13 1.163c1.073 1.107 2.885 1.028 3.835-.19.47-.615.85-1.442.939-2.549z" fill="url(#paint15_linear)"/><path d="M131.05 175.665s-1.498-3.946-3.254-3.588c-1.755.358-3.667 1.71-3.667 1.71l-2.817 3.801s7.893 3.108 10.677 1.33c0 0 8.061 1.398 18.247-.279-1.476-3.108-2.348-6.227-2.874-8.653-5.143 2.929-10.7 5.109-16.312 5.679z" fill="url(#paint16_linear)"/><path d="M173.782 147.048S162.233 161.593 147.385 170c.514 2.414 1.397 5.533 2.873 8.653 7.704-1.264 16.626-4.282 24.184-10.99l-.66-20.615z" fill="url(#paint17_linear)"/><path d="M188.181 211.508c-2.259-10.732-4.517-16.937-12.075-37.272-2.381-6.395-4.539-12.867-3.5-19.62l1.174-7.579s14.692-4.975 30.993-.213c0 0 22.227 9.659 7.133 57.339-6.82 7.625-14.781 9.794-23.725 7.345z" fill="url(#paint18_linear)"/><path d="M176.275 137.377l3.813 9.155c.246.582.76.995 1.375 1.096 2.203.38 7.513.961 11.002-1.33a.888.888 0 00.235-1.252l-7.044-10.106-9.381 2.437z" fill="url(#paint19_linear)"/><path d="M180.222 123.368c-.156.145-6.753 13.102-6.753 13.102l7.48 3.61 8.072-11.346c-.011 0-6.115-7.881-8.799-5.366z" fill="url(#paint20_linear)"/><path d="M185.623 130.099l-3.723 6.216a1.476 1.476 0 01-.201.257c-.448.413-1.957 1.61-3.131-.023-.995-1.397-1.934-2.66-2.94-3.186a1.192 1.192 0 00-1.61.526c-.615 1.218-1.801 3.7-2.55 6.048-.19.592.112 1.218.694 1.453 1.509.615 4.505 1.722 7.155 2.091.436.056.872-.123 1.129-.481 1.141-1.565 4.361-5.936 5.456-7.032 1.018-1.017 2.907-.637 3.757-.391.324.089.671.045.95-.123.861-.514 2.36-1.811.984-4.002-.346-.548-.167-1.264.369-1.621.962-.638 2.002-1.823 1.007-3.745-1.007-1.946-2.807-2.125-4.025-1.968-.537.067-1.096-.212-1.297-.727-.09-.223-.28-.413-.615-.48-.638-.135-1.062-.716-.939-1.364.212-1.096.055-2.527-1.711-3.499-3.22-1.778-6.049 1.117-6.764 3.555-.716 2.437 2.884 4.158 5.154 4.449 1.666.212 2.583 2.035 2.952 2.985.123.358.089.738-.101 1.062z" fill="url(#paint21_linear)"/><path d="M184.314 137.835s1.599-3.778 3.444-3.622c1.834.157 3.276 1.979 1.006 4.036-2.84 2.56-4.45-.414-4.45-.414z" fill="url(#paint22_linear)"/><path d="M186.73 306.052c3.544.302 9.705.805 14.568 1.017 2.918.123 4.595-.156 5.568-.548 0 .112 0 .213-.011.313a1.004 1.004 0 01-.951.95c-9.179.515-16.48.179-19.074.023-.536-.034-.86-.615-.581-1.073a4.65 4.65 0 01.481-.682z" fill="url(#paint23_linear)"/><path d="M201.298 307.068c-4.852-.213-11.013-.716-14.568-1.018 3.488-4.281 14.568-7.165 14.568-7.165h3.131c2.146 3.096 2.46 6.059 2.437 7.635-.961.391-2.65.671-5.568.548z" fill="url(#paint24_linear)"/><path d="M204.956 293.776l-.29 5.791a1.325 1.325 0 01-1.13 1.241c-.626.089-1.464.1-2.348-.19a1.55 1.55 0 01-1.051-1.207l-1.006-5.635h5.825z" fill="url(#paint25_linear)"/><path d="M245.584 307.023c1.543-.212 2.236-1.017 2.527-1.867 0 .011 0 .011.011.023.223.905-.302 1.833-1.353 2.28-1.264.537-2.661.626-3.735.581-1.152-.044-2.214-.525-2.795-1.285l-.011-.011c1.162.57 2.795.637 5.356.279z" fill="url(#paint26_linear)"/><path d="M238.328 293.732h2.583c3.924-.079 6.395 8.205 7.2 11.413-.291.85-.984 1.655-2.527 1.867-2.571.358-4.193.291-5.355-.279-2.125-2.795-3.176-6.887-3.679-9.268-.57-2.716 1.778-3.733 1.778-3.733z" fill="url(#paint27_linear)"/><path d="M240.575 288.365l1.431 5.701a1.55 1.55 0 01-.805 1.756c-.805.413-1.935.838-2.963.715a1.271 1.271 0 01-1.051-.861l-2.103-5.992 5.491-1.319z" fill="url(#paint28_linear)"/><path d="M242.284 290.01c-1.778 1.577-7.58 1.789-7.58 1.789-20.886-50.117-29.595-63.913-29.595-63.913 3.019 18.916.648 67.468.648 67.468-3.443 1.521-7.893 0-7.893 0-.28-30.967-4.64-64.248-10.264-85.534 14.11-.313 21.78-3.398 24.239-5.332 11.774 18.96 30.445 85.522 30.445 85.522z" fill="url(#paint29_linear)"/><path d="M184.057 223.826l2.594 16.155a5.326 5.326 0 005.903 4.427l38.875-4.74c1.901-.235 3.343-1.823 3.377-3.723.078-4.17-.079-11.604-1.834-18.368l-48.915 6.249z" fill="url(#paint30_linear)"/><path d="M193.872 243.313c-.067 0-.123-.045-.123-.112-.011-.067.045-.134.112-.145l1.018-.123c.078-.012.134.044.145.111.011.067-.045.135-.112.146l-1.017.123h-.023zm-2.37-.045h-.033a5.07 5.07 0 01-.984-.347c-.067-.033-.09-.111-.056-.167.033-.067.112-.09.168-.056.301.145.615.257.939.335.067.011.112.09.089.157-.011.044-.067.078-.123.078zm5.758-.369c-.067 0-.123-.045-.123-.112-.011-.067.045-.134.112-.145l1.017-.123c.068-.011.135.045.146.112.011.067-.045.134-.112.145l-1.017.123h-.023zm3.388-.414c-.067 0-.123-.044-.123-.111-.011-.067.045-.135.112-.146l1.017-.123c.078-.011.134.045.145.112.012.067-.044.134-.111.145l-1.018.123h-.022zm3.376-.413c-.067 0-.123-.045-.123-.112-.011-.067.045-.134.112-.145l1.018-.123c.078-.011.134.044.145.111.011.068-.045.135-.112.146l-1.017.123h-.023zm3.388-.414c-.067 0-.123-.045-.123-.112-.011-.067.045-.134.112-.145l1.017-.123c.079-.011.135.045.146.112.011.067-.045.134-.112.145l-1.018.123h-.022zm-18.705-.212a.173.173 0 01-.101-.045 4.556 4.556 0 01-.547-.894c-.034-.067 0-.146.056-.168.067-.034.145 0 .167.056.146.302.324.581.526.85a.126.126 0 01-.023.178.193.193 0 01-.078.023zm22.093-.19c-.067 0-.123-.045-.123-.112-.011-.067.045-.134.112-.145l1.017-.123c.078-.012.134.044.145.111.012.067-.044.135-.111.146l-1.018.123c-.011-.011-.022 0-.022 0zm3.388-.414c-.068 0-.123-.045-.123-.112-.012-.067.044-.134.111-.145l1.018-.123c.067-.011.134.045.145.112.011.067-.045.134-.112.145l-1.017.123h-.022zm3.376-.414c-.067 0-.123-.044-.123-.111-.011-.067.045-.135.112-.146l1.017-.123c.079-.011.134.045.146.112.011.067-.045.134-.112.145l-1.018.123h-.022zm3.388-.413c-.067 0-.123-.045-.123-.112-.011-.067.044-.134.112-.145l1.017-.123c.078-.012.134.044.145.111.012.068-.044.135-.111.146l-1.018.123h-.022zm3.387-.414c-.067 0-.123-.045-.123-.112-.011-.067.045-.134.112-.145l1.018-.123c.078-.011.134.045.145.112.011.067-.045.134-.112.145l-1.017.123h-.023zm3.377-.413c-.067 0-.123-.045-.123-.112-.011-.067.045-.134.112-.146l1.017-.123c.078-.011.134.045.146.112.011.067-.045.134-.112.146l-1.018.123h-.022zm3.376-.492c-.055 0-.1-.034-.122-.09-.023-.067.011-.134.078-.168a3.54 3.54 0 00.872-.447c.056-.044.134-.022.179.034.044.056.022.134-.034.179-.29.201-.604.369-.939.48-.011.012-.022.012-.034.012zm-43.514-.425c-.067 0-.112-.045-.123-.112l-.168-1.006a.125.125 0 01.246-.045l.168 1.006a.128.128 0 01-.101.146c-.011.011-.011.011-.022.011zm45.806-1.923c-.011 0-.022 0-.033-.011a.121.121 0 01-.078-.157c.1-.313.156-.637.156-.972 0-.067.056-.123.123-.123s.123.056.123.134a3.614 3.614 0 01-.179 1.04c0 .055-.056.089-.112.089zm-46.343-1.442c-.067 0-.112-.045-.123-.112l-.168-1.006a.125.125 0 01.246-.045l.168 1.006a.127.127 0 01-.1.146c-.012.011-.023.011-.023.011zm46.522-1.957a.124.124 0 01-.123-.123c0-.335-.011-.67-.011-1.017 0-.067.056-.134.123-.134.078-.011.134.056.134.123.012.346.012.693.012 1.028 0 .068-.056.123-.135.123zm-47.07-1.408c-.067 0-.111-.045-.123-.112l-.167-1.006a.125.125 0 01.246-.045l.167 1.006a.127.127 0 01-.1.146c-.012.011-.011.011-.023.011zm46.97-2.001a.124.124 0 01-.123-.123c-.023-.336-.034-.671-.056-1.018 0-.067.045-.134.123-.134.089 0 .134.045.134.123.022.347.045.693.056 1.029 0 .067-.056.123-.134.123.011 0 .011 0 0 0zm-47.506-1.364c-.067 0-.112-.045-.123-.112l-.168-1.006a.128.128 0 01.101-.146.126.126 0 01.145.101l.168 1.006a.128.128 0 01-.101.146c-.011.011-.022.011-.022.011zm47.26-2.035c-.067 0-.123-.045-.123-.112l-.101-1.017c-.011-.067.045-.134.112-.145.067-.012.134.044.145.111.034.347.079.682.112 1.018a.118.118 0 01-.112.134c-.022.011-.022.011-.033.011zm-47.808-1.33c-.067 0-.112-.045-.123-.112l-.179-1.14.939-.123c.067-.011.134.044.145.111.012.068-.044.135-.111.146l-.671.089.145.883a.126.126 0 01-.1.146h-.045zm3.019-1.42c-.068 0-.123-.045-.123-.112-.012-.067.044-.134.111-.145l1.018-.134c.078-.011.134.044.145.111.011.068-.045.135-.112.146l-1.017.134h-.022zm3.376-.436c-.067 0-.123-.045-.123-.112-.011-.067.045-.134.112-.145l1.017-.134c.079-.011.134.044.146.112.011.067-.045.134-.112.145l-1.018.134h-.022zm40.999-.201c-.067 0-.112-.045-.123-.112-.056-.335-.1-.671-.156-1.006a.126.126 0 01.1-.146c.079-.011.134.034.146.101l.167 1.017a.126.126 0 01-.112.146h-.022zm-37.611-.224c-.067 0-.123-.045-.123-.112-.011-.067.045-.134.112-.145l1.017-.134c.078-.011.134.045.145.112.012.067-.044.134-.111.145l-1.018.134h-.022zm3.376-.436c-.067 0-.123-.045-.123-.112-.011-.067.045-.134.112-.145l1.018-.134c.078-.011.134.045.145.112.011.067-.045.134-.112.145l-1.017.134h-.023zm3.388-.436c-.067 0-.123-.045-.123-.112-.011-.067.045-.134.112-.145l1.017-.134c.079-.011.134.045.146.112.011.067-.045.134-.112.145l-1.018.134h-.022zm3.377-.425c-.068 0-.123-.044-.123-.111-.012-.068.044-.135.111-.146l1.018-.134c.078-.011.134.045.145.112.011.067-.045.134-.112.145l-1.017.134h-.022zm3.387-.436c-.067 0-.123-.044-.123-.111-.011-.068.045-.135.112-.146l1.017-.134c.079-.011.135.045.146.112.011.067-.045.134-.112.145l-1.017.134h-.023zm3.377-.436c-.067 0-.123-.044-.123-.111-.011-.068.044-.135.112-.146l1.017-.134c.078-.011.134.045.145.112.012.067-.044.134-.111.145l-1.018.134h-.022zm3.387-.436c-.067 0-.123-.044-.123-.111-.011-.068.045-.135.112-.146l1.018-.134c.078-.011.134.045.145.112.011.067-.045.134-.112.145l-1.017.134h-.023zm3.377-.424c-.067 0-.123-.045-.123-.112-.011-.067.045-.134.112-.146l1.017-.134c.078-.011.134.045.146.112.011.067-.045.134-.112.145l-1.018.135h-.022zm13.327-.09a.131.131 0 01-.123-.101c-.078-.335-.145-.659-.235-.994-.011-.068.023-.135.09-.157.067-.022.134.022.156.089.079.336.157.671.235.995a.145.145 0 01-.1.157c-.012 0-.012.011-.023.011zm-9.939-.346c-.067 0-.123-.045-.123-.112-.011-.067.044-.134.112-.146l1.017-.134c.078-.011.134.045.145.112.011.067-.044.134-.112.145l-1.017.135h-.022zm3.376-.436c-.067 0-.123-.045-.123-.112-.011-.067.045-.134.112-.146l1.017-.134c.079-.011.135.045.146.112.011.067-.045.134-.112.145l-1.017.135h-.023zm3.388-.425c-.067 0-.123-.045-.123-.112-.011-.067.045-.134.112-.145l1.017-.135c.078-.011.134.045.146.112.011.067-.045.134-.112.146l-1.018.134h-.022z" fill="#fff"/><path d="M193.94 210.59l-.045-1.263a.973.973 0 01.66-.659c1.185-.347 4.148-1.074 5.725-.179l.402 1.431-6.742.67z" fill="url(#paint31_linear)"/><path d="M197.563 208.902a1.774 1.774 0 01-.838.101.771.771 0 01-.671-.66l-.503-3.913 1.99-.257.503 3.913a.765.765 0 01-.481.816z" fill="url(#paint32_linear)"/><path d="M213.25 208.12l-.045-1.263a.98.98 0 01.66-.66c1.185-.346 4.148-1.073 5.725-.178l.402 1.43-6.742.671z" fill="url(#paint33_linear)"/><path d="M216.872 206.433a1.78 1.78 0 01-.839.1.771.771 0 01-.671-.659l-.559-4.326 1.991-.257.559 4.326a.768.768 0 01-.481.816z" fill="url(#paint34_linear)"/><path d="M195.473 205.426l21.344-3.454c.492-.079.861-.481.883-.973.034-.682.011-1.699-.279-2.727-.324-1.163-1.454-1.912-2.661-1.789-4.014.414-14.188 1.721-19.521 4.661-.56.314-.94.872-1.007 1.51-.067.603-.067 1.408.224 2.18a.928.928 0 001.017.592z" fill="url(#paint35_linear)"/><path d="M194.948 204.598a.356.356 0 01-.336-.268 5.114 5.114 0 01-.078-1.721 2.079 2.079 0 011.208-1.588c1.162-.503 3.388-1.408 5.277-1.699a.352.352 0 01.392.279.343.343 0 01-.28.392c-1.878.29-4.193 1.252-5.11 1.654-.436.19-.738.593-.805 1.051-.101.715.067 1.464.067 1.476a.342.342 0 01-.257.413c-.022.011-.056.011-.078.011z" fill="url(#paint36_linear)"/><path d="M183.922 211.373c6.91-.973 36.84-5.12 45.673-5.187.76 0 1.442.469 1.699 1.173.816 2.259 2.538 7.524 3.097 12.89.079.727-.38 1.409-1.084 1.644l-19.387 6.305-7.055.905-21.702-1.498a1.676 1.676 0 01-1.531-1.364c-.481-2.671-1.51-8.965-1.297-13.124a1.87 1.87 0 011.587-1.744z" fill="url(#paint37_linear)"/><path d="M206.843 227.505l-1.051-.067c-.067 0-.123-.067-.123-.134s.067-.123.134-.123l1.018.067.547-.067c.079-.012.135.044.146.111.011.067-.045.135-.112.146l-.559.067zm-3.421-.235l-1.029-.067c-.067 0-.123-.067-.123-.134s.067-.123.134-.123l1.018.067c.067 0 .123.067.123.134a.124.124 0 01-.123.123zm6.339-.145c-.067 0-.123-.045-.123-.112-.011-.067.045-.134.112-.145l1.017-.135c.079-.011.135.045.146.112.011.067-.045.134-.112.146l-1.018.134h-.022zm-9.738-.09s-.011 0 0 0l-1.029-.067c-.067 0-.123-.067-.123-.134s.067-.123.134-.123l1.018.067c.067 0 .123.067.123.134a.124.124 0 01-.123.123zm-3.399-.234c-.011 0-.011 0 0 0l-1.029-.068c-.067 0-.123-.067-.123-.134s.067-.123.135-.123l1.017.067c.067 0 .123.067.123.135a.124.124 0 01-.123.123zm16.525-.112c-.067 0-.123-.045-.123-.112-.011-.067.045-.134.112-.145l.402-.056.559-.179a.122.122 0 01.157.078.122.122 0 01-.079.157l-.581.19-.425.056c-.011.011-.022.011-.022.011zm-19.924-.123c-.011 0-.011 0 0 0l-1.029-.067c-.067 0-.123-.067-.123-.134 0-.068.068-.112.135-.123l1.017.067c.067 0 .123.067.123.134-.011.067-.067.123-.123.123zm-3.41-.235l-1.029-.067c-.067 0-.123-.067-.123-.134s.067-.112.135-.123l1.017.067c.067 0 .123.067.123.134a.124.124 0 01-.123.123zm-3.399-.235s-.011 0 0 0l-1.028-.067c-.068 0-.123-.067-.123-.134s.078-.112.134-.123l1.017.067c.067 0 .123.067.123.134a.124.124 0 01-.123.123zm29.986-.38c-.056 0-.1-.033-.123-.089a.122.122 0 01.079-.157l.972-.313a.121.121 0 01.157.078.121.121 0 01-.078.157l-.973.313c0 .011-.011.011-.034.011zm3.243-1.051c-.056 0-.101-.033-.123-.089a.121.121 0 01.078-.157l.973-.313a.12.12 0 01.156.079.12.12 0 01-.078.156l-.973.313s-.011.011-.033.011zm-34.705-.939c-.067 0-.112-.044-.123-.111-.056-.325-.1-.66-.156-1.018a.126.126 0 01.112-.145.126.126 0 01.145.112c.056.346.101.693.156 1.006a.125.125 0 01-.1.145c-.023.011-.023.011-.034.011zm37.947-.123c-.056 0-.101-.033-.123-.089a.122.122 0 01.078-.157l.973-.313a.122.122 0 01.157.079.12.12 0 01-.079.156l-.972.313c0 .011-.012.011-.034.011zm3.254-1.05c-.056 0-.101-.034-.123-.09a.12.12 0 01.078-.156l.973-.313a.12.12 0 01.156.078.12.12 0 01-.078.156l-.973.313c-.011.012-.022.012-.033.012zm3.242-1.051c-.056 0-.101-.034-.123-.09a.12.12 0 01.078-.156l.973-.313a.12.12 0 01.156.078.121.121 0 01-.078.157l-.973.313c-.011.011-.022.011-.033.011zm3.242-1.051c-.056 0-.1-.034-.123-.09-.011-.044 0-.1.034-.134-.034-.29-.067-.581-.112-.872-.011-.067.045-.134.112-.145.067-.011.134.045.145.112.045.324.078.648.123.972l.011.101-.145.045c-.022 0-.033.011-.045.011zm-48.154-.101c-.067 0-.123-.044-.123-.111-.045-.336-.079-.671-.123-1.018-.011-.067.044-.134.112-.145.078 0 .134.045.145.112.033.335.078.682.112 1.017.011.067-.045.134-.112.145h-.011zm47.696-3.242a.13.13 0 01-.123-.1c-.067-.336-.134-.671-.201-.995a.146.146 0 01.1-.157c.067-.011.134.034.157.101l.201 1.006a.126.126 0 01-.101.145h-.033zm-48.032-.156a.124.124 0 01-.123-.123c-.022-.347-.044-.693-.056-1.029 0-.067.056-.134.123-.134.079-.011.135.056.135.123.011.336.033.671.055 1.018 0 .089-.055.145-.134.145zm47.283-3.175c-.056 0-.112-.033-.123-.1a59.44 59.44 0 01-.257-.984c-.023-.067.022-.134.089-.157.067-.022.134.023.157.09.089.324.179.648.268.995.022.067-.022.134-.089.156h-.045zm-47.361-.223c-.078 0-.134-.068-.123-.135l.011-.223c.011-.123.101-.224.213-.235l.626-.089a.125.125 0 01.145.111.127.127 0 01-.112.146l-.626.089v.213c-.011.067-.067.123-.134.123zm3.108-.761c-.067 0-.123-.044-.123-.111a.127.127 0 01.112-.146l1.017-.145c.079-.011.135.045.146.112.011.067-.045.134-.112.145l-1.017.145h-.023zm3.377-.458c-.067 0-.123-.045-.123-.112-.011-.067.044-.134.112-.145l1.017-.134c.067-.011.134.044.145.112.012.067-.044.134-.111.145l-1.018.134h-.022zm3.376-.458c-.067 0-.123-.045-.123-.112-.011-.067.045-.134.112-.145l1.018-.135c.067-.011.134.045.145.112.011.067-.045.134-.112.146l-1.017.134h-.023zm3.388-.447c-.067 0-.123-.045-.123-.112-.011-.067.045-.134.112-.146l1.017-.134c.067-.011.134.045.146.112.011.067-.045.134-.112.145l-1.018.135h-.022zm3.377-.448c-.068 0-.123-.044-.123-.111-.012-.067.044-.135.111-.146l1.018-.134c.078-.011.134.045.145.112.011.067-.045.134-.112.145l-1.017.134h-.022zm3.41-.424l-.034-.258 1.006-.123c.067-.011.134.045.146.112.011.067-.045.134-.112.146l-1.006.123zm26.397-.056c-.056 0-.101-.034-.123-.09-.112-.346-.213-.67-.313-.972a.121.121 0 01.078-.157.122.122 0 01.157.078c.1.302.201.626.313.973.022.067-.012.134-.09.157 0 .011-.011.011-.022.011zm-23.032-.369c-.067 0-.123-.045-.123-.112-.011-.067.045-.134.112-.145l1.017-.123c.067-.011.134.044.146.111.011.068-.045.135-.112.146l-1.018.123h-.022zm3.376-.403c-.067 0-.123-.044-.123-.111-.011-.068.045-.135.112-.146l1.018-.123c.078-.011.134.045.145.112.011.067-.045.134-.112.145l-1.017.123h-.023zm3.388-.391c-.067 0-.123-.045-.123-.112-.011-.067.045-.134.112-.145l1.017-.112c.067-.011.135.045.146.112.011.067-.045.134-.112.145l-1.017.112h-.023zm3.399-.369c-.067 0-.123-.045-.123-.112-.011-.067.045-.134.112-.145l1.017-.101c.067-.011.134.045.146.112.011.067-.045.134-.112.146l-1.018.1h-.022zm3.388-.346c-.067 0-.123-.045-.123-.112a.118.118 0 01.112-.134l1.017-.101a.113.113 0 01.134.112.118.118 0 01-.112.134l-1.017.101h-.011zm3.399-.302a.124.124 0 01-.123-.123c0-.067.044-.134.123-.134.357-.034.693-.056 1.017-.079.078 0 .134.045.134.123 0 .067-.044.135-.123.135-.324.033-.671.055-1.028.078zm3.399-.224a.124.124 0 01-.123-.123c0-.067.055-.134.123-.134.368-.022.704-.033 1.028-.045.067 0 .123.056.123.123s-.056.135-.123.135c-.313.011-.66.033-1.028.044.011 0 0 0 0 0z" fill="#fff"/><path d="M213.65 231.249l-6.183.793a1.617 1.617 0 01-1.766-1.196l-1.476-5.857a1.616 1.616 0 011.364-1.99l7.424-.951a1.605 1.605 0 011.811 1.532l.235 6.014a1.61 1.61 0 01-1.409 1.655z" fill="url(#paint38_linear)"/><path d="M212.747 230.255l-4.708.604a1.217 1.217 0 01-1.341-.917l-1.119-4.46a1.217 1.217 0 011.04-1.509l5.658-.727a1.233 1.233 0 011.387 1.163l.179 4.583c0 .637-.459 1.185-1.096 1.263z" fill="url(#paint39_linear)"/><path d="M209.068 182.855c1.453 6.025 1.498 11.917 1.274 14.063a1.673 1.673 0 01-1.543 1.498c-.916.067-2.18.146-3.298.213-1.23.067-2.605-.705-3.51-1.364-.47-.336-1.074.19-.805.693.447.883 1.229 1.576 2.001 2.158.469.357 2.012.983 1.912 1.676-.034.224-.168.414-.313.582-.861 1.028-2.158 1.587-3.444 1.979-.156.044-.335.1-.447.223-.034.827 2.527 1.755 3.186 1.979.984.324 2.035.469 3.075.358 2.571-.269 4.953-2.046 6.339-4.193 3.701-5.724 5.624-12.632 6.317-17.92-3.454-3.421-8.665-2.549-10.744-1.945z" fill="url(#paint40_linear)"/><path d="M219.799 185.36c2.751-20.761-13.249-36.725-13.249-36.725l-9.514 11.101c7.222 9.011 10.666 17.261 12.231 23.745 2.069-.603 7.089-1.565 10.532 1.879z" fill="url(#paint41_linear)"/><path d="M209.033 183.381a.585.585 0 01-.571-.447c-1.934-7.993-6.015-15.897-12.119-23.51a.585.585 0 01.089-.827.585.585 0 01.827.089c6.217 7.747 10.365 15.808 12.344 23.969a.598.598 0 01-.436.715c-.045.011-.09.011-.134.011z" fill="url(#paint42_linear)"/><path d="M80.124 306.442c0-.1 0-.201-.034-.301-1.531-6.071-9.134-9.849-9.134-9.849l-3.008.235c-1.733 5.343-1.51 8.63-1.23 10.094.011.045.023.079.034.123 2.482.201 7.592.347 13.372-.302z" fill="url(#paint43_linear)"/><path d="M66.75 306.734c.134.492.492.872.95.961 3.533.738 9.146.146 11.505-.167.526-.067.906-.548.906-1.096-5.77.66-10.879.514-13.361.302z" fill="url(#paint44_linear)"/><path d="M66.74 292.032l1.275 6.137c.09.448.436.783.861.828.515.044 1.242.078 1.98-.034.66-.101 1.118-.76.995-1.487l-.884-5.455h-4.226v.011z" fill="url(#paint45_linear)"/><path d="M93.159 306.656c-3.32-.09-5.042-.481-5.937-.85 0 .336 0 .671.011 1.017.011.369.291.671.626.671l18.258-.123c.582 0 .928-.682.671-1.218-2.393.201-8.486.648-13.629.503z" fill="url(#paint46_linear)"/><path d="M106.789 306.153l-.067-.135c-1.61-2.258-5.724-6.74-13.83-8.686L89 297.209s-1.733 3.008-1.767 8.597c.895.369 2.605.76 5.937.85 5.132.145 11.226-.302 13.618-.503z" fill="url(#paint47_linear)"/><path d="M88.094 291.498c.056.29.872 4.65 1.186 6.349.078.403.39.693.76.716.67.033 1.744.044 2.661-.213.503-.134.839-.648.794-1.207l-.436-6.909-4.965 1.264z" fill="url(#paint48_linear)"/><path d="M85.143 210.848s5.355 36.792 9.224 80.581c.067.816-.582 1.521-1.376 1.7-1.185.246-2.918.547-4.349.503a1.603 1.603 0 01-1.532-1.342c-1.319-7.725-10.71-49.156-13.181-58.267 0 0-2.83 38.737-1.924 58.826a.963.963 0 01-.838.995c-.75.09-1.957.157-3.5-.011a1.293 1.293 0 01-1.14-1.084c-.94-6.529-6.34-45.422-6.105-73.438.012-1.576 1.856-14.556 1.856-14.556l22.865 6.093z" fill="url(#paint49_linear)"/><path d="M61.462 212.971a1.52 1.52 0 01-.995-1.275c-.716-6.909-4.16-49.748 17.609-67.367 0 0 1.252-3.264 11.505 4.763 10.264 8.026 4.763 16.444 2.314 28.049-2.974 14.041-8.184 25.522-5.88 34.164a1.197 1.197 0 01-.739 1.431c-7.96 2.94-15.898 3.041-23.814.235z" fill="url(#paint50_linear)"/><path d="M86.573 131.498c-.01.614-8.698 12.956-8.698 12.956s1.565 3.074 9.011 5.567l6.43-13.213-6.743-5.31z" fill="url(#paint51_linear)"/><path d="M93.416 124.421s3.097 7.099 3.298 10.832c.212 3.734 1.006 6.149-3.298 6.898-4.316.749-7.95-1.398-9.917-5.109 0 0-3.086-5.724-2.393-8.071.693-2.337 12.31-4.55 12.31-4.55z" fill="url(#paint52_linear)"/><path d="M84.974 134.371l.246-.112a.595.595 0 00.29-.816c-.603-1.174-1.788-3.868-.256-4.495 1.979-.804 9.794-2.403 11.482-5.176 1.621-2.66.19-6.104-1.979-7.087a.304.304 0 00-.391.123l-.179.335c-.123.235-.47.201-.537-.056a.29.29 0 00-.525-.078c-.514.827-1.923 2.18-5.657 2.862-5.322.984-8.833 3.13-8.923 6.808 0 .235-.257.358-.458.246-.391-.235-1.017-.347-1.856.358-1.465 1.229-.86 4.416 2.337 7.032a.293.293 0 01-.011.469c-.582.38-1.443 1.275.793 2.471 2.315 1.241 4.048 1.14 4.719 1.028.167-.022.268-.19.234-.357l-.715-3.231c-.045-.179.1-.358.29-.358h1.096v.034z" fill="url(#paint53_linear)"/><path d="M85.11 135.052s-1.185-4.538-3.22-3.264c-2.035 1.275 1.05 5.087 2.695 5.254l.525-1.99z" fill="url(#paint54_linear)"/><path d="M92.89 152.816l.603 16.098a46.79 46.79 0 004.864 1.386c.961-3.108 3.085-6.92 4.829-9.759-6.395-2.27-10.297-7.725-10.297-7.725z" fill="url(#paint55_linear)"/><path d="M124.821 152.548c-8.776 9.468-15.876 10.027-21.634 7.993-1.744 2.839-3.868 6.651-4.83 9.759 23.423 5.165 28.946-16.366 28.946-16.366l-2.482-1.386z" fill="url(#paint56_linear)"/><path d="M126.599 151.542s1.006-1.085 2.885-.749c1.878.335 3.533.995 4.696 0 1.163-.995 1.577.335 1.577.335l-3.489 2.649-5.669-2.235z" fill="url(#paint57_linear)"/><path d="M124.508 153.396s.693-2.895 2.784-2.493c2.091.391 6.82 2.974 8.039 2.493 1.219-.469 2.784-1.61 3.578-1.207l-1.409 1.755s3.623-2.091 4.249-.805l-6.038 3.398c.011-.011-8.821-.894-11.203-3.141z" fill="url(#paint58_linear)"/><path d="M83.15 173.878s16.492 13.807 34.303 7.781c1.107-.369 2.314-.291 3.343.257l5.12 2.706a4.578 4.578 0 006.06-1.7c.716-1.185 1.32-2.549 1.443-3.845l-10.018-4.058.738-1.23s-4.886-.414-6.172 3.085c0 0-9.313 3.88-25.033-13.404 0 .011-7.133 6.071-9.783 10.408z" fill="url(#paint59_linear)"/><path d="M82.269 173.744a.254.254 0 01-.157-.045c-6.943-4.695-10.208-12.263-10.241-12.341-.056-.146.011-.313.145-.369.145-.056.313 0 .37.145.033.078 3.242 7.501 10.04 12.095.133.09.167.258.078.392a.292.292 0 01-.235.123z" fill="url(#paint60_linear)"/><path d="M92.61 163.244a.274.274 0 01-.235-.134c-.023-.033-2.147-3.331-6.183-10.564-1.241-2.224-2.873-3.633-4.852-4.192-3.276-.917-6.43.839-6.463.861-.134.078-.313.033-.38-.101-.078-.134-.034-.313.1-.38.135-.078 3.388-1.889 6.888-.916 2.135.592 3.88 2.09 5.199 4.46 4.025 7.221 6.15 10.508 6.16 10.542.09.134.045.301-.09.391-.044.011-.1.033-.145.033z" fill="url(#paint61_linear)"/><defs><linearGradient id="paint0_linear" x1="326.635" y1="340.262" x2="119.038" y2="119.25" gradientUnits="userSpaceOnUse"><stop stop-color="#DAE3FE"/><stop offset="1" stop-color="#E9EFFD"/></linearGradient><linearGradient id="paint1_linear" x1="217.479" y1="189.705" x2="284.108" y2="189.705" gradientUnits="userSpaceOnUse"><stop stop-color="#4F52FF"/><stop offset="1" stop-color="#4042E2"/></linearGradient><linearGradient id="paint2_linear" x1="224.085" y1="236.152" x2="263.363" y2="236.152" gradientUnits="userSpaceOnUse"><stop stop-color="#DAE3FE"/><stop offset="1" stop-color="#E9EFFD"/></linearGradient><linearGradient id="paint3_linear" x1="226.685" y1="88.084" x2="131.716" y2="-109.352" gradientUnits="userSpaceOnUse"><stop stop-color="#4042E2"/><stop offset="1" stop-color="#4F52FF"/></linearGradient><linearGradient id="paint4_linear" x1="177.995" y1="72.841" x2="-75.141" y2="396.81" gradientUnits="userSpaceOnUse"><stop stop-color="#fff"/><stop offset="1"/></linearGradient><linearGradient id="paint5_linear" x1="177.995" y1="72.841" x2="-75.141" y2="396.81" gradientUnits="userSpaceOnUse"><stop stop-color="#fff"/><stop offset="1" stop-color="#fff"/></linearGradient><linearGradient id="paint6_linear" x1="28.174" y1="114.8" x2="54.458" y2="114.8" gradientUnits="userSpaceOnUse"><stop stop-color="#DAE3FE"/><stop offset="1" stop-color="#E9EFFD"/></linearGradient><linearGradient id="paint7_linear" x1="62.174" y1="103.378" x2="173.549" y2="103.378" gradientUnits="userSpaceOnUse"><stop stop-color="#DAE3FE"/><stop offset="1" stop-color="#E9EFFD"/></linearGradient><linearGradient id="paint8_linear" x1="64.216" y1="121.256" x2="138.974" y2="121.256" gradientUnits="userSpaceOnUse"><stop stop-color="#DAE3FE"/><stop offset="1" stop-color="#E9EFFD"/></linearGradient><linearGradient id="paint9_linear" x1="28.174" y1="165.907" x2="54.458" y2="165.907" gradientUnits="userSpaceOnUse"><stop stop-color="#DAE3FE"/><stop offset="1" stop-color="#E9EFFD"/></linearGradient><linearGradient id="paint10_linear" x1="62.174" y1="154.485" x2="173.549" y2="154.485" gradientUnits="userSpaceOnUse"><stop stop-color="#DAE3FE"/><stop offset="1" stop-color="#E9EFFD"/></linearGradient><linearGradient id="paint11_linear" x1="28.174" y1="217.013" x2="54.458" y2="217.013" gradientUnits="userSpaceOnUse"><stop stop-color="#DAE3FE"/><stop offset="1" stop-color="#E9EFFD"/></linearGradient><linearGradient id="paint12_linear" x1="62.174" y1="205.591" x2="173.549" y2="205.591" gradientUnits="userSpaceOnUse"><stop stop-color="#DAE3FE"/><stop offset="1" stop-color="#E9EFFD"/></linearGradient><linearGradient id="paint13_linear" x1="64.216" y1="223.469" x2="138.974" y2="223.469" gradientUnits="userSpaceOnUse"><stop stop-color="#DAE3FE"/><stop offset="1" stop-color="#E9EFFD"/></linearGradient><linearGradient id="paint14_linear" x1="152.168" y1="205.996" x2="117.181" y2="295.582" gradientUnits="userSpaceOnUse"><stop stop-color="#09005D"/><stop offset="1" stop-color="#1A0F91"/></linearGradient><linearGradient id="paint15_linear" x1="126.574" y1="180.998" x2="120.34" y2="182.222" gradientUnits="userSpaceOnUse"><stop stop-color="#FEBBBA"/><stop offset="1" stop-color="#FF928E"/></linearGradient><linearGradient id="paint16_linear" x1="121.32" y1="174.736" x2="150.247" y2="174.736" gradientUnits="userSpaceOnUse"><stop stop-color="#FEBBBA"/><stop offset="1" stop-color="#FF928E"/></linearGradient><linearGradient id="paint17_linear" x1="207.146" y1="77.657" x2="189.528" y2="112.4" gradientUnits="userSpaceOnUse"><stop stop-color="#09005D"/><stop offset="1" stop-color="#1A0F91"/></linearGradient><linearGradient id="paint18_linear" x1="235.28" y1="91.924" x2="217.662" y2="126.667" gradientUnits="userSpaceOnUse"><stop stop-color="#09005D"/><stop offset="1" stop-color="#1A0F91"/></linearGradient><linearGradient id="paint19_linear" x1="186.043" y1="145.807" x2="181.406" y2="131.893" gradientUnits="userSpaceOnUse"><stop stop-color="#FEBBBA"/><stop offset="1" stop-color="#FF928E"/></linearGradient><linearGradient id="paint20_linear" x1="175.209" y1="128.731" x2="191.88" y2="135.98" gradientUnits="userSpaceOnUse"><stop stop-color="#FEBBBA"/><stop offset="1" stop-color="#FF928E"/></linearGradient><linearGradient id="paint21_linear" x1="187.264" y1="138.72" x2="173.616" y2="124.22" gradientUnits="userSpaceOnUse"><stop stop-color="#09005D"/><stop offset="1" stop-color="#1A0F91"/></linearGradient><linearGradient id="paint22_linear" x1="174.168" y1="131.122" x2="190.841" y2="138.372" gradientUnits="userSpaceOnUse"><stop stop-color="#FEBBBA"/><stop offset="1" stop-color="#FF928E"/></linearGradient><linearGradient id="paint23_linear" x1="206.869" y1="307.05" x2="186.149" y2="307.05" gradientUnits="userSpaceOnUse"><stop stop-color="#4042E2"/><stop offset="1" stop-color="#4F52FF"/></linearGradient><linearGradient id="paint24_linear" x1="256.879" y1="287.666" x2="181.858" y2="309.052" gradientUnits="userSpaceOnUse"><stop stop-color="#09005D"/><stop offset="1" stop-color="#1A0F91"/></linearGradient><linearGradient id="paint25_linear" x1="204.958" y1="297.32" x2="199.121" y2="297.32" gradientUnits="userSpaceOnUse"><stop stop-color="#FEBBBA"/><stop offset="1" stop-color="#FF928E"/></linearGradient><linearGradient id="paint26_linear" x1="248.174" y1="306.602" x2="240.233" y2="306.602" gradientUnits="userSpaceOnUse"><stop stop-color="#4042E2"/><stop offset="1" stop-color="#4F52FF"/></linearGradient><linearGradient id="paint27_linear" x1="215.055" y1="283.321" x2="261.804" y2="313.767" gradientUnits="userSpaceOnUse"><stop stop-color="#09005D"/><stop offset="1" stop-color="#1A0F91"/></linearGradient><linearGradient id="paint28_linear" x1="242.059" y1="292.455" x2="235.083" y2="292.455" gradientUnits="userSpaceOnUse"><stop stop-color="#FEBBBA"/><stop offset="1" stop-color="#FF928E"/></linearGradient><linearGradient id="paint29_linear" x1="243.041" y1="302.697" x2="136.625" y2="155.556" gradientUnits="userSpaceOnUse"><stop stop-color="#09005D"/><stop offset="1" stop-color="#1A0F91"/></linearGradient><linearGradient id="paint30_linear" x1="217.427" y1="283.54" x2="209.197" y2="224.348" gradientUnits="userSpaceOnUse"><stop stop-color="#FF928E"/><stop offset="1" stop-color="#FE7062"/></linearGradient><linearGradient id="paint31_linear" x1="197.841" y1="213.39" x2="196.67" y2="206.508" gradientUnits="userSpaceOnUse"><stop stop-color="#E1473D"/><stop offset="1" stop-color="#E9605A"/></linearGradient><linearGradient id="paint32_linear" x1="196.15" y1="203.049" x2="200.114" y2="222.693" gradientUnits="userSpaceOnUse"><stop stop-color="#E1473D"/><stop offset="1" stop-color="#E9605A"/></linearGradient><linearGradient id="paint33_linear" x1="217.015" y1="210.129" x2="215.844" y2="203.247" gradientUnits="userSpaceOnUse"><stop stop-color="#E1473D"/><stop offset="1" stop-color="#E9605A"/></linearGradient><linearGradient id="paint34_linear" x1="215.196" y1="199.209" x2="219.16" y2="218.852" gradientUnits="userSpaceOnUse"><stop stop-color="#E1473D"/><stop offset="1" stop-color="#E9605A"/></linearGradient><linearGradient id="paint35_linear" x1="206.043" y1="190.568" x2="205.926" y2="204.933" gradientUnits="userSpaceOnUse"><stop stop-color="#E1473D"/><stop offset="1" stop-color="#E9605A"/></linearGradient><linearGradient id="paint36_linear" x1="197.758" y1="200.561" x2="191.184" y2="163.215" gradientUnits="userSpaceOnUse"><stop stop-color="#FEBBBA"/><stop offset="1" stop-color="#FF928E"/></linearGradient><linearGradient id="paint37_linear" x1="208.03" y1="201.49" x2="209.407" y2="268.286" gradientUnits="userSpaceOnUse"><stop stop-color="#FF928E"/><stop offset="1" stop-color="#FE7062"/></linearGradient><linearGradient id="paint38_linear" x1="209.582" y1="209.556" x2="209.622" y2="231.947" gradientUnits="userSpaceOnUse"><stop stop-color="#E1473D"/><stop offset="1" stop-color="#E9605A"/></linearGradient><linearGradient id="paint39_linear" x1="205.836" y1="227.609" x2="213.925" y2="226.573" gradientUnits="userSpaceOnUse"><stop stop-color="#FF928E"/><stop offset="1" stop-color="#FE7062"/></linearGradient><linearGradient id="paint40_linear" x1="214.634" y1="186.222" x2="198.842" y2="216.594" gradientUnits="userSpaceOnUse"><stop stop-color="#FEBBBA"/><stop offset="1" stop-color="#FF928E"/></linearGradient><linearGradient id="paint41_linear" x1="246.438" y1="97.582" x2="228.82" y2="132.325" gradientUnits="userSpaceOnUse"><stop stop-color="#09005D"/><stop offset="1" stop-color="#1A0F91"/></linearGradient><linearGradient id="paint42_linear" x1="252.084" y1="115.32" x2="152.053" y2="228.467" gradientUnits="userSpaceOnUse"><stop stop-color="#4042E2"/><stop offset="1" stop-color="#4F52FF"/></linearGradient><linearGradient id="paint43_linear" x1="66.53" y1="301.6" x2="80.122" y2="301.6" gradientUnits="userSpaceOnUse"><stop stop-color="#09005D"/><stop offset="1" stop-color="#1A0F91"/></linearGradient><linearGradient id="paint44_linear" x1="100.555" y1="285.569" x2="51.113" y2="324.397" gradientUnits="userSpaceOnUse"><stop stop-color="#4042E2"/><stop offset="1" stop-color="#4F52FF"/></linearGradient><linearGradient id="paint45_linear" x1="70.31" y1="286.127" x2="67.715" y2="308.783" gradientUnits="userSpaceOnUse"><stop stop-color="#A22B25"/><stop offset="1" stop-color="#C0423C"/></linearGradient><linearGradient id="paint46_linear" x1="109.34" y1="296.737" x2="59.896" y2="335.566" gradientUnits="userSpaceOnUse"><stop stop-color="#4042E2"/><stop offset="1" stop-color="#4F52FF"/></linearGradient><linearGradient id="paint47_linear" x1="87.227" y1="301.946" x2="106.792" y2="301.946" gradientUnits="userSpaceOnUse"><stop stop-color="#09005D"/><stop offset="1" stop-color="#1A0F91"/></linearGradient><linearGradient id="paint48_linear" x1="91.103" y1="288.522" x2="89.938" y2="311.296" gradientUnits="userSpaceOnUse"><stop stop-color="#A22B25"/><stop offset="1" stop-color="#C0423C"/></linearGradient><linearGradient id="paint49_linear" x1="69.591" y1="312.036" x2="88.81" y2="171.38" gradientUnits="userSpaceOnUse"><stop stop-color="#4F52FF"/><stop offset="1" stop-color="#4042E2"/></linearGradient><linearGradient id="paint50_linear" x1="344.477" y1="-172.471" x2="274.244" y2="-78.837" gradientUnits="userSpaceOnUse"><stop stop-color="#FF928E"/><stop offset="1" stop-color="#FE7062"/></linearGradient><linearGradient id="paint51_linear" x1="78.183" y1="157.292" x2="92.159" y2="125.841" gradientUnits="userSpaceOnUse"><stop stop-color="#A22B25"/><stop offset="1" stop-color="#C0423C"/></linearGradient><linearGradient id="paint52_linear" x1="73.555" y1="108.054" x2="93.405" y2="138.33" gradientUnits="userSpaceOnUse"><stop stop-color="#A22B25"/><stop offset="1" stop-color="#C0423C"/></linearGradient><linearGradient id="paint53_linear" x1="75.413" y1="113.347" x2="90.321" y2="130.809" gradientUnits="userSpaceOnUse"><stop stop-color="#09005D"/><stop offset="1" stop-color="#1A0F91"/></linearGradient><linearGradient id="paint54_linear" x1="68.363" y1="111.458" x2="88.213" y2="141.736" gradientUnits="userSpaceOnUse"><stop stop-color="#A22B25"/><stop offset="1" stop-color="#C0423C"/></linearGradient><linearGradient id="paint55_linear" x1="185.95" y1="69.876" x2="103.815" y2="153.264" gradientUnits="userSpaceOnUse"><stop stop-color="#FF928E"/><stop offset="1" stop-color="#FE7062"/></linearGradient><linearGradient id="paint56_linear" x1="136.398" y1="151.192" x2="98.467" y2="170.063" gradientUnits="userSpaceOnUse"><stop stop-color="#A22B25"/><stop offset="1" stop-color="#C0423C"/></linearGradient><linearGradient id="paint57_linear" x1="135.843" y1="146.46" x2="122.871" y2="160.013" gradientUnits="userSpaceOnUse"><stop stop-color="#A22B25"/><stop offset="1" stop-color="#C0423C"/></linearGradient><linearGradient id="paint58_linear" x1="136.578" y1="150.967" x2="98.648" y2="169.838" gradientUnits="userSpaceOnUse"><stop stop-color="#A22B25"/><stop offset="1" stop-color="#C0423C"/></linearGradient><linearGradient id="paint59_linear" x1="152.429" y1="182.981" x2="42.346" y2="163.073" gradientUnits="userSpaceOnUse"><stop stop-color="#A22B25"/><stop offset="1" stop-color="#C0423C"/></linearGradient><linearGradient id="paint60_linear" x1="113.348" y1="99.114" x2="13.98" y2="286.713" gradientUnits="userSpaceOnUse"><stop stop-color="#E1473D"/><stop offset="1" stop-color="#E9605A"/></linearGradient><linearGradient id="paint61_linear" x1="113.694" y1="99.296" x2="14.326" y2="286.895" gradientUnits="userSpaceOnUse"><stop stop-color="#E1473D"/><stop offset="1" stop-color="#E9605A"/></linearGradient></defs></svg>