<svg width="72" height="72" viewBox="0 0 72 72" fill="none" xmlns="http://www.w3.org/2000/svg"><path d="M41.1 9.345h0a1.467 1.467 0 00-1.999-.56h0l-.067.039s0 0 0 0a1.467 1.467 0 001.438 2.557h0l.068-.038a1.467 1.467 0 00.56-1.998z" fill="#FF4A35" stroke="#FF4A35" stroke-width=".2"/><path d="M45.03 9.495h0a20.46 20.46 0 015.462-.739h7.11c.81 0 1.467-.657 1.467-1.467v-1.38l8.489 8.49-8.49 8.489v-1.38c0-.81-.656-1.467-1.466-1.467h-7.11c-5.03 0-9.123 4.092-9.123 9.123v17.392A23.489 23.489 0 0030.084 36.39v-7.226c0-5.638 2.249-10.885 6.332-14.776a1.468 1.468 0 00.05-2.074l-.073.069.072-.07a1.467 1.467 0 00-2.074-.049c-4.67 4.45-7.241 10.452-7.241 16.9v6.202a23.285 23.285 0 00-6.189-.833h-5.095v-3.455a1.468 1.468 0 00-2.505-1.037h0L1.33 42.07a1.467 1.467 0 000 2.076h0l12.03 12.032.07-.07-.07.07a1.467 1.467 0 002.505-1.037v-3.455h5.095a6.196 6.196 0 016.189 6.189v11.758c0 .81.657 1.467 1.467 1.467h14.219c.81 0 1.467-.657 1.467-1.467V29.164a6.196 6.196 0 016.19-6.189h5.642v3.455a1.467 1.467 0 002.504 1.037L70.67 15.436a1.467 1.467 0 000-2.075L58.64 1.33a1.467 1.467 0 00-1.6-.318v0a1.467 1.467 0 00-.905 1.355v3.455h-5.643c-2.12 0-4.22.284-6.245.845l.026.096-.026-.096a1.467 1.467 0 00.783 2.828zm-3.661 58.67H37.74v-9.049a1.467 1.467 0 00-2.935 0v9.05h-4.722v-10.29c0-5.032-4.092-9.124-9.123-9.124h-6.563c-.81 0-1.467.656-1.467 1.467v1.38l-8.489-8.49 8.49-8.489V36c0 .81.656 1.467 1.466 1.467h6.563c11.253 0 20.408 9.155 20.408 20.408v10.29z" fill="#585CE9" stroke="#585CE9" stroke-width=".2"/><path d="M37.31 52.8a1.472 1.472 0 00-1.037-.43c-.385 0-.764.156-1.037.43-.273.274-.43.65-.43 1.038 0 .386.157.764.43 1.037.273.273.651.43 1.037.43.387 0 .765-.157 1.038-.43s.43-.651.43-1.037c0-.388-.157-.764-.43-1.038z" fill="#FF4A35" stroke="#FF4A35" stroke-width=".2"/></svg>