<svg width="70" height="70" viewBox="0 0 70 70" fill="none" xmlns="http://www.w3.org/2000/svg"><path d="M.34 32.347l.01.014.002.001L33.985 69.55c.25.277.63.45 1.014.45a1.39 1.39 0 001.014-.45l33.633-37.188.001-.002.011-.013c.438-.498.45-1.23.052-1.74l-.01-.016L58.761 16.92a1.367 1.367 0 00-1.068-.513h-45.39c-.416 0-.809.19-1.068.513L.298 30.591l-.01.016a1.367 1.367 0 00.052 1.74zm27.23-13.206h14.858l6.562 10.937H21.007l6.563-10.937zm-6.88 13.672h28.617L35 65.245 20.69 32.813zm31.606 0h13.256l-25.88 28.614 12.624-28.614zm-34.595 0l12.625 28.614-25.88-28.614H17.7zm48.086-2.735H52.179l-6.562-10.937h11.42l8.75 10.937zM12.96 19.141h11.42l-6.562 10.937H4.21l8.75-10.937z" fill="#585CE9"/><path d="M43.202 35.547a1.368 1.368 0 10.001 2.735 1.368 1.368 0 000-2.735zm-5.469 0H27.586a1.367 1.367 0 100 2.734h10.147a1.367 1.367 0 100-2.734zm-2.734-24.609c.755 0 1.367-.613 1.367-1.368V1.367a1.367 1.367 0 10-2.734 0V9.57c0 .755.612 1.367 1.367 1.367zm9.17-.401l5.469-5.469a1.367 1.367 0 00-1.934-1.933l-5.469 5.468a1.367 1.367 0 001.934 1.934zm-18.339 0a1.367 1.367 0 001.933-1.934l-5.469-5.468a1.367 1.367 0 00-1.934 1.933l5.47 5.469z" fill="#FF4A35"/></svg>