<svg width="367" height="366" viewBox="0 0 367 366" fill="none" xmlns="http://www.w3.org/2000/svg"><path d="M320.956 312.922c-7.436 7.813-14.468 12.844-20.015 16.822-65.307 46.774-142.581 33.137-159.002 29.809-24.247-4.914-71.127-14.417-105.024-54.21-51.268-60.19-43.286-155.025-3.516-217.633 7.28-11.453 45.708-75.01 123.815-85.202 47.271-6.162 102.368 6.266 142.268 39.65 83.759 70.057 77.795 211.588 21.474 270.764z" fill="url(#paint0_linear)"/><path d="M7.433 124.188a1.074 1.074 0 01-.612-.936c0-1.352.013-2.73.065-4.082a1.01 1.01 0 011.068-.962c1.38.065.911 1.404.924 5.07 0 .559-.455 1.001-1.028 1.001-.144 0-.287-.039-.417-.091zm.767-17.68a96.34 96.34 0 011.616-7.657c.143-.546.69-.858 1.25-.715 1.497.403.443 1.183-.834 8.736-.09.546-.625.91-1.185.806a1.015 1.015 0 01-.846-1.17zm5.522-19.734a101.435 101.435 0 013.152-7.15c.599-1.235 2.435-.273 1.862.91a102.192 102.192 0 00-3.1 7.007c-.208.52-.807.767-1.328.56-.534-.222-.794-.807-.586-1.327zm9.467-18.16a103.136 103.136 0 014.584-6.345c.834-1.053 2.462.208 1.641 1.261a95.334 95.334 0 00-4.492 6.214c-.743 1.105-2.462-.026-1.733-1.13zm13.1-14.392a1.007 1.007 0 01-.012-1.43 101.603 101.603 0 015.82-5.265c1.03-.858 2.384.702 1.342 1.56a93.15 93.15 0 00-5.704 5.161c-.39.39-1.041.377-1.445-.026zm15.849-12.818A1.008 1.008 0 0152.424 40a98.778 98.778 0 016.811-3.965c1.185-.624 2.188 1.157 1.003 1.781a103.778 103.778 0 00-6.68 3.887 1.043 1.043 0 01-1.42-.299zm18.752-8.8a1.024 1.024 0 01-.534-.56 1 1 0 01.573-1.313 96.032 96.032 0 017.514-2.509 1.043 1.043 0 011.289.69.995.995 0 01-.677 1.26 97.706 97.706 0 00-7.358 2.47 1.08 1.08 0 01-.807-.039zm19.872-5.292a1.024 1.024 0 01-.586-.754.993.993 0 01.833-1.157 100.5 100.5 0 017.892-.949 1.053 1.053 0 011.133.923 1 1 0 01-.925 1.092 96.58 96.58 0 00-7.735.936 1.194 1.194 0 01-.612-.09zm20.028-2.145a.999.999 0 011.055-.962c2.643.117 5.326.338 7.956.663 1.355.17 1.133 2.171-.221 2.015a104.541 104.541 0 00-7.8-.65 1.048 1.048 0 01-.99-1.066zm64.317 26.572c-5.821-5.135-7.214-5.148-6.277-6.37.339-.442.99-.52 1.446-.182a104.867 104.867 0 016.198 5.044c1.003.91-.351 2.405-1.367 1.508zm-43.781-23.777c.13-.546.69-.87 1.237-.728 2.579.65 5.157 1.404 7.683 2.236 1.303.43.664 2.353-.625 1.911-2.474-.819-5-1.56-7.527-2.197a1.013 1.013 0 01-.768-1.222zm27.073 11.83c-6.732-3.86-8.113-3.6-7.448-4.992.416-.884 1.497-.468 1.367-.468a107.971 107.971 0 017.097 3.705c.495.286.664.91.391 1.391a1.026 1.026 0 01-1.407.364zm28.363 24.076c-2.188-2.69-3.581-3.64-2.54-4.537a1.048 1.048 0 011.459.117c2.37 2.691 3.581 3.77 2.526 4.59-.312.246-1.094.26-1.445-.17zm22.281 75.465a1.03 1.03 0 01-.599-1.053c.169-1.326.299-2.665.417-3.978a1.01 1.01 0 011.107-.91c.56.052.989.546.937 1.105-.117 1.352-.26 2.717-.43 4.056-.065.559-.586.936-1.146.858a.593.593 0 01-.286-.078zM64.38 214.265a103.688 103.688 0 01-7.566-4.121c-.495-.299-.652-.923-.365-1.391.82-1.339 1.302 0 8.829 3.718.508.247.73.858.482 1.365-.43.858-1.498.429-1.38.429zm12.28 4.069c.494-1.482 1.315-.26 9.388 1.755.56.13.899.689.769 1.235-.13.546-.69.871-1.237.728a103.273 103.273 0 01-8.257-2.431c-.546-.182-.846-.767-.664-1.287zm-31.32-16.185a98.907 98.907 0 01-6.484-5.655.996.996 0 01-.04-1.43c1.108-1.131 1.277.286 7.814 5.525.443.351.521.988.17 1.43a1.047 1.047 0 01-1.46.13zm53.665 22.295c-.39-.182-.65-.585-.599-1.027.053-.559.56-.949 1.12-.897 2.787.312 5.613.507 8.4.585a1.03 1.03 0 011.015 1.04c0 .559-.468 1.001-1.041.988a105 105 0 01-8.569-.598c-.117-.013-.221-.052-.326-.091zm22.268.039a1.053 1.053 0 01-.599-.806 1.002 1.002 0 01.899-1.118 98.927 98.927 0 008.295-1.248 1.047 1.047 0 011.224.806.989.989 0 01-.794 1.183c-2.787.533-5.639.962-8.465 1.274a.987.987 0 01-.56-.091zm21.643-4.758a1.056 1.056 0 01-.547-.585.986.986 0 01.626-1.287 97.217 97.217 0 007.787-3.003 1.058 1.058 0 011.367.52 1.001 1.001 0 01-.508 1.339 96.201 96.201 0 01-7.943 3.055 1.075 1.075 0 01-.782-.039zm19.99-9.308a.916.916 0 01-.443-.39 1.004 1.004 0 01.312-1.391 95 95 0 006.902-4.602 1.054 1.054 0 011.446.221 1 1 0 01-.196 1.417 102.135 102.135 0 01-7.045 4.706 1.077 1.077 0 01-.976.039zm17.085-13.624c-1.133-1.131.299-1.235 5.69-7.436.873-1.014 2.449.325 1.576 1.326a95.364 95.364 0 01-5.808 6.123 1.03 1.03 0 01-1.458-.013zm14.064-16.757c-1.355-.858.013-1.274 3.854-8.515.625-1.17 2.462-.221 1.823.962a100.468 100.468 0 01-4.258 7.254c-.299.481-.95.598-1.419.299zm9.845-19.474c-.482-.221-.73-.78-.547-1.274a100.333 100.333 0 002.5-7.865c.143-.533.703-.845 1.263-.702.547.156.873.715.729 1.248a98.567 98.567 0 01-2.552 8.021 1.01 1.01 0 01-1.315.585c-.026.013-.052 0-.078-.013zM29.35 186.198c-2.24-2.795-3.4-3.926-2.319-4.693 1.12-.793 1.628.598 3.92 3.458a.996.996 0 01-.156 1.417c-.443.351-1.081.26-1.446-.182zm13.048-24.7l14.74-.78a65.336 65.336 0 0014.885 14.612c-.43 14.105-1.458 15.067.013 15.678l16.447 6.786a1.218 1.218 0 001.368-.299l9.675-10.803a65.261 65.261 0 0020.849.143l9.91 10.946c.351.39.898.507 1.38.325l16.304-6.552c.482-.195.768-.663.729-1.17l-1.042-14.508a62.025 62.025 0 0014.598-14.391l14.755.988c.52.039.989-.26 1.185-.728l6.615-16.055a1.187 1.187 0 00-.326-1.352l-11.147-9.711a62.285 62.285 0 00-.221-20.514c10.509-9.555 11.889-9.464 11.264-10.907-7.097-15.73-6.537-16.978-8.152-16.9l-14.741.78a65.332 65.332 0 00-14.884-14.612c.429-14.092 1.458-15.067-.013-15.678-16.447-6.46-16.773-7.644-17.815-6.487l-9.662 10.803a65.263 65.263 0 00-20.849-.143C88.483 50.595 88.444 49.1 86.986 49.7c-16.017 6.772-17.15 6.148-17.046 7.721l1.041 14.508A62.035 62.035 0 0056.384 86.32c-14.103-.65-15.328-1.729-15.94-.26-6.263 16.003-7.5 16.354-6.29 17.407l11.148 9.711a62.29 62.29 0 00.221 20.514c-10.47 9.529-11.89 9.464-11.264 10.907 7.084 15.73 6.524 16.978 8.139 16.9z" fill="#91B3FA"/><path d="M92.195 121.315c1.29-9.269 10.014-15.639 19.455-14.209 9.441 1.43 16.083 10.127 14.793 19.383-1.289 9.269-10.014 15.639-19.455 14.209-9.44-1.417-16.07-10.114-14.793-19.383zm19.038-11.206c-7.67-1.157-14.91 3.952-15.978 11.674-1.055 7.605 4.389 14.755 12.15 15.925s14.923-4.069 15.978-11.674c1.068-7.631-4.401-14.755-12.15-15.925z" fill="#BDD0FB"/><path d="M91.44 163.149a46.004 46.004 0 01-6.668-3.77c-.625-.429-.846-1.235-.547-1.885.04-.078.078-.156.13-.221.482-.689 1.446-.845 2.15-.364a42.771 42.771 0 007.747 4.186c20.563 8.489 43.95-.494 52.975-20.033.234-.494.456-1.001.664-1.521 8.543-20.722-1.797-44.434-22.854-53.144-21.018-8.684-45.109.897-53.639 21.554-5.065 12.298-2.018 21.008-2.604 22.269-.625 1.365-2.696 1.053-2.93-.429a42.67 42.67 0 013.386-24.648c15.796-34.229 66.088-32.825 81.167 2.223 4.636 10.79 4.766 22.633.339 33.358a66.713 66.713 0 01-.716 1.651c-4.584 9.932-12.697 17.615-23.024 21.762-10.886 4.381-22.932 4.29-33.91-.247-.56-.247-1.12-.481-1.666-.741z" fill="#BDD0FB"/><path d="M219.786 98.825a35.662 35.662 0 008.869 7.527l.169 8.229c.013.91.794.559 9.884 3.666.846.273.742-.507 5.703-6.812a36.061 36.061 0 0011.603-.936l5.951 5.707c.665.637.964-.169 9.585-4.394a.68.68 0 00.364-.702l-1.158-8.151a35.601 35.601 0 007.539-8.853c7.866-.325 8.595.221 8.869-.637 2.838-9.36 3.516-9.607 2.799-10.14l-6.589-4.94a35.857 35.857 0 00-.938-11.583l5.717-5.94c.638-.664-.169-.963-4.401-9.569-.404-.78-.86-.169-8.868.793a35.658 35.658 0 00-8.869-7.527l-.169-8.229c-.013-.91-.794-.559-9.884-3.666-.833-.273-.729.481-5.704 6.812a36.057 36.057 0 00-11.602.936l-5.951-5.707a.695.695 0 00-.782-.117l-8.803 4.498a.68.68 0 00-.364.702l1.158 8.151a35.602 35.602 0 00-7.539 8.853c-7.866.325-8.595-.22-8.869.637-2.838 9.36-3.516 9.607-2.799 10.14l6.589 4.94a35.857 35.857 0 00.938 11.583c-5.34 5.785-6.238 5.915-5.821 6.708l4.505 8.788c.417.819.912.195 8.868-.767z" fill="#91B3FA"/><path d="M237.028 74.788c.364-5.68 5.274-9.984 10.965-9.62 5.69.364 10.001 5.265 9.636 10.946-.365 5.668-5.287 9.984-10.965 9.62-5.69-.364-10.001-5.265-9.636-10.946zm3.073.208c-.26 3.978 2.774 7.423 6.759 7.683 6.407.416 10.157-7.163 5.912-11.986-4.232-4.81-12.254-2.132-12.671 4.303z" fill="#BDD0FB"/><path d="M195.526 90.87a62.069 62.069 0 01-1.042-4.044 1.036 1.036 0 01.782-1.222c1.393-.299 1.198 1.248 2.214 4.667a1.022 1.022 0 01-.691 1.274.988.988 0 01-1.263-.676zm-2.201-17.68a55.836 55.836 0 011.003-8.373c.26-1.326 2.279-.923 2.005.403-1.471 7.332-.325 9.113-2.031 9.035a1.02 1.02 0 01-.977-1.066zm5.86-19.969a1.018 1.018 0 01-.468-1.365 52.907 52.907 0 014.284-7.267c.781-1.105 2.461.065 1.68 1.17a50.211 50.211 0 00-4.115 6.994c-.443.884-1.511.468-1.381.468zm13.244-17.069a1.125 1.125 0 01-.352-.26 1.026 1.026 0 01.118-1.443 54.355 54.355 0 016.823-4.966 1.019 1.019 0 011.407.338 1.015 1.015 0 01-.339 1.404 52.525 52.525 0 00-6.563 4.784c-.313.26-.742.312-1.094.143zm18.947-10.4a.971.971 0 01-.547-.624 1.015 1.015 0 01.677-1.274 53.95 53.95 0 018.244-1.833 1.028 1.028 0 011.159.871 1.026 1.026 0 01-.873 1.157 51.39 51.39 0 00-7.931 1.755 1.005 1.005 0 01-.729-.052zm20.94-3.016a1.023 1.023 0 011.133-.897c2.8.312 5.586.858 8.295 1.6 1.302.35.768 2.34-.547 1.975a51.81 51.81 0 00-7.982-1.534 1.033 1.033 0 01-.899-1.144zm24.482 9.932c-3.1-2.132-4.467-2.353-3.764-3.549a1.024 1.024 0 011.407-.377 50.275 50.275 0 013.529 2.236c.469.325.586.962.26 1.43-.325.455-.95.585-1.432.26zm22.124 36.166c-.482-3.744-1.224-4.888.13-5.174a1.025 1.025 0 011.211.793c.287 1.352.508 2.73.691 4.121a1.016 1.016 0 01-.886 1.144c-.56.065-1.081-.325-1.146-.884zm-69.278 56.55c.534-1.612 1.745.052 9.051 1.261 1.328.221 1.002 2.249-.339 2.015a54.882 54.882 0 01-8.061-1.989 1.019 1.019 0 01-.651-1.287zm21.083 2.912c-.052-.559.378-1.053.938-1.105 7.448-.611 8.725-2.171 9.128-.507a1.027 1.027 0 01-.755 1.235 52.864 52.864 0 01-8.204 1.313c-.573.039-1.068-.377-1.107-.936zm20.523-5.577c-.794-1.508 1.224-1.222 7.175-5.655 1.081-.806 2.318.832 1.225 1.638a54.035 54.035 0 01-7.019 4.433 1.015 1.015 0 01-1.381-.416zm16.669-13.182c-1.329-1.079.651-1.599 4.388-8.008.677-1.17 2.461-.143 1.771 1.027a55.754 55.754 0 01-4.714 6.825 1.032 1.032 0 01-1.445.156zm9.454-19.929c2.031-7.176 1.016-8.918 2.708-8.71.56.065.964.585.899 1.144a54.036 54.036 0 01-1.641 8.138 1.017 1.017 0 01-1.263.702c-.534-.169-.86-.728-.703-1.274zm-79.28 31.239a57.176 57.176 0 01-3.424-2.392 1.017 1.017 0 01-.196-1.43c.86-1.131 1.719.169 4.727 2.106.482.312.612.936.313 1.417a1.044 1.044 0 01-1.42.299z" fill="#91B3FA"/><path d="M234.814 97.33c-.846-.48-1.016-1.43-.612-2.132.43-.728 1.38-.988 2.097-.559a22.435 22.435 0 004.349 1.924c.339.04 8.152 3.16 17.033-1.378 17.619-9.009 15.536-34.983-3.321-41.054-10.86-3.497-22.476 1.781-27.125 11.87-4.688 10.165.612 15.456-2.63 16.197a1.54 1.54 0 01-1.849-1.144 25.281 25.281 0 01.572-13.494c4.285-13.286 18.622-20.657 31.983-16.354 14.364 4.628 21.695 20.84 15.262 34.801-5.196 11.258-18.27 17.524-30.85 13.481a25.146 25.146 0 01-4.909-2.158z" fill="#BDD0FB"/><path d="M230.608 134.042c-.039-.481-.534-.897-1.354-1.222.898-.494 1.406-1.027 1.354-1.547-.13-1.586-5.144-2.47-11.212-1.976-6.055.494-10.874 2.171-10.743 3.744.039.481.533.897 1.354 1.222-.899.494-1.407 1.027-1.354 1.547.039.481.533.897 1.354 1.222-.899.494-1.407 1.027-1.354 1.547.039.481.533.897 1.354 1.222-.899.494-1.407 1.027-1.354 1.547.052.702 1.067 1.261 2.708 1.638-.026.52-.013 1.079.039 1.703.235 2.912 3.516 5.2 7.866 5.2 4.349 0 8.099-3.12 8.139-6.045a14.086 14.086 0 00-.092-1.911c2.084-.689 3.347-1.534 3.282-2.366-.039-.481-.534-.897-1.354-1.222.898-.494 1.406-1.027 1.354-1.547-.039-.481-.534-.897-1.354-1.222.911-.481 1.406-1.014 1.367-1.534z" fill="url(#paint1_linear)"/><path d="M216.596 143.636c-1.797 0-3.451-.13-4.805-.39a.147.147 0 01-.118-.169.148.148 0 01.17-.117c2.135.403 4.974.494 8.008.247 2.488-.195 4.806-.598 6.72-1.157.078-.026.156.026.182.104.026.078-.026.156-.104.182-1.927.559-4.271.962-6.772 1.17-1.133.078-2.226.13-3.281.13z" fill="url(#paint2_linear)"/><path d="M216.622 140.841c-2.344 0-4.428-.221-5.899-.637a.16.16 0 01-.104-.182.16.16 0 01.182-.104c2.097.598 5.482.78 9.05.494 3.529-.286 6.811-1.001 8.803-1.911.079-.039.157 0 .196.065.039.078 0 .156-.065.195-2.019.923-5.339 1.651-8.894 1.937-1.12.104-2.214.143-3.269.143z" fill="url(#paint3_linear)"/><path d="M216.596 138.072c-2.527 0-4.74-.26-6.225-.754a.14.14 0 01-.091-.182.14.14 0 01.182-.091c2.071.676 5.574.91 9.389.598 3.529-.286 6.811-1.001 8.803-1.911.078-.039.157 0 .196.065.039.078 0 .156-.065.195-2.019.923-5.34 1.651-8.895 1.937a41.663 41.663 0 01-3.294.143z" fill="url(#paint4_linear)"/><path d="M216.622 135.29c-2.005 0-3.828-.156-5.248-.481a.13.13 0 01-.104-.169.13.13 0 01.169-.104c2.136.468 5.196.598 8.413.338 3.49-.286 6.771-.988 8.75-1.885.079-.039.157 0 .196.078.039.078 0 .156-.078.195-2.019.91-5.326 1.638-8.855 1.911a56.06 56.06 0 01-3.243.117z" fill="url(#paint5_linear)"/><path d="M204.589 120.002a20.627 20.627 0 00-3.672-7.15c-3.607-4.537-9.493-13.767-10.222-26.377-1.055-18.33 15.236-27.508 30.094-26.26 14.858 1.248 29.521 12.285 27.92 29.341-.99 10.491-6.876 18.447-11.252 23.023-2.786 2.899-4.766 6.461-5.834 10.322-1.315 4.732-4.44 10.647-11.876 10.998-9.623.468-13.621-8.476-15.158-13.897z" fill="url(#paint6_linear)"/><path d="M222.195 130.246l5.196-33.76c.104-.703.456-1.17.768-1.04.313.116.482.78.378 1.481 0 .013-.013.04-.013.065l-5.925 33.449c-.039.247-.169.416-.287.351-.104-.065-.156-.299-.117-.546z" fill="url(#paint7_linear)"/><path d="M216.804 130.519l-5.196-33.76c-.104-.703-.455-1.17-.768-1.04-.313.116-.482.78-.378 1.481 0 .013.013.04.013.065l5.925 33.449c.04.247.17.416.287.351.091-.065.143-.299.117-.546z" fill="url(#paint8_linear)"/><path d="M227.352 93.6c-.13-.209-.443-.287-.677-.183l-2.891 1.352-1.003-2.86a.62.62 0 00-.351-.35c-.339-.144-.73-.014-.886.272v.013l-2.383 4.33-2.214-6.176v-.013a.678.678 0 00-.338-.377c-.365-.208-.86-.104-1.094.221l-3.334 4.576a.397.397 0 00.117.572c.222.143.534.117.703-.078l2.93-3.263 2.644 5.863a.394.394 0 00.234.221c.248.117.56.04.691-.182l2.552-4.082.964 2.067.013.013c.013.013.013.026.026.04.13.207.442.285.677.181l3.438-1.599c.234-.09.325-.35.182-.559zm10.223 14.624a.659.659 0 01-.521-1.053 39.29 39.29 0 002.409-3.653.662.662 0 01.898-.247.66.66 0 01.248.897 39.757 39.757 0 01-2.5 3.783.68.68 0 01-.534.273zm4.271-7.332a.657.657 0 01-.599-.923c5.495-12.636.755-23.23.703-23.335a.646.646 0 01.325-.87c.339-.157.73 0 .873.324.208.455 5.026 11.245-.69 24.414a.67.67 0 01-.612.39z" fill="#fff"/><path d="M131.925 341.054s-.86 4.589-1.302 9.139a3.142 3.142 0 002.969 3.432c6.068.312 19.051.923 23.713.767a1.019 1.019 0 00.912-1.391 2.315 2.315 0 00-1.159-1.248l-21.37-10.049-3.763-.65z" fill="url(#paint9_linear)"/><path d="M131.287 338.35l.599 5.512s3.737 1.781 6.328-.156l-1.497-6.149-5.43.793z" fill="url(#paint10_linear)"/><path d="M132.771 234.935c-.3 1.43-2.201 71.669 5.027 103.22a1.06 1.06 0 01-.639 1.235c-1.158.455-3.424 1.118-6.133 1.183a1.83 1.83 0 01-1.81-1.339c-2.084-7.319-12.033-44.018-13.048-78.988-1.133-39.078.013-1.326.013-1.326l1.107-24.141 15.483.156z" fill="url(#paint11_linear)"/><path d="M107.221 343.212s-1.315 2.314-2.63 8.463a1.924 1.924 0 001.667 2.314c2.005.221 5.092.494 7.566.507 1.146 0 2.044-.975 1.914-2.106-.247-2.249-1.068-5.954-3.685-8.866l-4.832-.312z" fill="url(#paint12_linear)"/><path d="M106.154 336.127l1.445 8.333s1.498 1.131 4.493.351l-.638-8.957-5.3.273z" fill="url(#paint13_linear)"/><path d="M102.976 236.807c-6.51 37.011.456 91.624 2.878 102.323.143.65.677 1.157 1.328 1.274 1.12.195 2.983.364 4.819-.143a1.512 1.512 0 001.107-1.391c.416-8.632.312-61.62 6.25-82.498a4.848 4.848 0 011.862-2.613l11.2-7.787.976-12.753-30.42 3.588z" fill="url(#paint14_linear)"/><path d="M142.85 166.945c-18.439-.481-38.819 4.459-38.819 4.459-5.808 31.954-1.615 68.926-1.615 68.926 14.234 3.874 30.394-1.989 30.394-1.989 2.5-13.351 13.934-50.908 13.934-50.908 9.024-1.027 16.46-3.549 22.607-6.929-4.61-5.434-6.746-12.324-7.657-16.393-6.551 1.963-13.166 2.99-18.844 2.834z" fill="url(#paint15_linear)"/><path d="M197.57 140.36c-1.784-2.197-4.089-1.196-4.089-1.196-2.826 11.414-17.137 20.553-31.8 24.947.911 4.069 3.047 10.946 7.657 16.393 24.377-13.377 28.232-40.144 28.232-40.144z" fill="url(#paint16_linear)"/><path d="M197.114 140.906c.182.598-2.019 1.495-3.295-.975-.039-1.183-.703-6.24.013-7.189 3.803-5.083 11.16-11.427 11.16-11.427 1.224 1.222.196 2.405.196 2.405l-3.568 3.64c.729 1.339 1.614 2.47 2.018 4.095.313 1.222.104 2.522-.534 3.64-.625 1.105-1.497 2.548-2.305 3.679-1.523 2.132-3.685 2.132-3.685 2.132z" fill="url(#paint17_linear)"/><path d="M200.057 129.739l-3.242 2.691-1.042 2.704 2.839 3.211s1.016-5.382 1.745-6.539c.729-1.157.364-1.716-.3-2.067z" fill="url(#paint18_linear)"/><path d="M110.92 189.292l-6.902-17.888s-17.333 11.518-20.302 26.299c3.256.273 9.168 1.17 14.937 4.147 1.341-6.968 12.267-12.558 12.267-12.558z" fill="url(#paint19_linear)"/><path d="M125.817 206.205s-19.442 10.725-25.875 1.352c-1.341-1.95-1.64-3.874-1.289-5.707-5.769-2.977-11.68-3.874-14.936-4.147-.899 4.459-.495 9.204 2.096 14.04 11.225 20.982 42.518-.754 42.518-.754l-2.514-4.784z" fill="url(#paint20_linear)"/><path d="M124.32 151.826l-6.03 16.874a.61.61 0 00.274.741c1.588.897 7.331 3.51 14.311-.819a2.876 2.876 0 001.341-2.041l2.045-14.638-11.941-.117z" fill="url(#paint21_linear)"/><path d="M137.226 136.265s6.329 12.168 5.456 17.043c-.872 4.888-8.855 4.459-15.783.416l-4.753-13.104 15.08-4.355z" fill="url(#paint22_linear)"/><path d="M127.263 147.315a.494.494 0 00.222-.728c-.508-.793-1.459-2.405-1.758-3.822 0 0-1.146-.754 2.969-1.69 4.115-.936 10.248-2.405 11.577-5.876 1.289-3.393-1.928-11.973-7.254-5.213a.502.502 0 01-.794 0c-.847-1.131-3.099-3.471-6.251-2.093-2.956 1.287-3.307 3.445-3.281 4.524.013.325-.274.559-.599.507-1.485-.299-5.053-.572-6.759 3.068-1.406 3.003-.521 4.719.273 5.564a.492.492 0 01-.221.819c-.977.286-2.253 1.105-2.149 3.393.144 3.172 3.686 2.925 4.701 2.782a.51.51 0 01.443.156c.86.962 4.714 5.057 8.933 5.59.365.052.652-.312.534-.663l-1.771-5.317a.514.514 0 01.274-.624l.911-.377z" fill="url(#paint23_linear)"/><path d="M127.993 148.069s-4.558-3.185-4.923-.546c-.364 2.639 4.089 3.874 6.316 2.912l-1.393-2.366z" fill="url(#paint24_linear)"/><path d="M121.846 223.157l10.587-36.92a1.09 1.09 0 01.911-.78 488.06 488.06 0 0113.895-1.391c7.735-.65 16.708-1.183 22.073-.728.768.065 1.224.871.885 1.56-3.047 6.162-15.6 31.226-21.89 39.442a1.1 1.1 0 01-.873.429l-24.573-.234a1.069 1.069 0 01-1.015-1.378z" fill="url(#paint25_linear)"/><path d="M124.398 214.239s-1.472-6.058-.886-8.203c.599-2.145 1.745-4.914 5.587-4.29 3.841.611 8.373 2.236 8.373 2.236s-.234 2.795-3.151 1.898l1.81 1.404s-.261 2.236-2.722 1.04l1.68 1.859s-1.055 1.846-2.878.663c-1.797-1.209-2.669 4.121-7.813 3.393z" fill="url(#paint26_linear)"/><path d="M149.635 198.197a3.11 3.11 0 003.113-3.107 3.11 3.11 0 00-3.113-3.107 3.11 3.11 0 00-3.112 3.107 3.11 3.11 0 003.112 3.107zm-16.004-1.053l-.795-.234 2.162-7.306a3.336 3.336 0 012.513-2.327c6.837-1.43 24.834-1.716 25.589-1.729l.013.819c-.182 0-18.687.299-25.432 1.703-.899.182-1.615.858-1.889 1.755l-2.161 7.319z" fill="#91B3FA"/><path d="M8.305 300.455c-1.12 1.664-5.612 39.416-6.316 53.365a1.641 1.641 0 001.654 1.729c.82 0 1.51-.598 1.641-1.404l8.204-52.494-5.183-1.196zm36.072 0c1.133 1.664 5.612 39.416 6.316 53.365a1.641 1.641 0 01-1.654 1.729c-.82 0-1.51-.598-1.641-1.404l-8.204-52.494 5.183-1.196z" fill="#7D97F4"/><path d="M1.52 297.504v.416c-.025 2.964 2.527 5.395 5.73 5.447l37.934.65c3.152.052 5.782-2.223 5.938-5.135l.026-.377c.157-3.042-2.422-5.603-5.716-5.668l-37.947-.676c-3.256-.065-5.938 2.34-5.964 5.343z" fill="#7D97F4"/><path d="M81.424 352.442c-6.745 0-9.727-.572-11.055-1.105a2.56 2.56 0 002.487 1.976h23.857c.807 0 1.315-.767 1.12-1.456-2.735.221-8.504.585-16.409.585z" fill="#91B3FA"/><path d="M97.82 351.857a1.05 1.05 0 00-.196-.403c-1.823-2.314-5.469-5.954-10.43-5.889-7.28.104-9.806.884-15.458.039l-1.328 4.407a2.51 2.51 0 00-.04 1.313c1.329.533 4.324 1.105 11.057 1.105 7.904.013 13.673-.351 16.395-.572z" fill="url(#paint27_linear)"/><path d="M73.364 340.859l-1.64 5.551s3.62 1.651 6.81.325l.625-4.81-5.795-1.066z" fill="url(#paint28_linear)"/><path d="M122.809 348.945c-5.261 4.212-7.943 5.629-9.31 6.058.898.702 2.2.754 3.177-.026l18.596-14.911a1.151 1.151 0 00-.039-1.833c-1.993 1.872-6.264 5.772-12.424 10.712z" fill="#91B3FA"/><path d="M135.22 338.233a1.063 1.063 0 00-.404-.195c-2.865-.663-7.983-1.196-11.811 1.963-5.6 4.628-7.097 6.825-12.02 9.698l1.719 4.251c.17.429.456.78.795 1.04 1.367-.429 4.05-1.846 9.311-6.058 6.159-4.927 10.43-8.827 12.41-10.699z" fill="url(#paint29_linear)"/><path d="M38.36 277.549s40.37 3.289 48.651 7.176c8.282 3.887-6.758 58.435-6.758 58.435s-2.253 1.079-7.266-.468c0 0 5.143-40.248 1.315-48.971l-43.703-7.137 7.761-9.035z" fill="url(#paint30_linear)"/><path d="M106.975 342.042c.377.338 4.01 7.657 4.01 7.657s4.05-.871 4.871-3.432l-3.646-6.604-5.235 2.379z" fill="url(#paint31_linear)"/><path d="M14.048 277.211s-1.315 3.159-1.263 7.358c.078 5.811 4.753 10.517 10.56 10.803l47.714 2.171a2.29 2.29 0 012.11 1.716c1.12 4.329 6.602 17.628 33.389 44.161a2.15 2.15 0 002.669.286l3.816-2.405a.862.862 0 00.286-1.183l-27.79-47.359a10.707 10.707 0 00-6.536-4.836l-40.669-10.374-24.286-.338z" fill="url(#paint32_linear)"/><path d="M61.071 203.215s-5.117 9.022-10.326 13.39l10.769 6.006s2.422-9.555 7.97-12.35l-8.413-7.046z" fill="url(#paint33_linear)"/><path d="M13.176 277.549s12.879 3.133 25.185 0c0 0 17.202-23.088 23.857-29.38 0 0 10.613 16.731 34.248 19.097l1.315-2.938s-18.817-8.658-24.612-21.957c-5.795-13.299-8.113-18.98-13.387-22.451-3.281-2.158-5.248-3.64-6.263-4.446a1.67 1.67 0 00-1.928-.117c-5.586 3.393-31.891 21.385-38.415 62.192z" fill="url(#paint34_linear)"/><path d="M61.527 247.844a.82.82 0 01-.651-.325c-4.102-5.343-6.381-11.232-6.485-11.479a.825.825 0 01.468-1.066.828.828 0 011.068.468c.026.065 2.305 5.915 6.251 11.063a.826.826 0 01-.156 1.157.731.731 0 01-.495.182z" fill="url(#paint35_linear)"/><path d="M95.046 262.794l2.656-.702 8.074-1.872a3.755 3.755 0 012.839.481l6.941 4.368-19.182-.026-1.328-2.249z" fill="url(#paint36_linear)"/><path d="M69.184 189.695s4.961 8.242 5.834 12.805c.86 4.563 2.24 7.41-2.943 9.035-5.196 1.625-10.028-.429-13.049-4.68 0 0-4.727-6.552-4.258-9.542.456-3.016 14.416-7.618 14.416-7.618z" fill="url(#paint37_linear)"/><path d="M60.394 203.306l.677-.091s-3.516-5.304-1.211-6.617c2.305-1.313 11.68-4.55 13.309-8.229 1.575-3.549-.782-7.566-3.608-8.411a.354.354 0 00-.43.234l-.168.442a.362.362 0 01-.678.013c-.13-.286-.534-.299-.664-.013-.508 1.105-2.005 2.99-6.51 4.446-6.408 2.067-10.393 5.291-9.898 9.828a.365.365 0 01-.52.364c-.522-.234-1.316-.273-2.24.741-1.602 1.755-.352 5.577 4.023 8.281.209.13.248.416.065.585-.65.559-1.575 1.807 1.38 2.925 3.035 1.131 4.676.754 5.288.507a.346.346 0 00.221-.403l-.781-3.978a.363.363 0 01.312-.429l1.433-.195z" fill="url(#paint38_linear)"/><path d="M60.68 204.125s-2.187-5.395-4.492-3.497c-2.305 1.898 2.122 6.084 4.167 6.032l.325-2.535z" fill="url(#paint39_linear)"/><path d="M87.637 268.813h.09l40.969-.039a1.833 1.833 0 001.836-1.833c0-1.014-.821-1.846-1.836-1.82l-40.968.039a1.832 1.832 0 00-1.836 1.833 1.848 1.848 0 001.745 1.82z" fill="url(#paint40_linear)"/><path d="M144.57 228.76l-.039.078-17.242 37.102a1.83 1.83 0 103.321 1.534l17.242-37.102a1.83 1.83 0 00-.886-2.431 1.854 1.854 0 00-2.396.819z" fill="url(#paint41_linear)"/><path d="M251.86 306.097h-4.323v46.683h4.323v-46.683z" fill="#7D97F4"/><path d="M268.633 353.69h-37.869a2.815 2.815 0 012.813-2.808h32.243a2.807 2.807 0 012.813 2.808zm5.626-49.205c0 2.548-2.097 4.641-4.649 4.641h-38.325c-2.552 0-4.649-2.093-4.649-4.641v-4.199c0-2.548 2.097-4.641 4.649-4.641h38.325c2.552 0 4.649 2.093 4.649 4.641v4.199z" fill="#7D97F4"/><path d="M217.781 274.975s-6.42.988-13.647 5.811a3.596 3.596 0 00-1.589 3.432c.859 6.838 4.428 28.977 16.148 50.609a5.46 5.46 0 01.52 3.731l-2.031 9.464-3.776 3.536h9.727l6.485-17.511-2.773-.871a5.232 5.232 0 01-3.66-4.901l-.325-18.785c.273-8.372-5.144-14.144-5.144-14.144l15.548-.754-15.483-19.617z" fill="url(#paint42_linear)"/><path d="M209.59 353.274c-.885 1.157 9.545 2.691 14.806.156 0 0 7.306-12.688 7.306-19.214 0 0-.586-1.326-4.87-1.027 0 0-2.449 15.015-5.04 16.705-2.591 1.677-7.24.169-7.24.169s-3.647 1.508-4.962 3.211z" fill="url(#paint43_linear)"/><path d="M231.285 295.645c-.078-.143-16.734-2.002-16.734-2.002s.547 5.057-1.159 12.012-26.148 37.102-26.148 37.102l2.565 8.112c-7.93 2.756-15.731 3.198-23.401 1.404l15.887-9.516s14.872-50.583 23.974-59.618l16.695-5.759 8.321 18.265z" fill="url(#paint44_linear)"/><path d="M268.633 266.2s9.597 14.248 10.379 20.748c.781 6.5-2.631 9.139-12.697 9.581-10.066.429-36.944.429-36.944.429l-22.932-19.578s16.721-5.954 21.057-7.644c4.349-1.677 41.137-3.536 41.137-3.536z" fill="url(#paint45_linear)"/><path d="M188.833 348.139s2.76 2.665.898 5.642c0 0-21.864 3.874-27.802 2.119 0 0 1.237-2.808 7.917-6.006l-.495.377c-.625.481-.26 1.469.534 1.43 4.402-.26 13.517-1.053 18.948-3.562z" fill="url(#paint46_linear)"/><path d="M227.079 175.85c19.611-3.328 28.844 12.636 28.167 15.99-.091.442.326.819.768.702 2.253-.611 7.228-1.365 10.314 2.483 2.722 3.406.69 6.617-.977 8.385-.403.429-.065 1.118.521 1.04 4.141-.52 13.14-.65 14.611 7.761 1.367 7.839-4.102 10.062-7.344 10.686-.547.104-.678.832-.209 1.131 1.615 1.027 3.49 3.146 2.735 7.319-1.185 6.552-14.051 6.019-15.562 5.928-.091 0-.182-.039-.273-.078l-20.601-11.739a.603.603 0 01-.3-.429l-4.154-23.985a.586.586 0 01.169-.533l-13.439-18.928c-4.883-.702 5.339-5.694 5.574-5.733z" fill="url(#paint47_linear)"/><path d="M242.693 264.315s-11.173-10.621-16.669-17.654a14.898 14.898 0 01-2.526-13.429c2.513-8.45 6.98-17.199 7.383-18.551.625-2.093 13.153-2.002 13.153-2.002s24.651 15.977 34.339 43.03l-10.873 3.38s-6.433-10.777-12.801-17.641c0 0 11.004 14.508 11.394 20.449l-23.4 2.418z" fill="url(#paint48_linear)"/><path d="M229.345 203.02c.13.429 3.399 11.258 3.659 11.479.261.221 7.176.598 10.431-1.625l-8.074-15.769-6.016 5.915z" fill="url(#paint49_linear)"/><path d="M216.245 189.11s-1.576 6.201 2.787 14.534c4.375 8.333 9.324 8.333 12.032 5.655 2.709-2.665 6.043-7.202 5.248-15.262-.794-8.047-17.788-12.818-20.067-4.927z" fill="url(#paint50_linear)"/><path d="M230.257 194.492s-7.254-11.076-14.051-2.353l-.118 3.172s-7.969-.949-6.576-8.242c1.394-7.293 8.282-11.856 17.15-8.697 8.869 3.159 13.947 6.396 14.52 12.74.573 6.344-4.479 4.953-4.479 4.953s-1.654-4.472-3.998-4.927c-2.344-.468-1.732 3.016-1.732 3.016l-.716.338z" fill="url(#paint51_linear)"/><path d="M232.119 194.336s-3.763-5.668.091-6.513c3.855-.845 3.256 5.525 2.839 7.878l-2.93-1.365z" fill="url(#paint52_linear)"/><path d="M219.93 265.108l8.204-7.904 11.356 4.784s11.303 1.742 17.775 0l6.472-1.742 14.624-4.55 2.292 6.474a3.887 3.887 0 01-1.433 4.485c-1.263.897-2.747 1.885-3.698 2.301-1.927.845-47.466-.585-47.466-.585l-8.126-3.263z" fill="url(#paint53_linear)"/><path d="M250.987 268.826h-.104l-47.622-.052a2.135 2.135 0 01-2.136-2.132c0-1.17.964-2.145 2.136-2.132l47.622.052c1.172 0 2.136.949 2.136 2.132 0 1.157-.899 2.08-2.032 2.132z" fill="url(#paint54_linear)"/><path d="M160.457 225.666h39.653c2.93 0 5.586 1.69 6.837 4.329l18.335 38.805h-49.289a4.58 4.58 0 01-4.272-2.899l-14.22-35.919c-.82-2.067.716-4.316 2.956-4.316z" fill="url(#paint55_linear)"/><path d="M186.978 251.338c1.643-.528 2.278-3.117 1.419-5.782-.86-2.666-2.888-4.398-4.531-3.87-1.643.528-2.279 3.116-1.419 5.782.859 2.665 2.888 4.398 4.531 3.87z" fill="#7D97F4"/><path d="M305.277 347.801s.495 2.769.703 6.058a2.615 2.615 0 01-2.357 2.756c-4.87.468-15.965 1.339-23.049.325-.99-.143-1.38-1.365-.651-2.041 2.917-2.717 9.975-8.008 21.591-9.152l3.763 2.054z" fill="url(#paint56_linear)"/><path d="M307.712 341.561l-2.461 6.032a2.008 2.008 0 01-2.071 1.248 11.666 11.666 0 01-2.018-.39c-1.393-.416-2.175-1.898-1.758-3.289l1.862-6.214 6.446 2.613z" fill="url(#paint57_linear)"/><path d="M349.839 352.611s-4.935 4.121-6.862 9.412c-.534 1.456.586 2.99 2.135 2.99h10.158c1.484 0 2.63-1.339 2.37-2.795-.638-3.666-2.513-9.594-7.801-9.607z" fill="url(#paint58_linear)"/><path d="M355.947 347.242s-1.003 4.407-1.758 7.319a.937.937 0 01-1.224.637c-1.537-.546-2.787-.793-3.699-.663-.416.052-.781-.299-.794-.715l-.091-7.319 7.566.741z" fill="url(#paint59_linear)"/><path d="M329.707 248.13l-30.017 91.416s5.756 3.77 8.504 3.601l35.655-73.463s6.237 45.266 3.216 77.766l10.21.78s16.603-83.057 4.024-111.501l-31.592 11.401z" fill="url(#paint60_linear)"/><path d="M343.654 268.891h.039c.156-.026.273-.169.247-.325l-1.159-9.23c-.026-.156-.169-.273-.325-.247-.157.026-.274.169-.248.325l1.159 9.23c.013.143.143.247.287.247z" fill="url(#paint61_linear)"/><path d="M324.081 167.686s24.326 2.158 20.875 19.448c0 0 13.439 25.259 19.729 55.003.208.962-.443 1.911-1.42 2.08l-40.499 6.916a2.166 2.166 0 01-2.474-1.599l-9.676-37.336-3.776 17.355-11.981-3.12 10.093-51.012c-.013.026 1.393-7.41 19.129-7.735z" fill="url(#paint62_linear)"/><path d="M310.408 210.547c.026 0 .039 0 .065-.013a.321.321 0 00.235-.364l-3.373-15.47a.322.322 0 00-.365-.234.321.321 0 00-.234.364l3.373 15.47a.294.294 0 00.299.247z" fill="#91B3FA"/><path d="M312.843 256.593a5.782 5.782 0 014.18-.546l2.813.702c.599.143 1.198-.26 1.263-.871l2.917-25.909c3.646 1.729 8.907 1.521 10.639 1.391l-6.706 30.55H304.47l8.373-5.317z" fill="url(#paint63_linear)"/><path d="M250.454 200.394l.716-2.353a4.626 4.626 0 012.721-2.977l12.84-5.148s.196-1.638-2.708-2.756c-2.904-1.118-2.227-4.368-2.227-4.368s3.972 1.807 9.78 4.68c3.32 1.638 5.195 4.537 6.172 6.721l29.092 35.399-3.412 2.34c-4.493 3.081-10.665 1.573-13.218-3.237l-15.756-30.173c-7.931 2.353-15.927 2.808-24 1.872z" fill="url(#paint64_linear)"/><path d="M316.203 151.176l7.475 20.904s-6.629 5.174-11.46 3.419l-3.763-11.986s2.877-14.638 7.748-12.337z" fill="url(#paint65_linear)"/><path d="M293.883 143.662c0 .325 7.201 20.358 7.201 20.358l11.368-4.355-3.997-20.007c0 .013-14.572-1.378-14.572 4.004z" fill="url(#paint66_linear)"/><path d="M306.462 144.546l2.93 10.361c.039.13.052.273.052.403 0 .845-.208 3.757-3.177 3.354-2.696-.364-5.157-.65-6.72.091a1.51 1.51 0 00-.781 1.872c.651 1.82 2.214 5.902 4.102 9.23.378.676 1.224.936 1.927.624 2.136-.975 6.59-3.146 9.754-5.733.43-.351.638-.897.534-1.443-.495-2.652-1.979-10.712-2.045-13.026-.065-2.171 2.383-3.822 3.451-4.446.352-.208.599-.546.704-.936.338-1.391.625-4.563-3.412-5.252a1.504 1.504 0 01-1.224-1.794c.338-1.664.234-4.134-2.943-5.031-3.23-.923-5.261 1.014-6.29 2.509-.417.598-1.198.793-1.875.494-.378-.169-.847-.182-1.342.234-.664.559-1.68.39-2.174-.325-.938-1.378-2.657-2.769-5.548-1.833-5.144 1.664-4.896 7.579-3.008 10.79 1.888 3.211 7.358 1.105 9.936-1.027 1.966-1.625 4.961-.65 6.29-.091.416.182.729.533.859.975z" fill="url(#paint67_linear)"/><path d="M314.067 154.075s-3.048-5.746-1.029-7.553c2.005-1.807 5.417-1.508 5.326 2.977-.117 5.59-4.297 4.576-4.297 4.576z" fill="url(#paint68_linear)"/><path d="M332.311 231.75c1.654 0 2.839-.13 2.969-.143l.221-.026 8.856-41.21a.283.283 0 00-.235-.351.282.282 0 00-.351.234l-8.764 40.794c-1.316.117-8.361.585-12.072-2.041l7.67-35.815-1.602-3.016c-.078-.143-.26-.208-.403-.13-.144.078-.209.26-.131.403l1.498 2.821-7.709 35.971.156.117c2.683 2.015 7.006 2.392 9.897 2.392z" fill="#91B3FA"/><path d="M66.827 357.408a1.32 1.32 0 01-.612-.143c-.781-.364-1.146-1.352-.807-2.21l32.36-81.965c.339-.858 1.237-1.248 2.031-.884.782.364 1.146 1.352.808 2.21l-32.36 81.965c-.248.65-.82 1.027-1.42 1.027z" fill="url(#paint69_linear)"/><path d="M103.29 357.408c-.599 0-1.172-.377-1.42-1.014l-32.36-81.965c-.339-.858.026-1.846.807-2.21.782-.364 1.693.026 2.032.884l32.36 81.965c.339.858-.026 1.846-.807 2.21a1.53 1.53 0 01-.612.13z" fill="url(#paint70_linear)"/><path d="M286.447 357.408c-.208 0-.404-.039-.612-.143-.781-.364-1.146-1.352-.808-2.21l32.361-81.965c.338-.858 1.237-1.248 2.031-.884.782.364 1.146 1.352.808 2.21l-32.361 81.965c-.26.65-.82 1.027-1.419 1.027z" fill="url(#paint71_linear)"/><path d="M322.897 357.408c-.599 0-1.172-.377-1.42-1.014l-32.36-81.965c-.339-.858.026-1.846.807-2.21.782-.364 1.693.026 2.032.884l32.36 81.965c.339.858-.026 1.846-.807 2.21-.196.091-.404.13-.612.13z" fill="url(#paint72_linear)"/><path d="M281.746 267.318h46.867v-4.823h-46.867c1.003-.013 1.003 4.823 0 4.823z" fill="#91B3FA"/><path d="M328.17 267.318a.439.439 0 00.443-.442v-3.952a.439.439 0 00-.443-.442h-47.413a.439.439 0 01-.443-.442v-.208c0-.247.195-.442.443-.442h50.539c1.12 0 2.018.91 2.018 2.015v3.081a1.915 1.915 0 01-1.914 1.911h-50.656a.439.439 0 01-.443-.442v-.208c0-.247.195-.442.443-.442h47.426v.013z" fill="url(#paint73_linear)"/><path d="M335.41 270.568c.157-.533-.052-1.092-.586-1.521-.534-.429-1.315-.663-2.148-.663H51.864c-1.093 0-2.11.364-2.695.975-.586.611-.664 1.378-.209 2.028l3.048 4.355c.703 1.001 2.2 1.638 3.867 1.638h274.886c1.55 0 2.878-.728 3.165-1.729l1.484-5.083z" fill="url(#paint74_linear)"/><defs><linearGradient id="paint0_linear" x1="409.97" y1="471.119" x2="87.1" y2="69.449" gradientUnits="userSpaceOnUse"><stop stop-color="#DAE3FE"/><stop offset="1" stop-color="#E9EFFD"/></linearGradient><linearGradient id="paint1_linear" x1="220.321" y1="131.79" x2="215.876" y2="161.172" gradientUnits="userSpaceOnUse"><stop stop-color="#09005D"/><stop offset="1" stop-color="#1A0F91"/></linearGradient><linearGradient id="paint2_linear" x1="221.306" y1="119.609" x2="213.631" y2="204.392" gradientUnits="userSpaceOnUse"><stop stop-color="#53D8FF"/><stop offset="1" stop-color="#3840F7"/></linearGradient><linearGradient id="paint3_linear" x1="221.53" y1="119.63" x2="213.856" y2="204.411" gradientUnits="userSpaceOnUse"><stop stop-color="#53D8FF"/><stop offset="1" stop-color="#3840F7"/></linearGradient><linearGradient id="paint4_linear" x1="221.105" y1="119.591" x2="213.43" y2="204.374" gradientUnits="userSpaceOnUse"><stop stop-color="#53D8FF"/><stop offset="1" stop-color="#3840F7"/></linearGradient><linearGradient id="paint5_linear" x1="221.334" y1="119.612" x2="213.66" y2="204.393" gradientUnits="userSpaceOnUse"><stop stop-color="#53D8FF"/><stop offset="1" stop-color="#3840F7"/></linearGradient><linearGradient id="paint6_linear" x1="223.672" y1="59.321" x2="211.832" y2="139.711" gradientUnits="userSpaceOnUse"><stop stop-color="#FF928E"/><stop offset="1" stop-color="#FE7062"/></linearGradient><linearGradient id="paint7_linear" x1="333.171" y1="-37.318" x2="279.831" y2="37.223" gradientUnits="userSpaceOnUse"><stop stop-color="#E1473D"/><stop offset="1" stop-color="#E9605A"/></linearGradient><linearGradient id="paint8_linear" x1="325.748" y1="-42.629" x2="272.408" y2="31.911" gradientUnits="userSpaceOnUse"><stop stop-color="#E1473D"/><stop offset="1" stop-color="#E9605A"/></linearGradient><linearGradient id="paint9_linear" x1="156.828" y1="334.934" x2="77.588" y2="419.643" gradientUnits="userSpaceOnUse"><stop stop-color="#09005D"/><stop offset="1" stop-color="#1A0F91"/></linearGradient><linearGradient id="paint10_linear" x1="131.264" y1="341.028" x2="138.243" y2="341.095" gradientUnits="userSpaceOnUse"><stop stop-color="#FEBBBA"/><stop offset="1" stop-color="#FF928E"/></linearGradient><linearGradient id="paint11_linear" x1="163.937" y1="238.5" x2="96.362" y2="328.445" gradientUnits="userSpaceOnUse"><stop stop-color="#09005D"/><stop offset="1" stop-color="#1A0F91"/></linearGradient><linearGradient id="paint12_linear" x1="139.355" y1="318.587" x2="60.112" y2="403.3" gradientUnits="userSpaceOnUse"><stop stop-color="#09005D"/><stop offset="1" stop-color="#1A0F91"/></linearGradient><linearGradient id="paint13_linear" x1="106.114" y1="340.432" x2="112.139" y2="340.489" gradientUnits="userSpaceOnUse"><stop stop-color="#FEBBBA"/><stop offset="1" stop-color="#FF928E"/></linearGradient><linearGradient id="paint14_linear" x1="152.104" y1="229.61" x2="84.529" y2="319.554" gradientUnits="userSpaceOnUse"><stop stop-color="#09005D"/><stop offset="1" stop-color="#1A0F91"/></linearGradient><linearGradient id="paint15_linear" x1="-140.443" y1="-269.274" x2="-78.997" y2="-162.585" gradientUnits="userSpaceOnUse"><stop stop-color="#FF928E"/><stop offset="1" stop-color="#FE7062"/></linearGradient><linearGradient id="paint16_linear" x1="161.722" y1="159.527" x2="197.379" y2="159.867" gradientUnits="userSpaceOnUse"><stop stop-color="#FEBBBA"/><stop offset="1" stop-color="#FF928E"/></linearGradient><linearGradient id="paint17_linear" x1="189.493" y1="153.824" x2="165.118" y2="207.975" gradientUnits="userSpaceOnUse"><stop stop-color="#FEBBBA"/><stop offset="1" stop-color="#FF928E"/></linearGradient><linearGradient id="paint18_linear" x1="197.438" y1="135.799" x2="207.543" y2="120.554" gradientUnits="userSpaceOnUse"><stop stop-color="#FEBBBA"/><stop offset="1" stop-color="#FF928E"/></linearGradient><linearGradient id="paint19_linear" x1="-161.423" y1="-257.193" x2="-99.977" y2="-150.504" gradientUnits="userSpaceOnUse"><stop stop-color="#FF928E"/><stop offset="1" stop-color="#FE7062"/></linearGradient><linearGradient id="paint20_linear" x1="83.216" y1="209.205" x2="128.339" y2="209.634" gradientUnits="userSpaceOnUse"><stop stop-color="#FEBBBA"/><stop offset="1" stop-color="#FF928E"/></linearGradient><linearGradient id="paint21_linear" x1="118.324" y1="161.377" x2="136.165" y2="161.546" gradientUnits="userSpaceOnUse"><stop stop-color="#FEBBBA"/><stop offset="1" stop-color="#FF928E"/></linearGradient><linearGradient id="paint22_linear" x1="140.518" y1="150.256" x2="121.034" y2="138.096" gradientUnits="userSpaceOnUse"><stop stop-color="#FEBBBA"/><stop offset="1" stop-color="#FF928E"/></linearGradient><linearGradient id="paint23_linear" x1="110.752" y1="125.437" x2="135.869" y2="145.7" gradientUnits="userSpaceOnUse"><stop stop-color="#09005D"/><stop offset="1" stop-color="#1A0F91"/></linearGradient><linearGradient id="paint24_linear" x1="135.323" y1="154.661" x2="117.793" y2="143.721" gradientUnits="userSpaceOnUse"><stop stop-color="#FEBBBA"/><stop offset="1" stop-color="#FF928E"/></linearGradient><linearGradient id="paint25_linear" x1="140.439" y1="180.582" x2="165.258" y2="284.171" gradientUnits="userSpaceOnUse"><stop stop-color="#09005D"/><stop offset="1" stop-color="#1A0F91"/></linearGradient><linearGradient id="paint26_linear" x1="123.377" y1="207.982" x2="137.485" y2="207.982" gradientUnits="userSpaceOnUse"><stop stop-color="#FEBBBA"/><stop offset="1" stop-color="#FF928E"/></linearGradient><linearGradient id="paint27_linear" x1="80.999" y1="276.554" x2="83.922" y2="348.303" gradientUnits="userSpaceOnUse"><stop stop-color="#4F52FF"/><stop offset="1" stop-color="#4042E2"/></linearGradient><linearGradient id="paint28_linear" x1="71.733" y1="344.056" x2="79.174" y2="344.056" gradientUnits="userSpaceOnUse"><stop stop-color="#FEBBBA"/><stop offset="1" stop-color="#FF928E"/></linearGradient><linearGradient id="paint29_linear" x1="120.285" y1="274.953" x2="123.209" y2="346.702" gradientUnits="userSpaceOnUse"><stop stop-color="#4F52FF"/><stop offset="1" stop-color="#4042E2"/></linearGradient><linearGradient id="paint30_linear" x1="30.587" y1="310.536" x2="89.493" y2="310.536" gradientUnits="userSpaceOnUse"><stop stop-color="#09005D"/><stop offset="1" stop-color="#1A0F91"/></linearGradient><linearGradient id="paint31_linear" x1="106.979" y1="344.682" x2="115.863" y2="344.682" gradientUnits="userSpaceOnUse"><stop stop-color="#FEBBBA"/><stop offset="1" stop-color="#FF928E"/></linearGradient><linearGradient id="paint32_linear" x1="84.094" y1="286.036" x2="19.549" y2="359.342" gradientUnits="userSpaceOnUse"><stop stop-color="#09005D"/><stop offset="1" stop-color="#1A0F91"/></linearGradient><linearGradient id="paint33_linear" x1="57.632" y1="219.708" x2="61.999" y2="208.677" gradientUnits="userSpaceOnUse"><stop stop-color="#FEBBBA"/><stop offset="1" stop-color="#FF928E"/></linearGradient><linearGradient id="paint34_linear" x1="175.938" y1="80.102" x2="41.883" y2="284.726" gradientUnits="userSpaceOnUse"><stop stop-color="#4F52FF"/><stop offset="1" stop-color="#4042E2"/></linearGradient><linearGradient id="paint35_linear" x1="60.473" y1="237.835" x2="145.4" y2="96.048" gradientUnits="userSpaceOnUse"><stop stop-color="#09005D"/><stop offset="1" stop-color="#1A0F91"/></linearGradient><linearGradient id="paint36_linear" x1="95.05" y1="262.588" x2="115.571" y2="262.588" gradientUnits="userSpaceOnUse"><stop stop-color="#FEBBBA"/><stop offset="1" stop-color="#FF928E"/></linearGradient><linearGradient id="paint37_linear" x1="71.004" y1="197.284" x2="51.433" y2="216.838" gradientUnits="userSpaceOnUse"><stop stop-color="#FEBBBA"/><stop offset="1" stop-color="#FF928E"/></linearGradient><linearGradient id="paint38_linear" x1="53.953" y1="186.152" x2="77.004" y2="208.97" gradientUnits="userSpaceOnUse"><stop stop-color="#09005D"/><stop offset="1" stop-color="#1A0F91"/></linearGradient><linearGradient id="paint39_linear" x1="67.834" y1="194.112" x2="48.264" y2="213.665" gradientUnits="userSpaceOnUse"><stop stop-color="#FEBBBA"/><stop offset="1" stop-color="#FF928E"/></linearGradient><linearGradient id="paint40_linear" x1="-4302.45" y1="-4423.78" x2="-4230.18" y2="-4346.38" gradientUnits="userSpaceOnUse"><stop stop-color="#09005D"/><stop offset="1" stop-color="#1A0F91"/></linearGradient><linearGradient id="paint41_linear" x1="6256.34" y1="-1766.18" x2="6155.65" y2="-1733.13" gradientUnits="userSpaceOnUse"><stop stop-color="#09005D"/><stop offset="1" stop-color="#1A0F91"/></linearGradient><linearGradient id="paint42_linear" x1="170.234" y1="491.685" x2="224.906" y2="272.625" gradientUnits="userSpaceOnUse"><stop stop-color="#FEBBBA"/><stop offset="1" stop-color="#FF928E"/></linearGradient><linearGradient id="paint43_linear" x1="294.34" y1="223.368" x2="242.331" y2="311.077" gradientUnits="userSpaceOnUse"><stop stop-color="#09005D"/><stop offset="1" stop-color="#1A0F91"/></linearGradient><linearGradient id="paint44_linear" x1="196.885" y1="353.163" x2="207.818" y2="189.811" gradientUnits="userSpaceOnUse"><stop stop-color="#FEBBBA"/><stop offset="1" stop-color="#FF928E"/></linearGradient><linearGradient id="paint45_linear" x1="206.44" y1="281.581" x2="279.128" y2="281.581" gradientUnits="userSpaceOnUse"><stop stop-color="#09005D"/><stop offset="1" stop-color="#1A0F91"/></linearGradient><linearGradient id="paint46_linear" x1="264.557" y1="205.708" x2="212.556" y2="293.406" gradientUnits="userSpaceOnUse"><stop stop-color="#09005D"/><stop offset="1" stop-color="#1A0F91"/></linearGradient><linearGradient id="paint47_linear" x1="257.641" y1="160.383" x2="246.973" y2="216.523" gradientUnits="userSpaceOnUse"><stop stop-color="#09005D"/><stop offset="1" stop-color="#1A0F91"/></linearGradient><linearGradient id="paint48_linear" x1="206.83" y1="342.12" x2="247.634" y2="250.483" gradientUnits="userSpaceOnUse"><stop stop-color="#4F52FF"/><stop offset="1" stop-color="#4042E2"/></linearGradient><linearGradient id="paint49_linear" x1="239.929" y1="230.612" x2="235.564" y2="202.555" gradientUnits="userSpaceOnUse"><stop stop-color="#FEBBBA"/><stop offset="1" stop-color="#FF928E"/></linearGradient><linearGradient id="paint50_linear" x1="216.117" y1="200.873" x2="248.942" y2="189.78" gradientUnits="userSpaceOnUse"><stop stop-color="#FEBBBA"/><stop offset="1" stop-color="#FF928E"/></linearGradient><linearGradient id="paint51_linear" x1="209.112" y1="171.613" x2="247.377" y2="214.108" gradientUnits="userSpaceOnUse"><stop stop-color="#09005D"/><stop offset="1" stop-color="#1A0F91"/></linearGradient><linearGradient id="paint52_linear" x1="215.139" y1="197.98" x2="247.964" y2="186.887" gradientUnits="userSpaceOnUse"><stop stop-color="#FEBBBA"/><stop offset="1" stop-color="#FF928E"/></linearGradient><linearGradient id="paint53_linear" x1="257.914" y1="262.467" x2="318.863" y2="262.467" gradientUnits="userSpaceOnUse"><stop stop-color="#FEBBBA"/><stop offset="1" stop-color="#FF928E"/></linearGradient><linearGradient id="paint54_linear" x1="259.071" y1="256.201" x2="221.28" y2="268.617" gradientUnits="userSpaceOnUse"><stop stop-color="#09005D"/><stop offset="1" stop-color="#1A0F91"/></linearGradient><linearGradient id="paint55_linear" x1="207.142" y1="231.457" x2="179.967" y2="260.229" gradientUnits="userSpaceOnUse"><stop stop-color="#09005D"/><stop offset="1" stop-color="#1A0F91"/></linearGradient><linearGradient id="paint56_linear" x1="292.354" y1="397.971" x2="291.954" y2="440.51" gradientUnits="userSpaceOnUse"><stop stop-color="#09005D"/><stop offset="1" stop-color="#1A0F91"/></linearGradient><linearGradient id="paint57_linear" x1="302.626" y1="350.466" x2="304.829" y2="333.209" gradientUnits="userSpaceOnUse"><stop stop-color="#FEBBBA"/><stop offset="1" stop-color="#FF928E"/></linearGradient><linearGradient id="paint58_linear" x1="349.925" y1="398.513" x2="349.525" y2="441.052" gradientUnits="userSpaceOnUse"><stop stop-color="#09005D"/><stop offset="1" stop-color="#1A0F91"/></linearGradient><linearGradient id="paint59_linear" x1="350.95" y1="356.38" x2="353.097" y2="339.564" gradientUnits="userSpaceOnUse"><stop stop-color="#FEBBBA"/><stop offset="1" stop-color="#FF928E"/></linearGradient><linearGradient id="paint60_linear" x1="317.043" y1="220.62" x2="336.925" y2="317.567" gradientUnits="userSpaceOnUse"><stop stop-color="#09005D"/><stop offset="1" stop-color="#1A0F91"/></linearGradient><linearGradient id="paint61_linear" x1="352.251" y1="282.327" x2="349.846" y2="277.508" gradientUnits="userSpaceOnUse"><stop stop-color="#4F52FF"/><stop offset="1" stop-color="#4042E2"/></linearGradient><linearGradient id="paint62_linear" x1="312.56" y1="181.172" x2="353.838" y2="304.015" gradientUnits="userSpaceOnUse"><stop stop-color="#4F52FF"/><stop offset="1" stop-color="#4042E2"/></linearGradient><linearGradient id="paint63_linear" x1="334.665" y1="245.937" x2="304.469" y2="245.937" gradientUnits="userSpaceOnUse"><stop stop-color="#FEBBBA"/><stop offset="1" stop-color="#FF928E"/></linearGradient><linearGradient id="paint64_linear" x1="306.838" y1="208.148" x2="250.447" y2="208.148" gradientUnits="userSpaceOnUse"><stop stop-color="#FEBBBA"/><stop offset="1" stop-color="#FF928E"/></linearGradient><linearGradient id="paint65_linear" x1="327.14" y1="176.574" x2="307.549" y2="156.44" gradientUnits="userSpaceOnUse"><stop stop-color="#FEBBBA"/><stop offset="1" stop-color="#FF928E"/></linearGradient><linearGradient id="paint66_linear" x1="298.679" y1="143.809" x2="323.093" y2="176.163" gradientUnits="userSpaceOnUse"><stop stop-color="#FEBBBA"/><stop offset="1" stop-color="#FF928E"/></linearGradient><linearGradient id="paint67_linear" x1="335.977" y1="51.908" x2="310.241" y2="126.612" gradientUnits="userSpaceOnUse"><stop stop-color="#E1473D"/><stop offset="1" stop-color="#E9605A"/></linearGradient><linearGradient id="paint68_linear" x1="334.514" y1="169.399" x2="314.924" y2="149.264" gradientUnits="userSpaceOnUse"><stop stop-color="#FEBBBA"/><stop offset="1" stop-color="#FF928E"/></linearGradient><linearGradient id="paint69_linear" x1="19.621" y1="540.423" x2="92.072" y2="281.62" gradientUnits="userSpaceOnUse"><stop stop-color="#4F52FF"/><stop offset="1" stop-color="#4042E2"/></linearGradient><linearGradient id="paint70_linear" x1="23.416" y1="541.485" x2="95.867" y2="282.682" gradientUnits="userSpaceOnUse"><stop stop-color="#4F52FF"/><stop offset="1" stop-color="#4042E2"/></linearGradient><linearGradient id="paint71_linear" x1="223.22" y1="597.42" x2="295.67" y2="338.617" gradientUnits="userSpaceOnUse"><stop stop-color="#4F52FF"/><stop offset="1" stop-color="#4042E2"/></linearGradient><linearGradient id="paint72_linear" x1="227.015" y1="598.482" x2="299.466" y2="339.679" gradientUnits="userSpaceOnUse"><stop stop-color="#4F52FF"/><stop offset="1" stop-color="#4042E2"/></linearGradient><linearGradient id="paint73_linear" x1="325.756" y1="184.864" x2="314.116" y2="233.835" gradientUnits="userSpaceOnUse"><stop stop-color="#09005D"/><stop offset="1" stop-color="#1A0F91"/></linearGradient><linearGradient id="paint74_linear" x1="109.155" y1="565.484" x2="181.604" y2="306.684" gradientUnits="userSpaceOnUse"><stop stop-color="#4F52FF"/><stop offset="1" stop-color="#4042E2"/></linearGradient></defs></svg>