<svg width="446" height="449" viewBox="0 0 446 449" fill="none" xmlns="http://www.w3.org/2000/svg"><path d="M394.231 385.224c-9.147 9.63-17.782 15.831-24.623 20.734-80.31 57.649-175.343 40.842-195.545 36.74-29.83-6.057-87.487-17.769-129.156-66.799C-18.15 301.73-8.33 184.877 40.58 107.743c8.94-14.115 56.216-92.418 152.274-104.98 58.138-7.595 125.904 7.723 174.975 48.853 103.011 86.314 95.674 260.689 26.401 333.608z" fill="url(#paint0_linear)"/><path d="M97.726 27.71c-1.186-1.746 1.025-4.053 3.188-3.348 21.996 7.13 77.955 32.333 95.321 107.367 21.788 94.149 55.863 118.424 90.323 127.973 0 0-40.419 4.839-76.305-19.307-88.128-59.252-91.396-181.68-112.527-212.685z" fill="#BDD0FB"/><path d="M121.212 50.69c5.927 9.132 11.63 18.377 16.933 27.847a458.728 458.728 0 0115.043 28.776c4.614 9.774 9.02 19.644 12.929 29.706 3.957 10.046 7.417 20.269 10.845 30.555 3.493 10.255 6.953 20.606 11.631 30.572 4.662 9.95 10.782 19.435 18.776 27.462 2.003 2.003 4.037 3.974 6.216 5.801 2.131 1.874 4.358 3.653 6.633 5.383a117.064 117.064 0 0014.546 9.422c10.285 5.575 21.676 9.661 33.483 12.273 1.249.272 2.595-.433 3.028-1.586.416-1.122-.209-2.26-1.41-2.564h-.016c-2.852-.705-5.672-1.458-8.443-2.307-1.394-.401-2.756-.865-4.133-1.314-1.346-.481-2.74-.929-4.069-1.458a116.522 116.522 0 01-15.444-7.114c-9.837-5.384-18.68-12.209-26.322-19.868a94.286 94.286 0 01-10.221-12.418c-3.028-4.406-5.655-9.053-7.962-13.859-4.63-9.63-8.154-19.853-11.727-30.075-3.588-10.222-7.289-20.461-11.47-30.507a387.17 387.17 0 00-6.521-14.949c-1.121-2.484-2.307-4.935-3.476-7.387a777.061 777.061 0 00-3.653-7.306 455.683 455.683 0 00-15.972-28.504c-5.719-9.293-11.727-18.41-18.135-27.27-.176-.257-.577-.305-.881-.113-.273.192-.369.545-.208.801z" fill="#fff"/><path d="M223.454 224.693c-1.218 2.98-5.079 3.733-7.37 1.49-12.624-12.433-45.145-50.84-39.314-111.758 4.919-51.432 2.708-79.808.801-92.61-.4-2.708 2.884-4.359 4.822-2.42 21.308 21.422 85.117 97.562 41.061 205.298z" fill="#91B3FA"/><path d="M219.097 224.549c-.065.048-.145.08-.225.112-.657.24-1.378-.096-1.602-.737-.272-.737-27.042-74.521-23.438-146.367a1.253 1.253 0 011.314-1.186 1.254 1.254 0 011.186 1.314c-3.589 71.317 23.005 144.637 23.277 145.374.224.561 0 1.186-.512 1.49z" fill="#fff"/><path d="M228.133 427.078h162.142c.913 0 1.65-.737 1.65-1.651V21.704c0-.914-.737-1.65-1.65-1.65H228.133c-.914 0-1.651.736-1.651 1.65v403.739c0 .898.737 1.635 1.651 1.635z" fill="url(#paint1_linear)"/><path d="M282.713 427.076h160.22a2.611 2.611 0 002.611-2.611V22.664a2.612 2.612 0 00-2.611-2.612h-160.22a2.612 2.612 0 00-2.611 2.611v401.818a2.597 2.597 0 002.611 2.595z" fill="url(#paint2_linear)"/><path opacity=".65" d="M424.829 80.362H298.38c-3.525 0-6.408-3.813-6.408-8.492V48.012c0-4.678 2.867-8.492 6.408-8.492h126.465c3.524 0 6.408 3.814 6.408 8.492v23.842c-.016 4.695-2.884 8.508-6.424 8.508zM298.38 41.652c-2.644 0-4.806 2.852-4.806 6.377V71.87c0 3.51 2.146 6.377 4.806 6.377h126.465c2.643 0 4.806-2.852 4.806-6.377V48.012c0-3.508-2.147-6.377-4.806-6.377H298.38v.017zm126.449 104.035H298.38c-3.525 0-6.408-3.814-6.408-8.492v-23.842c0-4.679 2.867-8.492 6.408-8.492h126.465c3.524 0 6.408 3.813 6.408 8.492v23.842c-.016 4.678-2.884 8.492-6.424 8.492zM298.38 106.976c-2.644 0-4.806 2.852-4.806 6.377v23.842c0 3.509 2.146 6.377 4.806 6.377h126.465c2.643 0 4.806-2.852 4.806-6.377v-23.842c0-3.509-2.147-6.377-4.806-6.377H298.38zm126.449 108.055H298.38c-3.525 0-6.408-3.813-6.408-8.492v-23.841c0-4.679 2.867-8.492 6.408-8.492h126.465c3.524 0 6.408 3.813 6.408 8.492v23.841c-.016 4.679-2.884 8.492-6.424 8.492zm-126.449-38.71c-2.644 0-4.806 2.852-4.806 6.377v23.841c0 3.509 2.146 6.377 4.806 6.377h126.465c2.643 0 4.806-2.852 4.806-6.377v-23.841c0-3.509-2.147-6.377-4.806-6.377H298.38zm126.449 104.052H298.38c-3.525 0-6.408-3.813-6.408-8.492v-23.842c0-4.678 2.867-8.492 6.408-8.492h126.465c3.524 0 6.408 3.814 6.408 8.492v23.842c-.016 4.679-2.884 8.492-6.424 8.492zM298.38 241.662c-2.644 0-4.806 2.852-4.806 6.377v23.842c0 3.509 2.146 6.377 4.806 6.377h126.465c2.643 0 4.806-2.852 4.806-6.377v-23.842c0-3.509-2.147-6.377-4.806-6.377H298.38zM424.028 347.38H297.579c-3.524 0-6.408-3.813-6.408-8.492v-23.841c0-4.679 2.868-8.492 6.408-8.492h126.465c3.524 0 6.408 3.813 6.408 8.492v23.841c-.016 4.679-2.884 8.492-6.424 8.492zm-126.449-38.71c-2.643 0-4.806 2.852-4.806 6.377v23.841c0 3.509 2.147 6.377 4.806 6.377h126.465c2.643 0 4.806-2.852 4.806-6.377v-23.841c0-3.509-2.147-6.377-4.806-6.377H297.579zm127.25 105.621H298.38c-3.525 0-6.408-3.814-6.408-8.492v-23.842c0-4.679 2.867-8.492 6.408-8.492h126.465c3.524 0 6.408 3.813 6.408 8.492v23.842c-.016 4.678-2.884 8.492-6.424 8.492zM298.38 375.58c-2.644 0-4.806 2.852-4.806 6.377v23.842c0 3.509 2.146 6.377 4.806 6.377h126.465c2.643 0 4.806-2.852 4.806-6.377v-23.842c0-3.509-2.147-6.377-4.806-6.377H298.38z" fill="#BDD0FB"/><path d="M302.241 62.032c1.699 0 3.076-1.305 3.076-2.916 0-1.61-1.377-2.916-3.076-2.916s-3.076 1.306-3.076 2.916c0 1.61 1.377 2.916 3.076 2.916zm0 66.158c1.699 0 3.076-1.305 3.076-2.916 0-1.61-1.377-2.916-3.076-2.916s-3.076 1.306-3.076 2.916c0 1.611 1.377 2.916 3.076 2.916zm0 68.128c1.699 0 3.076-1.306 3.076-2.916 0-1.611-1.377-2.916-3.076-2.916s-3.076 1.305-3.076 2.916c0 1.61 1.377 2.916 3.076 2.916zm0 66.544c1.699 0 3.076-1.306 3.076-2.916 0-1.611-1.377-2.916-3.076-2.916s-3.076 1.305-3.076 2.916c0 1.61 1.377 2.916 3.076 2.916zm0 67.024c1.699 0 3.076-1.306 3.076-2.916 0-1.611-1.377-2.916-3.076-2.916s-3.076 1.305-3.076 2.916c0 1.61 1.377 2.916 3.076 2.916zm-1.329 66.91c1.699 0 3.076-1.306 3.076-2.916 0-1.611-1.377-2.916-3.076-2.916s-3.076 1.305-3.076 2.916c0 1.61 1.377 2.916 3.076 2.916zm20.347-3.591h-5.047v18.104h5.047v-18.104zm8.428 6.216h-5.047v11.889h5.047v-11.889zm8.426-15.38h-5.047v27.271h5.047v-27.271zm8.427 20.715h-5.047v6.553h5.047v-6.553zm8.427-17.064h-5.047v23.618h5.047v-23.618zm8.41 4.087h-5.046v19.531h5.046v-19.531zm8.428 4.452h-5.047v15.093h5.047v-15.093zm8.425-17.703h-5.046v32.783h5.046v-32.783zm8.429 3.477h-5.047v29.305h5.047v-29.305zm8.425 5.24h-5.047v24.066h5.047v-24.066zm8.411 18.12h-5.047v5.944h5.047v-5.944zm8.426-11.534h-5.047v17.48h5.047v-17.48zm-92.517-68.592h-5.047v18.105h5.047v-18.105zm8.428 6.231h-5.047v11.888h5.047V331.47zm8.426-15.381h-5.047v27.27h5.047v-27.27zm8.41 20.716h-5.046v6.553h5.046v-6.553zm8.426-17.078h-5.047v23.617h5.047v-23.617zm8.428 4.101h-5.047v19.531h5.047v-19.531zm8.427 4.44h-5.047v15.092h5.047v-15.092zm8.426-17.691h-5.047v32.782h5.047v-32.782zm8.412 3.46h-5.047v29.306h5.047v-29.306zm8.427 5.257h-5.047v24.066h5.047v-24.066zm8.425 18.12h-5.047v5.944h5.047v-5.944zm8.426-11.552h-5.046v17.48h5.046v-17.48zm-94.426-67.359h-5.047v18.105h5.047v-18.105zm8.426 6.217h-5.046v11.888h5.046V264.72zm8.428-15.381h-5.047v27.27h5.047v-27.27zm8.425 20.716h-5.046v6.553h5.046v-6.553zm8.411-17.064h-5.047v23.618h5.047v-23.618zm8.428 4.087h-5.047v19.531h5.047v-19.531zm8.427 4.452h-5.047v15.093h5.047V261.53zm8.426-17.703h-5.047v32.783h5.047v-32.783zm8.426 3.477h-5.047v29.305h5.047v-29.305zm8.413 5.24h-5.047v24.066h5.047v-24.066zm8.425 18.12h-5.047v5.944h5.047v-5.944zm8.426-11.535h-5.047v17.48h5.047v-17.48zm-92.515-66.162h-5.047v18.105h5.047v-18.105zm8.41 6.233h-5.047v11.888h5.047V199.2zm8.426-15.381h-5.047v27.271h5.047v-27.271zm8.427 20.716h-5.047v6.553h5.047v-6.553zm8.426-17.078h-5.047v23.617h5.047v-23.617zm8.428 4.101h-5.047v19.53h5.047v-19.53zm8.41 4.439h-5.047v15.093h5.047v-15.093zm8.427-17.689h-5.047v32.782h5.047v-32.782zm8.428 3.46h-5.047v29.305h5.047v-29.305zm8.427 5.256h-5.047v24.066h5.047v-24.066zm8.426 18.121h-5.047v5.944h5.047v-5.944zm8.41-11.552h-5.047v17.48h5.047v-17.48zm-92.791-69.632h-5.047v18.105h5.047v-18.105zm8.426 6.232h-5.046v11.889h5.046v-11.889zm8.428-15.381h-5.047v27.271h5.047v-27.271zm8.425 20.717h-5.046v6.553h5.046v-6.553zm8.411-17.079h-5.047v23.618h5.047V118.45zm8.428 4.084h-5.047v19.531h5.047v-19.531zm8.427 4.456h-5.047v15.093h5.047V126.99zm8.426-17.69h-5.047v32.782h5.047V109.3zm8.426 3.46h-5.047v29.305h5.047V112.76zm8.413 5.239h-5.047v24.066h5.047v-24.066zm8.425 18.123h-5.047v5.944h5.047v-5.944zm8.426-11.536h-5.047v17.48h5.047v-17.48zm-92.515-66.144h-5.047v18.105h5.047V58.442zm8.41 6.218h-5.047v11.887h5.047V64.66zm8.426-15.382h-5.047v27.27h5.047v-27.27zm8.427 20.717h-5.047v6.553h5.047v-6.553zm8.426-17.065h-5.047v23.617h5.047V52.93zm8.428 4.087h-5.047v19.53h5.047v-19.53zm8.41 4.439h-5.047V76.55h5.047V61.456zm8.427-17.69h-5.047v32.782h5.047V43.766zm8.428 3.476h-5.047v29.306h5.047V47.242zm8.427 5.24h-5.047v24.066h5.047V52.482zm8.426 18.121h-5.047v5.945h5.047v-5.945zm8.41-11.535h-5.047v17.48h5.047v-17.48z" fill="#BDD0FB"/><path d="M159.084 370.856l-8.075 55.727h93.672l-12.208-55.727h-73.389z" fill="url(#paint3_linear)"/><path d="M1.763 192.458v165.834c0 13.636 10.877 24.803 24.51 25.156 60.558 1.554 272.396 5.351 330.053 4.502 9.917-.144 17.943-8.075 18.215-17.977 1.106-38.535 2.916-131.178-3.765-174.182-1.409-9.053-9.051-15.831-18.215-16.119-50.752-1.618-275.294-6.778-332.92-5.48-9.948.192-17.878 8.316-17.878 18.266z" fill="url(#paint4_linear)"/><path d="M12.162 191.643V349.21c0 7.963 6.392 14.452 14.354 14.58l321.498 3.974c7.898.112 14.37-6.233 14.402-14.132l.545-156.157a10.387 10.387 0 00-10.125-10.415l-329.155-6.649c-6.312-.16-11.519 4.919-11.519 11.232z" fill="url(#paint5_linear)"/><path d="M364.834 374.253s-.016 0 0 0l-352.673-6.008a.475.475 0 01-.48-.496c0-.273.24-.497.496-.481l352.673 6.008c.272 0 .497.224.481.497a.496.496 0 01-.497.48zm-172.862 7.339a4.178 4.178 0 01-4.165-4.166 4.178 4.178 0 014.165-4.166 4.179 4.179 0 014.166 4.166 4.179 4.179 0 01-4.166 4.166zm0-7.338a3.18 3.18 0 00-3.172 3.172 3.18 3.18 0 003.172 3.172 3.18 3.18 0 003.173-3.172 3.18 3.18 0 00-3.173-3.172z" fill="#91B3FA"/><path d="M264.851 441.386h-137.07c-3.717 0-6.521-2.643-5.8-5.495l1.762-6.954c.529-2.099 2.836-3.621 5.56-3.717l132.152-4.118c2.851-.096 5.383 1.426 6.007 3.605l3.172 11.088c.817 2.867-2.002 5.591-5.783 5.591z" fill="url(#paint6_linear)"/><path d="M201.57 427.16a.485.485 0 01-.496-.48c0-.273.208-.497.48-.497l5.656-.08c.273 0 .497.208.497.481a.485.485 0 01-.481.496l-5.656.08zm-74.528 10.447h-.08a.501.501 0 01-.416-.561l.801-5.063a5.7 5.7 0 015.543-4.807l60.06-.881a.476.476 0 01.497.481.486.486 0 01-.481.497l-60.06.881a4.69 4.69 0 00-4.582 3.973l-.801 5.063a.484.484 0 01-.481.417z" fill="#91B3FA"/><path opacity=".53" d="M228.436 291.335h-12.432v64.315h12.432v-64.315zm20.778-.002h-12.432v64.315h12.432v-64.315zm20.777 0H257.56v64.315h12.431v-64.315zm20.795 0h-12.432v64.315h12.432v-64.315zm20.778 0h-12.432v64.315h12.432v-64.315zm20.779 0h-12.432v64.315h12.432v-64.315zm20.795 0h-12.432v64.315h12.432v-64.315z" fill="#fff"/><path d="M228.435 321.984h-12.432v33.647h12.432v-33.647zm20.778 11.569h-12.432v22.095h12.432v-22.095zm20.778-28.586H257.56v50.679h12.431v-50.679zm20.794 38.505h-12.431v12.176h12.431v-12.176zm20.78-31.726h-12.432v43.902h12.432v-43.902zm20.779 7.595h-12.432v36.291h12.432v-36.291zm20.794 8.268h-12.432v28.04h12.432v-28.04z" fill="#91B3FA"/><path opacity=".57" d="M52.516 304.343c-14.195 0-25.713 11.504-25.713 25.716 0 14.196 11.502 25.716 25.713 25.716 14.194 0 25.712-11.504 25.712-25.716 0-14.196-11.518-25.716-25.712-25.716zm0 40.361c-8.09 0-14.643-6.553-14.643-14.645 0-8.091 6.552-14.645 14.643-14.645 8.09 0 14.642 6.554 14.642 14.645 0 8.092-6.552 14.645-14.642 14.645z" fill="#fff"/><path d="M92.966 324.402H16.613v32.318h76.353v-32.318z" fill="#91B3FA"/><path opacity=".57" d="M115.187 304.344c-14.194 0-25.713 11.504-25.713 25.716 0 14.196 11.503 25.716 25.713 25.716 14.194 0 25.713-11.504 25.713-25.716-.016-14.196-11.519-25.716-25.713-25.716zm0 40.361c-8.09 0-14.643-6.553-14.643-14.645 0-8.091 6.553-14.645 14.643-14.645s14.642 6.554 14.642 14.645c0 8.092-6.552 14.645-14.642 14.645z" fill="#fff"/><path d="M155.637 311.907H79.284v44.816h76.353v-44.816z" fill="#91B3FA"/><path opacity=".57" d="M177.843 304.344c-14.194 0-25.713 11.504-25.713 25.716 0 14.196 11.503 25.716 25.713 25.716 14.194 0 25.713-11.504 25.713-25.716 0-14.196-11.519-25.716-25.713-25.716zm0 40.361c-8.09 0-14.643-6.553-14.643-14.645 0-8.091 6.553-14.645 14.643-14.645s14.643 6.554 14.643 14.645c0 8.092-6.553 14.645-14.643 14.645z" fill="#fff"/><path d="M218.294 340.57H141.94v16.166h76.354V340.57z" fill="#91B3FA"/><path opacity=".48" d="M223.39 202.553h-45.386c-1.906 0-3.444 1.41-3.444 3.156 0 1.746 1.538 3.156 3.444 3.156h45.386c1.906 0 3.444-1.41 3.444-3.156 0-1.746-1.538-3.156-3.444-3.156zm-.002 13.956h-45.386c-1.906 0-3.444 1.41-3.444 3.156 0 1.747 1.538 3.156 3.444 3.156h45.386c1.906 0 3.444-1.409 3.444-3.156 0-1.746-1.538-3.156-3.444-3.156zm0 55.853h-45.386c-1.906 0-3.444 1.41-3.444 3.157 0 1.746 1.538 3.156 3.444 3.156h45.386c1.906 0 3.444-1.41 3.444-3.156 0-1.747-1.538-3.157-3.444-3.157zm0-13.955h-45.386c-1.906 0-3.444 1.41-3.444 3.156 0 1.746 1.538 3.156 3.444 3.156h45.386c1.906 0 3.444-1.41 3.444-3.156 0-1.746-1.538-3.156-3.444-3.156zm0-13.971h-45.386c-1.906 0-3.444 1.409-3.444 3.156 0 1.746 1.538 3.156 3.444 3.156h45.386c1.906 0 3.444-1.41 3.444-3.156 0-1.747-1.538-3.156-3.444-3.156zm63.089-41.883h-45.386c-1.907 0-3.445 1.41-3.445 3.156 0 1.746 1.538 3.156 3.445 3.156h45.386c1.906 0 3.444-1.41 3.444-3.156 0-1.746-1.538-3.156-3.444-3.156zm-.001 13.956H241.09c-1.907 0-3.444 1.41-3.444 3.156 0 1.747 1.537 3.156 3.444 3.156h45.386c1.906 0 3.444-1.409 3.444-3.156 0-1.746-1.538-3.156-3.444-3.156zm0 55.853H241.09c-1.907 0-3.444 1.41-3.444 3.157 0 1.746 1.537 3.156 3.444 3.156h45.386c1.906 0 3.444-1.41 3.444-3.156 0-1.747-1.538-3.157-3.444-3.157zm0-13.953H241.09c-1.907 0-3.444 1.41-3.444 3.156 0 1.746 1.537 3.156 3.444 3.156h45.386c1.906 0 3.444-1.41 3.444-3.156 0-1.746-1.538-3.156-3.444-3.156zm0-13.972H241.09c-1.907 0-3.444 1.409-3.444 3.156 0 1.746 1.537 3.156 3.444 3.156h45.386c1.906 0 3.444-1.41 3.444-3.156 0-1.747-1.538-3.156-3.444-3.156zm63.089-41.885h-45.386c-1.907 0-3.445 1.41-3.445 3.156 0 1.746 1.538 3.156 3.445 3.156h45.386c1.906 0 3.444-1.41 3.444-3.156 0-1.746-1.538-3.156-3.444-3.156zm-.001 13.956h-45.386c-1.907 0-3.445 1.41-3.445 3.156 0 1.747 1.538 3.156 3.445 3.156h45.386c1.906 0 3.444-1.409 3.444-3.156 0-1.746-1.538-3.156-3.444-3.156zm0 55.853h-45.386c-1.907 0-3.445 1.41-3.445 3.157 0 1.746 1.538 3.156 3.445 3.156h45.386c1.906 0 3.444-1.41 3.444-3.156 0-1.747-1.538-3.157-3.444-3.157zm0-13.954h-45.386c-1.907 0-3.445 1.41-3.445 3.156 0 1.746 1.538 3.156 3.445 3.156h45.386c1.906 0 3.444-1.41 3.444-3.156 0-1.746-1.538-3.156-3.444-3.156zm0-13.972h-45.386c-1.907 0-3.445 1.409-3.445 3.156 0 1.746 1.538 3.156 3.445 3.156h45.386c1.906 0 3.444-1.41 3.444-3.156 0-1.747-1.538-3.156-3.444-3.156z" fill="#fff"/><path d="M42.535 282.745h107.353c3.428 0 6.2-2.772 6.2-6.201V115.741c0-3.413-2.772-6.185-6.184-6.201l-108.218-.288c-3.444-.016-6.232 2.787-6.216 6.232l.865 161.108c.016 3.397 2.788 6.153 6.2 6.153z" fill="#91B3FA"/><path opacity=".6" d="M47.79 117.182l95.994.593c3.477.016 6.264 2.852 6.248 6.313l-.673 144.332c-.016 3.413-2.755 6.201-6.168 6.265l-93.27 1.698c-3.477.064-6.36-2.724-6.408-6.201l-2.051-146.623a6.292 6.292 0 016.328-6.377z" fill="#fff"/><path opacity=".6" d="M51.7 125.274v.657c0 1.041.849 1.874 1.874 1.874h73.966a1.877 1.877 0 001.875-1.874v-.657a1.877 1.877 0 00-1.875-1.875H53.574c-1.041-.016-1.874.833-1.874 1.875zm8.249 8.318a1.885 1.885 0 001.842 1.778l64.674 1.186a1.888 1.888 0 001.923-1.875v-.16a1.874 1.874 0 00-1.859-1.875l-64.674-1.025a1.868 1.868 0 00-1.906 1.971z" fill="#fff"/><path opacity=".61" d="M53.35 271.546c-2.965 0-5.4-2.387-5.448-5.352L45.803 148.14c-.048-2.997 2.34-5.496 5.351-5.544l87.327-1.699a5.498 5.498 0 013.893 1.522 5.34 5.34 0 011.666 3.83l2.259 118.696a5.349 5.349 0 01-1.538 3.893 5.384 5.384 0 01-3.845 1.651l-87.487 1.057h-.08zm85.228-128.678h-.065l-87.327 1.699c-1.922.032-3.46 1.634-3.412 3.541l2.099 118.054a3.498 3.498 0 003.492 3.429h.048l87.487-1.057a3.512 3.512 0 002.468-1.058 3.446 3.446 0 00.977-2.499l-2.259-118.696a3.496 3.496 0 00-1.073-2.452 3.542 3.542 0 00-2.435-.961z" fill="#fff"/><path opacity=".61" d="M143.192 154.74H47.903a.97.97 0 01-.977-.977.97.97 0 01.977-.977h95.273c.545 0 .978.432.978.977a.948.948 0 01-.962.977z" fill="#fff"/><path opacity=".73" d="M98.22 248.697c-20.65 0-37.439-16.792-37.439-37.445s16.79-37.445 37.44-37.445 37.44 16.792 37.44 37.445-16.79 37.445-37.44 37.445zm0-63.145c-14.177 0-25.696 11.536-25.696 25.7 0 14.18 11.535 25.7 25.697 25.7 14.178 0 25.697-11.536 25.697-25.7s-11.519-25.7-25.697-25.7z" fill="#fff"/><path d="M135.568 208.448l-11.711.881c.048.641.064 1.282.064 1.923 0 3.06-.545 6.008-1.522 8.732l11.038 3.989a37.188 37.188 0 002.227-12.721c0-.946-.032-1.875-.096-2.804z" fill="url(#paint7_linear)"/><path d="M98.222 236.952c-14.179 0-25.697-11.536-25.697-25.7 0-14.18 11.534-25.7 25.697-25.7 2.162 0 4.261.272 6.263.769l2.868-11.392a37.187 37.187 0 00-9.115-1.122c-20.65 0-37.44 16.792-37.44 37.445s16.79 37.445 37.44 37.445c16.18 0 30.006-10.319 35.212-24.739l-11.038-3.99c-3.588 9.902-13.072 16.984-24.19 16.984z" fill="url(#paint8_linear)"/><path d="M123.855 209.329l11.711-.882a36.959 36.959 0 00-3.685-13.586l-10.557 5.143a25.733 25.733 0 012.531 9.325z" fill="url(#paint9_linear)"/><path d="M387.31 432.894s.865 4.678 1.314 9.293a3.195 3.195 0 01-3.012 3.493c-6.168.32-19.353.945-24.095.769-.705-.032-1.185-.753-.929-1.41a2.322 2.322 0 011.169-1.266l21.692-10.222 3.861-.657z" fill="url(#paint10_linear)"/><path d="M387.968 430.137l-.609 5.607s-3.797 1.811-6.425-.16l1.522-6.249 5.512.802z" fill="url(#paint11_linear)"/><path d="M386.462 324.915c.304 1.458 2.243 72.919-5.095 105.029a1.097 1.097 0 00.657 1.265c1.17.465 3.477 1.138 6.232 1.202a1.875 1.875 0 001.842-1.362c2.115-7.45 12.224-44.783 13.249-80.369 1.154-39.753-.016-1.346-.016-1.346l-1.121-24.563-15.748.144z" fill="url(#paint12_linear)"/><path d="M412.399 435.105s1.346 2.355 2.676 8.62a1.956 1.956 0 01-1.698 2.355c-2.035.224-5.175.513-7.674.513-1.154 0-2.067-.994-1.939-2.147.257-2.291 1.09-6.057 3.733-9.021l4.902-.32z" fill="url(#paint13_linear)"/><path d="M413.489 427.894l-1.474 8.476s-1.522 1.154-4.566.352l.657-9.116 5.383.288z" fill="url(#paint14_linear)"/><path d="M416.708 326.822c6.6 37.654-.465 93.22-2.932 104.1a1.674 1.674 0 01-1.361 1.297c-1.138.209-3.028.369-4.887-.144a1.544 1.544 0 01-1.121-1.426c-.433-8.78-.32-62.696-6.344-83.942a4.892 4.892 0 00-1.891-2.66l-11.374-7.931-.993-12.979 30.903 3.685z" fill="url(#paint15_linear)"/><path d="M376.224 255.744c18.728-.48 39.426 4.535 39.426 4.535 5.896 32.51 1.65 70.131 1.65 70.131-14.466 3.941-30.871-2.035-30.871-2.035-2.531-13.587-14.146-51.801-14.146-51.801-9.164-1.042-16.725-3.621-22.957-7.05 4.678-5.528 6.84-12.53 7.77-16.68 6.648 2.019 13.361 3.061 19.128 2.9z" fill="url(#paint16_linear)"/><path d="M320.649 228.7c1.81-2.243 4.149-1.218 4.149-1.218 2.868 11.617 17.398 20.91 32.297 25.38-.929 4.134-3.092 11.136-7.77 16.68-24.767-13.603-28.676-40.842-28.676-40.842z" fill="url(#paint17_linear)"/><path d="M321.114 229.261c-.193.609 2.05 1.522 3.332-.994.032-1.201.721-6.344-.016-7.322-3.861-5.175-11.327-11.615-11.327-11.615-1.233 1.249-.192 2.451-.192 2.451l3.621 3.701c-.737 1.362-1.65 2.515-2.051 4.166-.32 1.249-.096 2.579.545 3.701.641 1.121 1.522 2.595 2.339 3.749 1.554 2.163 3.749 2.163 3.749 2.163z" fill="url(#paint18_linear)"/><path d="M318.133 217.901l3.301 2.74 1.057 2.755-2.884 3.269s-1.025-5.464-1.778-6.649c-.753-1.186-.369-1.763.304-2.115z" fill="url(#paint19_linear)"/><path d="M408.648 278.498l7.001-18.202s17.607 11.713 20.619 26.758c-3.301.273-9.308 1.186-15.172 4.214-1.345-7.098-12.448-12.77-12.448-12.77z" fill="url(#paint20_linear)"/><path d="M393.525 295.706s19.737 10.911 26.274 1.378c1.361-1.987 1.666-3.942 1.313-5.8 5.864-3.028 11.855-3.942 15.172-4.214.913 4.534.496 9.373-2.131 14.276-11.407 21.342-43.175-.769-43.175-.769l2.547-4.871z" fill="url(#paint21_linear)"/><path d="M395.048 240.365l6.12 17.175a.633.633 0 01-.272.753c-1.618.914-7.434 3.557-14.531-.833-.737-.464-1.249-1.218-1.361-2.083l-2.067-14.9 12.111-.112z" fill="url(#paint22_linear)"/><path d="M381.927 224.534s-6.424 12.385-5.543 17.351c.881 4.967 8.987 4.535 16.036.417l4.822-13.346-15.315-4.422z" fill="url(#paint23_linear)"/><path d="M392.051 235.782a.501.501 0 01-.224-.737c.513-.802 1.49-2.452 1.778-3.878 0 0 1.17-.769-3.011-1.73-4.182-.962-10.414-2.452-11.759-5.993-1.314-3.445 1.954-12.177 7.369-5.303.208.256.609.256.801 0 .865-1.154 3.14-3.541 6.36-2.131 2.996 1.314 3.364 3.509 3.332 4.614a.51.51 0 00.609.513c1.506-.305 5.143-.593 6.873 3.124 1.426 3.061.528 4.791-.289 5.656a.499.499 0 00.225.834c.993.288 2.291 1.121 2.179 3.46-.145 3.221-3.749 2.965-4.775 2.836a.523.523 0 00-.448.161c-.865.977-4.79 5.143-9.068 5.688-.368.048-.657-.321-.544-.673l1.81-5.416c.08-.256-.032-.529-.288-.625l-.93-.4z" fill="url(#paint24_linear)"/><path d="M391.316 236.55s4.631-3.236 4.999-.545c.369 2.692-4.15 3.942-6.409 2.964l1.41-2.419z" fill="url(#paint25_linear)"/><path d="M397.563 312.946l-10.749-37.557a1.08 1.08 0 00-.93-.785 469.362 469.362 0 00-14.113-1.41c-7.85-.657-16.966-1.201-22.413-.737a1.099 1.099 0 00-.897 1.586c3.092 6.265 15.844 31.773 22.22 40.121.208.273.545.433.881.433l24.944-.225a1.13 1.13 0 001.057-1.426z" fill="url(#paint26_linear)"/><path d="M394.951 303.875s1.506-6.153.897-8.348c-.608-2.179-1.778-4.999-5.671-4.374-3.909.625-8.507 2.275-8.507 2.275s.241 2.852 3.204 1.923l-1.842 1.426s.256 2.275 2.772 1.057l-1.714 1.891s1.073 1.875 2.915.673c1.843-1.202 2.724 4.214 7.946 3.477z" fill="url(#paint27_linear)"/><path d="M369.318 287.548a3.156 3.156 0 10.002-6.312 3.156 3.156 0 00-.002 6.312zm16.263-1.072l-2.194-7.434c-.273-.914-1.01-1.603-1.907-1.795-6.857-1.426-25.649-1.73-25.841-1.73l.016-.833c.769.016 19.048.304 25.985 1.762a3.392 3.392 0 012.548 2.371l2.194 7.434-.801.225z" fill="#91B3FA"/><defs><linearGradient id="paint0_linear" x1="503.707" y1="580.149" x2="105.722" y2="85.947" gradientUnits="userSpaceOnUse"><stop stop-color="#DAE3FE"/><stop offset="1" stop-color="#E9EFFD"/></linearGradient><linearGradient id="paint1_linear" x1="535.284" y1="15.957" x2="445.698" y2="98.201" gradientUnits="userSpaceOnUse"><stop stop-color="#4F52FF"/><stop offset="1" stop-color="#4042E2"/></linearGradient><linearGradient id="paint2_linear" x1="457.395" y1="-60.603" x2="198.301" y2="717.721" gradientUnits="userSpaceOnUse"><stop stop-color="#4F52FF"/><stop offset="1" stop-color="#4042E2"/></linearGradient><linearGradient id="paint3_linear" x1="198.711" y1="335.339" x2="197.095" y2="505.792" gradientUnits="userSpaceOnUse"><stop stop-color="#09005D"/><stop offset=".821" stop-color="#170C88"/><stop offset="1" stop-color="#1A0F91"/></linearGradient><linearGradient id="paint4_linear" x1="190.328" y1="169.607" x2="186.289" y2="382.067" gradientUnits="userSpaceOnUse"><stop stop-color="#09005D"/><stop offset="1" stop-color="#1A0F91"/></linearGradient><linearGradient id="paint5_linear" x1="19.158" y1="373.127" x2="237.202" y2="242.319" gradientUnits="userSpaceOnUse"><stop stop-color="#FF928E"/><stop offset="1" stop-color="#FE7062"/></linearGradient><linearGradient id="paint6_linear" x1="192.275" y1="345.926" x2="197.122" y2="454.978" gradientUnits="userSpaceOnUse"><stop stop-color="#09005D"/><stop offset="1" stop-color="#1A0F91"/></linearGradient><linearGradient id="paint7_linear" x1="150.187" y1="195.906" x2="62.582" y2="280.271" gradientUnits="userSpaceOnUse"><stop stop-color="#FF928E"/><stop offset="1" stop-color="#FE7062"/></linearGradient><linearGradient id="paint8_linear" x1="130.43" y1="122.578" x2="101.343" y2="202.644" gradientUnits="userSpaceOnUse"><stop stop-color="#FF928E"/><stop offset="1" stop-color="#FE7062"/></linearGradient><linearGradient id="paint9_linear" x1="147.247" y1="173.976" x2="113.288" y2="228.601" gradientUnits="userSpaceOnUse"><stop stop-color="#FEBBBA"/><stop offset="1" stop-color="#FF928E"/></linearGradient><linearGradient id="paint10_linear" x1="362.026" y1="426.671" x2="442.653" y2="512.708" gradientUnits="userSpaceOnUse"><stop stop-color="#09005D"/><stop offset="1" stop-color="#1A0F91"/></linearGradient><linearGradient id="paint11_linear" x1="387.988" y1="432.869" x2="380.9" y2="432.937" gradientUnits="userSpaceOnUse"><stop stop-color="#A22B25"/><stop offset="1" stop-color="#C0423C"/></linearGradient><linearGradient id="paint12_linear" x1="354.807" y1="328.553" x2="423.596" y2="419.944" gradientUnits="userSpaceOnUse"><stop stop-color="#09005D"/><stop offset="1" stop-color="#1A0F91"/></linearGradient><linearGradient id="paint13_linear" x1="379.772" y1="410.04" x2="460.402" y2="496.08" gradientUnits="userSpaceOnUse"><stop stop-color="#09005D"/><stop offset="1" stop-color="#1A0F91"/></linearGradient><linearGradient id="paint14_linear" x1="413.531" y1="432.263" x2="407.411" y2="432.321" gradientUnits="userSpaceOnUse"><stop stop-color="#A22B25"/><stop offset="1" stop-color="#C0423C"/></linearGradient><linearGradient id="paint15_linear" x1="366.824" y1="319.509" x2="435.612" y2="410.899" gradientUnits="userSpaceOnUse"><stop stop-color="#09005D"/><stop offset="1" stop-color="#1A0F91"/></linearGradient><linearGradient id="paint16_linear" x1="349.324" y1="292.319" x2="418.777" y2="292.319" gradientUnits="userSpaceOnUse"><stop stop-color="#DAE3FE"/><stop offset="1" stop-color="#E9EFFD"/></linearGradient><linearGradient id="paint17_linear" x1="353.123" y1="255.972" x2="315.99" y2="236.019" gradientUnits="userSpaceOnUse"><stop stop-color="#FEBBBA"/><stop offset="1" stop-color="#FF928E"/></linearGradient><linearGradient id="paint18_linear" x1="323.432" y1="223.324" x2="309.275" y2="218.069" gradientUnits="userSpaceOnUse"><stop stop-color="#FEBBBA"/><stop offset="1" stop-color="#FF928E"/></linearGradient><linearGradient id="paint19_linear" x1="321.938" y1="223.853" x2="316.043" y2="221.725" gradientUnits="userSpaceOnUse"><stop stop-color="#FEBBBA"/><stop offset="1" stop-color="#FF928E"/></linearGradient><linearGradient id="paint20_linear" x1="408.642" y1="275.784" x2="436.272" y2="275.784" gradientUnits="userSpaceOnUse"><stop stop-color="#DAE3FE"/><stop offset="1" stop-color="#E9EFFD"/></linearGradient><linearGradient id="paint21_linear" x1="431.738" y1="303.075" x2="407.371" y2="273.582" gradientUnits="userSpaceOnUse"><stop stop-color="#FEBBBA"/><stop offset="1" stop-color="#FF928E"/></linearGradient><linearGradient id="paint22_linear" x1="399.212" y1="253.645" x2="381.304" y2="243.215" gradientUnits="userSpaceOnUse"><stop stop-color="#FEBBBA"/><stop offset="1" stop-color="#FF928E"/></linearGradient><linearGradient id="paint23_linear" x1="394.96" y1="238.773" x2="375.148" y2="226.434" gradientUnits="userSpaceOnUse"><stop stop-color="#FEBBBA"/><stop offset="1" stop-color="#FF928E"/></linearGradient><linearGradient id="paint24_linear" x1="408.818" y1="213.521" x2="383.273" y2="234.091" gradientUnits="userSpaceOnUse"><stop stop-color="#09005D"/><stop offset="1" stop-color="#1A0F91"/></linearGradient><linearGradient id="paint25_linear" x1="395.635" y1="237.9" x2="391.057" y2="233.693" gradientUnits="userSpaceOnUse"><stop stop-color="#FEBBBA"/><stop offset="1" stop-color="#FF928E"/></linearGradient><linearGradient id="paint26_linear" x1="378.67" y1="269.626" x2="353.377" y2="375" gradientUnits="userSpaceOnUse"><stop stop-color="#09005D"/><stop offset="1" stop-color="#1A0F91"/></linearGradient><linearGradient id="paint27_linear" x1="394.432" y1="299.812" x2="381.733" y2="291.005" gradientUnits="userSpaceOnUse"><stop stop-color="#FEBBBA"/><stop offset="1" stop-color="#FF928E"/></linearGradient></defs></svg>