<svg width="30" height="30" viewBox="0 0 30 30" fill="none" xmlns="http://www.w3.org/2000/svg"><path d="M15 0C6.73 0 0 6.73 0 15s6.73 15 15 15 15-6.73 15-15S23.27 0 15 0zm0 28.125C7.763 28.125 1.875 22.238 1.875 15 1.875 7.763 7.763 1.875 15 1.875c7.238 0 13.125 5.888 13.125 13.125 0 7.238-5.887 13.125-13.125 13.125z" fill="#fff"/><path d="M15 14.063c-1.524 0-2.813-.86-2.813-1.876s1.289-1.874 2.813-1.874c.863 0 1.661.27 2.19.738a.936.936 0 001.324-.079.936.936 0 00-.079-1.323c-.656-.583-1.537-.977-2.497-1.133V7.5a.938.938 0 00-1.876 0v1.012c-2.137.35-3.75 1.864-3.75 3.675 0 2.069 2.104 3.75 4.688 3.75 1.524 0 2.813.86 2.813 1.876s-1.29 1.875-2.813 1.875c-.863 0-1.661-.27-2.19-.74a.934.934 0 00-1.324.08.936.936 0 00.079 1.323c.656.585 1.537.977 2.498 1.135V22.5a.938.938 0 001.874 0v-1.012c2.138-.35 3.75-1.864 3.75-3.675 0-2.069-2.103-3.75-4.687-3.75z" fill="#fff"/></svg>