<svg width="22" height="29" viewBox="0 0 22 29" fill="none" xmlns="http://www.w3.org/2000/svg"><path d="M10.796 16.433A2.096 2.096 0 009.66 20.29v2.487a1.133 1.133 0 002.266 0v-2.484a2.096 2.096 0 00-1.13-3.86z" fill="#fff"/><path d="M19.031 29H2.72A2.722 2.722 0 010 26.281V13.594c0-1.5 1.22-2.719 2.719-2.719H19.03a2.722 2.722 0 012.719 2.719V26.28c0 1.5-1.22 2.719-2.719 2.719zM2.72 12.687a.907.907 0 00-.906.907V26.28c0 .5.407.907.906.907h16.31c.5 0 .907-.406.907-.907V13.594c0-.5-.408-.906-.907-.906H2.72z" fill="#fff"/><path d="M17.219 12.688a.907.907 0 01-.907-.907V7.25a5.444 5.444 0 00-5.437-5.438A5.444 5.444 0 005.437 7.25v4.531a.907.907 0 01-1.812 0V7.25A7.257 7.257 0 0110.875 0a7.257 7.257 0 017.25 7.25v4.531c0 .5-.406.906-.906.906z" fill="#fff"/></svg>