<svg width="23" height="30" viewBox="0 0 23 30" fill="none" xmlns="http://www.w3.org/2000/svg"><path d="M11.25 30a.923.923 0 01-.41-.095C4.91 27.017 0 23.9 0 15V4.687c0-.394.246-.746.617-.88L10.93.056a.94.94 0 01.64 0l10.313 3.75a.934.934 0 01.617.88V15c0 8.9-4.909 12.017-10.84 14.905a.921.921 0 01-.41.095zM1.875 5.344V15c0 6.994 3.157 9.932 9.375 13.017 6.218-3.085 9.375-6.023 9.375-13.017V5.344L11.25 1.935 1.875 5.344z" fill="#fff"/><path d="M10.587 18.75l-4.413-4.413L7.5 13.011l3.087 3.088 5.9-5.9 1.326 1.325-7.226 7.226z" fill="#fff"/></svg>