<svg width="523" height="522" viewBox="0 0 523 522" fill="none" xmlns="http://www.w3.org/2000/svg"><path opacity=".1" d="M454.547 440.022c-10.459 11.014-20.342 18.115-28.158 23.743-91.827 65.993-200.497 46.76-223.593 42.045-34.096-6.933-100.035-20.351-147.679-76.467-72.1-84.928-60.877-218.704-4.95-307.005C60.403 106.18 114.43 16.537 224.272 2.148c66.478-8.703 143.956 8.853 200.068 55.93 117.79 98.813 109.415 298.451 30.206 381.944z" fill="#FF4A35"/><path d="M487.694 257.287c-5.267 120.096-114.477 212.852-243.935 207.149C114.3 458.752 13.615 356.79 18.882 236.675 24.149 116.579 133.358 23.842 262.817 29.526c129.458 5.685 230.144 107.665 224.877 227.761z" fill="url(#paint0_linear)"/><g opacity=".68" fill="#fff"><path opacity=".68" d="M313.625 248.043c-.019 19.215-.726 38.429-2.215 57.588-1.526 19.159-3.889 38.261-7.295 57.178-3.481 18.898-7.891 37.702-14.591 55.799-3.388 9.02-7.333 17.91-12.674 26.035-2.699 4.045-5.751 7.902-9.529 11.108-1.88 1.584-3.964 3-6.254 4.025-2.289 1.025-4.783 1.678-7.314 1.715a18.283 18.283 0 01-7.407-1.36c-2.345-.932-4.467-2.274-6.402-3.802-3.871-3.094-6.998-6.915-9.734-10.922-5.434-8.069-9.417-16.94-12.86-25.942-3.406-9.02-6.179-18.264-8.58-27.564-2.4-9.318-4.41-18.73-6.141-28.179-3.462-18.916-5.844-38.019-7.445-57.159-1.6-19.159-2.4-38.373-2.531-57.588-.056-9.617.242-19.215.596-28.813.372-9.598.912-19.196 1.638-28.775 1.451-19.159 3.592-38.261 6.774-57.234 1.601-9.467 3.462-18.916 5.695-28.272 2.233-9.356 4.839-18.618 8.059-27.694 3.256-9.04 7.053-17.985 12.32-26.11 2.661-4.026 5.714-7.884 9.51-10.978 1.899-1.528 4.002-2.87 6.291-3.764 2.289-.913 4.783-1.38 7.24-1.286 2.475.074 4.913.69 7.165 1.677 2.252.988 4.318 2.348 6.216 3.877 3.797 3.075 6.923 6.84 9.715 10.772 5.527 7.939 9.696 16.698 13.307 25.625 7.128 17.892 11.967 36.585 15.782 55.426 3.741 18.861 6.365 37.926 8.096 57.066 1.693 19.103 2.512 38.337 2.568 57.551zm-3.648 0c.056-19.121-.67-38.243-2.252-57.29-1.544-19.046-3.889-38.056-7.388-56.842-3.518-18.767-8.077-37.423-14.889-55.24-3.462-8.87-7.463-17.593-12.786-25.476-2.68-3.914-5.695-7.623-9.305-10.642-3.574-3-7.929-5.293-12.6-5.442-2.326-.074-4.634.392-6.775 1.286-2.158.876-4.131 2.162-5.936 3.672-3.611 3.019-6.533 6.802-9.083 10.79-5.062 8.033-8.691 16.922-11.78 25.943-3.071 9.039-5.509 18.282-7.612 27.601-2.085 9.318-3.797 18.73-5.267 28.179-5.77 37.814-7.612 76.15-7.463 114.374-.075 19.122.539 38.243 1.935 57.309 1.415 19.065 3.574 38.075 6.831 56.917 1.637 9.411 3.536 18.767 5.825 28.048 2.289 9.263 4.95 18.432 8.226 27.378 3.294 8.927 7.147 17.686 12.358 25.588 2.624 3.914 5.602 7.623 9.193 10.549 3.555 2.926 7.929 4.994 12.47 4.826 4.541-.13 8.803-2.385 12.283-5.404 3.518-3.038 6.44-6.784 9.008-10.735 5.118-7.958 8.915-16.755 12.172-25.682 6.42-17.947 10.626-36.658 13.883-55.463 3.239-18.823 5.379-37.851 6.812-56.917 1.489-19.084 2.159-38.205 2.14-57.327z"/><path opacity=".68" d="M410.401 248.043c-.149 24.769-3.331 49.537-9.957 73.411-6.756 23.818-16.955 46.722-30.764 67.279-13.791 20.519-31.341 38.709-52.334 51.922-10.478 6.579-21.812 11.835-33.668 15.394-11.836 3.578-24.213 5.442-36.589 5.442-12.376 0-24.753-1.845-36.608-5.405-11.855-3.559-23.189-8.796-33.686-15.356-21.012-13.177-38.618-31.366-52.446-51.885-13.828-20.575-24.045-43.48-30.838-67.317-3.35-11.946-5.825-24.116-7.482-36.397-1.638-12.282-2.457-24.676-2.512-37.088.074-12.393.893-24.787 2.55-37.069a266.973 266.973 0 017.5-36.397c6.811-23.818 17.066-46.723 30.913-67.261 13.828-20.5 31.434-38.653 52.427-51.792 10.496-6.541 21.831-11.74 33.667-15.282 11.818-3.56 24.176-5.423 36.534-5.423a126.262 126.262 0 0136.514 5.48c11.819 3.559 23.153 8.777 33.631 15.319 20.974 13.157 38.525 31.328 52.315 51.829 13.828 20.538 24.027 43.424 30.802 67.223 6.662 23.836 9.863 48.605 10.031 73.373zm-4.188 0c-.018-24.395-3.033-48.828-9.454-72.385-6.439-23.52-16.136-46.257-29.498-66.702-6.682-10.213-14.275-19.83-22.78-28.589-8.506-8.74-17.923-16.661-28.215-23.221-10.31-6.542-21.44-11.797-33.109-15.357a125.78 125.78 0 00-36.049-5.48c-12.209.057-24.381 1.939-36.05 5.517-11.669 3.579-22.78 8.853-33.072 15.394-10.273 6.58-19.653 14.5-28.158 23.24-8.487 8.76-16.062 18.395-22.724 28.608-13.344 20.445-23.004 43.144-29.406 66.664-3.2 11.76-5.49 23.762-7.053 35.857a288.04 288.04 0 00-2.364 36.473c.037 12.188.819 24.377 2.4 36.472 1.583 12.077 3.89 24.079 7.092 35.839 6.42 23.501 16.098 46.201 29.461 66.608 6.663 10.194 14.237 19.811 22.724 28.552 8.487 8.722 17.867 16.642 28.14 23.203 10.292 6.522 21.403 11.741 33.035 15.319 11.631 3.578 23.784 5.479 35.975 5.535 12.19-.056 24.343-1.938 35.993-5.498 11.651-3.559 22.78-8.778 33.072-15.282 10.292-6.541 19.691-14.444 28.196-23.166 8.505-8.74 16.098-18.357 22.78-28.551 13.381-20.408 23.096-43.126 29.554-66.627 6.44-23.594 9.473-48.027 9.51-72.423z"/><path opacity=".68" d="M57.09 163.599c16.302-.242 32.606-.335 48.909-.503l48.91-.28c16.303-.13 32.606-.111 48.91-.149l48.909-.093 97.801.261 48.91.317c16.304.186 32.607.298 48.91.54.093 0 .186.094.186.187a.186.186 0 01-.186.186c-16.303.261-32.606.354-48.91.541l-48.91.317-97.801.26-48.909-.093c-16.304-.037-32.607-.018-48.91-.149l-48.91-.279c-16.303-.168-32.606-.28-48.91-.504a.286.286 0 01-.279-.279c0-.168.13-.28.28-.28zm56.727-82.02c11.576-.242 23.152-.336 34.709-.503l34.71-.28c11.576-.13 23.152-.112 34.709-.15l34.71-.092 34.71.093c11.576.056 23.152.018 34.709.168l34.71.316c11.576.187 23.152.299 34.709.54.093 0 .186.094.186.187a.186.186 0 01-.186.187c-11.576.26-23.152.354-34.709.54l-34.71.317c-11.576.13-23.152.093-34.709.168l-34.71.093-34.71-.093c-11.576-.038-23.152-.019-34.709-.15l-34.71-.279c-11.576-.168-23.152-.28-34.709-.503-.149 0-.28-.13-.261-.28 0-.149.112-.28.261-.28zM40.098 245.62l53.153-.503 53.153-.28c17.718-.13 35.436-.111 53.153-.149l53.154-.093 106.306.261 53.153.317c17.718.186 35.435.298 53.153.54.093 0 .186.094.186.187a.186.186 0 01-.186.186c-17.718.261-35.435.354-53.153.541l-53.172.316-106.306.261-53.153-.093c-17.718-.037-35.436-.018-53.153-.149l-53.153-.279-53.154-.504a.286.286 0 01-.279-.279.303.303 0 01.298-.28zm16.992 82.021c16.303-.242 32.606-.335 48.909-.503l48.91-.28c16.303-.13 32.606-.111 48.91-.149l48.91-.093 97.801.261 48.909.317c16.304.186 32.607.298 48.91.54.093 0 .186.094.186.187a.186.186 0 01-.186.186c-16.303.261-32.606.354-48.91.541l-48.909.316-97.801.261-48.947-.093c-16.304-.037-32.607-.018-48.91-.149l-48.91-.279c-16.303-.168-32.607-.28-48.91-.504a.286.286 0 01-.28-.279c.038-.168.168-.28.317-.28zm341.476 83.251H120.814a.962.962 0 01-.967-.969c0-.541.428-.969.967-.969h277.752c.539 0 .967.428.967.969 0 .54-.428.969-.967.969z"/></g><path d="M265.05 264.146c-42.749-40.591-115.053-75.703-178.498-75.796l-5.453 66.552c1.693-.056 3.405-.074 5.118-.074 52.818 0 104.091 29.819 135.321 67.614 8.654-18.208 26.576-30.191 35.007-48.717l8.505-9.579z" fill="#7D97F4"/><path d="M111.211 163.376L8.515 213.342l14.591 10.94h92.739l4.392-58.147-9.026-2.759z" fill="#7D97F4"/><path d="M111.211 163.376l-9.845 130.049L.457 218.691c-.689-.503-.577-1.547.186-1.92l110.568-53.395z" fill="url(#paint1_linear)"/><path d="M215.359 356.1c9.547-21.711 27.284-65.508 42.545-83.269-43.439-46.219-112.56-80.399-180.918-80.493l-5.453 66.553c1.693-.056 3.406-.075 5.118-.075 55.721 0 128.993 39.902 138.708 97.284z" fill="url(#paint2_linear)"/><path d="M244.504 277.229a.593.593 0 01-.447-.205c-12.023-14.592-30.187-29.017-52.539-41.728a.604.604 0 01-.223-.801.602.602 0 01.8-.224c22.463 12.766 40.758 27.285 52.874 41.989a.588.588 0 01-.075.82.572.572 0 01-.39.149zm-60.039-45.865a.524.524 0 01-.279-.075 292.081 292.081 0 00-42.47-18.376.615.615 0 01-.372-.745.614.614 0 01.744-.373c14.535 4.958 28.866 11.164 42.638 18.451a.6.6 0 01.242.801.53.53 0 01-.503.317zm-51.126-21.19c-.056 0-.111 0-.167-.019-8.729-2.646-17.215-4.715-25.218-6.15a.57.57 0 01-.465-.69.594.594 0 01.688-.484c8.04 1.435 16.583 3.504 25.348 6.169a.58.58 0 01.391.726.626.626 0 01-.577.448z" fill="#91B3FA"/><path d="M269.796 1.85L257.866.64l2.829 5.851-55.051 95.179h98.657l21.626 6.355 9.417-5.256L269.796 1.851z" fill="#7D97F4"/><path d="M237.673 93.04v122.426c10.776 8.815 12.098 43.368 21.906 54.122 10.887-10.623 31.601-33.044 45.243-41.188V93.04h-67.149z" fill="#7D97F4"/><path d="M197.808 108.137h128.118L258.443.639a.332.332 0 00-.577.019L196.747 106.31c-.484.802.112 1.827 1.061 1.827z" fill="url(#paint3_linear)"/><path d="M225.464 99.508v144.585c12.209 8.815 21.477 21.432 31.285 32.167 10.888-10.623 23.655-32.391 36.943-40.778V99.508h-68.228z" fill="url(#paint4_linear)"/><path d="M226.19 105.49h-21.496c-.502 0-.93-.261-1.191-.69a1.4 1.4 0 01-.019-1.379l52.26-93.296c.168-.28.521-.391.8-.223.28.167.391.521.224.8L204.508 104c-.056.093-.019.168 0 .205a.186.186 0 00.168.093h21.495a.58.58 0 01.577.578.564.564 0 01-.558.615z" fill="#91B3FA"/><path d="M456.316 190.455c-98.471.131-182.76 55.407-219.219 142.777v.019a1.18 1.18 0 00-.093.242h.037c-19.132 42.082-7.668 113.312-6.161 186.35h68.359c2.996 0 5.397-2.535 5.23-5.535-2.978-55.37-5.547-111.057 2.289-157.556 2.475-14.723 8.877-28.533 18.536-40.032 31.23-37.199 78.464-60.905 131.357-60.905 1.712 0 3.424-.019 5.118.037l-5.453-65.397z" fill="#7D97F4"/><path d="M442.377 185.833a1.638 1.638 0 00-1.619-1.491c-97.82.708-181.458 56.563-217.731 145.461-.037.075-.074.149-.093.224h.037c-18.834 42.194-8.003 113.181-6.235 186.35a3.53 3.53 0 003.537 3.447h69.27a1.6 1.6 0 001.6-1.695c-3.145-60.496-6.755-113.723 1.489-164.005a87.156 87.156 0 0118.872-41.523c31.229-37.702 78.352-61.725 131.096-61.725h3.35c.949.019 1.694-.802 1.619-1.752l-5.192-63.291z" fill="url(#paint5_linear)"/><path d="M522.739 223.61l.26-.186-2.438-13.456-.223-.112-.037-.242-.242.112-99.271-47.934 6.848 90.407-1.73.783-8.022 32.484 10.218 8.2 2.531-1.863v.037l92.031-68.155.075-.075z" fill="#7D97F4"/><path d="M408.039 155.399l9.845 130.067 102.417-75.852-112.262-54.215z" fill="url(#paint6_linear)"/><path opacity=".3" d="M119.829 111.212a2.058 2.058 0 01-2.048-1.845 79.828 79.828 0 01-.428-7.008 2.044 2.044 0 012.01-2.087h.038c1.116 0 2.028.895 2.047 2.013a79.31 79.31 0 00.409 6.653 2.052 2.052 0 01-1.824 2.255.681.681 0 01-.204.019zm.148-17.929c-.074 0-.167 0-.241-.018a2.059 2.059 0 01-1.806-2.293 86.38 86.38 0 011.117-6.914 2.044 2.044 0 012.419-1.603 2.056 2.056 0 011.601 2.423c-.447 2.162-.8 4.38-1.061 6.579-.13 1.062-1.005 1.826-2.029 1.826zm4.058-17.444c-.224 0-.466-.037-.689-.112-1.061-.373-1.619-1.565-1.247-2.627.782-2.2 1.657-4.38 2.624-6.505a2.065 2.065 0 012.718-1.025 2.07 2.07 0 011.023 2.721 80.79 80.79 0 00-2.494 6.169 2.033 2.033 0 01-1.935 1.38zm7.872-16.102a2.14 2.14 0 01-1.098-.317 2.074 2.074 0 01-.633-2.833 81.51 81.51 0 014.02-5.74 2.066 2.066 0 012.885-.391 2.073 2.073 0 01.391 2.888 79.481 79.481 0 00-3.815 5.461c-.41.596-1.08.932-1.75.932zm11.241-13.94a2.086 2.086 0 01-1.47-.615c-.8-.802-.782-2.107.019-2.908a82.66 82.66 0 015.192-4.715 2.04 2.04 0 012.885.26 2.045 2.045 0 01-.261 2.89 80.64 80.64 0 00-4.932 4.472c-.372.41-.912.616-1.433.616zm14.052-11.09a2.04 2.04 0 01-1.75-.969 2.07 2.07 0 01.652-2.832 81.301 81.301 0 016.104-3.448 2.039 2.039 0 012.754.894 2.045 2.045 0 01-.893 2.759 73.393 73.393 0 00-5.788 3.28 2.074 2.074 0 01-1.079.317zm75.281-4.9a2.03 2.03 0 01-.856-.187 80.64 80.64 0 00-6.179-2.498 2.049 2.049 0 01-1.247-2.627 2.046 2.046 0 012.625-1.25 78.833 78.833 0 016.495 2.629 2.053 2.053 0 011.023 2.72 2.024 2.024 0 01-1.861 1.212zm-59.127-2.815c-.856 0-1.656-.54-1.936-1.38a2.054 2.054 0 011.266-2.608 75.196 75.196 0 016.719-1.995 2.057 2.057 0 011.005 3.988 75.5 75.5 0 00-6.365 1.902 3.056 3.056 0 01-.689.093zm42.117-2.721c-.131 0-.279-.019-.41-.037a70.88 70.88 0 00-6.569-1.044 2.051 2.051 0 01-1.806-2.274 2.05 2.05 0 012.271-1.808c2.308.261 4.634.634 6.923 1.1a2.047 2.047 0 011.601 2.423 2.066 2.066 0 01-2.01 1.64zm-24.66-1.174a2.058 2.058 0 01-2.047-1.845 2.068 2.068 0 011.824-2.274 87.09 87.09 0 016.998-.447h.037c1.116 0 2.028.894 2.047 2.013a2.071 2.071 0 01-2.01 2.105 71.835 71.835 0 00-6.644.43c-.056.018-.13.018-.205.018zm54.213 13.847a1.95 1.95 0 01-1.173-.373 59.596 59.596 0 00-2.661-1.77c-.949-.616-1.247-1.883-.633-2.833.614-.95 1.88-1.249 2.829-.634a91.14 91.14 0 012.81 1.864 2.084 2.084 0 01.522 2.87 2.11 2.11 0 01-1.694.876zm33.372 53.078a2.073 2.073 0 01-2.029-1.733 60.97 60.97 0 00-.577-3.15 2.047 2.047 0 011.601-2.423 2.058 2.058 0 012.419 1.603c.223 1.1.428 2.218.596 3.317a2.035 2.035 0 01-1.713 2.349 1.284 1.284 0 01-.297.037zm-78.912 92.849c-.949 0-1.898-.019-2.847-.056a2.06 2.06 0 01-1.991-2.125 2.059 2.059 0 012.121-1.994c2.196.075 4.392.056 6.551-.056a2.062 2.062 0 01.205 4.119c-1.321.093-2.68.112-4.039.112zm-13.623-1.156c-.111 0-.223-.018-.353-.037a83.134 83.134 0 01-6.738-1.454 2.046 2.046 0 01-1.47-2.497 2.048 2.048 0 012.513-1.472 83.61 83.61 0 006.402 1.379 2.05 2.05 0 011.675 2.367 2.085 2.085 0 01-2.029 1.714zm28.401-.223a2.05 2.05 0 01-2.01-1.678c-.205-1.118.521-2.199 1.637-2.404a75.143 75.143 0 006.384-1.491 2.055 2.055 0 012.531 1.435c.298 1.1-.335 2.237-1.433 2.535a83.307 83.307 0 01-6.719 1.565c-.13.038-.26.038-.39.038zm-45.337-4.641c-.26 0-.521-.056-.782-.149a82.798 82.798 0 01-6.253-2.889 2.067 2.067 0 01-.893-2.777 2.06 2.06 0 012.773-.894 85.708 85.708 0 005.937 2.758 2.065 2.065 0 011.116 2.684 2.08 2.08 0 01-1.898 1.267zm62.18-.503a2.036 2.036 0 01-1.88-1.249 2.06 2.06 0 011.079-2.702 77.875 77.875 0 005.9-2.852c1.005-.54 2.252-.167 2.773.839.54 1.006.168 2.255-.837 2.777a90.03 90.03 0 01-6.198 3 2.066 2.066 0 01-.837.187zm15.279-8.741a2.053 2.053 0 01-1.656-.839 2.057 2.057 0 01.447-2.87 83.4 83.4 0 005.136-4.062 2.059 2.059 0 112.699 3.112 84.93 84.93 0 01-5.397 4.286 2.26 2.26 0 01-1.229.373zm13.028-11.872c-.484 0-.968-.167-1.359-.521-.856-.746-.93-2.05-.186-2.908a89.436 89.436 0 004.132-5.088 2.047 2.047 0 012.866-.428 2.056 2.056 0 01.428 2.87c-1.359 1.845-2.829 3.634-4.336 5.367a1.98 1.98 0 01-1.545.708zm10.143-14.424c-.335 0-.67-.075-.986-.261a2.072 2.072 0 01-.819-2.796 78.194 78.194 0 002.903-5.871 2.05 2.05 0 012.717-1.043 2.055 2.055 0 011.042 2.721 79.74 79.74 0 01-3.07 6.187c-.354.69-1.061 1.063-1.787 1.063zm6.719-16.308c-.187 0-.373-.018-.577-.074-1.098-.317-1.713-1.454-1.415-2.554a81.262 81.262 0 001.545-6.373 2.06 2.06 0 114.039.801 81.905 81.905 0 01-1.62 6.709 2.042 2.042 0 01-1.972 1.491zm2.996-17.369h-.13a2.047 2.047 0 01-1.917-2.181 83.65 83.65 0 00.149-4.827c0-.577 0-1.155-.019-1.733a2.071 2.071 0 012.01-2.106c1.154-.056 2.066.876 2.103 2.013.019.615.019 1.211.019 1.826 0 1.678-.056 3.392-.149 5.069-.093 1.1-1.005 1.939-2.066 1.939zm-125.829 60.7c-.41 0-.819-.13-1.173-.373a66.206 66.206 0 01-2.717-1.994 2.052 2.052 0 01-.372-2.888 2.046 2.046 0 012.885-.373 84.847 84.847 0 002.586 1.901 2.063 2.063 0 01.503 2.87 2.176 2.176 0 01-1.712.857z" fill="#91B3FA"/><path d="M156.213 144.479a.985.985 0 001.079.298l10.962-4.044a50.788 50.788 0 0014.517 7.827l2.68 11.387c.093.392.428.69.837.746l13.94 1.416c.409.037.8-.186.968-.559l4.895-10.623a50.93 50.93 0 0015.8-4.752l9.939 6.168c.353.224.8.187 1.116-.074l10.869-8.871a.99.99 0 00.298-1.081l-4.039-10.977a50.908 50.908 0 007.817-14.537l11.371-2.684a.995.995 0 00.745-.838l1.414-13.96a.966.966 0 00-.558-.968l-10.608-4.902a51.098 51.098 0 00-4.746-15.823l6.16-9.952a.955.955 0 00-.074-1.118l-8.859-10.884a.986.986 0 00-1.08-.298l-10.962 4.044a50.78 50.78 0 00-14.516-7.827l-2.68-11.388a.995.995 0 00-.838-.745l-13.939-1.416a.963.963 0 00-.968.559l-4.895 10.623a50.926 50.926 0 00-15.801 4.752l-9.938-6.169a.95.95 0 00-1.117.075l-10.868 8.871a.986.986 0 00-.298 1.08l4.038 10.978a50.92 50.92 0 00-7.816 14.537l-11.372 2.684a.997.997 0 00-.744.838l-1.415 13.959a.966.966 0 00.559.969l10.608 4.902a51.097 51.097 0 004.746 15.822l-6.16 9.953a.953.953 0 00.074 1.118l8.859 10.884z" fill="#BDD0FB"/><path d="M199.447 114.194c-6.868 0-12.898-5.051-13.94-12.058-1.135-7.697 4.206-14.891 11.893-16.01 3.722-.559 7.444.392 10.459 2.628 3.015 2.255 4.988 5.535 5.527 9.263 1.136 7.697-4.206 14.891-11.892 16.009-.67.112-1.359.168-2.047.168zm.037-24.937c-.54 0-1.061.038-1.601.112-5.899.876-9.975 6.374-9.119 12.282.875 5.908 6.365 9.989 12.265 9.132 5.899-.876 9.975-6.374 9.119-12.282a10.793 10.793 0 00-4.243-7.1 10.604 10.604 0 00-6.421-2.144z" fill="url(#paint7_linear)"/><path d="M199.745 134.564c-1.172 0-2.363-.056-3.555-.187-.372-.037-.744-.074-1.116-.13a33.39 33.39 0 01-5.416-1.174c-.019 0-.056-.019-.074-.019-.075-.018-.131-.037-.205-.056-.13-.037-.261-.074-.391-.13a.816.816 0 01-.577-.783c0-.093.019-.168.037-.261a.82.82 0 011.043-.522 31.805 31.805 0 006.886 1.435c11.631 1.174 22.482-3.876 29.256-12.449a32.85 32.85 0 006.905-17.109c.111-1.137.167-2.273.167-3.392 0-7.585-2.587-14.872-7.444-20.836-5.565-6.84-13.474-11.089-22.24-11.983-18.109-1.827-34.319 11.424-36.161 29.558a33.64 33.64 0 00-.168 3.355c0 4.845 1.061 9.616 3.108 13.996a.754.754 0 01.075.354.817.817 0 01-.466.745.836.836 0 01-1.098-.391 34.604 34.604 0 01-3.275-14.704c0-1.175.055-2.349.186-3.523 1.917-19.028 18.964-32.95 37.966-31.03 9.213.932 17.495 5.404 23.357 12.58 5.1 6.243 7.798 13.903 7.817 21.86 0 1.175-.056 2.368-.186 3.56-.931 9.226-5.398 17.519-12.563 23.39-6.272 5.125-13.921 7.846-21.868 7.846z" fill="url(#paint8_linear)"/><path opacity=".3" d="M49.72 165.427c-.54 0-1.061-.354-1.21-.913a60.336 60.336 0 01-.819-3.15c-.149-.69.26-1.361.95-1.528.688-.168 1.358.279 1.525.95.224 1.007.484 2.013.782 3.001a1.276 1.276 0 01-1.228 1.64zm-1.86-9.598a1.272 1.272 0 01-1.266-1.137 55.964 55.964 0 01-.28-5.591c0-.392 0-.783.02-1.174.018-.709.632-1.23 1.302-1.249a1.272 1.272 0 011.247 1.305c0 .372-.018.745-.018 1.118 0 1.77.093 3.559.279 5.33a1.273 1.273 0 01-1.136 1.398h-.148zm.279-13.195c-.056 0-.13 0-.186-.019a1.277 1.277 0 01-1.08-1.435 52.833 52.833 0 011.378-6.616 1.284 1.284 0 011.563-.895c.67.187 1.08.876.893 1.566a52.112 52.112 0 00-1.303 6.318 1.294 1.294 0 01-1.265 1.081zm3.461-12.729c-.167 0-.316-.037-.483-.093-.652-.261-.95-1.007-.689-1.659a54.06 54.06 0 012.96-6.094 1.278 1.278 0 011.73-.485c.614.354.819 1.118.484 1.733a48.938 48.938 0 00-2.81 5.796c-.224.504-.689.802-1.192.802zm6.477-11.48a1.32 1.32 0 01-.763-.243 1.257 1.257 0 01-.26-1.77 57.715 57.715 0 014.354-5.181 1.263 1.263 0 011.787-.038c.503.485.521 1.286.037 1.79a52.829 52.829 0 00-4.15 4.938c-.223.336-.614.504-1.005.504zm9.082-9.543c-.372 0-.726-.167-.986-.465a1.273 1.273 0 01.167-1.79 51.654 51.654 0 015.472-3.951 1.264 1.264 0 011.75.392 1.268 1.268 0 01-.391 1.752 54.682 54.682 0 00-5.23 3.783 1.246 1.246 0 01-.782.279zm11.13-7.063c-.484 0-.93-.261-1.154-.727a1.282 1.282 0 01.614-1.696 51.712 51.712 0 016.272-2.497 1.265 1.265 0 011.6.82 1.268 1.268 0 01-.818 1.603 53.239 53.239 0 00-5.975 2.385 1.326 1.326 0 01-.54.112zM90.795 97.7a1.29 1.29 0 01-1.247-1.025c-.13-.69.317-1.36 1.005-1.49a57.326 57.326 0 016.7-.895 1.284 1.284 0 011.359 1.174 1.272 1.272 0 01-1.172 1.36c-2.14.15-4.3.429-6.384.839-.093.037-.168.037-.26.037zm19.709-.149c-.074 0-.148 0-.223-.018a54.663 54.663 0 00-5.565-.69l-.837-.056a1.274 1.274 0 01-1.21-1.342c.037-.708.633-1.267 1.34-1.211l.894.056c1.954.13 3.908.372 5.825.708.688.13 1.154.783 1.023 1.472-.111.634-.651 1.081-1.247 1.081zm-8.653 106.379c-.689 0-1.266-.559-1.266-1.248 0-.708.558-1.286 1.247-1.286a50.962 50.962 0 006.309-.466 1.276 1.276 0 011.433 1.081 1.278 1.278 0 01-1.079 1.435 56.015 56.015 0 01-6.644.484c.018 0 .018 0 0 0zm-6.477-.298h-.13a60.124 60.124 0 01-6.551-1.099 1.265 1.265 0 01-.95-1.529c.15-.689.838-1.099 1.527-.95a53.92 53.92 0 006.253 1.062c.689.075 1.21.708 1.117 1.398a1.283 1.283 0 01-1.266 1.118zm19.318-1.435a1.27 1.27 0 01-1.228-.95 1.254 1.254 0 01.912-1.547 55.767 55.767 0 006.03-1.976 1.274 1.274 0 01.949 2.367 53.104 53.104 0 01-6.309 2.069c-.13.019-.242.037-.354.037zm-31.955-1.509a1.09 1.09 0 01-.428-.075 53.767 53.767 0 01-6.086-2.665 1.271 1.271 0 01-.558-1.715 1.283 1.283 0 011.712-.559 55.217 55.217 0 005.807 2.535c.651.242 1.005.969.763 1.621a1.29 1.29 0 01-1.21.858zm43.997-3.28c-.447 0-.894-.243-1.117-.653a1.287 1.287 0 01.502-1.733 51.595 51.595 0 005.36-3.373 1.257 1.257 0 011.768.298c.41.578.28 1.36-.297 1.77a56.889 56.889 0 01-5.621 3.541c-.186.094-.391.15-.595.15zm10.533-7.548a1.23 1.23 0 01-.93-.41c-.465-.522-.447-1.324.074-1.79a53.527 53.527 0 004.411-4.566 1.251 1.251 0 011.787-.13c.54.466.595 1.267.13 1.789a59.08 59.08 0 01-4.615 4.79c-.242.205-.54.317-.857.317zm8.431-9.859c-.242 0-.484-.075-.707-.205a1.285 1.285 0 01-.354-1.771 51.725 51.725 0 003.183-5.479 1.266 1.266 0 011.712-.559 1.27 1.27 0 01.558 1.714 56.906 56.906 0 01-3.331 5.759 1.33 1.33 0 01-1.061.541zm-74.555 14.76c-.242 0-.484-.074-.708-.223a55.83 55.83 0 01-2.624-1.901 1.28 1.28 0 01-.242-1.79 1.292 1.292 0 011.787-.242c.8.615 1.656 1.23 2.513 1.808.576.391.725 1.193.335 1.771a1.27 1.27 0 01-1.061.577z" fill="#91B3FA"/><path d="M72.203 178.342a.666.666 0 00.726.205l7.333-2.702a33.527 33.527 0 009.715 5.237l1.786 7.622c.056.261.28.466.559.485l9.324.95c.279.019.54-.112.651-.372l3.276-7.101a34.11 34.11 0 0010.571-3.187l6.644 4.119c.242.149.54.13.744-.056l7.259-5.945c.204-.168.297-.466.204-.727l-2.698-7.343a33.596 33.596 0 005.23-9.729l7.611-1.789a.614.614 0 00.484-.559l.949-9.337c.019-.279-.111-.54-.372-.652l-7.091-3.28a34.175 34.175 0 00-3.182-10.586l4.113-6.653a.617.617 0 00-.056-.746l-5.9-7.287c-.167-.205-.465-.298-.725-.205l-7.333 2.703a33.48 33.48 0 00-9.715-5.237l-1.787-7.623a.613.613 0 00-.558-.484l-9.324-.951c-.279-.019-.54.112-.652.373l-3.275 7.1a34.132 34.132 0 00-10.571 3.187l-6.644-4.118a.613.613 0 00-.745.056l-7.258 5.945a.668.668 0 00-.205.727l2.699 7.342a33.58 33.58 0 00-5.23 9.729l-7.612 1.789a.616.616 0 00-.484.559l-.949 9.337c-.019.28.112.541.372.652l7.091 3.281a34.212 34.212 0 003.183 10.585l-4.113 6.654a.615.615 0 00.055.745l5.9 7.287z" fill="#BDD0FB"/><path d="M101.125 158.252a9.529 9.529 0 01-5.713-1.901c-2.066-1.528-3.388-3.765-3.778-6.318-.763-5.237 2.866-10.139 8.095-10.903 5.249-.764 10.125 2.87 10.888 8.107a9.6 9.6 0 01-1.787 7.138 9.478 9.478 0 01-6.309 3.784c-.447.055-.931.093-1.396.093zm.019-16.699c-.335 0-.689.019-1.042.075-3.853.577-6.514 4.174-5.956 8.032a7.052 7.052 0 002.773 4.641 7.105 7.105 0 005.248 1.323 7.037 7.037 0 004.635-2.777 7.051 7.051 0 001.321-5.256c-.503-3.503-3.536-6.038-6.979-6.038z" fill="url(#paint9_linear)"/><path d="M101.31 172.434c-.8 0-1.619-.037-2.42-.13a23.063 23.063 0 01-4.764-.988.892.892 0 01-.204-.075 1.257 1.257 0 01-.875-1.211c0-.13.019-.261.056-.391a1.28 1.28 0 011.6-.82 21.2 21.2 0 004.448.931c.075 0 .168.019.242.019 3.592.336 7.11-.242 10.33-1.64a21.545 21.545 0 004.931-2.963l.038-.037c.037-.038.074-.056.111-.094 4.43-3.615 7.166-8.74 7.743-14.425.074-.726.111-1.472.111-2.199 0-4.901-1.675-9.635-4.82-13.493-3.611-4.435-8.729-7.175-14.405-7.753-5.676-.578-11.241 1.1-15.67 4.715-4.43 3.616-7.166 8.741-7.743 14.425a21.29 21.29 0 00-.111 2.162c0 3.131.688 6.225 2.01 9.058.074.167.111.354.111.54 0 .485-.26.932-.726 1.156a1.28 1.28 0 01-1.693-.615 23.849 23.849 0 01-2.252-10.139c0-.801.037-1.621.13-2.423.652-6.355 3.722-12.095 8.673-16.139 4.95-4.044 11.167-5.927 17.513-5.274 6.346.652 12.078 3.727 16.117 8.684a23.734 23.734 0 015.379 15.078c0 .82-.038 1.64-.131 2.46-1.209 12.375-11.631 21.581-23.729 21.581z" fill="url(#paint10_linear)"/><path d="M171.586 508.307c-5.714.503-15.652 1.305-23.469 1.64-4.708.205-7.407-.261-8.97-.876 0 .168 0 .336.019.503.037.82.707 1.491 1.544 1.529 14.796.82 26.54.279 30.727.037.875-.056 1.377-.988.931-1.733a7.008 7.008 0 00-.782-1.1z" fill="url(#paint11_linear)"/><path d="M148.116 509.947c7.817-.354 17.755-1.155 23.469-1.64-5.621-6.914-23.469-11.573-23.469-11.573h-5.043c-3.462 5.013-3.964 9.766-3.927 12.337 1.563.634 4.28 1.1 8.97.876z" fill="url(#paint12_linear)"/><path d="M142.236 488.496l.466 9.356a2.145 2.145 0 001.823 2.013c1.005.149 2.364.167 3.779-.317a2.56 2.56 0 001.693-1.938l1.638-9.095h-9.399v-.019z" fill="url(#paint13_linear)"/><path d="M83.723 519.098c-2.475-.448-3.61-2.106-4.076-3.895v.056c-.372 1.882.484 3.82 2.178 4.752 2.047 1.118 4.28 1.304 6.011 1.211 1.862-.093 3.574-1.099 4.504-2.683l.019-.019c-1.88 1.174-4.504 1.323-8.636.578z" fill="url(#paint14_linear)"/><path d="M95.43 491.385h-4.151c-6.328-.168-10.31 17.109-11.614 23.818.466 1.789 1.601 3.448 4.076 3.895 4.132.745 6.756.615 8.636-.596 3.424-5.834 5.118-14.351 5.937-19.345.893-5.666-2.885-7.772-2.885-7.772z" fill="url(#paint15_linear)"/><path d="M91.8 482.7l-2.308 9.188c-.28 1.118.26 2.292 1.303 2.833 1.284.671 3.108 1.36 4.783 1.155.781-.093 1.433-.652 1.693-1.397l3.388-9.673-8.86-2.106z" fill="url(#paint16_linear)"/><path d="M172.999 361.616s-20.621 129.135-20.286 129.843c0 0-5.695 2.591-11.911.336 0 0 1.861-69.031 6.235-95.495 0 0-35.213 61.706-46.379 92.438 0 0-5.826-.689-10.664-3.876 0 0 37.91-111.057 48.016-125.836l34.989 2.59z" fill="url(#paint17_linear)"/><path d="M147.856 395.61a.623.623 0 01-.316-.093c-.279-.186-.372-.559-.186-.838l7.705-12.338a.601.601 0 01.39-.28l5.677-1.136c.335-.075.651.149.726.484a.615.615 0 01-.484.727l-5.416 1.1-7.575 12.113a.625.625 0 01-.521.261z" fill="url(#paint18_linear)"/><path d="M267.674 235.166s-13.921 3.075-22.389 6.988a7.776 7.776 0 00-3.778 3.821c-2.531 5.554-10.106 19.475-24.808 26.129 2.121 2.814 5.527 8.666 6.997 18.488 8.822-6.579 16.434-17.556 20.1-35.578 0 0 2.792 1.509 6.254-.168 1.842-.895 3.964-2.162 5.546-3.15 1.582-.987 2.773-2.534 3.22-4.342.614-2.386.241-4.473.241-6.709l7.147-2.218c.037 0 2.178-.82 1.47-3.261z" fill="url(#paint19_linear)"/><path d="M223.697 290.592c-1.489-9.841-4.895-15.674-6.998-18.488-9.119 4.137-20.993 5.442-36.124.205a16.254 16.254 0 00-4.317-.857c-8.04-.466-34.58-1.342-56.522 5.926a17.077 17.077 0 00-10.292 9.374c-5.937 13.643-15.54 44.71 11.129 60.403a66.493 66.493 0 016.44-12.208c-4.299-7.249-5.565-17.164 2.047-30.079 5.565 15.039 8.17 36.975 8.71 46.685a20.583 20.583 0 01-1.638 9.337l-.13.317c-.261.633.093 1.36.782 1.509 15.019 3.374 30.652 2.46 35.305 2.069a1.926 1.926 0 001.712-1.472c7.295-30.826 7.314-51.848 5.527-65.136 6.868 1.547 27.768 4.808 44.369-7.585z" fill="#BDD0FB"/><path d="M179.385 299.015a.602.602 0 01-.596-.521c-1.712-12.972-5.211-18.637-5.248-18.693a.608.608 0 01.186-.839.605.605 0 01.837.187c.149.242 3.667 5.907 5.416 19.196a.622.622 0 01-.521.689c-.019-.019-.037-.019-.074-.019z" fill="#91B3FA"/><path d="M142.329 253.504s-1.526 16.084-2.866 20.855a1.632 1.632 0 00.763 1.863c2.271 1.305 7.724 3.411 15.168-.242a3.381 3.381 0 001.88-3.187l-.652-15.543-14.293-3.746z" fill="url(#paint20_linear)"/><path d="M156.938 232.911s4.858 11.182 5.193 17.052c.335 5.871 1.582 9.673-5.193 10.866-6.774 1.174-12.488-2.199-15.577-8.051 0 0-4.839-9.002-3.76-12.692 1.098-3.69 19.337-7.175 19.337-7.175z" fill="url(#paint21_linear)"/><path d="M143.688 248.584l.391-.168a.93.93 0 00.446-1.286c-.949-1.845-2.81-6.094-.409-7.082 3.108-1.267 15.391-3.783 18.034-8.144 2.55-4.193.298-9.616-3.108-11.145a.462.462 0 00-.614.205l-.279.541c-.186.373-.726.317-.856-.093-.112-.392-.615-.448-.838-.112-.819 1.304-3.015 3.429-8.896 4.51-8.356 1.547-13.884 4.939-14.033 10.716 0 .373-.391.578-.707.373-.614-.373-1.601-.559-2.922.559-2.289 1.938-1.359 6.951 3.685 11.07.242.205.242.578-.019.746-.911.596-2.27 2.012 1.247 3.895 3.648 1.957 6.365 1.789 7.408 1.621a.46.46 0 00.372-.559l-1.117-5.088a.463.463 0 01.447-.559h1.768z" fill="url(#paint22_linear)"/><path d="M143.892 249.646s-1.862-7.138-5.044-5.143c-3.201 1.994 1.656 7.995 4.225 8.274l.819-3.131z" fill="url(#paint23_linear)"/><path d="M247.519 253.355a.62.62 0 01-.391-.13.617.617 0 01-.093-.857c.521-.653 5.193-6.374 6.998-7.381.651-.372 1.042-.745 1.135-1.099.037-.168.019-.354-.074-.578l-5.491 1.1-3.108 2.665a.598.598 0 01-.856-.075.6.6 0 01.075-.857l3.238-2.777a.492.492 0 01.279-.131l6.067-1.211c.242-.056.484.056.633.261.447.652.596 1.286.447 1.882-.168.709-.726 1.324-1.712 1.883-1.359.764-5.267 5.386-6.644 7.1a.788.788 0 01-.503.205z" fill="url(#paint24_linear)"/><path d="M143.65 354.889l21.477.261-7.519-7.082c-1.861-1.771-4.727-2.05-6.886-.653a16.356 16.356 0 00-3.815 3.411s-13.4-4.902-19.895-15.879a65.796 65.796 0 00-6.44 12.207c5.844 3.43 13.382 6.113 23.078 7.735z" fill="url(#paint25_linear)"/><path d="M145.976 357.665h.131l54.53-.055a2.432 2.432 0 002.438-2.423c0-1.342-1.098-2.442-2.438-2.423l-54.53.056a2.432 2.432 0 00-2.438 2.423c-.019 1.304 1.005 2.348 2.307 2.422z" fill="url(#paint26_linear)"/><path d="M249.658 308.613h-45.411a8.682 8.682 0 00-7.835 4.92l-20.994 44.114h56.448a5.264 5.264 0 004.894-3.299l16.285-40.815c.912-2.366-.837-4.92-3.387-4.92z" fill="url(#paint27_linear)"/><path d="M217.666 331.219c-.987 3.038-.261 5.964 1.619 6.579 1.88.615 4.206-1.36 5.192-4.398.987-3.038.261-5.964-1.619-6.579-1.898-.596-4.225 1.379-5.192 4.398z" fill="url(#paint28_linear)"/><path d="M282.695 445.371l1.842 57.569c.317 10.045 8.543 18.022 18.63 18.078l137.647.82c6.737.037 12.469-4.864 13.456-11.499 2.159-14.537 4.895-40.554 1.805-64.968h-173.38z" fill="url(#paint29_linear)"/><path d="M437.966 518.539a.398.398 0 01-.409-.392c0-.223.167-.41.39-.428a12.737 12.737 0 002.364-.317.395.395 0 01.484.317.426.426 0 01-.298.503c-.819.168-1.675.298-2.531.317zm-5.751-.019l-2.475-.018a.415.415 0 01-.41-.411c0-.223.187-.41.41-.41l2.457.019c.223 0 .409.186.409.41a.386.386 0 01-.391.41zm-8.226-.037l-2.475-.019a.413.413 0 01-.41-.41c0-.223.186-.41.41-.41l2.456.019c.224 0 .41.186.41.41.019.224-.149.41-.391.41zm-8.207-.056l-2.476-.019a.413.413 0 01-.409-.41c0-.223.186-.41.409-.41l2.457.019c.223 0 .409.186.409.41a.386.386 0 01-.39.41zm-8.208-.056l-2.475-.019a.414.414 0 01-.41-.41c0-.223.224-.41.41-.41l2.456.019c.224 0 .41.186.41.41.019.242-.168.41-.391.41zm-8.226-.037l-2.475-.019a.413.413 0 01-.41-.41c0-.224.186-.41.41-.41l2.456.019c.224 0 .41.186.41.41a.387.387 0 01-.391.41zm-8.207-.056l-2.476-.019a.413.413 0 01-.409-.41c0-.223.186-.41.409-.41l2.457.019c.223 0 .409.186.409.41a.386.386 0 01-.39.41zm-8.227-.037l-2.475-.019a.413.413 0 01-.409-.41c0-.224.186-.41.409-.41l2.457.019c.223 0 .409.186.409.41a.376.376 0 01-.391.41zm-8.207-.056l-2.475-.019a.413.413 0 01-.41-.41c0-.224.186-.41.41-.41l2.456.019c.224 0 .41.186.41.41a.387.387 0 01-.391.41zm-8.207-.056s-.019 0 0 0l-2.476-.019a.413.413 0 01-.409-.41c0-.224.186-.41.409-.41l2.457.019c.223 0 .409.186.409.41.019.242-.167.41-.39.41zm-8.227-.038l-2.475-.018a.414.414 0 01-.409-.41c0-.224.186-.41.409-.41l2.457.018c.223 0 .409.187.409.41a.386.386 0 01-.391.41zm-8.207-.055l-2.475-.019a.413.413 0 01-.41-.41c0-.224.186-.41.41-.41l2.456.019c.224 0 .41.186.41.41a.387.387 0 01-.391.41zm-8.226-.038l-2.475-.018a.414.414 0 01-.41-.41c0-.224.186-.41.41-.41l2.456.018c.224 0 .41.187.41.41a.387.387 0 01-.391.41zm-8.208-.056l-2.475-.018a.414.414 0 01-.409-.41c0-.224.186-.41.409-.41l2.457.018c.223 0 .409.187.409.41a.386.386 0 01-.391.41zm-8.226-.056l-2.475-.018a.414.414 0 01-.409-.41c0-.224.223-.373.409-.41l2.457.018c.223 0 .409.187.409.41.019.243-.149.41-.391.41zm-8.207-.037l-2.475-.018a.414.414 0 01-.41-.41c0-.224.186-.41.41-.41l2.456.018c.224 0 .41.187.41.41a.387.387 0 01-.391.41zm-8.208-.056l-2.475-.018a.414.414 0 01-.409-.41c0-.224.186-.41.409-.41l2.457.018c.223 0 .409.187.409.41a.386.386 0 01-.391.41zm-8.133-.913c-.037 0-.093 0-.13-.019-.8-.26-1.582-.577-2.326-.95-.205-.093-.279-.354-.186-.559.093-.205.353-.28.558-.187.726.355 1.47.671 2.233.914a.403.403 0 01.261.522.446.446 0 01-.41.279zm144.683-1.155a.426.426 0 01-.317-.15.412.412 0 01.056-.577 14.43 14.43 0 001.712-1.659.431.431 0 01.577-.056c.168.149.186.41.056.578a11.703 11.703 0 01-1.824 1.77.555.555 0 01-.26.094zm-151.606-3.113a.454.454 0 01-.298-.112 17.769 17.769 0 01-1.656-1.901c-.13-.186-.112-.447.074-.577.186-.131.447-.112.577.074a18.328 18.328 0 001.582 1.808c.168.168.168.429 0 .578a.358.358 0 01-.279.13zm155.998-3.671c-.037 0-.075 0-.112-.019a.412.412 0 01-.298-.503c.112-.429.205-.857.261-1.286l.167-1.1c.038-.223.242-.391.466-.354a.431.431 0 01.353.466l-.167 1.1c-.075.466-.168.932-.279 1.379-.056.205-.205.317-.391.317zm-160.334-3.224a.42.42 0 01-.391-.28c-.279-.783-.484-1.621-.652-2.441a.422.422 0 01.336-.485.42.42 0 01.483.336c.149.782.354 1.565.615 2.329a.404.404 0 01-.261.522c-.037 0-.093.019-.13.019zm161.525-4.902h-.056c-.223-.037-.391-.242-.353-.466.093-.801.204-1.603.297-2.441a.389.389 0 01.447-.354.389.389 0 01.354.447 91.209 91.209 0 01-.298 2.46.402.402 0 01-.391.354zm-162.549-3.224a.398.398 0 01-.409-.391l-.075-2.46c0-.224.168-.41.391-.429.205-.019.409.168.428.391l.075 2.46a.418.418 0 01-.41.429c.019 0 0 0 0 0zm163.442-4.957h-.037a.416.416 0 01-.372-.448c.074-.801.149-1.621.223-2.46.019-.223.224-.373.447-.373a.416.416 0 01.372.448c-.074.838-.149 1.658-.223 2.46a.422.422 0 01-.41.373zm-163.702-3.262a.398.398 0 01-.41-.391l-.074-2.46c0-.224.167-.41.39-.429.224 0 .41.168.429.391l.074 2.46a.43.43 0 01-.409.429zm164.372-4.939h-.018a.426.426 0 01-.391-.428c.056-.82.112-1.64.149-2.46.018-.224.204-.41.428-.392a.428.428 0 01.391.429c-.056.839-.093 1.659-.149 2.46a.423.423 0 01-.41.391zm-164.652-3.28a.397.397 0 01-.409-.391l-.075-2.46c0-.224.168-.41.391-.429.224-.018.41.168.428.392l.075 2.46c.018.223-.168.41-.41.428.019 0 .019 0 0 0zm165.062-4.939s-.019 0 0 0a.406.406 0 01-.41-.428c.019-.82.056-1.64.075-2.46 0-.224.223-.392.428-.41.223 0 .409.186.409.428-.018.82-.037 1.659-.074 2.479a.442.442 0 01-.428.391zm-165.322-3.298a.399.399 0 01-.41-.392l-.074-2.46c0-.223.167-.41.391-.428.223.018.409.167.428.391l.074 2.46a.396.396 0 01-.409.429c.018 0 0 0 0 0zm165.452-4.939a.413.413 0 01-.409-.41c0-.82 0-1.64-.019-2.46 0-.224.186-.41.409-.41.205 0 .41.186.41.41.018.82.018 1.659.018 2.479a.397.397 0 01-.409.391zm-165.713-3.28a.398.398 0 01-.409-.391l-.075-2.461c0-.223.168-.41.391-.428.186 0 .41.168.428.391l.075 2.46a.397.397 0 01-.41.429c.019 0 0 0 0 0zm165.546-4.939a.398.398 0 01-.41-.391l-.112-2.46a.403.403 0 01.391-.429.402.402 0 01.428.391c.038.82.093 1.64.112 2.479.019.205-.168.41-.409.41.018 0 0 0 0 0zm-165.806-3.28a.398.398 0 01-.41-.391l-.074-2.46c0-.224.167-.41.391-.429.186-.019.409.168.428.391l.074 2.46c0 .224-.167.429-.409.429zm165.284-4.92a.422.422 0 01-.409-.373c-.074-.82-.149-1.64-.242-2.441a.416.416 0 01.372-.448.416.416 0 01.447.373c.093.82.167 1.64.242 2.46a.417.417 0 01-.372.448c-.019-.019-.038-.019-.038-.019zm-165.545-3.299a.398.398 0 01-.409-.391l-.075-2.46c0-.224.168-.41.391-.429.186 0 .41.168.428.391l.075 2.461a.43.43 0 01-.41.428zm162.493-2.479h-2.456a.413.413 0 01-.41-.41c0-.223.186-.41.41-.41h2.456c.224 0 .41.187.41.41 0 .243-.186.41-.41.41zm-8.207 0h-2.457a.413.413 0 01-.409-.41c0-.223.186-.41.409-.41h2.457c.223 0 .409.187.409.41 0 .243-.186.41-.409.41zm-8.226 0h-2.457a.413.413 0 01-.409-.41c0-.223.186-.41.409-.41h2.457c.223 0 .409.187.409.41 0 .243-.186.41-.409.41zm-8.208 0h-2.456a.413.413 0 01-.41-.41c0-.223.186-.41.41-.41h2.456c.224 0 .41.187.41.41 0 .243-.186.41-.41.41zm-8.226 0h-2.457a.413.413 0 01-.409-.41c0-.223.186-.41.409-.41h2.457c.223 0 .41.187.41.41 0 .243-.168.41-.41.41zm-8.207 0h-2.457a.413.413 0 01-.409-.41c0-.223.186-.41.409-.41h2.457c.223 0 .409.187.409.41 0 .243-.186.41-.409.41zm-8.208 0h-2.457a.413.413 0 01-.409-.41c0-.223.186-.41.409-.41h2.457c.223 0 .41.187.41.41 0 .243-.187.41-.41.41zm-8.226 0h-2.457a.413.413 0 01-.409-.41c0-.223.186-.41.409-.41h2.457c.223 0 .409.187.409.41 0 .243-.186.41-.409.41zm-8.207 0h-2.457a.414.414 0 01-.41-.41c0-.223.187-.41.41-.41h2.457c.223 0 .409.187.409.41 0 .243-.186.41-.409.41zm-8.226 0h-2.457a.414.414 0 01-.41-.41c0-.223.187-.41.41-.41h2.457c.223 0 .409.187.409.41 0 .243-.186.41-.409.41zm-8.208 0h-2.457a.413.413 0 01-.409-.41c0-.223.186-.41.409-.41h2.457c.223 0 .409.187.409.41 0 .243-.186.41-.409.41zm-8.226 0h-2.457a.413.413 0 01-.409-.41c0-.223.186-.41.409-.41h2.457c.223 0 .409.187.409.41a.39.39 0 01-.409.41zm-8.208 0h-2.456a.414.414 0 01-.41-.41c0-.223.187-.41.41-.41h2.456c.224 0 .41.187.41.41 0 .243-.186.41-.41.41zm-8.207 0h-2.457a.413.413 0 01-.409-.41c0-.223.186-.41.409-.41h2.457c.223 0 .409.187.409.41 0 .243-.186.41-.409.41zm-8.226 0h-2.457a.413.413 0 01-.409-.41c0-.223.186-.41.409-.41h2.457c.223 0 .409.187.409.41 0 .243-.186.41-.409.41zm-8.208 0h-2.456a.413.413 0 01-.41-.41c0-.223.186-.41.41-.41h2.456c.224 0 .41.187.41.41 0 .243-.186.41-.41.41zm-8.226 0h-2.456a.413.413 0 01-.41-.41c0-.223.186-.41.41-.41h2.456c.224 0 .41.187.41.41 0 .243-.186.41-.41.41zm-8.207 0h-2.457a.413.413 0 01-.409-.41c0-.223.186-.41.409-.41h2.457c.223 0 .409.187.409.41 0 .243-.186.41-.409.41zm-8.226 0h-2.457a.413.413 0 01-.409-.41c0-.223.186-.41.409-.41h2.457c.223 0 .409.187.409.41a.39.39 0 01-.409.41zm-8.208 0h-2.456a.413.413 0 01-.41-.41c0-.223.186-.41.41-.41h2.456c.224 0 .41.187.41.41 0 .243-.186.41-.41.41z" fill="#fff"/><path d="M323.024 403.587l.41-4.436a3.4 3.4 0 012.587-1.994c4.28-.69 14.926-1.882 20.044 1.938l.763 5.163-23.804-.671z" fill="url(#paint30_linear)"/><path d="M336.424 399.319a6.12 6.12 0 01-2.959 0 2.693 2.693 0 01-2.048-2.609v-13.903h7.073v13.884a2.73 2.73 0 01-2.066 2.628z" fill="url(#paint31_linear)"/><path d="M391.457 403.587l.409-4.436a3.4 3.4 0 012.587-1.994c4.28-.69 14.926-1.882 20.044 1.938l.763 5.163-23.803-.671z" fill="url(#paint32_linear)"/><path d="M404.856 399.319a6.12 6.12 0 01-2.959 0 2.692 2.692 0 01-2.047-2.609v-15.357h7.072v15.357a2.744 2.744 0 01-2.066 2.609z" fill="url(#paint33_linear)"/><path d="M330.691 386.217l75.97-2.516a3.659 3.659 0 003.499-3.019c.409-2.385.782-5.945.242-9.635-.614-4.212-4.225-7.324-8.487-7.436-14.181-.336-50.249-.336-70.145 7.548a6.913 6.913 0 00-4.187 4.827c-.503 2.087-.838 4.883-.186 7.734.353 1.51 1.749 2.553 3.294 2.497z" fill="url(#paint34_linear)"/><path d="M329.37 382.751a.828.828 0 01-.819-.746c-.018-.13-.297-3.075.466-5.908a6.835 6.835 0 014.652-4.733c4.262-1.249 12.395-3.374 19.058-3.56a.804.804 0 01.838.801.816.816 0 01-.801.839c-6.476.186-14.46 2.274-18.629 3.504-1.713.503-3.071 1.882-3.518 3.578-.688 2.553-.428 5.293-.428 5.312.037.447-.279.857-.726.894-.037.019-.056.019-.093.019z" fill="#91B3FA"/><path d="M287.775 401.853c24.548-.317 130.724-1.435 161.562 2.293a6.282 6.282 0 015.397 4.864c1.824 8.256 5.491 27.415 5.062 46.424-.055 2.591-1.954 4.771-4.503 5.256l-70.406 13.344h-25.013l-75.021-14.928a5.87 5.87 0 01-4.728-5.461c-.483-9.561-1.246-31.981 1.34-46.424.559-3.075 3.183-5.331 6.31-5.368z" fill="url(#paint35_linear)"/><path d="M360.487 468.368h-.075l-2.419-.484a.396.396 0 01-.316-.485.396.396 0 01.484-.317l2.4.485h2.513c.223 0 .409.186.409.41 0 .224-.186.41-.409.41h-2.513c-.037-.019-.055-.019-.074-.019zm19.002 0h-2.457a.413.413 0 01-.409-.41c0-.223.186-.41.409-.41h2.457c.223 0 .409.187.409.41 0 .224-.186.41-.409.41zm-8.208 0h-2.456a.413.413 0 01-.41-.41c0-.223.186-.41.41-.41h2.456c.224 0 .41.187.41.41 0 .224-.186.41-.41.41zm13.94-.167a.416.416 0 01-.409-.336.42.42 0 01.335-.484l2.419-.466a.42.42 0 01.484.335.422.422 0 01-.335.485l-2.42.466h-.074zm-32.793-1.435h-.074l-2.42-.485a.395.395 0 01-.316-.484.395.395 0 01.484-.317l2.419.484a.396.396 0 01.317.485c-.056.168-.224.317-.41.317zm40.87-.094a.416.416 0 01-.409-.335.421.421 0 01.335-.485l2.419-.465a.42.42 0 01.484.335.422.422 0 01-.335.485l-2.419.465c-.019-.018-.056 0-.075 0zm-48.928-1.509h-.075l-2.419-.485a.395.395 0 01-.316-.484.394.394 0 01.483-.317l2.42.485c.223.037.372.26.316.484-.056.168-.223.317-.409.317zm57.005-.019a.416.416 0 01-.409-.335.422.422 0 01.335-.485l2.419-.466a.42.42 0 01.484.336.42.42 0 01-.335.484l-2.419.466c-.037-.018-.056 0-.075 0zm8.059-1.547a.416.416 0 01-.409-.335.42.42 0 01.335-.485l2.419-.466a.421.421 0 01.484.336.42.42 0 01-.335.484l-2.42.466h-.074zm-73.123-.037h-.074l-2.42-.484a.396.396 0 01-.316-.485.395.395 0 01.484-.317l2.419.485a.396.396 0 01.317.484c-.056.168-.224.317-.41.317zm81.2-1.491a.416.416 0 01-.409-.335.42.42 0 01.335-.485l2.419-.466a.421.421 0 01.484.336.421.421 0 01-.335.484l-2.419.466h-.075zm-89.258-.112h-.075l-2.419-.484a.396.396 0 01-.317-.485.396.396 0 01.484-.317l2.42.485a.396.396 0 01.316.485c-.056.167-.223.316-.409.316zm97.335-1.416a.416.416 0 01-.409-.336.421.421 0 01.335-.484l2.419-.466a.42.42 0 01.484.335.42.42 0 01-.335.485l-2.419.466h-.075zm-105.394-.186h-.074l-2.42-.485a.396.396 0 01-.316-.485.395.395 0 01.484-.316l2.419.484a.396.396 0 01.316.485c-.055.167-.223.317-.409.317zm113.453-1.342a.418.418 0 01-.41-.336.421.421 0 01.335-.484l2.42-.466a.42.42 0 01.484.335.422.422 0 01-.335.485l-2.42.466h-.074zm-121.512-.28h-.074l-2.419-.484a.396.396 0 01-.317-.485.395.395 0 01.484-.317l2.42.485a.395.395 0 01.316.484.435.435 0 01-.41.317zm129.589-1.249a.416.416 0 01-.409-.335.42.42 0 01.335-.485l2.419-.465a.42.42 0 01.484.335.422.422 0 01-.335.485l-2.419.465h-.075zm-137.647-.354h-.075l-2.419-.484a.396.396 0 01-.316-.485.396.396 0 01.484-.317l2.419.485a.396.396 0 01.316.485.435.435 0 01-.409.316zm145.724-1.174a.416.416 0 01-.409-.335.422.422 0 01.335-.485l2.419-.466a.42.42 0 01.484.336.42.42 0 01-.335.484l-2.419.466h-.075zm-153.783-.428h-.074l-2.42-.485a.395.395 0 01-.316-.484.395.395 0 01.484-.317l2.419.484a.395.395 0 01.317.485.437.437 0 01-.41.317zm-8.058-1.603h-.075l-2.084-.41-.056-.969a.402.402 0 01.391-.429c.223-.037.428.168.428.391l.019.336 1.451.298a.397.397 0 01.317.485c-.019.167-.205.298-.391.298zm165.787-2.926a.414.414 0 01-.41-.41c-.018-.82-.018-1.64-.055-2.46 0-.224.167-.41.39-.429.224 0 .41.168.428.392l.056 2.478a.395.395 0 01-.409.429c.018 0 .018 0 0 0zm-167.834-3.839a.398.398 0 01-.41-.392c-.019-.801-.056-1.621-.074-2.478 0-.224.167-.41.39-.429.224.019.41.168.428.391.019.858.056 1.678.075 2.46a.402.402 0 01-.409.448c.018 0 0 0 0 0zm167.517-4.38a.41.41 0 01-.409-.391l-.167-2.46a.415.415 0 01.372-.448.415.415 0 01.446.373c.056.82.131 1.64.168 2.46a.391.391 0 01-.391.429c0 .037 0 .037-.019.037zm-167.704-3.839a.414.414 0 01-.409-.41c0-.82-.019-1.64-.019-2.479 0-.224.186-.41.41-.41.223 0 .409.186.409.41 0 .839.019 1.659.019 2.46 0 .242-.168.429-.41.429zm166.997-4.361a.406.406 0 01-.409-.373c-.093-.82-.186-1.64-.279-2.441a.43.43 0 01.353-.466c.224-.038.428.13.466.354.093.801.186 1.621.279 2.46a.404.404 0 01-.373.447c-.018.019-.018.019-.037.019zm-166.978-3.877s-.019 0 0 0a.401.401 0 01-.409-.41l.055-2.478c0-.224.187-.392.428-.41.224 0 .41.186.41.428l-.056 2.46a.429.429 0 01-.428.41zm165.936-4.286a.418.418 0 01-.409-.354c-.131-.839-.242-1.64-.373-2.442a.404.404 0 01.335-.466.403.403 0 01.466.336c.13.801.242 1.603.372 2.441.037.224-.13.429-.354.466 0 .019-.018.019-.037.019zm-165.675-3.933h-.019c-.223-.018-.409-.205-.391-.428.037-.82.093-1.659.149-2.479.019-.224.205-.41.428-.391a.427.427 0 01.391.428c-.056.82-.112 1.64-.149 2.46-.019.243-.186.41-.409.41zm164.335-4.174a.416.416 0 01-.409-.336c-.149-.857-.317-1.658-.466-2.422-.037-.224.093-.448.317-.485.223-.037.446.112.484.317.148.764.297 1.584.465 2.423a.432.432 0 01-.335.484s-.037.019-.056.019zm-163.684-4.026h-.037a.415.415 0 01-.373-.447 95.43 95.43 0 01.298-2.46c.037-.224.242-.392.466-.354.223.037.39.242.353.466a85.9 85.9 0 00-.298 2.441.418.418 0 01-.409.354zm161.711-3.727h-.056a69.555 69.555 0 00-2.438-.261.416.416 0 01-.372-.447c.019-.224.223-.373.447-.373.875.093 1.693.168 2.456.261a.388.388 0 01.354.447.39.39 0 01-.391.373zm-8.189-.727h-.037c-.781-.056-1.6-.112-2.456-.168a.426.426 0 01-.391-.428.426.426 0 01.428-.392c.856.056 1.675.112 2.456.168a.405.405 0 01.373.447c.018.205-.168.373-.373.373zm-8.207-.503h-.019c-.8-.037-1.619-.075-2.456-.112-.224-.019-.41-.205-.391-.429.018-.223.205-.41.428-.391.837.037 1.656.074 2.457.112.223.018.409.205.39.428a.398.398 0 01-.409.392zm-8.208-.354l-2.475-.094a.402.402 0 01-.391-.428c0-.224.205-.392.428-.392l2.457.094c.223 0 .41.205.391.428a.398.398 0 01-.41.392zm-8.207-.28l-2.475-.074a.392.392 0 01-.391-.429c0-.224.167-.391.428-.391l2.457.074c.223 0 .409.205.39.429a.398.398 0 01-.409.391zm-8.207-.205s-.019 0 0 0l-2.476-.056a.417.417 0 01-.409-.428c0-.224.186-.41.409-.41l2.457.055c.223 0 .409.187.409.429a.386.386 0 01-.39.41zm-8.227-.168l-2.475-.037a.413.413 0 01-.409-.41c0-.224.186-.41.409-.41l2.457.037c.223 0 .409.187.409.429.019.205-.167.391-.391.391zm-109.284 0a.413.413 0 01-.409-.41c0-.223.186-.41.409-.41l2.476-.037c.223 0 .409.186.409.41 0 .224-.186.41-.409.41l-2.476.037zm8.227-.093a.413.413 0 01-.41-.41c0-.223.186-.41.41-.41l2.456-.018c.224 0 .41.186.41.41 0 .223-.186.41-.41.41l-2.456.018zm92.85-.037l-2.475-.037a.414.414 0 01-.41-.41c0-.224.186-.41.41-.41l2.456.037c.224 0 .41.186.41.41a.387.387 0 01-.391.41zm-84.624-.037a.414.414 0 01-.41-.41c0-.224.186-.41.41-.41l2.456-.019c.224 0 .41.186.41.41 0 .224-.186.41-.41.41l-2.456.019zm76.416-.056l-2.475-.019a.413.413 0 01-.409-.41c0-.224.186-.41.409-.41l2.475.019c.224 0 .41.186.41.41 0 .223-.186.41-.41.41zm-68.209-.019a.413.413 0 01-.409-.41c0-.224.186-.41.409-.41l2.457-.019c.223 0 .409.187.409.41 0 .224-.186.41-.409.41l-2.457.019zm59.983-.056l-2.475-.018a.414.414 0 01-.409-.41c0-.224.186-.41.409-.41l2.457.018c.223 0 .409.187.409.41a.386.386 0 01-.391.41zm-51.757 0a.413.413 0 01-.409-.41c0-.223.186-.41.409-.41l2.457-.018c.223 0 .409.186.409.41 0 .223-.186.41-.409.41l-2.457.018zm8.208-.037a.413.413 0 01-.41-.41c0-.224.186-.41.41-.41l2.456-.019c.224 0 .41.187.41.41 0 .224-.186.41-.41.41l-2.456.019zm35.342 0l-2.475-.019a.413.413 0 01-.41-.41c0-.223.186-.41.41-.41l2.456.019c.224 0 .41.186.41.41a.387.387 0 01-.391.41zm-27.116-.037a.414.414 0 01-.41-.41c0-.224.186-.41.41-.41h2.456c.205-.019.41.186.41.41 0 .223-.186.41-.41.41h-2.456zm18.89 0h-2.457a.414.414 0 01-.409-.41c0-.224.186-.41.409-.41h2.457c.223 0 .409.186.409.41 0 .223-.186.41-.409.41zm-10.683 0a.414.414 0 01-.409-.41c0-.224.186-.41.409-.41h2.457c.223 0 .409.186.409.41 0 .223-.186.41-.409.41h-2.457z" fill="#fff"/><path d="M382.542 484.545h-21.906c-2.866 0-5.285-2.143-5.62-4.976l-2.531-21.115c-.41-3.355 2.233-6.318 5.639-6.318h26.316c3.331 0 5.937 2.851 5.639 6.15l-1.88 21.115a5.683 5.683 0 01-5.657 5.144z" fill="url(#paint36_linear)"/><path d="M381.387 482.067h-18.555c-2.438 0-4.485-1.808-4.764-4.212l-2.141-17.873c-.335-2.851 1.899-5.349 4.765-5.349h22.296c2.81 0 5.025 2.404 4.783 5.2l-1.601 17.873c-.223 2.46-2.308 4.361-4.783 4.361z" fill="url(#paint37_linear)"/><defs><linearGradient id="paint0_linear" x1="30.895" y1="69.038" x2="941.368" y2="804.29" gradientUnits="userSpaceOnUse"><stop stop-color="#FF4A35" stop-opacity=".65"/><stop offset="1" stop-color="#FF4A35"/></linearGradient><linearGradient id="paint1_linear" x1="24.13" y1="204.155" x2="261.071" y2="273.913" gradientUnits="userSpaceOnUse"><stop stop-color="#4F52FF"/><stop offset="1" stop-color="#4042E2"/></linearGradient><linearGradient id="paint2_linear" x1="16.178" y1="231.166" x2="253.119" y2="300.924" gradientUnits="userSpaceOnUse"><stop stop-color="#4F52FF"/><stop offset="1" stop-color="#4042E2"/></linearGradient><linearGradient id="paint3_linear" x1="270.215" y1="-19.358" x2="241.823" y2="381.355" gradientUnits="userSpaceOnUse"><stop stop-color="#4F52FF"/><stop offset="1" stop-color="#4042E2"/></linearGradient><linearGradient id="paint4_linear" x1="272.769" y1="-19.177" x2="244.378" y2="381.536" gradientUnits="userSpaceOnUse"><stop stop-color="#4F52FF"/><stop offset="1" stop-color="#4042E2"/></linearGradient><linearGradient id="paint5_linear" x1="424.995" y1="152.307" x2="173.449" y2="553.657" gradientUnits="userSpaceOnUse"><stop stop-color="#4F52FF"/><stop offset="1" stop-color="#4042E2"/></linearGradient><linearGradient id="paint6_linear" x1="466.705" y1="178.449" x2="215.158" y2="579.799" gradientUnits="userSpaceOnUse"><stop stop-color="#4F52FF"/><stop offset="1" stop-color="#4042E2"/></linearGradient><linearGradient id="paint7_linear" x1="185.369" y1="100.074" x2="213.552" y2="100.074" gradientUnits="userSpaceOnUse"><stop stop-color="#DAE3FE"/><stop offset="1" stop-color="#E9EFFD"/></linearGradient><linearGradient id="paint8_linear" x1="165.029" y1="99.868" x2="234.326" y2="99.868" gradientUnits="userSpaceOnUse"><stop stop-color="#DAE3FE"/><stop offset="1" stop-color="#E9EFFD"/></linearGradient><linearGradient id="paint9_linear" x1="91.549" y1="148.633" x2="110.748" y2="148.633" gradientUnits="userSpaceOnUse"><stop stop-color="#DAE3FE"/><stop offset="1" stop-color="#E9EFFD"/></linearGradient><linearGradient id="paint10_linear" x1="77.387" y1="148.492" x2="125.195" y2="148.492" gradientUnits="userSpaceOnUse"><stop stop-color="#DAE3FE"/><stop offset="1" stop-color="#E9EFFD"/></linearGradient><linearGradient id="paint11_linear" x1="176.861" y1="383.703" x2="154.99" y2="514.331" gradientUnits="userSpaceOnUse"><stop stop-color="#4F52FF"/><stop offset="1" stop-color="#4042E2"/></linearGradient><linearGradient id="paint12_linear" x1="139.148" y1="503.375" x2="171.593" y2="503.375" gradientUnits="userSpaceOnUse"><stop stop-color="#09005D"/><stop offset="1" stop-color="#1A0F91"/></linearGradient><linearGradient id="paint13_linear" x1="142.233" y1="494.227" x2="151.637" y2="494.227" gradientUnits="userSpaceOnUse"><stop stop-color="#FEBBBA"/><stop offset="1" stop-color="#FF928E"/></linearGradient><linearGradient id="paint14_linear" x1="110.101" y1="372.525" x2="88.23" y2="503.153" gradientUnits="userSpaceOnUse"><stop stop-color="#4F52FF"/><stop offset="1" stop-color="#4042E2"/></linearGradient><linearGradient id="paint15_linear" x1="79.653" y1="505.468" x2="98.433" y2="505.468" gradientUnits="userSpaceOnUse"><stop stop-color="#09005D"/><stop offset="1" stop-color="#1A0F91"/></linearGradient><linearGradient id="paint16_linear" x1="89.414" y1="489.316" x2="100.653" y2="489.316" gradientUnits="userSpaceOnUse"><stop stop-color="#FEBBBA"/><stop offset="1" stop-color="#FF928E"/></linearGradient><linearGradient id="paint17_linear" x1="365.557" y1="165.612" x2="248.322" y2="303.456" gradientUnits="userSpaceOnUse"><stop stop-color="#09005D"/><stop offset="1" stop-color="#1A0F91"/></linearGradient><linearGradient id="paint18_linear" x1="151.571" y1="379.997" x2="186.053" y2="475.321" gradientUnits="userSpaceOnUse"><stop stop-color="#09005D"/><stop offset="1" stop-color="#1A0F91"/></linearGradient><linearGradient id="paint19_linear" x1="244.002" y1="252.25" x2="199.412" y2="310.18" gradientUnits="userSpaceOnUse"><stop stop-color="#FEBBBA"/><stop offset="1" stop-color="#FF928E"/></linearGradient><linearGradient id="paint20_linear" x1="144.784" y1="289.73" x2="149.667" y2="264.13" gradientUnits="userSpaceOnUse"><stop stop-color="#FEBBBA"/><stop offset="1" stop-color="#FF928E"/></linearGradient><linearGradient id="paint21_linear" x1="157.961" y1="242.759" x2="130.147" y2="264.011" gradientUnits="userSpaceOnUse"><stop stop-color="#FEBBBA"/><stop offset="1" stop-color="#FF928E"/></linearGradient><linearGradient id="paint22_linear" x1="138.402" y1="225.902" x2="164.324" y2="259.231" gradientUnits="userSpaceOnUse"><stop stop-color="#09005D"/><stop offset="1" stop-color="#1A0F91"/></linearGradient><linearGradient id="paint23_linear" x1="154.514" y1="238.248" x2="126.7" y2="259.5" gradientUnits="userSpaceOnUse"><stop stop-color="#FEBBBA"/><stop offset="1" stop-color="#FF928E"/></linearGradient><linearGradient id="paint24_linear" x1="267.534" y1="121.037" x2="249.553" y2="255.232" gradientUnits="userSpaceOnUse"><stop stop-color="#FEBBBA"/><stop offset="1" stop-color="#FF928E"/></linearGradient><linearGradient id="paint25_linear" x1="146.386" y1="342.613" x2="172.455" y2="279.63" gradientUnits="userSpaceOnUse"><stop stop-color="#FEBBBA"/><stop offset="1" stop-color="#FF928E"/></linearGradient><linearGradient id="paint26_linear" x1="143.652" y1="355.218" x2="203.068" y2="355.218" gradientUnits="userSpaceOnUse"><stop stop-color="#4F52FF"/><stop offset="1" stop-color="#4042E2"/></linearGradient><linearGradient id="paint27_linear" x1="152.411" y1="377.763" x2="229.663" y2="324.935" gradientUnits="userSpaceOnUse"><stop stop-color="#09005D"/><stop offset="1" stop-color="#1A0F91"/></linearGradient><linearGradient id="paint28_linear" x1="217.218" y1="332.308" x2="224.907" y2="332.308" gradientUnits="userSpaceOnUse"><stop stop-color="#4F52FF"/><stop offset="1" stop-color="#4042E2"/></linearGradient><linearGradient id="paint29_linear" x1="369.964" y1="448.195" x2="370.911" y2="520.655" gradientUnits="userSpaceOnUse"><stop stop-color="#09005D"/><stop offset="1" stop-color="#1A0F91"/></linearGradient><linearGradient id="paint30_linear" x1="335.392" y1="415.101" x2="334.378" y2="390.548" gradientUnits="userSpaceOnUse"><stop stop-color="#09005D"/><stop offset="1" stop-color="#1A0F91"/></linearGradient><linearGradient id="paint31_linear" x1="334.112" y1="378.237" x2="339.181" y2="448.604" gradientUnits="userSpaceOnUse"><stop stop-color="#09005D"/><stop offset="1" stop-color="#1A0F91"/></linearGradient><linearGradient id="paint32_linear" x1="403.701" y1="412.28" x2="402.687" y2="387.727" gradientUnits="userSpaceOnUse"><stop stop-color="#09005D"/><stop offset="1" stop-color="#1A0F91"/></linearGradient><linearGradient id="paint33_linear" x1="402.237" y1="373.33" x2="407.307" y2="443.696" gradientUnits="userSpaceOnUse"><stop stop-color="#09005D"/><stop offset="1" stop-color="#1A0F91"/></linearGradient><linearGradient id="paint34_linear" x1="446.309" y1="211.487" x2="404.685" y2="300.916" gradientUnits="userSpaceOnUse"><stop stop-color="#09005D"/><stop offset="1" stop-color="#1A0F91"/></linearGradient><linearGradient id="paint35_linear" x1="379.889" y1="351.655" x2="371.687" y2="421.593" gradientUnits="userSpaceOnUse"><stop stop-color="#09005D"/><stop offset="1" stop-color="#1A0F91"/></linearGradient><linearGradient id="paint36_linear" x1="378.051" y1="406.959" x2="368.166" y2="485.17" gradientUnits="userSpaceOnUse"><stop stop-color="#4F52FF"/><stop offset="1" stop-color="#4042E2"/></linearGradient><linearGradient id="paint37_linear" x1="377.584" y1="416.371" x2="369.213" y2="482.597" gradientUnits="userSpaceOnUse"><stop stop-color="#09005D"/><stop offset="1" stop-color="#1A0F91"/></linearGradient></defs></svg>