<svg width="28" height="29" viewBox="0 0 28 29" fill="none" xmlns="http://www.w3.org/2000/svg"><path d="M16.386 14.006c0 1.48-1.179 2.68-2.633 2.68s-2.632-1.2-2.632-2.68c0-1.48 1.178-2.68 2.632-2.68 1.454 0 2.633 1.2 2.633 2.68z" fill="#4F4F4F"/><path d="M19.91 9.264a2.495 2.495 0 00-.59-.924 2.442 2.442 0 00-.909-.601c-.278-.11-.696-.241-1.466-.277-.833-.039-1.083-.047-3.192-.047-2.108 0-2.358.008-3.19.047-.77.036-1.19.167-1.467.277a2.44 2.44 0 00-.908.601c-.263.26-.465.575-.591.924-.108.284-.237.71-.272 1.493-.038.848-.046 1.102-.046 3.249 0 2.146.008 2.4.046 3.248.035.784.164 1.21.272 1.493.126.35.328.665.59.924.255.267.565.473.909.602.278.11.696.24 1.466.276.833.04 1.082.047 3.191.047 2.11 0 2.36-.008 3.192-.047.77-.035 1.188-.166 1.466-.276a2.64 2.64 0 001.499-1.526c.108-.283.237-.709.272-1.493.038-.848.046-1.102.046-3.248 0-2.147-.008-2.401-.046-3.249-.035-.784-.164-1.21-.272-1.493zm-6.157 8.87c-2.24 0-4.055-1.849-4.055-4.129 0-2.28 1.816-4.128 4.055-4.128 2.24 0 4.056 1.848 4.056 4.128 0 2.28-1.816 4.129-4.056 4.129zm4.216-7.455a.956.956 0 01-.948-.965c0-.533.425-.964.948-.964.523 0 .948.431.948.964a.957.957 0 01-.948.965z" fill="#4F4F4F"/><path d="M13.754.006C6.159.006 0 6.276 0 14.006s6.159 14 13.754 14c7.594 0 13.753-6.27 13.753-14s-6.159-14-13.754-14zm7.85 17.314c-.039.856-.173 1.44-.368 1.952a4.075 4.075 0 01-2.31 2.35c-.502.2-1.076.335-1.916.374-.843.04-1.112.049-3.256.049-2.145 0-2.414-.01-3.256-.049-.841-.039-1.415-.174-1.917-.373a3.863 3.863 0 01-1.4-.928 3.948 3.948 0 01-.91-1.423c-.195-.511-.329-1.096-.367-1.952-.039-.857-.048-1.13-.048-3.314 0-2.183.009-2.457.048-3.315.038-.855.171-1.44.366-1.951.199-.536.51-1.022.912-1.424a3.858 3.858 0 011.398-.927c.503-.199 1.077-.335 1.918-.374.842-.039 1.11-.048 3.256-.048 2.144 0 2.413.01 3.255.049.841.038 1.415.174 1.918.373a3.866 3.866 0 011.399.927c.401.402.712.888.91 1.424.196.511.33 1.096.367 1.951.039.858.048 1.132.048 3.315s-.01 2.457-.048 3.314z" fill="#4F4F4F"/></svg>