<svg width="232" height="71" viewBox="0 0 232 71" fill="none" xmlns="http://www.w3.org/2000/svg"><rect x="14.445" width="28.89" height="28.89" rx="3" transform="rotate(30 14.445 0)" fill="#FF4A35"/><rect x="34.98" y="31.102" width="28.89" height="28.89" rx="3" transform="rotate(30 34.98 31.102)" fill="#585CE9"/><rect x="43.315" y="16.668" width="12.223" height="12.223" rx="2" transform="rotate(30 43.315 16.668)" fill="#19AFA7"/><rect x="12.212" y="37.202" width="12.223" height="12.223" rx="2" transform="rotate(30 12.212 37.202)" fill="#FFC100"/><path d="M76.48 32.12c-1.08 0-2.047-.233-2.9-.7a5.17 5.17 0 01-1.98-1.92c-.48-.827-.72-1.76-.72-2.8 0-1.04.24-1.967.72-2.78A4.986 4.986 0 0173.58 22c.853-.467 1.82-.7 2.9-.7.96 0 1.813.193 2.56.58a4.12 4.12 0 011.76 1.68l-1.46.94a3.261 3.261 0 00-1.24-1.14 3.537 3.537 0 00-1.64-.38c-.693 0-1.32.153-1.88.46-.547.307-.98.747-1.3 1.32-.307.56-.46 1.207-.46 1.94 0 .747.153 1.407.46 1.98.32.56.753.993 1.3 1.3.56.307 1.187.46 1.88.46.6 0 1.147-.127 1.64-.38a3.261 3.261 0 001.24-1.14l1.46.92c-.413.733-1 1.3-1.76 1.7-.747.387-1.6.58-2.56.58zm6.806-10.72h1.92v7.72l6.5-7.72h1.74V32h-1.92v-7.72L85.046 32h-1.76V21.4zm18.507 10.72c-1.08 0-2.047-.233-2.9-.7a5.17 5.17 0 01-1.98-1.92c-.48-.827-.72-1.76-.72-2.8 0-1.04.24-1.967.72-2.78a4.986 4.986 0 011.98-1.92c.853-.467 1.82-.7 2.9-.7.96 0 1.813.193 2.56.58.76.387 1.346.947 1.76 1.68l-1.46.94a3.268 3.268 0 00-1.24-1.14 3.54 3.54 0 00-1.64-.38 3.85 3.85 0 00-1.88.46c-.547.307-.98.747-1.3 1.32-.307.56-.46 1.207-.46 1.94 0 .747.153 1.407.46 1.98.32.56.753.993 1.3 1.3a3.85 3.85 0 001.88.46c.6 0 1.146-.127 1.64-.38a3.268 3.268 0 001.24-1.14l1.46.92c-.414.733-1 1.3-1.76 1.7-.747.387-1.6.58-2.56.58zm14.569-9.04h-3.88V32h-1.92v-8.92h-3.88V21.4h9.68v1.68zm11.074 3.68c0 .147-.013.34-.04.58h-8.6c.12.933.527 1.687 1.22 2.26.707.56 1.58.84 2.62.84 1.267 0 2.287-.427 3.06-1.28l1.06 1.24c-.48.56-1.08.987-1.8 1.28-.707.293-1.5.44-2.38.44-1.12 0-2.113-.227-2.98-.68a5.053 5.053 0 01-2.02-1.94c-.467-.827-.7-1.76-.7-2.8 0-1.027.227-1.953.68-2.78a4.964 4.964 0 011.9-1.92c.813-.467 1.727-.7 2.74-.7 1.013 0 1.913.233 2.7.7.8.453 1.42 1.093 1.86 1.92.453.827.68 1.773.68 2.84zm-5.24-3.84c-.92 0-1.693.28-2.32.84-.613.56-.973 1.293-1.08 2.2h6.8c-.107-.893-.473-1.62-1.1-2.18-.613-.573-1.38-.86-2.3-.86zm20.439-1.52V32h-1.74v-7.74l-3.96 6.54h-.84l-3.92-6.56V32h-1.76V21.4h1.98l4.16 7.16 4.28-7.16h1.8zm8.517 3.6c1.333.013 2.353.32 3.06.92.706.6 1.06 1.447 1.06 2.54 0 1.147-.387 2.033-1.16 2.66-.76.613-1.854.913-3.28.9l-4.46-.02V21.4h1.92v3.58l2.86.02zm5.7-3.6h1.92V32h-1.92V21.4zm-6.16 9.16c.866.013 1.52-.16 1.96-.52.453-.36.68-.893.68-1.6 0-.693-.22-1.2-.66-1.52-.44-.32-1.1-.487-1.98-.5l-2.4-.04v4.16l2.4.02zM75.64 43.3c1.467 0 2.587.36 3.36 1.08.787.72 1.18 1.793 1.18 3.22V54h-1.82v-1.4c-.32.493-.78.873-1.38 1.14-.587.253-1.287.38-2.1.38-1.187 0-2.14-.287-2.86-.86-.707-.573-1.06-1.327-1.06-2.26 0-.933.34-1.68 1.02-2.24.68-.573 1.76-.86 3.24-.86h3.04v-.38c0-.827-.24-1.46-.72-1.9-.48-.44-1.187-.66-2.12-.66-.627 0-1.24.107-1.84.32-.6.2-1.107.473-1.52.82l-.8-1.44c.547-.44 1.2-.773 1.96-1a7.99 7.99 0 012.42-.36zm-.44 9.34c.733 0 1.367-.16 1.9-.48.533-.333.92-.8 1.16-1.4v-1.48H75.3c-1.627 0-2.44.547-2.44 1.64 0 .533.207.953.62 1.26.413.307.987.46 1.72.46zm15.657-4.14c1.374.347 2.06 1.207 2.06 2.58 0 .933-.353 1.653-1.06 2.16-.693.507-1.733.76-3.12.76h-5.1V43.4h4.92c1.254 0 2.234.24 2.94.72.707.467 1.06 1.133 1.06 2 0 .56-.153 1.047-.46 1.46-.293.4-.706.707-1.24.92zm-5.34-.54h2.88c.734 0 1.287-.133 1.66-.4.387-.267.58-.653.58-1.16 0-1.013-.746-1.52-2.24-1.52h-2.88v3.08zm3.08 4.56c.8 0 1.4-.127 1.8-.38.4-.253.6-.647.6-1.18 0-.547-.186-.953-.56-1.22-.36-.267-.933-.4-1.72-.4h-3.2v3.18h3.08zm15.226-7.44h-3.88V54h-1.92v-8.92h-3.88V43.4h9.68v1.68zm6.034 9.04c-1.053 0-2-.233-2.84-.7a5.17 5.17 0 01-1.98-1.92c-.467-.827-.7-1.76-.7-2.8 0-1.04.233-1.967.7-2.78a4.986 4.986 0 011.98-1.92c.84-.467 1.787-.7 2.84-.7s1.993.233 2.82.7a4.854 4.854 0 011.96 1.92c.48.813.72 1.74.72 2.78 0 1.04-.24 1.973-.72 2.8a5.029 5.029 0 01-1.96 1.92c-.827.467-1.767.7-2.82.7zm0-1.68c.68 0 1.287-.153 1.82-.46.547-.32.973-.76 1.28-1.32.307-.573.46-1.227.46-1.96 0-.733-.153-1.38-.46-1.94a3.216 3.216 0 00-1.28-1.32c-.533-.307-1.14-.46-1.82-.46-.68 0-1.293.153-1.84.46-.533.307-.96.747-1.28 1.32-.307.56-.46 1.207-.46 1.94 0 .733.153 1.387.46 1.96.32.56.747 1 1.28 1.32.547.307 1.16.46 1.84.46zm20.493-9.04V54h-1.74v-7.74l-3.96 6.54h-.84l-3.92-6.56V54h-1.76V43.4h1.98l4.16 7.16 4.28-7.16h1.8zm7.517-.1c1.466 0 2.586.36 3.36 1.08.786.72 1.18 1.793 1.18 3.22V54h-1.82v-1.4c-.32.493-.78.873-1.38 1.14-.587.253-1.287.38-2.1.38-1.187 0-2.14-.287-2.86-.86-.707-.573-1.06-1.327-1.06-2.26 0-.933.34-1.68 1.02-2.24.68-.573 1.76-.86 3.24-.86h3.04v-.38c0-.827-.24-1.46-.72-1.9-.48-.44-1.187-.66-2.12-.66-.627 0-1.24.107-1.84.32-.6.2-1.107.473-1.52.82l-.8-1.44c.546-.44 1.2-.773 1.96-1 .76-.24 1.566-.36 2.42-.36zm-.44 9.34c.733 0 1.366-.16 1.9-.48.533-.333.92-.8 1.16-1.4v-1.48h-2.96c-1.627 0-2.44.547-2.44 1.64 0 .533.206.953.62 1.26.413.307.986.46 1.72.46zm16.337-7.56h-3.88V54h-1.92v-8.92h-3.88V43.4h9.68v1.68zm1.963-1.68h1.92v7.72l6.5-7.72h1.74V54h-1.92v-7.72l-6.48 7.72h-1.76V43.4zm19.451 5.08c.707.187 1.253.487 1.64.9.387.413.58.927.58 1.54 0 .627-.213 1.187-.64 1.68-.427.48-1.02.86-1.78 1.14-.747.267-1.587.4-2.52.4-.787 0-1.56-.1-2.32-.3a7.202 7.202 0 01-2-.9l.58-1.46c.507.32 1.087.573 1.74.76a7.7 7.7 0 001.98.26c.907 0 1.627-.153 2.16-.46.547-.32.82-.747.82-1.28 0-.493-.22-.873-.66-1.14-.427-.267-1.033-.4-1.82-.4h-1.94v-1.38h1.8c.72 0 1.287-.127 1.7-.38.413-.253.62-.6.62-1.04 0-.48-.247-.853-.74-1.12-.48-.267-1.133-.4-1.96-.4-1.053 0-2.167.273-3.34.82l-.52-1.48a8.891 8.891 0 014.06-.98c.853 0 1.62.12 2.3.36.68.24 1.213.58 1.6 1.02.387.44.58.94.58 1.5 0 .52-.173.987-.52 1.4-.347.413-.813.727-1.4.94zm8.919-5.18c1.467 0 2.587.36 3.36 1.08.787.72 1.18 1.793 1.18 3.22V54h-1.82v-1.4c-.32.493-.78.873-1.38 1.14-.587.253-1.287.38-2.1.38-1.187 0-2.14-.287-2.86-.86-.707-.573-1.06-1.327-1.06-2.26 0-.933.34-1.68 1.02-2.24.68-.573 1.76-.86 3.24-.86h3.04v-.38c0-.827-.24-1.46-.72-1.9-.48-.44-1.187-.66-2.12-.66-.627 0-1.24.107-1.84.32-.6.2-1.107.473-1.52.82l-.8-1.44c.547-.44 1.2-.773 1.96-1 .76-.24 1.567-.36 2.42-.36zm-.44 9.34c.733 0 1.367-.16 1.9-.48.533-.333.92-.8 1.16-1.4v-1.48h-2.96c-1.627 0-2.44.547-2.44 1.64 0 .533.207.953.62 1.26.413.307.987.46 1.72.46zm19.757-.32v4.22h-1.82V54h-9.5V43.4h1.92v8.92h5.8V43.4h1.92v8.92h1.68zm2.489-8.92h1.92v7.72l6.5-7.72h1.74V54h-1.92v-7.72l-6.48 7.72h-1.76V43.4zm13.887 0h1.92v7.72l6.5-7.72h1.74V54h-1.92v-7.72L221.55 54h-1.76V43.4z" fill="#333"/></svg>