<svg width="72" height="72" viewBox="0 0 72 72" fill="none" xmlns="http://www.w3.org/2000/svg"><path d="M41.814 26.251v0c0 .673.546 1.218 1.22 1.218h0c.13 0 .26-.021.384-.062l1.405-.469s0 0 0 0a2.808 2.808 0 110 5.339l-1.406-.469h0a1.219 1.219 0 00-1.603 1.155v8.85h-8.85 0a1.22 1.22 0 00-1.218 1.22v0c0 .13.021.26.063.384l.468 1.406s0 0 0 0a2.809 2.809 0 11-5.339 1.747l-.095.031.095-.03a2.808 2.808 0 010-1.748s0 0 0 0l.469-1.406h0a1.219 1.219 0 00-1.155-1.604h0-10.069a1.22 1.22 0 00-1.219 1.219v26.85a1.22 1.22 0 001.22 1.218h53.698a1.22 1.22 0 001.219-1.219V16.183a1.22 1.22 0 00-1.22-1.219H43.033a1.22 1.22 0 00-1.218 1.219V26.25zm0 33.562v8.85H17.402V44.25h7.163a5.246 5.246 0 1010.085 0h7.164v8.85a1.219 1.219 0 001.604 1.155l1.405-.469s0 0 0 0a2.809 2.809 0 110 5.339l-1.406-.469h0a1.219 1.219 0 00-1.603 1.156zm26.849 8.85H44.251v-7.164a5.246 5.246 0 100-10.085v-7.163h8.85a1.219 1.219 0 001.155-1.604l-.468-1.406s0 0 0 0a2.809 2.809 0 115.338 0l-.468 1.406h0a1.219 1.219 0 001.155 1.604h8.85v24.412zm0-26.85H61.5a5.246 5.246 0 10-10.085 0H44.25v-7.162a5.197 5.197 0 004.533-.785 5.246 5.246 0 00-4.533-9.302v-7.163h24.412v24.412z" fill="#585CE9" stroke="#585CE9" stroke-width=".2"/><path d="M27.75 18.9v8.85H18.9h0c-.674 0-1.219.546-1.218 1.219v0c0 .13.02.26.062.384l.469 1.406s0 0 0 0a2.808 2.808 0 11-5.339 1.747l-.095.031.095-.03a2.809 2.809 0 010-1.748s0 0 0 0l.469-1.406h0a1.219 1.219 0 00-1.156-1.604h0-8.85V3.337H27.75v8.85c0 .673.547 1.219 1.22 1.218h0c.13 0 .26-.021.384-.062l1.406-.469s0 0 0 0a2.809 2.809 0 013.543 1.796l.095-.031-.095.03a2.808 2.808 0 01-3.543 3.544l-1.406-.469h0A1.219 1.219 0 0027.75 18.9v0zm5.462-8.36a5.246 5.246 0 00-3.025-.039V2.119A1.22 1.22 0 0028.968.9H2.118A1.22 1.22 0 00.9 2.119v26.85a1.22 1.22 0 001.219 1.218H10.5a5.246 5.246 0 1010.085 0h8.382a1.22 1.22 0 001.219-1.22v-8.381a5.246 5.246 0 003.025-10.046z" fill="#FF4A35" stroke="#FF4A35" stroke-width=".2"/></svg>