<svg width="406" height="405" viewBox="0 0 406 405" fill="none" xmlns="http://www.w3.org/2000/svg"><path opacity=".1" d="M356.457 343.64c-10.449 10.769-19.803 17.102-26.969 21.888-69.859 46.637-149.947 41.106-174.625 36.51-39.825-7.413-73.2-20.546-102.08-46.637C-12.86 296.098-9.664 172.415 40.48 95.791c5.954-9.09 56.024-83.321 136.04-93.77 1.955-.262 3.415-.408 4.699-.54 12.375-1.312 89.078-8.23 151.626 44.172 8.96 7.5 24.882 20.122 36.717 41.66 42.365 77.105 49.019 192.296-13.105 256.327z" fill="#585CE9"/><path d="M352.911 164.594c-.117-.511-.234-1.036-.365-1.547-18.913-77.85-98.054-125.464-176.756-106.348l34.616 142.507 142.505-34.612z" fill="#91B3FA"/><path d="M209.998 198.666l138.725 47.629c8.624-25.025 10.565-52.692 4.217-80.388-.204-.876-.408-1.737-.627-2.612l-142.315 35.371z" fill="#91B3FA"/><path d="M210.407 199.206l28.194 143.909c.905-.176 1.81-.365 2.715-.555 52.069-11.221 91.661-48.796 107.831-95.725l-138.74-47.629z" fill="#7D97F4"/><path d="M192.384 187.328L163.11 45.463C96.914 59.12 50.42 115.418 46.362 179.769l145.22 8.493a.772.772 0 00.802-.934z" fill="url(#paint0_linear)"/><path d="M210.509 198.593l-146.343-4.859c-.627 12.812.526 23.567 3.445 36.7 13.615 61.272 63.744 104.99 122.409 113.381l20.489-145.222z" fill="url(#paint1_linear)"/><path d="M188.794 344.253c16.184 2.451 33.054 2.218 50.012-1.095l-28.049-143.937-21.963 145.032z" fill="url(#paint2_linear)"/><path opacity=".61" d="M158.133 330.799c-.117 0-.248-.029-.365-.073-20.27-8.362-38.57-21.495-52.96-37.955-14.856-17.014-25.553-37.691-30.923-59.784a150.81 150.81 0 01-1.314-5.968.966.966 0 01.76-1.138.966.966 0 011.138.759c.394 1.955.832 3.94 1.299 5.895 5.297 21.801 15.833 42.186 30.5 58.967 14.185 16.241 32.237 29.184 52.215 37.429a.97.97 0 01.525 1.269.932.932 0 01-.875.599zm105.86.627a.963.963 0 01-.905-.613.978.978 0 01.54-1.269c36.221-14.374 65.029-43.602 79.009-80.199a.983.983 0 011.255-.569c.496.19.759.759.569 1.255-14.184 37.093-43.386 66.73-80.118 81.308a.696.696 0 01-.35.087zm60.402-215.877a.948.948 0 01-.773-.394c-17.498-23.172-41.402-40.128-69.129-49.03a.977.977 0 01-.628-1.225.977.977 0 011.226-.628c28.107 9.018 52.347 26.208 70.092 49.716a.974.974 0 01-.189 1.357.93.93 0 01-.599.204z" fill="#fff"/><path opacity=".74" d="M126.072 179.084h-.059l-74.514-4.801.16-1.051c1.956-12.637 5.181-24.865 10.158-38.494a.985.985 0 011.255-.584c.51.19.758.744.583 1.255-4.786 13.133-7.938 24.938-9.894 37.064l72.384 4.67a.958.958 0 01.904 1.036.974.974 0 01-.977.905zm58.445 3.764h-.103l-15.191-.977a.958.958 0 01-.905-1.036.967.967 0 011.036-.905l14.696.949-15.805-74.012a.968.968 0 01.744-1.153.967.967 0 011.153.744l15.907 74.493c.102.482-.029.978-.35 1.358-.307.35-.73.539-1.182.539z" fill="#fff"/><path d="M211.385 168.125l-.7-1.284 47.341-25.872 44.013 19.349 37.783-37.064.073-.044 44.364-26.178.744 1.254-44.291 26.135-38.351 37.633-44.262-19.451-46.714 25.522z" fill="url(#paint3_linear)"/><path d="M211.035 172.575a5.093 5.093 0 10.001-10.185 5.093 5.093 0 00-.001 10.185z" fill="url(#paint4_linear)"/><path d="M258.07 146.879a5.093 5.093 0 100-10.187 5.093 5.093 0 000 10.187z" fill="url(#paint5_linear)"/><path d="M302.2 165.309a5.093 5.093 0 100-10.185 5.093 5.093 0 000 10.185z" fill="url(#paint6_linear)"/><path d="M339.049 128.93a5.093 5.093 0 10.001-10.185 5.093 5.093 0 00-.001 10.185z" fill="url(#paint7_linear)"/><path d="M384.638 102.752a5.093 5.093 0 100-10.185 5.093 5.093 0 000 10.185z" fill="url(#paint8_linear)"/><path d="M81.796 401.936c-4.729.408-12.93 1.065-19.395 1.357-3.882.175-6.13-.205-7.414-.73 0 .146 0 .277.015.409.03.685.584 1.225 1.27 1.269 12.214.686 21.934.234 25.392.029.715-.044 1.138-.817.774-1.43a5.355 5.355 0 00-.642-.904z" fill="url(#paint9_linear)"/><path d="M62.415 403.292c6.465-.277 14.666-.948 19.395-1.357-4.641-5.705-19.395-9.543-19.395-9.543H58.24c-2.86 4.13-3.283 8.055-3.254 10.171 1.298.511 3.531.89 7.428.729z" fill="url(#paint10_linear)"/><path d="M57.54 385.592l.394 7.705a1.786 1.786 0 001.503 1.663c.832.117 1.941.132 3.123-.262a2.093 2.093 0 001.401-1.605l1.343-7.501H57.54z" fill="url(#paint11_linear)"/><path d="M3.457 403.234c-2.043-.292-2.977-1.357-3.371-2.495 0 .015 0 .015-.015.029-.306 1.197.394 2.452 1.795 3.035 1.693.715 3.532.832 4.962.774 1.532-.059 2.948-.701 3.721-1.722l.015-.015c-1.533.774-3.692.861-7.107.394z" fill="url(#paint12_linear)"/><path d="M13.117 385.549H9.688c-5.224-.103-8.523 10.929-9.588 15.205.394 1.138 1.314 2.203 3.371 2.495 3.415.481 5.59.379 7.122-.38 2.83-3.721 4.232-9.163 4.903-12.345.759-3.633-2.379-4.975-2.379-4.975z" fill="url(#paint13_linear)"/><path d="M10.125 378.384l-1.912 7.588a2.05 2.05 0 001.065 2.334c1.066.555 2.569 1.124 3.955.964.642-.073 1.182-.54 1.401-1.153l2.802-7.982-7.311-1.751z" fill="url(#paint14_linear)"/><path d="M7.85 380.573c2.378 2.101 10.083 2.378 10.083 2.378 27.8-66.715 39.169-76.186 39.169-76.186-4.013 25.187-.642 80.929-.642 80.929 4.582 2.028 10.507 0 10.507 0 .38-41.223 6.713-77.178 14.2-105.516-18.782-.424-28.779-6.859-32.048-9.427C33.461 297.995 7.85 380.573 7.85 380.573z" fill="url(#paint15_linear)"/><path d="M53.892 196.025c-3.56 17.744-2.277 49.482-1.445 63.972.234 4.072-2.612 9.719-4.903 13.557a1.206 1.206 0 00.481 1.692c3.838 1.97 16.87 8.099 31.974 8.858a2.152 2.152 0 002.16-1.605c11.194-41.807 24.211-68.525 24.211-68.525-14.36-22.939-52.478-17.949-52.478-17.949z" fill="url(#paint16_linear)"/><path d="M59 305.189a.91.91 0 01-.467-.131.884.884 0 01-.292-1.226c.146-.248 3.75-6.056 11.018-9.572a.88.88 0 011.182.408.879.879 0 01-.409 1.182c-6.786 3.269-10.244 8.829-10.273 8.887a.86.86 0 01-.76.452z" fill="url(#paint17_linear)"/><path d="M31.578 246.923c1.138 8.259 4.524 17.277 11.266 26.849l2.569-2.086s-2.963-12.024-1.284-25.668c-4.16-.803-9.078.029-12.55.905z" fill="url(#paint18_linear)"/><path d="M57.86 217.899l-3.969-21.889s-26.545 20.284-22.313 50.913c3.473-.876 8.391-1.722 12.55-.905 1.226-9.821 4.845-20.487 13.733-28.119z" fill="url(#paint19_linear)"/><path d="M106.37 213.974l-10.245 22.063c1.664 13.323 8.815 19.072 16.535 21.29.481-6.07 2.014-10.973 3.444-14.373-9.865-10.186-9.734-28.98-9.734-28.98z" fill="url(#paint20_linear)"/><path d="M116.088 242.954c-1.43 3.385-2.962 8.303-3.444 14.373 20.591 7.982 26.035-7.5 26.035-7.5l-3.809-.672c-8.581.89-14.579-1.882-18.782-6.201z" fill="url(#paint21_linear)"/><path d="M96.927 186.73l-4.947 18.182a3.529 3.529 0 01-4.728 2.349c-2.116-.846-4.816-1.999-7.122-3.254-2.466-1.328-3.24-4.509-1.678-6.844l10.288-15.336 8.187 4.903z" fill="url(#paint22_linear)"/><path d="M148.122 237.657l-126.73 46.126c-5.311 1.94-7.85 7.982-5.515 13.133l.38.846c2.071 4.553 7.456 6.552 11.995 4.451l123.052-56.925-3.182-7.631z" fill="url(#paint23_linear)"/><path opacity=".23" d="M206.364 271.336c34.552 0 62.562-27.505 62.562-61.434 0-33.928-28.01-61.433-62.562-61.433-34.552 0-62.562 27.505-62.562 61.433 0 33.929 28.01 61.434 62.562 61.434z" fill="url(#paint24_linear)"/><path d="M206.364 141.552c-38.439 0-69.611 30.6-69.611 68.35 0 37.75 31.172 68.35 69.611 68.35 38.439 0 69.611-30.6 69.611-68.35 0-37.75-31.157-68.35-69.611-68.35zm0 126.661c-32.791 0-59.381-26.106-59.381-58.311s26.59-58.31 59.381-58.31c32.792 0 59.381 26.105 59.381 58.31.014 32.205-26.575 58.311-59.381 58.311z" fill="url(#paint25_linear)"/><path d="M142.051 218.38a.471.471 0 01-.467-.408 69.586 69.586 0 01-.438-4.903.47.47 0 01.438-.496.446.446 0 01.496.437 60.03 60.03 0 00.423 4.83.466.466 0 01-.409.526s-.029.014-.043.014zm.481-19.115c-.029 0-.058 0-.087-.015a.474.474 0 01-.38-.54 63.629 63.629 0 013.751-12.856c10.04-24.339 33.798-40.07 60.548-40.07 12.477 0 24.59 3.459 35.053 10.025a.467.467 0 01.146.642.455.455 0 01-.642.146c-10.317-6.464-22.27-9.879-34.557-9.879-26.371 0-49.793 15.497-59.687 39.487a62.815 62.815 0 00-3.707 12.651.443.443 0 01-.438.409z" fill="#91B3FA"/><path d="M107.757 172.926c.044.306-4.13 20.735-4.13 20.735l-11.616-2.626 1.08-19.948s13.907-3.4 14.666 1.839z" fill="url(#paint26_linear)"/><path d="M95.702 175.523l-1.386 10.463a1.778 1.778 0 000 .394c.116.817.73 3.604 3.546 2.816 2.554-.73 4.903-1.342 6.523-.846a1.46 1.46 0 011.007 1.707c-.379 1.853-1.313 6.027-2.671 9.514a1.473 1.473 0 01-1.78.876c-2.204-.642-6.815-2.131-10.245-4.188a1.457 1.457 0 01-.715-1.328c.117-2.641.424-10.667.16-12.914-.247-2.116-2.83-3.371-3.969-3.838a1.446 1.446 0 01-.802-.803c-.526-1.313-1.24-4.334 2.568-5.574a1.481 1.481 0 00.934-1.911c-.569-1.576-.802-3.97 2.145-5.297 2.992-1.343 5.24.248 6.45 1.546.482.526 1.27.599 1.883.219.35-.219.788-.292 1.328.044.73.452 1.679.146 2.058-.627.715-1.474 2.174-3.05 5.108-2.554 5.21.89 5.793 6.654 4.422 10.039-1.372 3.386-6.962 2.087-9.764.394-2.13-1.298-4.903.059-6.1.788a1.507 1.507 0 00-.7 1.08z" fill="url(#paint27_linear)"/><path d="M89.66 185.825s2.145-5.997-.058-7.456c-2.204-1.474-5.458-.701-4.743 3.633.905 5.399 4.801 3.823 4.801 3.823z" fill="url(#paint28_linear)"/><path d="M44.362 271.321l11.981-.978 5.196 4.787s-1.226 1.692-5.064.715c-3.838-.978-9.092-1.212-9.092-1.212s-5.297 2.393-5.356-2.086l2.335-1.226z" fill="url(#paint29_linear)"/><path d="M137.161 252.643c1.036.802 4.582-.876 6.757-2.043a2.489 2.489 0 001.211-2.948c-.525-1.649-1.401-3.779-2.466-4.042-1.795-.452-9.778 5.706-5.502 9.033z" fill="url(#paint30_linear)"/><path d="M23.888 300.432a.728.728 0 01-.16-.029c-4.948-1.707-6.1-4.64-6.203-6.785-.131-3.152 1.839-6.071 4.918-7.267l15.221-5.939a.469.469 0 01.599.263.491.491 0 01-.263.612l-15.221 5.939c-2.7 1.051-4.436 3.605-4.32 6.348.117 2.714 1.985 4.713 5.56 5.939.248.088.38.35.292.598a.438.438 0 01-.423.321zm18.65-20.939a.478.478 0 01-.438-.292.487.487 0 01.263-.613l1.97-.774a.47.47 0 01.598.263.487.487 0 01-.263.613l-1.97.773a.735.735 0 01-.16.03z" fill="#91B3FA"/><path d="M352.575 389.109s.875 4.932 1.298 9.806a3.348 3.348 0 01-3.21 3.634c-6.494.277-20.387.802-25.364.569-.744-.03-1.24-.803-.963-1.503a2.459 2.459 0 011.255-1.314l22.941-10.55 4.043-.642z" fill="url(#paint31_linear)"/><path d="M353.29 386.22l-.7 5.895s-4.013 1.868-6.757-.233l1.664-6.567 5.793.905z" fill="url(#paint32_linear)"/><path d="M352.765 275.465c.306 1.532 1.619 76.77-6.422 110.478-.131.554.146 1.123.672 1.328 1.24.51 3.648 1.24 6.552 1.327a1.963 1.963 0 001.956-1.415c2.305-7.821 13.309-47.016 14.754-84.445 1.605-41.836 0-1.43 0-1.43l-.949-25.858-16.563.015z" fill="url(#paint33_linear)"/><path d="M378.96 391.677s1.386 2.481 2.729 9.091a2.046 2.046 0 01-1.81 2.452c-2.145.204-5.443.481-8.085.467-1.226-.015-2.174-1.066-2.028-2.277.292-2.407 1.211-6.362 4.028-9.456l5.166-.277z" fill="url(#paint34_linear)"/><path d="M380.186 384.104l-1.634 8.916s-1.62 1.196-4.816.335l.773-9.587 5.677.336z" fill="url(#paint35_linear)"/><path d="M384.593 277.771c6.581 39.691-1.43 98.103-4.13 109.529a1.78 1.78 0 01-1.445 1.357c-1.211.204-3.196.365-5.151-.204a1.639 1.639 0 01-1.182-1.503c-.365-9.237.291-65.986-5.838-88.415a5.086 5.086 0 00-1.97-2.816l-11.894-8.449-.904-13.673 32.514 4.174z" fill="url(#paint36_linear)"/><path d="M342.68 202.562c19.716-.321 41.46 5.181 41.46 5.181 5.881 34.277 1.022 73.822 1.022 73.822-15.265 3.998-32.471-2.452-32.471-2.452-2.539-14.33-14.374-54.648-14.374-54.648-9.632-1.196-17.571-3.969-24.094-7.646 4.991-5.779 7.326-13.133 8.348-17.467 6.975 2.16 14.024 3.312 20.109 3.21z" fill="url(#paint37_linear)"/><path d="M284.453 173.539c1.941-2.335 4.392-1.226 4.392-1.226 2.904 12.257 18.111 22.18 33.74 27.039-1.021 4.349-3.371 11.688-8.347 17.467-25.947-14.578-29.785-43.28-29.785-43.28z" fill="url(#paint38_linear)"/><path d="M284.919 174.137c-.204.642 2.146 1.62 3.532-1.007.044-1.27.817-6.669.058-7.705-4.013-5.472-11.806-12.345-11.806-12.345-1.313 1.299-.233 2.569-.233 2.569l3.78 3.939c-.789 1.43-1.752 2.642-2.204 4.364-.336 1.313-.131 2.699.525 3.896.657 1.196 1.562 2.743 2.423 3.969 1.62 2.291 3.925 2.32 3.925 2.32z" fill="url(#paint39_linear)"/><path d="M281.9 162.142l3.444 2.919 1.08 2.903-3.065 3.4s-1.036-5.764-1.795-7.018c-.773-1.226-.379-1.839.336-2.204z" fill="url(#paint40_linear)"/><path d="M376.581 226.829l7.559-19.086s18.417 12.505 21.438 28.367c-3.473.263-9.807 1.167-16.009 4.29-1.357-7.486-12.988-13.571-12.988-13.571z" fill="url(#paint41_linear)"/><path d="M360.485 244.792s20.664 11.689 27.64 1.708c1.445-2.073 1.795-4.13 1.445-6.085 6.202-3.123 12.521-4.028 16.009-4.29.919 4.786.423 9.864-2.379 15-12.215 22.341-45.444-1.24-45.444-1.24l2.729-5.093z" fill="url(#paint42_linear)"/><path d="M362.98 259.56l-11.281-39.399a1.156 1.156 0 00-.977-.832 528.397 528.397 0 00-14.813-1.488c-8.23-.701-17.804-1.255-23.524-.788a1.163 1.163 0 00-.949 1.663c3.254 6.581 16.622 33.329 23.32 42.084.219.292.569.467.934.452l26.181-.248c.773.029 1.313-.7 1.109-1.444z" fill="url(#paint43_linear)"/><path d="M334.742 214.441l-8.172-1.358a.59.59 0 00-.657.759l.803 2.452a.584.584 0 00.481.394l7.866 1.05a.578.578 0 00.642-.715l-.496-2.145a.576.576 0 00-.467-.437z" fill="url(#paint44_linear)"/><path d="M340.871 221.372l-.672-3.517a.837.837 0 00-.715-.656l-16.52-1.679a.812.812 0 00-.875.993l1.051 4.377a.838.838 0 00.744.628l16.14.817c.54.015.949-.452.847-.963z" fill="url(#paint45_linear)"/><path d="M360.251 250.046s1.576-6.465.934-8.756c-.628-2.291-1.868-5.238-5.954-4.582-4.101.657-8.917 2.379-8.917 2.379s.248 2.991 3.356 2.028l-1.926 1.488s.277 2.394 2.904 1.109l-1.795 1.985s1.124 1.97 3.065.7c1.926-1.254 2.846 4.422 8.333 3.649z" fill="url(#paint46_linear)"/><path d="M362.644 186.569l6.275 18.138a.654.654 0 01-.291.788c-1.708.949-7.866 3.678-15.294-1.021a3.072 3.072 0 01-1.416-2.203l-2.028-15.702h12.754z" fill="url(#paint47_linear)"/><path d="M348.999 169.774s-6.888 12.958-5.998 18.196c.876 5.239 9.413 4.859 16.87.613l5.21-13.994-16.082-4.815z" fill="url(#paint48_linear)"/><path d="M359.535 181.71a.542.542 0 01-.233-.788c.554-.846 1.591-2.568 1.912-4.071 0 0 1.24-.788-3.153-1.839-4.392-1.05-10.93-2.685-12.316-6.42-1.343-3.648 2.189-12.798 7.807-5.502a.533.533 0 00.846 0c.92-1.196 3.342-3.691 6.713-2.174 3.153 1.416 3.503 3.721 3.459 4.889a.527.527 0 00.628.54c1.59-.307 5.414-.57 7.194 3.356 1.474 3.225.511 5.049-.35 5.953a.537.537 0 00.233.89c1.051.321 2.394 1.212 2.262 3.663-.189 3.385-3.969 3.094-5.049 2.933a.546.546 0 00-.481.161c-.92 1.021-5.094 5.37-9.603 5.895a.54.54 0 01-.569-.715l1.955-5.677a.542.542 0 00-.291-.671l-.964-.423z" fill="url(#paint49_linear)"/><path d="M358.747 182.513s4.903-3.371 5.268-.526c.365 2.831-4.422 4.101-6.786 3.05l1.518-2.524z" fill="url(#paint50_linear)"/><path d="M122.276 98.71l18.841 1.284c.89.073 1.386-1.022.729-1.634l-18.067-13.382-1.503 13.732z" fill="#91B3FA"/><path d="M14.621 38.4l106.138-.642c2.437-.014 4.407 1.78 4.378 3.998l-.452 53.437c-.015 2.233-2.043 3.998-4.48 3.94L15.219 96.258c-2.335-.058-4.188-1.795-4.217-3.91l-.7-49.906c-.044-2.218 1.897-4.027 4.32-4.042z" fill="#91B3FA"/><path opacity=".14" d="M17.904 41.669l99.382-.57c2.276-.014 4.13 1.562 4.1 3.503l-.423 46.68c-.014 1.941 1.649 4.684-.642 4.626L18.459 92.216c-2.19-.058-3.926-1.561-3.955-3.429l-.657-43.602c-.014-1.926 1.795-3.502 4.057-3.516z" fill="#fff"/><path opacity=".77" d="M120.335 95.908L15.321 93.034c-.438-.015-.788-.336-.803-.745l-.7-49.905a.71.71 0 01.233-.54.944.944 0 01.584-.233l106.138-.642c.234 0 .438.072.584.218.16.146.248.336.248.54l-.438 53.437c-.014.409-.379.744-.832.744zM15.365 92.26l104.985 2.875.409-53.422-106.11.67.716 49.877z" fill="#fff"/><path opacity=".77" d="M20.735 53.751c0 1.897 1.095 3.43 2.467 3.43h90.275c1.357 0 2.466-1.533 2.466-3.43 0-1.897-1.095-3.429-2.466-3.429H23.202c-1.358 0-2.467 1.532-2.467 3.43zm4.948 9.266h84.628c1.838 0 3.327.92 3.327 2.058s-1.489 2.057-3.327 2.057H25.683c-1.838 0-3.327-.919-3.327-2.057s1.488-2.058 3.327-2.058zm-3.327 11.397c0 1.138 1.488 2.043 3.327 2.043h84.642c1.839 0 3.328-.92 3.328-2.043v-1.27c0-1.153-1.547-2.072-3.415-2.043l-84.642 1.27c-1.81.014-3.24.934-3.24 2.043zm3.662 6.464h84.628c1.838 0 3.327.92 3.327 2.058s-1.489 2.057-3.327 2.057H26.018c-1.839 0-3.327-.92-3.327-2.057 0-1.139 1.488-2.058 3.327-2.058z" fill="#fff"/><defs><linearGradient id="paint0_linear" x1="139.444" y1="22.063" x2="97.582" y2="356.993" gradientUnits="userSpaceOnUse"><stop stop-color="#FF928E"/><stop offset="1" stop-color="#FE7062"/></linearGradient><linearGradient id="paint1_linear" x1="434.189" y1="402.028" x2="162.533" y2="255.964" gradientUnits="userSpaceOnUse"><stop stop-color="#4F52FF"/><stop offset="1" stop-color="#4042E2"/></linearGradient><linearGradient id="paint2_linear" x1="243.897" y1="251.061" x2="409.415" y2="76.766" gradientUnits="userSpaceOnUse"><stop stop-color="#4F52FF"/><stop offset="1" stop-color="#4042E2"/></linearGradient><linearGradient id="paint3_linear" x1="359.769" y1="71.993" x2="235.894" y2="193.184" gradientUnits="userSpaceOnUse"><stop stop-color="#2B3582"/><stop offset="1" stop-color="#150E42"/></linearGradient><linearGradient id="paint4_linear" x1="219.15" y1="159.541" x2="207.061" y2="171.369" gradientUnits="userSpaceOnUse"><stop stop-color="#09005D"/><stop offset="1" stop-color="#1A0F91"/></linearGradient><linearGradient id="paint5_linear" x1="266.19" y1="133.841" x2="254.1" y2="145.669" gradientUnits="userSpaceOnUse"><stop stop-color="#09005D"/><stop offset="1" stop-color="#1A0F91"/></linearGradient><linearGradient id="paint6_linear" x1="310.318" y1="152.268" x2="298.229" y2="164.096" gradientUnits="userSpaceOnUse"><stop stop-color="#09005D"/><stop offset="1" stop-color="#1A0F91"/></linearGradient><linearGradient id="paint7_linear" x1="347.174" y1="115.9" x2="335.085" y2="127.728" gradientUnits="userSpaceOnUse"><stop stop-color="#09005D"/><stop offset="1" stop-color="#1A0F91"/></linearGradient><linearGradient id="paint8_linear" x1="392.757" y1="89.716" x2="380.668" y2="101.544" gradientUnits="userSpaceOnUse"><stop stop-color="#09005D"/><stop offset="1" stop-color="#1A0F91"/></linearGradient><linearGradient id="paint9_linear" x1="55" y1="403.264" x2="82.581" y2="403.264" gradientUnits="userSpaceOnUse"><stop stop-color="#4F52FF"/><stop offset="1" stop-color="#4042E2"/></linearGradient><linearGradient id="paint10_linear" x1="54.998" y1="397.858" x2="81.802" y2="397.858" gradientUnits="userSpaceOnUse"><stop stop-color="#09005D"/><stop offset="1" stop-color="#1A0F91"/></linearGradient><linearGradient id="paint11_linear" x1="57.545" y1="390.312" x2="65.314" y2="390.312" gradientUnits="userSpaceOnUse"><stop stop-color="#FEBBBA"/><stop offset="1" stop-color="#FF928E"/></linearGradient><linearGradient id="paint12_linear" x1=".013" y1="402.669" x2="10.582" y2="402.669" gradientUnits="userSpaceOnUse"><stop stop-color="#4F52FF"/><stop offset="1" stop-color="#4042E2"/></linearGradient><linearGradient id="paint13_linear" x1=".089" y1="394.531" x2="15.604" y2="394.531" gradientUnits="userSpaceOnUse"><stop stop-color="#09005D"/><stop offset="1" stop-color="#1A0F91"/></linearGradient><linearGradient id="paint14_linear" x1="8.153" y1="383.836" x2="17.438" y2="383.836" gradientUnits="userSpaceOnUse"><stop stop-color="#FEBBBA"/><stop offset="1" stop-color="#FF928E"/></linearGradient><linearGradient id="paint15_linear" x1="-87.552" y1="487.806" x2="101.331" y2="283.327" gradientUnits="userSpaceOnUse"><stop stop-color="#4F52FF"/><stop offset="1" stop-color="#4042E2"/></linearGradient><linearGradient id="paint16_linear" x1="-339.116" y1="554.997" x2="-246.132" y2="482.941" gradientUnits="userSpaceOnUse"><stop stop-color="#FF928E"/><stop offset="1" stop-color="#FE7062"/></linearGradient><linearGradient id="paint17_linear" x1="59.472" y1="221.128" x2="62.393" y2="268.349" gradientUnits="userSpaceOnUse"><stop stop-color="#4F52FF"/><stop offset="1" stop-color="#4042E2"/></linearGradient><linearGradient id="paint18_linear" x1="50.692" y1="248.508" x2="17.642" y2="277.777" gradientUnits="userSpaceOnUse"><stop stop-color="#FEBBBA"/><stop offset="1" stop-color="#FF928E"/></linearGradient><linearGradient id="paint19_linear" x1="-355.218" y1="534.22" x2="-262.234" y2="462.164" gradientUnits="userSpaceOnUse"><stop stop-color="#FF928E"/><stop offset="1" stop-color="#FE7062"/></linearGradient><linearGradient id="paint20_linear" x1="-325.441" y1="572.645" x2="-232.457" y2="500.588" gradientUnits="userSpaceOnUse"><stop stop-color="#FF928E"/><stop offset="1" stop-color="#FE7062"/></linearGradient><linearGradient id="paint21_linear" x1="112.652" y1="251.277" x2="138.682" y2="251.277" gradientUnits="userSpaceOnUse"><stop stop-color="#FEBBBA"/><stop offset="1" stop-color="#FF928E"/></linearGradient><linearGradient id="paint22_linear" x1="87.35" y1="181.72" x2="87.066" y2="230.326" gradientUnits="userSpaceOnUse"><stop stop-color="#FEBBBA"/><stop offset="1" stop-color="#FF928E"/></linearGradient><linearGradient id="paint23_linear" x1="158.442" y1="243.517" x2="13.848" y2="297.074" gradientUnits="userSpaceOnUse"><stop stop-color="#09005D"/><stop offset="1" stop-color="#1A0F91"/></linearGradient><linearGradient id="paint24_linear" x1="143.808" y1="209.907" x2="268.927" y2="209.907" gradientUnits="userSpaceOnUse"><stop stop-color="#B37CFF"/><stop offset="1" stop-color="#F895E7"/></linearGradient><linearGradient id="paint25_linear" x1="136.756" y1="209.907" x2="275.98" y2="209.907" gradientUnits="userSpaceOnUse"><stop stop-color="#09005D"/><stop offset="1" stop-color="#1A0F91"/></linearGradient><linearGradient id="paint26_linear" x1="103.125" y1="173.728" x2="83.966" y2="208.472" gradientUnits="userSpaceOnUse"><stop stop-color="#FEBBBA"/><stop offset="1" stop-color="#FF928E"/></linearGradient><linearGradient id="paint27_linear" x1="81.309" y1="178.937" x2="164.328" y2="189.435" gradientUnits="userSpaceOnUse"><stop stop-color="#09005D"/><stop offset="1" stop-color="#1A0F91"/></linearGradient><linearGradient id="paint28_linear" x1="72.02" y1="203.54" x2="88.201" y2="181.312" gradientUnits="userSpaceOnUse"><stop stop-color="#FEBBBA"/><stop offset="1" stop-color="#FF928E"/></linearGradient><linearGradient id="paint29_linear" x1="63.745" y1="263.247" x2="30.694" y2="292.516" gradientUnits="userSpaceOnUse"><stop stop-color="#FEBBBA"/><stop offset="1" stop-color="#FF928E"/></linearGradient><linearGradient id="paint30_linear" x1="135.917" y1="248.22" x2="145.239" y2="248.22" gradientUnits="userSpaceOnUse"><stop stop-color="#FEBBBA"/><stop offset="1" stop-color="#FF928E"/></linearGradient><linearGradient id="paint31_linear" x1="326.017" y1="382.307" x2="410.019" y2="473.686" gradientUnits="userSpaceOnUse"><stop stop-color="#4F52FF"/><stop offset="1" stop-color="#4042E2"/></linearGradient><linearGradient id="paint32_linear" x1="353.286" y1="389.093" x2="345.824" y2="389.093" gradientUnits="userSpaceOnUse"><stop stop-color="#FEBBBA"/><stop offset="1" stop-color="#FF928E"/></linearGradient><linearGradient id="paint33_linear" x1="370.98" y1="332.04" x2="346.306" y2="332.04" gradientUnits="userSpaceOnUse"><stop stop-color="#09005D"/><stop offset="1" stop-color="#1A0F91"/></linearGradient><linearGradient id="paint34_linear" x1="344.863" y1="364.982" x2="428.866" y2="456.361" gradientUnits="userSpaceOnUse"><stop stop-color="#4F52FF"/><stop offset="1" stop-color="#4042E2"/></linearGradient><linearGradient id="paint35_linear" x1="380.18" y1="388.71" x2="373.737" y2="388.71" gradientUnits="userSpaceOnUse"><stop stop-color="#FEBBBA"/><stop offset="1" stop-color="#FF928E"/></linearGradient><linearGradient id="paint36_linear" x1="387.124" y1="331.233" x2="352.095" y2="331.233" gradientUnits="userSpaceOnUse"><stop stop-color="#09005D"/><stop offset="1" stop-color="#1A0F91"/></linearGradient><linearGradient id="paint37_linear" x1="306.113" y1="312.598" x2="374.749" y2="208.906" gradientUnits="userSpaceOnUse"><stop stop-color="#FF928E"/><stop offset="1" stop-color="#FE7062"/></linearGradient><linearGradient id="paint38_linear" x1="322.579" y1="194.43" x2="284.456" y2="194.43" gradientUnits="userSpaceOnUse"><stop stop-color="#FEBBBA"/><stop offset="1" stop-color="#FF928E"/></linearGradient><linearGradient id="paint39_linear" x1="292.948" y1="188.041" x2="318.526" y2="246.241" gradientUnits="userSpaceOnUse"><stop stop-color="#FEBBBA"/><stop offset="1" stop-color="#FF928E"/></linearGradient><linearGradient id="paint40_linear" x1="284.64" y1="168.659" x2="273.967" y2="152.248" gradientUnits="userSpaceOnUse"><stop stop-color="#FEBBBA"/><stop offset="1" stop-color="#FF928E"/></linearGradient><linearGradient id="paint41_linear" x1="326.083" y1="325.816" x2="394.719" y2="222.124" gradientUnits="userSpaceOnUse"><stop stop-color="#FF928E"/><stop offset="1" stop-color="#FE7062"/></linearGradient><linearGradient id="paint42_linear" x1="406" y1="248.426" x2="357.755" y2="248.426" gradientUnits="userSpaceOnUse"><stop stop-color="#FEBBBA"/><stop offset="1" stop-color="#FF928E"/></linearGradient><linearGradient id="paint43_linear" x1="343.159" y1="214.129" x2="316.635" y2="324.654" gradientUnits="userSpaceOnUse"><stop stop-color="#09005D"/><stop offset="1" stop-color="#1A0F91"/></linearGradient><linearGradient id="paint44_linear" x1="326.55" y1="196.707" x2="332.199" y2="221.515" gradientUnits="userSpaceOnUse"><stop stop-color="#4F52FF"/><stop offset="1" stop-color="#4042E2"/></linearGradient><linearGradient id="paint45_linear" x1="329.506" y1="207.113" x2="332.208" y2="223.324" gradientUnits="userSpaceOnUse"><stop stop-color="#4F52FF"/><stop offset="1" stop-color="#4042E2"/></linearGradient><linearGradient id="paint46_linear" x1="361.336" y1="243.368" x2="346.306" y2="243.368" gradientUnits="userSpaceOnUse"><stop stop-color="#FEBBBA"/><stop offset="1" stop-color="#FF928E"/></linearGradient><linearGradient id="paint47_linear" x1="366.546" y1="225.61" x2="354.376" y2="181.796" gradientUnits="userSpaceOnUse"><stop stop-color="#FEBBBA"/><stop offset="1" stop-color="#FF928E"/></linearGradient><linearGradient id="paint48_linear" x1="345.343" y1="184.72" x2="366.314" y2="171.928" gradientUnits="userSpaceOnUse"><stop stop-color="#FEBBBA"/><stop offset="1" stop-color="#FF928E"/></linearGradient><linearGradient id="paint49_linear" x1="377.417" y1="158.447" x2="350.325" y2="179.847" gradientUnits="userSpaceOnUse"><stop stop-color="#09005D"/><stop offset="1" stop-color="#1A0F91"/></linearGradient><linearGradient id="paint50_linear" x1="350.851" y1="189.49" x2="369.719" y2="177.98" gradientUnits="userSpaceOnUse"><stop stop-color="#FEBBBA"/><stop offset="1" stop-color="#FF928E"/></linearGradient></defs></svg>