<svg width="29" height="29" viewBox="0 0 29 29" fill="none" xmlns="http://www.w3.org/2000/svg"><path d="M14.507 28.006c7.732 0 14-6.268 14-14s-6.268-14-14-14-14 6.268-14 14 6.268 14 14 14z" fill="#4F4F4F"/><path fill-rule="evenodd" clip-rule="evenodd" d="M13.979 20.145h1.098s.332-.036.502-.219c.156-.167.15-.482.15-.482s-.02-1.475.663-1.692c.675-.214 1.541 1.425 2.46 2.055.694.477 1.221.373 1.221.373l2.455-.035s1.285-.079.676-1.088c-.05-.083-.355-.747-1.826-2.112-1.539-1.43-1.333-1.198.521-3.67 1.13-1.505 1.581-2.424 1.44-2.817-.134-.375-.965-.276-.965-.276l-2.764.017s-.205-.027-.357.063c-.148.09-.244.297-.244.297s-.438 1.165-1.021 2.155c-1.23 2.09-1.723 2.2-1.924 2.07-.468-.302-.351-1.214-.351-1.863 0-2.025.307-2.87-.598-3.088-.301-.073-.522-.12-1.29-.128-.987-.01-1.821.003-2.294.234-.315.154-.557.497-.41.517.183.024.597.112.816.41.284.386.274 1.251.274 1.251s.162 2.384-.38 2.68c-.373.204-.884-.211-1.982-2.107-.562-.971-.986-2.045-.986-2.045s-.082-.2-.228-.308c-.177-.13-.425-.171-.425-.171l-2.627.017s-.394.01-.539.182c-.128.153-.01.468-.01.468s2.057 4.811 4.385 7.236c2.135 2.223 4.56 2.076 4.56 2.076z" fill="#F3E1DF"/></svg>