<svg width="374" height="372" viewBox="0 0 374 372" fill="none" xmlns="http://www.w3.org/2000/svg"><path d="M50.706 318.57c66.843 70.57 169.524 49.698 184.696 46.342 19.121-4.227 64.612-14.28 98.561-53.991 51.975-60.781 46.732-155.791 6.59-219.836-11.674-18.64-50.984-74.018-124.799-86.066-4.318-.7-81.395-12.009-143.405 40.04-8.359 7.015-21.854 19.724-33.686 38.232C1.98 140.73-15.384 248.792 50.706 318.57z" fill="url(#paint0_linear)"/><path d="M125.789 131.298c4.133 14.994 11.092 34.559 18.249 51.217l2.575-.449c-8.992-20.04-18.922-47.888-23.306-81.245-4.424-33.633-3.381-75.603-22.026-92.288C85.765-5.351 31.52 1.716 13.759 4.477c-2.218.344-3.037 3.118-1.36 4.61 8.293 7.346 25.974 24.625 30.252 41.68C48.29 73.25 69.114 87.994 87.998 92.34c18.883 4.346 29.354 8.349 37.792 38.958z" fill="#BDD0FB"/><path d="M38.374 14.65c11.37.845 22.54 4.002 32.748 9.22a66.878 66.878 0 0114.209 9.683c4.278 3.858 8.08 8.297 11.039 13.25l1.109 1.863c.37.621.674 1.282 1.004 1.916.316.647.673 1.294.963 1.929l.898 1.928a508.512 508.512 0 013.539 7.728 525.995 525.995 0 016.722 15.615c4.331 10.476 8.332 21.097 11.673 31.943a.496.496 0 01-.938.317v-.013a458.87 458.87 0 00-6.166-15.773 741.09 741.09 0 00-6.59-15.615l-3.407-7.755-3.486-7.715a508.944 508.944 0 00-3.552-7.688l-.898-1.916c-.303-.634-.62-1.241-.937-1.862-.317-.608-.608-1.242-.951-1.85L94.31 48.06c-2.813-4.783-6.457-9.023-10.511-12.815-2.073-1.849-4.2-3.633-6.51-5.204l-.845-.608-.872-.568c-.58-.383-1.162-.78-1.756-1.136-1.202-.714-2.377-1.454-3.618-2.1-4.886-2.709-10.102-4.81-15.45-6.527-5.335-1.704-10.867-2.972-16.427-3.646h-.026a.397.397 0 01-.343-.436.396.396 0 01.422-.37z" fill="url(#paint1_linear)"/><path d="M95.51 139.753c2.893 18.111-1.914 25.232-4.674 31.864-.488 1.175-1.188 2.84-1.967 4.835l2.548 1.202c.727-2.893 1.611-5.734 2.707-8.415 7.527-18.389 17.88-50.94 11.013-76.555-6.866-25.615-23.03-35.259-52.225-28.64-24.323 5.521-38.73 7.305-45.847 5.548-1.77-.436-3.447 1.004-3.341 2.814.554 9.656 4.067 32.881 24.482 40.965 26.04 10.305 64.413 8.27 67.305 26.382z" fill="#91B3FA"/><path opacity=".5" d="M49.769 89.526c2.02-.673 4.067-1.175 6.14-1.611a66.738 66.738 0 016.273-1.03c4.212-.49 8.517-.569 12.795 0 2.14.29 4.265.74 6.338 1.4 2.074.687 4.08 1.585 5.956 2.774.462.317.937.594 1.373.938.436.343.885.674 1.294 1.03l2.377 2.18 2.232 2.338 2.047 2.51a36.937 36.937 0 015.823 11.533c1.267 4.135 1.756 8.442 1.822 12.709l.026 1.598c.014.528-.039 1.07-.052 1.599-.066 1.056-.093 2.126-.172 3.183l-.343 3.158c-.093 1.056-.317 2.087-.489 3.144-.673 4.174-1.703 8.269-2.839 12.325a.428.428 0 01-.528.291.436.436 0 01-.304-.489v-.013c.845-4.096 1.717-8.191 2.166-12.326.29-2.061.409-4.135.581-6.209.053-1.03.053-2.074.079-3.104 0-.515.04-1.031.013-1.546l-.066-1.545c-.171-4.122-.805-8.204-2.033-12.088-1.229-3.884-3.143-7.517-5.6-10.767l-1.94-2.351-2.113-2.206-2.271-2.061c-.383-.33-.78-.62-1.162-.925-.383-.304-.82-.555-1.228-.845-1.677-1.07-3.5-1.916-5.401-2.563-1.902-.66-3.883-1.123-5.903-1.44-4.04-.634-8.187-.7-12.307-.45-2.06.146-4.133.331-6.193.622-2.06.29-4.12.66-6.14 1.11h-.013a.44.44 0 01-.529-.33c-.04-.252.08-.476.291-.543z" fill="#fff"/><path d="M354.418 66.078c0-12.722-10.313-23.04-23.029-23.04H135.508c-10.801 0-19.714 8.469-20.269 19.275L100.78 346.43c-.436 8.455 6.219 15.575 14.67 15.734l224.509 4.082c7.949.145 14.459-6.262 14.459-14.215V66.078z" fill="url(#paint2_linear)"/><path d="M338.361 47.398c.026-4.069-3.552-7.226-7.593-6.671-26.753 3.633-118.738 14.848-194.785 9.01-3.473-.265-6.484 2.364-6.668 5.838l-15.146 285.387a7.112 7.112 0 006.695 7.49c31.982 1.889 163.713 9.221 210.709 4.294a5.637 5.637 0 005.045-5.588l1.743-299.76z" fill="#91B3FA"/><path d="M335.217 54.558a6.43 6.43 0 00-7.302-6.42c-25.75 3.488-114.262 14.294-187.456 8.68-3.341-.252-6.233 2.272-6.418 5.614L119.45 337.078c-.198 3.765 2.68 6.988 6.431 7.213 30.78 1.823 157.547 8.864 202.773 4.135a5.434 5.434 0 004.86-5.377l1.703-288.49z" fill="#BDD0FB"/><path opacity=".78" d="M311.382 75.734l-2.733 58.88a3.744 3.744 0 01-3.631 3.567c-10.894.303-44.87 1.136-64.044.132a4.191 4.191 0 01-3.961-4.043c-.37-11.044-1.162-43.185 1.347-56.62a4.705 4.705 0 014.476-3.831l64.427-2.259a3.987 3.987 0 014.119 4.174z" fill="#fff"/><path d="M274.318 109.435c-6.987 0-12.651-5.667-12.651-12.656 0-6.99 5.664-12.656 12.651-12.656 6.986 0 12.65 5.666 12.65 12.656 0 6.989-5.664 12.656-12.65 12.656z" fill="url(#paint3_linear)"/><path d="M293.53 133.94h-40.301c-2.47 0-3.948-2.735-2.615-4.809 3.42-5.363 10.59-13.236 22.99-12.88 11.95.344 19.041 7.451 22.607 12.55 1.505 2.167-.04 5.139-2.681 5.139z" fill="url(#paint4_linear)"/><path opacity=".6" d="M148.488 80.86a.567.567 0 01-.568-.581l.08-2.774a.62.62 0 01.607-.595l74.066-1.32c.317 0 .502.237.396.54l-1.479 4.189c-.105.303-.462.554-.779.554h-72.323v-.013zm74.185 5.694c.317 0 .502.238.396.542l-1.479 4.187c-.105.304-.462.555-.779.555h-72.323a.567.567 0 01-.568-.581l.08-2.774a.62.62 0 01.607-.595l74.066-1.334zm0 11.136c.317 0 .502.238.396.542l-1.479 4.188c-.105.304-.462.555-.779.555h-72.323a.568.568 0 01-.568-.582l.08-2.774a.62.62 0 01.607-.594l74.066-1.335zm-81.052 58.985a.537.537 0 01-.541-.581l.184-2.774a.666.666 0 01.621-.595l168.93-1.334c.317 0 .422.198.224.449l-3.486 4.373c-.198.251-.634.462-.951.462H141.621zm169.194 5.681c.317 0 .422.198.224.449l-3.486 4.373c-.198.251-.634.462-.951.462H141.621a.537.537 0 01-.541-.581l.184-2.774a.666.666 0 01.621-.595l168.93-1.334z" fill="#fff"/><path d="M288.498 237.233h.04l13.971-.132c1.994-.013 3.644-1.387 3.829-3.197l1.228-11.731a2.563 2.563 0 00-.607-1.916c-.515-.607-1.294-.99-2.139-1.056-1.176-.08-2.839-.225-4.596-.37-3.697-.317-8.292-.7-10.88-.74-1.875-.013-3.473 1.096-3.909 2.735-.726 2.694-.66 7.781-.528 13.21.053 1.77 1.664 3.197 3.591 3.197zm16.256-16.962c.554.039 1.056.277 1.386.673.277.317.396.714.357 1.11l-1.228 11.731c-.132 1.255-1.321 2.219-2.773 2.233l-13.971.132h-.027c-1.36 0-2.469-.951-2.508-2.14-.132-5.351-.199-10.357.488-12.907.304-1.149 1.505-1.942 2.866-1.942 2.548.026 7.13.423 10.801.74 1.756.145 3.42.29 4.609.37z" fill="#fff"/><path opacity=".6" d="M303.249 221.486c-2.932-.198-9.31-.845-12.334-.885-1.281-.013-2.403.753-2.707 1.876-.581 2.153-.502 6.46-.409 10.436.026 1.189 1.122 2.14 2.456 2.127l11.158-.106c1.373-.013 2.509-.951 2.641-2.166l.977-9.366c.106-.991-.7-1.85-1.782-1.916zm-27.018 7.953a3.477 3.477 0 01-3.38 2.589l-129.249-1.096A2.626 2.626 0 01141 228.25a2.611 2.611 0 012.615-2.563l129.249-.594c2.271-.014 3.948 2.14 3.367 4.346z" fill="#fff"/><path d="M302.655 223.322a2.138 2.138 0 00-2.958.806l-2.76 4.941c-.277.489-1.003.462-1.228-.053l-6.84-15.218c-.343-.753-1.466-.502-1.453.33.066 4.65 1.308 13.501 8.742 20.912 0 0 4.094-1.598 7.395-8.838.475-1.057.092-2.298-.898-2.88z" fill="url(#paint5_linear)"/><path d="M288.498 267.181h.04l13.971-.132c1.994-.013 3.644-1.387 3.829-3.197l1.228-11.731a2.56 2.56 0 00-.607-1.915c-.515-.608-1.294-.991-2.139-1.057-1.176-.079-2.839-.225-4.596-.37-3.697-.317-8.292-.7-10.88-.74h-.053c-1.836 0-3.42 1.123-3.856 2.735-.726 2.695-.66 7.781-.528 13.21.053 1.771 1.664 3.197 3.591 3.197zm16.256-16.949c.554.04 1.056.291 1.386.674.277.317.396.713.357 1.11l-1.228 11.731c-.132 1.255-1.321 2.219-2.773 2.232l-13.971.132h-.027c-1.36 0-2.469-.951-2.508-2.14-.132-5.35-.199-10.357.488-12.906.304-1.15 1.519-1.969 2.866-1.942 2.548.026 7.13.422 10.801.739 1.756.146 3.42.278 4.609.37z" fill="#fff"/><path opacity=".6" d="M303.249 251.434c-2.932-.198-9.31-.845-12.334-.885-1.281-.013-2.403.753-2.707 1.876-.581 2.153-.502 6.46-.409 10.436.026 1.189 1.122 2.141 2.456 2.127l11.158-.105c1.373-.014 2.509-.952 2.641-2.167l.977-9.366c.106-.978-.7-1.836-1.782-1.916zm-27.018 7.966a3.475 3.475 0 01-3.38 2.589l-129.249-1.096a2.625 2.625 0 01-2.602-2.682 2.612 2.612 0 012.615-2.563l129.249-.594c2.271-.026 3.948 2.14 3.367 4.346z" fill="#fff"/><path d="M302.655 253.271a2.137 2.137 0 00-2.958.806l-2.76 4.94c-.277.489-1.003.463-1.228-.053l-6.84-15.218c-.343-.753-1.466-.502-1.453.33.066 4.65 1.308 13.501 8.742 20.912 0 0 4.094-1.598 7.395-8.837.475-1.057.092-2.299-.898-2.88z" fill="url(#paint6_linear)"/><path d="M288.498 297.13h.04l13.971-.133c1.994-.013 3.644-1.387 3.829-3.197l1.228-11.73a2.563 2.563 0 00-.607-1.916c-.515-.608-1.294-.991-2.139-1.057-1.176-.079-2.839-.224-4.596-.37-3.697-.317-8.292-.7-10.88-.739h-.053c-1.836 0-3.42 1.122-3.856 2.734-.726 2.695-.66 7.781-.528 13.211.053 1.783 1.664 3.197 3.591 3.197zm16.256-16.95c.554.04 1.056.278 1.386.674.277.317.396.714.357 1.11l-1.228 11.731c-.132 1.255-1.321 2.219-2.773 2.232l-13.971.132h-.027c-1.36 0-2.469-.951-2.508-2.14-.132-5.35-.199-10.357.488-12.906.304-1.15 1.519-1.969 2.866-1.942 2.548.026 7.13.423 10.801.74 1.756.145 3.42.29 4.609.369z" fill="#fff"/><path opacity=".6" d="M303.249 281.383c-2.932-.199-9.31-.846-12.334-.886-1.281-.013-2.403.753-2.707 1.876-.581 2.154-.502 6.46-.409 10.437.026 1.189 1.122 2.14 2.456 2.127l11.158-.106c1.373-.013 2.509-.951 2.641-2.167l.977-9.366c.106-.977-.7-1.836-1.782-1.915zm-27.018 7.965a3.477 3.477 0 01-3.38 2.59l-129.249-1.097A2.625 2.625 0 01141 288.16a2.611 2.611 0 012.615-2.563l129.249-.595c2.271-.026 3.948 2.14 3.367 4.346z" fill="#fff"/><path d="M302.655 283.232a2.137 2.137 0 00-2.958.806l-2.76 4.941c-.277.488-1.003.462-1.228-.053l-6.84-15.219c-.343-.753-1.466-.502-1.453.331.066 4.65 1.308 13.501 8.742 20.912 0 0 4.094-1.599 7.395-8.838.475-1.057.092-2.299-.898-2.88z" fill="url(#paint7_linear)"/><path d="M288.498 327.091h.04l13.971-.132c1.994-.013 3.644-1.387 3.829-3.197l1.228-11.731a2.563 2.563 0 00-.607-1.916c-.515-.607-1.294-.99-2.139-1.056-1.176-.08-2.839-.225-4.596-.37-3.697-.317-8.292-.7-10.88-.74h-.053c-1.836 0-3.42 1.123-3.856 2.735-.726 2.694-.66 7.781-.528 13.21.053 1.77 1.664 3.197 3.591 3.197zm16.256-16.962c.554.039 1.056.277 1.386.673.277.317.396.714.357 1.11l-1.228 11.731c-.132 1.255-1.321 2.219-2.773 2.233l-13.971.132h-.027c-1.36 0-2.469-.951-2.508-2.14-.132-5.351-.199-10.357.488-12.907.304-1.149 1.519-1.968 2.866-1.942 2.548.026 7.13.423 10.801.74 1.756.145 3.42.29 4.609.37z" fill="#fff"/><path opacity=".6" d="M303.249 311.344c-2.932-.198-9.31-.845-12.334-.885-1.281-.013-2.403.753-2.707 1.876-.581 2.153-.502 6.46-.409 10.436.026 1.189 1.122 2.14 2.456 2.127l11.158-.106c1.373-.013 2.509-.951 2.641-2.166l.977-9.366c.106-.991-.7-1.85-1.782-1.916zm-27.018 7.953a3.477 3.477 0 01-3.38 2.589l-129.249-1.096a2.626 2.626 0 01-2.602-2.682 2.611 2.611 0 012.615-2.563l129.249-.595c2.271-.013 3.948 2.141 3.367 4.347z" fill="#fff"/><path d="M290.427 207.919h.039l13.971-.132c1.994-.013 3.645-1.387 3.829-3.197l1.229-11.731a2.564 2.564 0 00-.608-1.916c-.515-.607-1.294-.99-2.139-1.056-1.175-.08-2.839-.225-4.595-.37-3.698-.317-8.293-.701-10.881-.74h-.053c-1.835 0-3.42 1.123-3.856 2.734-.726 2.695-.66 7.781-.528 13.211.066 1.77 1.664 3.197 3.592 3.197zm16.255-16.949c.554.039 1.056.277 1.386.674.278.317.397.713.357 1.109l-1.228 11.731c-.132 1.255-1.321 2.22-2.773 2.233l-13.971.132h-.026c-1.36 0-2.47-.951-2.509-2.14-.132-5.351-.198-10.357.488-12.907.304-1.149 1.519-1.968 2.866-1.942 2.548.027 7.13.423 10.801.74 1.77.145 3.434.277 4.609.37z" fill="#fff"/><path opacity=".6" d="M305.189 192.172c-2.931-.198-9.309-.846-12.333-.885-1.281-.013-2.403.753-2.707 1.876-.581 2.153-.502 6.46-.409 10.436.026 1.189 1.122 2.14 2.456 2.127l11.158-.106c1.373-.013 2.509-.951 2.641-2.166l.977-9.367c.106-.977-.7-1.836-1.783-1.915zm-27.029 7.966a3.478 3.478 0 01-3.381 2.589l-129.249-1.096a2.625 2.625 0 01-2.601-2.682 2.61 2.61 0 012.614-2.563l129.25-.595c2.284-.026 3.948 2.141 3.367 4.347z" fill="#fff"/><path d="M304.596 194.008a2.138 2.138 0 00-2.958.806l-2.76 4.941c-.277.489-1.004.462-1.228-.053l-6.84-15.219c-.343-.753-1.466-.502-1.453.331.066 4.65 1.308 13.501 8.742 20.912 0 0 4.093-1.599 7.395-8.838.475-1.044.092-2.299-.898-2.88z" fill="url(#paint8_linear)"/><path d="M221.287 4.292C228.365-.635 234.519-.53 238.85.74c3.948 1.162 6.51 4.98 6.14 9.088l-1.862 20.397-22.224 1.969c-.013 0-13.495-18.244.383-27.9zm9.772 16.447a5.547 5.547 0 005.546-5.548 5.547 5.547 0 10-11.092 0 5.546 5.546 0 005.546 5.548z" fill="url(#paint9_linear)"/><path d="M240.896 21.65a.531.531 0 00.528-.488l.304-3.25a.534.534 0 00-.488-.581.528.528 0 00-.582.489l-.303 3.25a.534.534 0 00.488.58h.053zm.581-6.367a.531.531 0 00.528-.489l.225-2.47c.356-3.91-2.1-7.543-5.85-8.653a16.569 16.569 0 00-8.121-.33.542.542 0 00-.422.634c.066.29.343.476.633.423a15.443 15.443 0 017.606.317c3.262.964 5.388 4.122 5.084 7.53l-.224 2.47a.533.533 0 00.488.582c.027-.014.04-.014.053-.014z" fill="#91B3FA"/><path d="M273.446 43.408V33.157c0-3.54-2.932-6.38-6.471-6.248l-70.672 2.417a6.08 6.08 0 00-5.863 5.72l-.594 9.855 83.6-1.493z" fill="url(#paint10_linear)"/><path d="M247.103 30.766h3.037c.29 0 .541-.238.541-.541a.544.544 0 00-.541-.542h-3.037a.544.544 0 00-.542.541c0 .291.238.542.542.542zm22.527 9.419c.29 0 .541-.238.541-.541v-4.148a5.811 5.811 0 00-5.81-5.813H253.19a.543.543 0 00-.541.541c0 .291.237.542.541.542h11.171a4.746 4.746 0 014.741 4.743v4.148a.513.513 0 00.528.528z" fill="#91B3FA"/><path d="M302.246 45.998a6.663 6.663 0 00-6.655-6.341H172.02a9.14 9.14 0 00-9.006 7.583l-.105.607c-.832 4.796 2.865 9.182 7.724 9.182h126.793a5.102 5.102 0 005.097-5.35l-.277-5.681z" fill="#7D97F4"/><path d="M231.033 133.742a8.018 8.018 0 00-6.233-2.14c-24.455 2.206-70.091-9.591-99.921-40.12-2.073-2.114-5.85-.925-8.227.858-33.17 24.796-88.155 29.935-107.236 30.992a8.028 8.028 0 00-7.554 7.213c-17.364 167.72 91.8 228.502 114.434 239.229a8.047 8.047 0 007.711-.449c112.836-70.307 108.003-161.75 109.561-229.506a8.007 8.007 0 00-2.535-6.077z" fill="url(#paint11_linear)"/><path d="M119.358 357.7a2.78 2.78 0 001.506-.436c43.272-27.676 71.491-60.769 86.241-101.166 13.165-36.078 13.812-72.803 14.38-105.196l.079-4.319a2.752 2.752 0 00-.792-1.995 2.763 2.763 0 00-1.994-.832c-26.766 0-66.949-11.824-96.409-38.245a2.782 2.782 0 00-3.394-.251c-32.378 21.494-78.582 27.755-103.235 29.578a2.775 2.775 0 00-2.562 2.537c-5.73 65.471 7.883 120.836 40.46 164.55 24.336 32.656 53.202 49.671 64.479 55.471.37.198.806.304 1.241.304zm99.393-212.637c.423 0 .806.159 1.083.436.277.278.423.648.41 1.044l-.08 4.32c-.568 32.299-1.215 68.906-14.301 104.772-14.644 40.107-42.678 72.988-85.712 100.506a1.489 1.489 0 01-1.466.066c-11.198-5.76-39.852-22.656-64.017-55.088-32.392-43.449-45.913-98.511-40.209-163.652a1.458 1.458 0 011.347-1.334c24.785-1.823 71.24-8.124 103.869-29.79a1.451 1.451 0 011.783.133c29.737 26.658 70.289 38.587 97.293 38.587z" fill="#91B3FA"/><path d="M372.456 332.956l-.924 28.839c-.159 5.033-4.292 9.022-9.336 9.062l-69.022.409c-3.38.027-6.259-2.43-6.748-5.759-1.082-7.279-2.456-20.305-.911-32.538h86.941v-.013z" fill="url(#paint12_linear)"/><path d="M295.617 369.483h.502c.053 0 .079-.039.079-.079a.084.084 0 00-.079-.079h-.502c-.052 0-.079.039-.079.079s.04.079.079.079zm-1.175-.013c.04 0 .079-.04.079-.079 0-.04-.026-.093-.079-.093-.158-.013-.33-.026-.488-.052-.04-.014-.093.026-.093.066 0 .039.027.092.066.092.172.04.343.066.515.066zm2.852 0h.502c.053 0 .079-.04.079-.079a.084.084 0 00-.079-.079h-.502c-.052 0-.079.039-.079.079 0 .039.04.079.079.079zm1.677 0h.502c.053 0 .079-.04.079-.079a.084.084 0 00-.079-.079h-.502c-.052 0-.079.039-.079.079 0 .039.04.079.079.079zm1.677-.013h.502c.053 0 .079-.04.079-.079a.076.076 0 00-.079-.08h-.502c-.052 0-.079.04-.079.08 0 .039.027.079.079.079zm1.677-.013h.502c.053 0 .079-.04.079-.08 0-.039-.039-.079-.079-.079h-.502a.077.077 0 00-.079.079c0 .04.027.08.079.08zm1.677-.014h.502c.053 0 .079-.039.079-.079 0-.053-.039-.079-.079-.079h-.502a.077.077 0 00-.079.079c-.013.04.027.079.079.079zm1.677 0h.502c.053 0 .079-.039.079-.079 0-.039-.039-.079-.079-.079h-.502a.077.077 0 00-.079.079c-.013.04.027.079.079.079zm1.677-.013h.502c.053 0 .079-.039.079-.079a.084.084 0 00-.079-.079h-.502c-.052 0-.079.039-.079.079-.013.04.027.079.079.079zm1.677-.013h.502c.053 0 .08-.04.08-.079 0-.04-.04-.079-.08-.079h-.502c-.052 0-.079.039-.079.079-.013.039.027.079.079.079zm1.664-.013h.502c.053 0 .079-.04.079-.079 0-.04-.039-.08-.079-.08h-.502c-.053 0-.079.04-.079.08 0 .039.04.079.079.079zm1.677 0h.502c.053 0 .079-.04.079-.079 0-.04-.039-.08-.079-.08h-.502c-.053 0-.079.04-.079.08 0 .039.04.079.079.079zm1.677-.013h.502c.053 0 .079-.04.079-.08 0-.039-.039-.079-.079-.079h-.502a.077.077 0 00-.079.079c0 .04.04.08.079.08zm1.677-.014h.502c.053 0 .079-.039.079-.079 0-.039-.039-.079-.079-.079h-.502a.077.077 0 00-.079.079c0 .04.04.079.079.079zm1.677-.013h.502c.053 0 .079-.039.079-.079a.084.084 0 00-.079-.079h-.502c-.052 0-.079.039-.079.079s.04.079.079.079zm1.677 0h.502c.053 0 .079-.039.079-.079a.084.084 0 00-.079-.079h-.502c-.052 0-.079.039-.079.079s.04.079.079.079zm1.677-.013h.502c.053 0 .079-.04.079-.079a.084.084 0 00-.079-.079h-.502c-.052 0-.079.039-.079.079 0 .039.027.079.079.079zm1.677-.013h.502c.053 0 .079-.04.079-.079 0-.04-.039-.08-.079-.08h-.502c-.052 0-.079.04-.079.08 0 .039.027.079.079.079zm1.677-.013h.502c.053 0 .079-.04.079-.08 0-.053-.039-.079-.079-.079h-.502a.077.077 0 00-.079.079c-.013.04.027.08.079.08zm1.677 0h.502c.053 0 .079-.04.079-.08 0-.039-.039-.079-.079-.079h-.502a.077.077 0 00-.079.079c-.013.04.027.08.079.08zm1.677-.014h.502c.053 0 .079-.039.079-.079 0-.053-.039-.079-.079-.079h-.502c-.052 0-.079.039-.079.079-.013.04.027.079.079.079zm1.664-.013h.502c.053 0 .079-.039.079-.079a.084.084 0 00-.079-.079h-.502c-.053 0-.079.039-.079.079s.04.079.079.079zm1.677-.013h.502c.053 0 .079-.04.079-.079 0-.04-.039-.08-.079-.08h-.502c-.053 0-.079.04-.079.08 0 .039.04.079.079.079zm1.677 0h.502c.053 0 .079-.04.079-.079 0-.04-.039-.08-.079-.08h-.502c-.053 0-.079.04-.079.08 0 .039.04.079.079.079zm1.677-.013h.502c.053 0 .079-.04.079-.079 0-.04-.039-.08-.079-.08h-.502c-.052 0-.079.04-.079.08 0 .039.04.079.079.079zm1.677-.013h.502c.053 0 .079-.04.079-.08 0-.039-.039-.079-.079-.079h-.502a.077.077 0 00-.079.079c0 .04.04.08.079.08zm1.677-.014h.502c.053 0 .079-.039.079-.079a.084.084 0 00-.079-.079h-.502c-.052 0-.079.039-.079.079s.04.079.079.079zm1.677 0h.502c.053 0 .079-.039.079-.079a.084.084 0 00-.079-.079h-.502c-.052 0-.079.039-.079.079s.027.079.079.079zm1.677-.013h.502c.053 0 .079-.04.079-.079a.084.084 0 00-.079-.079h-.502c-.052 0-.079.039-.079.079 0 .039.027.079.079.079zm1.677-.013h.502c.053 0 .079-.04.079-.079 0-.04-.039-.08-.079-.08h-.502c-.052 0-.079.04-.079.08-.013.039.027.079.079.079zm1.677-.013h.502c.053 0 .079-.04.079-.08 0-.039-.039-.079-.079-.079h-.502a.077.077 0 00-.079.079c-.013.053.027.08.079.08zm1.677 0h.502c.053 0 .079-.04.079-.08 0-.039-.039-.079-.079-.079h-.502c-.039 0-.079.04-.079.079-.013.04.027.08.079.08zm1.664-.013h.502c.053 0 .079-.04.079-.08 0-.053-.039-.079-.079-.079h-.502c-.053 0-.079.04-.079.079 0 .04.04.08.079.08zm1.677-.014h.502c.053 0 .079-.039.079-.079a.084.084 0 00-.079-.079h-.502c-.053 0-.079.039-.079.079s.04.079.079.079zm-56.437-.013a.088.088 0 00.079-.053c.013-.039-.013-.092-.053-.105-.158-.053-.317-.106-.462-.172-.04-.013-.092 0-.106.039-.013.04 0 .093.04.106.158.066.317.132.475.185h.027zm58.114 0h.502c.053 0 .079-.04.079-.079 0-.053-.039-.079-.079-.079h-.502c-.053 0-.079.039-.079.079 0 .053.04.079.079.079zm1.677 0h.502c.053 0 .079-.04.079-.079a.084.084 0 00-.079-.079h-.502c-.053 0-.079.039-.079.079 0 .039.04.079.079.079zm1.677-.013h.502c.053 0 .079-.04.079-.079 0-.04-.039-.08-.079-.08h-.502c-.053 0-.079.04-.079.08 0 .039.04.079.079.079zm1.677-.013h.502c.053 0 .079-.04.079-.08 0-.039-.039-.079-.079-.079h-.502a.077.077 0 00-.079.079c0 .04.04.08.079.08zm1.677-.014h.502c.053 0 .079-.039.079-.079 0-.039-.039-.079-.079-.079h-.502a.077.077 0 00-.079.079c0 .053.027.079.079.079zm1.677 0h.502c.053 0 .079-.039.079-.079 0-.039-.039-.079-.079-.079h-.502a.077.077 0 00-.079.079c0 .04.027.079.079.079zm1.677-.026l.515-.04c.04 0 .08-.039.08-.092 0-.04-.04-.079-.093-.079l-.502.039c-.052 0-.079.04-.079.093s.027.079.079.079zm1.651-.238h.013c.159-.039.33-.079.489-.132.039-.013.066-.066.053-.106-.014-.039-.066-.066-.106-.052a7.175 7.175 0 01-.475.132c-.04.013-.08.053-.066.105.026.027.052.053.092.053zm-71.333-.423a.072.072 0 00.066-.039.085.085 0 00-.026-.119c-.132-.093-.277-.185-.409-.291-.04-.026-.093-.026-.119.014-.027.039-.027.092.013.118.132.106.277.199.409.291.04.026.053.026.066.026zm72.918-.118c.013 0 .026 0 .039-.014.159-.066.304-.145.462-.224.04-.027.053-.066.04-.119-.026-.04-.066-.053-.119-.04-.145.08-.304.146-.449.212-.039.013-.066.066-.039.105 0 .066.039.08.066.08zm1.452-.833c.013 0 .04 0 .053-.013.132-.092.277-.198.409-.304.04-.026.04-.079.013-.119-.026-.039-.079-.039-.118-.013-.132.106-.264.198-.397.291a.087.087 0 00-.026.119c.013.026.04.039.066.039zm-75.637-.132c.026 0 .039-.013.053-.026.039-.027.039-.079 0-.119a9.095 9.095 0 01-.317-.383c-.027-.04-.08-.04-.119-.013-.04.026-.04.079-.013.118.105.133.211.265.33.397a.223.223 0 00.066.026zm76.905-.951c.026 0 .039-.013.066-.026a8.9 8.9 0 00.343-.37c.027-.04.027-.093-.013-.119-.04-.027-.093-.027-.119.013a8.9 8.9 0 01-.343.37c-.027.04-.027.092 0 .119a.145.145 0 00.066.013zm-77.843-.436c.013 0 .027 0 .04-.013.039-.026.053-.066.039-.119-.079-.145-.145-.304-.211-.449-.013-.04-.066-.066-.106-.04-.039.013-.066.066-.039.106.066.158.132.317.211.462 0 .04.04.053.066.053zm78.899-.859a.072.072 0 00.066-.039c.093-.146.185-.291.264-.436a.086.086 0 10-.145-.093 4.497 4.497 0 01-.264.423.087.087 0 00.026.119c.027.013.04.026.053.026zm-79.453-.713h.013c.039-.013.079-.053.066-.106a3.419 3.419 0 01-.066-.37l-.013-.118c-.014-.04-.053-.08-.093-.066-.039.013-.079.052-.066.092l.013.119c.014.132.04.264.066.383 0 .04.04.066.08.066zm80.245-.766c.027 0 .066-.013.08-.053.066-.158.132-.317.185-.476.013-.039-.014-.092-.053-.105-.04-.013-.093.013-.106.053a4.887 4.887 0 01-.185.462c-.013.04 0 .092.04.106.013.013.026.013.039.013zm-80.496-.885c.052-.013.092-.053.079-.093-.027-.158-.04-.33-.066-.502 0-.039-.053-.079-.093-.066-.039 0-.079.053-.066.093.027.171.04.33.066.502 0 .026.04.066.08.066zm80.985-.714c.04 0 .079-.026.079-.066.04-.171.066-.33.093-.502.013-.039-.027-.092-.066-.092-.053 0-.093.026-.093.066-.026.158-.053.33-.092.489-.013.039.013.092.066.105h.013zm-81.21-.951s.013 0 0 0c.053 0 .093-.053.079-.092l-.066-.502c0-.04-.052-.079-.092-.079s-.079.052-.079.092l.066.502c.013.04.053.079.092.079zm81.408-.713c.04 0 .079-.04.079-.079l.014-.502c0-.053-.04-.08-.08-.093-.053 0-.079.04-.092.079l-.013.502a.09.09 0 00.092.093zm-81.606-.951c.053 0 .093-.053.079-.093-.013-.158-.039-.33-.052-.502 0-.039-.053-.079-.093-.079s-.079.053-.079.092c.013.172.039.331.053.502.013.04.052.08.092.08zm81.659-.727c.04 0 .079-.04.079-.079l.013-.502c0-.053-.039-.079-.079-.093-.039 0-.079.04-.092.08l-.014.502c0 .052.04.092.093.092zm-81.844-.938c.053 0 .093-.053.079-.092-.013-.172-.039-.331-.052-.502 0-.04-.04-.08-.093-.08-.039 0-.079.04-.079.093.013.172.04.33.053.502.013.04.053.079.092.079zm81.897-.74c.039 0 .079-.039.079-.079l.013-.502c0-.053-.039-.079-.079-.092-.04 0-.079.039-.092.079l-.014.502c0 .053.04.092.093.092zm-82.068-.938c.013 0 .013 0 0 0 .052 0 .092-.039.079-.092l-.04-.502c0-.04-.039-.079-.092-.079-.04 0-.079.039-.079.092l.039.502c.013.053.053.079.093.079zm82.121-.739c.039 0 .079-.04.079-.08l.013-.502c0-.052-.04-.079-.079-.092-.04 0-.079.04-.093.079l-.013.502c0 .053.04.093.093.093zm-82.267-.925c.014 0 .014 0 0 0 .053 0 .093-.04.08-.093l-.04-.502c0-.039-.04-.079-.092-.079-.04 0-.08.04-.08.093l.04.502c.013.039.053.079.092.079zm82.319-.753c.04 0 .08-.04.08-.079l.013-.502c0-.053-.04-.08-.079-.093-.04 0-.08.04-.093.079l-.013.502c0 .053.04.093.092.093zm-82.438-.925c.053 0 .093-.039.08-.092l-.04-.502c0-.04-.04-.08-.092-.08-.04 0-.08.04-.08.093l.04.502c.013.053.053.079.092.079zm82.491-.74c.04 0 .079-.039.079-.079l.014-.502c0-.053-.04-.079-.08-.092-.039 0-.079.039-.092.079l-.013.502c0 .04.039.079.092.092zm-82.596-.924c.053 0 .092-.04.079-.093-.013-.172-.013-.33-.026-.502 0-.053-.04-.079-.093-.079s-.079.04-.079.092c.013.172.013.331.026.502.014.04.053.08.093.08zm82.649-.753c.04 0 .079-.04.079-.08l.013-.502c0-.052-.039-.079-.079-.092-.039 0-.079.04-.092.079l-.013.502c.013.053.039.093.092.093zm-82.728-.925c.052 0 .079-.04.079-.093-.013-.171-.013-.33-.027-.502 0-.052-.039-.079-.092-.079s-.079.04-.079.093c0 .171.013.33.026.502.013.039.04.079.093.079zm82.781-.753c.039 0 .079-.04.079-.079l.013-.502c0-.053-.039-.08-.079-.093-.04 0-.079.04-.092.079l-.014.502c.014.053.04.093.093.093zm-82.847-.925c.052 0 .079-.039.079-.092 0-.172-.013-.331-.013-.502 0-.053-.04-.08-.093-.08s-.079.04-.079.093c0 .172.013.33.013.502.013.04.053.079.093.079zm82.9-.753c.039 0 .079-.039.079-.079l.013-.502c0-.053-.04-.079-.079-.093-.04 0-.079.04-.093.08l-.013.502c.013.053.04.092.093.092zm-82.94-.925c.053 0 .079-.039.079-.079v-.502c0-.053-.039-.079-.079-.079-.053 0-.079.04-.079.079v.502c0 .04.039.079.079.079zm82.992-.753c.04 0 .08-.039.08-.079l.013-.502c0-.039-.04-.079-.079-.092-.04 0-.08.039-.093.079l-.013.502c.013.053.053.092.092.092zm-83.005-.924c.053 0 .079-.04.079-.08v-.502c0-.039-.04-.079-.079-.079-.053 0-.079.04-.079.079v.502c0 .04.039.08.079.08zm83.058-.753c.04 0 .08-.04.08-.08l.013-.502c0-.052-.04-.079-.079-.092-.053 0-.08.04-.093.079l-.013.502c.013.053.053.093.092.093zm-83.045-.925c.04 0 .079-.04.079-.079 0-.172 0-.331.013-.502a.076.076 0 00-.079-.08c-.039 0-.079.04-.079.08 0 .171 0 .33-.013.502 0 .039.039.079.079.079zm83.098-.753c.04 0 .079-.04.079-.079l.014-.502c0-.053-.04-.08-.08-.093-.039 0-.079.04-.092.08l-.013.502c.013.052.053.092.092.092zm-83.058-.925c.039 0 .079-.039.079-.079 0-.172.013-.33.013-.502 0-.053-.04-.079-.079-.092-.053 0-.079.039-.093.079 0 .172-.013.33-.013.502.013.053.053.092.093.092zm83.111-.74c.04 0 .079-.039.079-.079l.013-.502c0-.053-.039-.079-.079-.092-.039 0-.079.039-.092.079l-.013.502c.013.053.052.079.092.092zm-83.045-.924c.039 0 .079-.04.079-.08.013-.171.013-.33.026-.502 0-.052-.026-.079-.079-.092-.04 0-.079.026-.092.079-.014.172-.014.33-.027.502.013.04.053.08.093.093zm83.111-.753c.04 0 .079-.04.079-.08l.013-.502c0-.052-.039-.079-.079-.092-.053 0-.079.04-.092.079l-.013.502a.09.09 0 00.092.093c-.013 0 0 0 0 0zm-83.006-.925c.04 0 .079-.04.079-.079l.04-.502c0-.04-.026-.093-.079-.093-.053 0-.093.027-.093.079l-.039.503a.09.09 0 00.092.092zm83.059-.753c.039 0 .079-.04.079-.079l.013-.502c0-.053-.039-.08-.079-.093-.04-.013-.079.04-.092.08l-.014.502c0 .052.04.092.093.092-.013 0 0 0 0 0zm-82.927-.925c.04 0 .08-.026.08-.079l.039-.502c0-.04-.026-.092-.079-.092-.053 0-.093.026-.093.079l-.039.502a.09.09 0 00.092.092c-.013 0 0 0 0 0zm82.98-.753c.039 0 .079-.039.079-.079l.013-.502c0-.053-.04-.079-.079-.093-.04 0-.079.04-.093.08l-.013.502c0 .053.04.092.093.092zm-82.821-.911a.077.077 0 00.079-.08c.013-.171.04-.33.053-.502 0-.039-.027-.092-.079-.092-.053 0-.093.026-.093.079-.013.172-.039.33-.053.502 0 .053.04.093.093.093zm82.873-.766c.04 0 .08-.04.08-.08l.013-.594h-.304c-.053 0-.079.039-.079.079s.04.079.079.079h.132l-.013.423c0 .053.04.093.092.093zm-82.319-.502h.502c.053 0 .079-.04.079-.08 0-.053-.039-.079-.079-.079h-.502a.077.077 0 00-.079.079c-.013.04.027.08.079.08zm1.677 0h.502c.053 0 .079-.04.079-.08 0-.053-.039-.079-.079-.079h-.502a.077.077 0 00-.079.079c-.013.04.027.08.079.08zm1.677 0h.502c.053 0 .079-.04.079-.08 0-.053-.039-.079-.079-.079h-.502a.077.077 0 00-.079.079c-.013.04.027.08.079.08zm1.677 0h.502c.053 0 .079-.04.079-.08 0-.053-.039-.079-.079-.079h-.502a.077.077 0 00-.079.079c-.013.04.027.08.079.08zm1.664 0h.502c.053 0 .079-.04.079-.08 0-.053-.039-.079-.079-.079h-.502c-.053 0-.079.04-.079.079 0 .04.04.08.079.08zm1.677 0h.502c.053 0 .079-.04.079-.08 0-.053-.039-.079-.079-.079h-.502c-.053 0-.079.04-.079.079 0 .04.04.08.079.08zm1.677 0h.502c.053 0 .079-.04.079-.08 0-.053-.039-.079-.079-.079h-.502c-.053 0-.079.04-.079.079 0 .04.04.08.079.08zm1.677 0h.502c.053 0 .079-.04.079-.08 0-.053-.039-.079-.079-.079h-.502c-.053 0-.079.04-.079.079 0 .04.04.08.079.08zm1.677 0h.502c.053 0 .079-.04.079-.08 0-.053-.039-.079-.079-.079h-.502c-.053 0-.079.04-.079.079 0 .04.04.08.079.08zm1.677 0h.502c.053 0 .079-.04.079-.08 0-.053-.039-.079-.079-.079h-.502c-.053 0-.079.04-.079.079 0 .04.04.08.079.08zm1.677 0h.502c.053 0 .079-.04.079-.08 0-.053-.039-.079-.079-.079h-.502c-.053 0-.079.04-.079.079 0 .04.026.08.079.08zm1.677 0h.502c.053 0 .079-.04.079-.08 0-.053-.039-.079-.079-.079h-.502a.077.077 0 00-.079.079c-.013.04.027.08.079.08zm1.677 0h.502c.053 0 .079-.04.079-.08 0-.053-.039-.079-.079-.079h-.502a.077.077 0 00-.079.079c-.013.04.027.08.079.08zm1.677 0h.502c.053 0 .079-.04.079-.08 0-.053-.039-.079-.079-.079h-.502a.077.077 0 00-.079.079c-.013.04.027.08.079.08zm1.677 0h.502c.053 0 .079-.04.079-.08 0-.053-.039-.079-.079-.079h-.502a.077.077 0 00-.079.079c-.013.04.027.08.079.08zm1.664 0h.502c.053 0 .079-.04.079-.08 0-.053-.039-.079-.079-.079h-.502c-.053 0-.079.04-.079.079 0 .04.04.08.079.08zm1.677 0h.502c.053 0 .079-.04.079-.08 0-.053-.039-.079-.079-.079h-.502c-.053 0-.079.04-.079.079 0 .04.04.08.079.08zm1.677 0h.502c.053 0 .079-.04.079-.08 0-.053-.039-.079-.079-.079h-.502c-.053 0-.079.04-.079.079 0 .04.04.08.079.08zm1.677 0h.502c.053 0 .079-.04.079-.08 0-.053-.039-.079-.079-.079h-.502c-.053 0-.079.04-.079.079 0 .04.04.08.079.08zm1.677 0h.502c.053 0 .079-.04.079-.08 0-.053-.039-.079-.079-.079h-.502c-.053 0-.079.04-.079.079 0 .04.04.08.079.08zm1.677 0h.502c.053 0 .079-.04.079-.08 0-.053-.039-.079-.079-.079h-.502c-.053 0-.079.04-.079.079 0 .04.04.08.079.08zm1.677 0h.502c.053 0 .079-.04.079-.08 0-.053-.039-.079-.079-.079h-.502c-.053 0-.079.04-.079.079 0 .04.026.08.079.08zm1.677 0h.502c.053 0 .079-.04.079-.08 0-.053-.039-.079-.079-.079h-.502c-.053 0-.079.04-.079.079 0 .04.026.08.079.08zm1.677 0h.502c.053 0 .079-.04.079-.08 0-.053-.039-.079-.079-.079h-.502a.077.077 0 00-.079.079c-.013.04.027.08.079.08zm1.677 0h.502c.053 0 .079-.04.079-.08 0-.053-.039-.079-.079-.079h-.502a.077.077 0 00-.079.079c-.013.04.027.08.079.08zm1.677 0h.502c.053 0 .079-.04.079-.08 0-.053-.039-.079-.079-.079h-.502a.077.077 0 00-.079.079c-.013.04.027.08.079.08zm1.677 0h.502c.053 0 .079-.04.079-.08 0-.053-.039-.079-.079-.079h-.502a.077.077 0 00-.079.079c-.013.04.027.08.079.08zm1.664 0h.502c.053 0 .079-.04.079-.08 0-.053-.039-.079-.079-.079h-.502c-.053 0-.079.04-.079.079 0 .04.04.08.079.08zm1.677 0h.502c.053 0 .079-.04.079-.08 0-.053-.039-.079-.079-.079h-.502c-.053 0-.079.04-.079.079 0 .04.04.08.079.08zm1.677 0h.502c.053 0 .079-.04.079-.08 0-.053-.039-.079-.079-.079h-.502c-.053 0-.079.04-.079.079 0 .04.04.08.079.08zm1.677 0h.502c.053 0 .079-.04.079-.08 0-.053-.039-.079-.079-.079h-.502c-.053 0-.079.04-.079.079 0 .04.04.08.079.08zm1.677 0h.502c.053 0 .079-.04.079-.08 0-.053-.039-.079-.079-.079h-.502c-.053 0-.079.04-.079.079 0 .04.04.08.079.08zm1.677 0h.502c.053 0 .079-.04.079-.08 0-.053-.039-.079-.079-.079h-.502c-.053 0-.079.04-.079.079 0 .04.04.08.079.08zm1.677 0h.502c.053 0 .079-.04.079-.08 0-.053-.039-.079-.079-.079h-.502c-.053 0-.079.04-.079.079 0 .04.026.08.079.08zm1.677 0h.502c.053 0 .079-.04.079-.08 0-.053-.039-.079-.079-.079h-.502c-.053 0-.079.04-.079.079 0 .04.026.08.079.08zm1.677 0h.502c.053 0 .079-.04.079-.08 0-.053-.039-.079-.079-.079h-.502a.077.077 0 00-.079.079c-.013.04.027.08.079.08zm1.677 0h.502c.053 0 .079-.04.079-.08 0-.053-.039-.079-.079-.079h-.502a.077.077 0 00-.079.079c-.013.04.027.08.079.08zm1.677 0h.502c.053 0 .079-.04.079-.08 0-.053-.039-.079-.079-.079h-.502a.077.077 0 00-.079.079c-.013.04.027.08.079.08zm1.677 0h.502c.053 0 .079-.04.079-.08 0-.053-.039-.079-.079-.079h-.502a.077.077 0 00-.079.079c-.013.04.027.08.079.08zm1.664 0h.502c.053 0 .079-.04.079-.08 0-.053-.039-.079-.079-.079h-.502c-.053 0-.079.04-.079.079 0 .04.04.08.079.08zm1.677 0h.502c.053 0 .079-.04.079-.08 0-.053-.039-.079-.079-.079h-.502c-.053 0-.079.04-.079.079 0 .04.04.08.079.08zm1.677 0h.502c.053 0 .079-.04.079-.08 0-.053-.039-.079-.079-.079h-.502c-.053 0-.079.04-.079.079 0 .04.04.08.079.08zm1.677 0h.502c.053 0 .079-.04.079-.08 0-.053-.039-.079-.079-.079h-.502c-.053 0-.079.04-.079.079 0 .04.04.08.079.08zm1.677 0h.502c.053 0 .079-.04.079-.08 0-.053-.039-.079-.079-.079h-.502c-.053 0-.079.04-.079.079 0 .04.04.08.079.08zm1.677 0h.502c.053 0 .079-.04.079-.08 0-.053-.039-.079-.079-.079h-.502c-.053 0-.079.04-.079.079 0 .04.026.08.079.08zm1.677 0h.502c.053 0 .079-.04.079-.08 0-.053-.039-.079-.079-.079h-.502c-.053 0-.079.04-.079.079 0 .04.026.08.079.08zm1.677 0h.502c.053 0 .079-.04.079-.08 0-.053-.039-.079-.079-.079h-.502c-.053 0-.079.04-.079.079-.013.04.026.08.079.08zm1.677 0h.502c.053 0 .079-.04.079-.08 0-.053-.039-.079-.079-.079h-.502c-.053 0-.079.04-.079.079-.013.04.026.08.079.08zm1.677 0h.502c.053 0 .079-.04.079-.08 0-.053-.039-.079-.079-.079h-.502a.077.077 0 00-.079.079c-.013.04.027.08.079.08z" fill="#fff"/><path d="M352.24 312.017l-.212-2.219a1.738 1.738 0 00-1.294-1.004c-2.152-.343-7.487-.938-10.049.978l-.382 2.589 11.937-.344z" fill="url(#paint13_linear)"/><path d="M345.518 309.877c.489.119.991.119 1.493 0a1.342 1.342 0 001.03-1.307v-6.962h-3.539v6.962a1.315 1.315 0 001.016 1.307z" fill="url(#paint14_linear)"/><path d="M317.92 312.017l-.211-2.219a1.74 1.74 0 00-1.294-1.004c-2.152-.343-7.487-.938-10.049.978l-.383 2.589 11.937-.344z" fill="url(#paint15_linear)"/><path d="M311.212 309.877c.489.119.991.119 1.492 0a1.34 1.34 0 001.03-1.307v-7.702h-3.539v7.688a1.32 1.32 0 001.017 1.321z" fill="url(#paint16_linear)"/><path d="M348.385 303.325l-38.096-1.255a1.833 1.833 0 01-1.756-1.506c-.212-1.189-.397-2.986-.119-4.835.317-2.1 2.126-3.673 4.265-3.725 7.104-.172 25.195-.159 35.164 3.778a3.48 3.48 0 012.1 2.417c.251 1.044.423 2.444.092 3.871a1.635 1.635 0 01-1.65 1.255z" fill="url(#paint17_linear)"/><path d="M349.044 301.344c.08 0 .159-.067.172-.146 0-.066.145-1.493-.224-2.866a3.15 3.15 0 00-2.166-2.193c-2.126-.621-6.18-1.678-9.494-1.771-.093 0-.172.066-.172.159 0 .092.066.172.158.172 3.275.092 7.303 1.149 9.402 1.757a2.833 2.833 0 011.928 1.968c.357 1.321.225 2.735.225 2.748-.014.092.053.172.145.185l.026-.013z" fill="#91B3FA"/><path d="M369.908 311.159c-12.307-.159-65.549-.714-81.012 1.149a3.148 3.148 0 00-2.707 2.444c-.911 4.135-2.746 13.739-2.535 23.251.026 1.294.977 2.391 2.258 2.628l35.296 6.672h12.545l37.621-7.477a2.967 2.967 0 002.377-2.735c.25-4.782.62-16.024-.674-23.25a3.252 3.252 0 00-3.169-2.682z" fill="url(#paint18_linear)"/><path d="M321.498 344.344H322c.053 0 .079-.04.079-.08 0-.052-.039-.079-.079-.079h-.502a.077.077 0 00-.079.079c0 .04.04.08.079.08zm1.677 0h.502c.053 0 .079-.04.079-.08 0-.052-.039-.079-.079-.079h-.502a.077.077 0 00-.079.079c0 .04.04.08.079.08zm1.677 0h.502c.053 0 .079-.04.079-.08 0-.052-.039-.079-.079-.079h-.502a.077.077 0 00-.079.079c0 .04.04.08.079.08zm1.677 0h.502c.053 0 .079-.04.079-.08 0-.052-.039-.079-.079-.079h-.502a.077.077 0 00-.079.079c0 .04.04.08.079.08zm1.677 0h.502c.053 0 .079-.04.079-.08 0-.052-.039-.079-.079-.079h-.502a.077.077 0 00-.079.079c0 .04.04.08.079.08zm1.677 0h.502c.053 0 .079-.04.079-.08 0-.052-.039-.079-.079-.079h-.502a.077.077 0 00-.079.079c0 .04.027.08.079.08zm1.677 0h.502c.053 0 .079-.04.079-.08 0-.052-.039-.079-.079-.079h-.502a.077.077 0 00-.079.079c0 .04.027.08.079.08zm1.677 0h.212l.515-.106c.039-.013.079-.053.066-.092-.013-.04-.053-.08-.093-.066l-.488.092h-.198c-.053 0-.08.04-.08.079-.026.053.014.093.066.093zm-12.887-.212c.039 0 .079-.026.079-.066.013-.039-.027-.092-.066-.092l-.489-.093c-.039-.013-.092.027-.092.066-.013.04.026.093.066.093l.488.092h.014zm14.749-.105h.014l.488-.093c.04-.013.079-.053.066-.092-.013-.04-.053-.08-.092-.066l-.489.092c-.039.013-.079.053-.066.093 0 .026.04.066.079.066zm-16.4-.212c.04 0 .079-.026.079-.066.013-.039-.026-.092-.066-.092l-.488-.093c-.04-.013-.093.027-.093.066-.013.04.027.093.066.093l.489.092h.013zm18.038-.119h.013l.489-.092c.039-.013.079-.053.066-.093-.014-.039-.053-.079-.093-.066l-.488.093c-.04.013-.08.053-.066.092.013.04.039.066.079.066zm-19.675-.185c.039 0 .079-.026.079-.066.013-.039-.027-.092-.066-.092l-.489-.093c-.039-.013-.092.027-.092.066-.013.04.026.093.066.093l.488.092h.014zm21.325-.145h.014l.488-.092c.04-.014.079-.053.066-.093-.013-.039-.053-.079-.092-.066l-.489.093c-.039.013-.079.052-.066.092 0 .04.04.066.079.066zm-22.976-.172c.04 0 .079-.026.079-.066.013-.039-.026-.092-.066-.092l-.488-.093c-.04-.013-.093.027-.093.066-.013.04.027.093.066.093l.489.092h.013zm24.614-.158h.013l.489-.093c.039-.013.079-.052.066-.092-.014-.04-.053-.079-.093-.066l-.488.092c-.04.014-.08.053-.066.093.013.039.039.066.079.066zm-26.265-.159c.04 0 .08-.026.08-.066.013-.039-.027-.092-.066-.092l-.489-.093c-.04-.013-.092.027-.092.066-.014.04.026.093.066.093l.488.092h.013zm27.915-.158h.014l.488-.093c.04-.013.079-.053.066-.092-.013-.04-.053-.079-.092-.066l-.489.092c-.039.014-.079.053-.066.093 0 .026.04.066.079.066zm-29.552-.146c.04 0 .079-.026.079-.066.013-.039-.026-.092-.066-.092l-.488-.092c-.04-.014-.093.026-.093.066-.013.039.027.092.066.092l.489.092h.013zm31.19-.184h.013l.489-.093c.039-.013.079-.053.066-.092-.014-.04-.053-.08-.093-.066l-.488.092c-.04.013-.08.053-.066.093.013.039.039.066.079.066zm-32.841-.133c.04 0 .08-.026.08-.066.013-.039-.027-.092-.066-.092l-.489-.093c-.04-.013-.092.027-.092.066-.014.04.026.093.066.093l.488.092h.013zm34.491-.198h.014l.488-.092c.04-.013.079-.053.066-.093-.013-.039-.053-.079-.092-.066l-.489.093c-.039.013-.079.053-.066.092 0 .04.04.066.079.066zm-36.141-.105c.039 0 .079-.027.079-.066.013-.04-.026-.093-.066-.093l-.489-.092c-.039-.014-.092.026-.092.066-.013.039.026.092.066.092l.489.093h.013zm37.779-.225h.013l.489-.092c.039-.014.079-.053.066-.093-.014-.04-.053-.079-.093-.066l-.488.093c-.04.013-.08.052-.066.092.013.04.039.066.079.066zm-39.417-.092c.04 0 .08-.027.08-.066.013-.04-.027-.093-.066-.093l-.489-.092c-.04-.014-.092.026-.092.066-.014.039.026.092.066.092l.488.093h.013zm41.067-.225h.014l.488-.093c.04-.013.079-.052.066-.092-.013-.04-.053-.079-.092-.066l-.489.092c-.039.014-.079.053-.066.093 0 .026.04.066.079.066zm-42.717-.093c.039 0 .079-.026.079-.066.013-.039-.026-.092-.066-.092l-.489-.092c-.039-.014-.092.026-.092.066-.013.039.026.092.066.092l.489.092h.013zm44.355-.237h.013l.489-.093c.039-.013.079-.053.066-.092-.014-.04-.053-.079-.093-.066l-.488.092c-.04.013-.08.053-.066.093.013.039.039.066.079.066zm-46.006-.066c.04 0 .079-.027.079-.066.014-.04-.026-.093-.066-.093l-.488-.092c-.04-.014-.093.026-.093.066-.013.039.027.092.066.092l.489.093h.013zm47.656-.265h.014l.488-.092c.04-.013.079-.053.066-.092-.013-.04-.053-.08-.092-.067l-.489.093c-.039.013-.079.053-.066.092 0 .04.04.066.079.066zm-49.307-.052c.04 0 .08-.027.08-.066.013-.04-.027-.093-.066-.093l-.489-.092c-.039-.014-.092.026-.092.066-.014.039.026.092.066.092l.488.093h.013zm50.945-.278h.013l.489-.092c.039-.014.079-.053.066-.093-.014-.039-.053-.079-.093-.066l-.488.093c-.04.013-.08.052-.066.092.013.04.039.066.079.066zm-52.582-.026c.04 0 .079-.027.079-.066.014-.04-.026-.093-.066-.093l-.488-.092c-.04-.013-.093.026-.093.066-.013.039.027.092.066.092l.489.093h.013zm54.232-.291h.014l.488-.092c.04-.014.079-.053.066-.093-.013-.039-.053-.079-.092-.066l-.489.093c-.039.013-.079.052-.066.092 0 .04.04.066.079.066zm-55.883-.026c.04 0 .08-.027.08-.066.013-.04-.027-.093-.066-.093l-.489-.092c-.039-.014-.092.026-.092.066-.014.039.026.092.066.092l.488.093h.013zm57.521-.304h.013l.489-.093c.039-.013.079-.052.066-.092-.014-.04-.053-.079-.093-.066l-.488.092c-.04.014-.08.053-.066.093 0 .039.039.066.079.066zm-59.171 0c.04 0 .079-.027.079-.066.013-.04-.026-.093-.066-.093l-.488-.092c-.04-.013-.093.026-.093.066-.013.04.026.092.066.092l.489.093c.013-.013.013 0 .013 0zm-1.638-.317c.04 0 .08-.027.08-.066.013-.04-.027-.093-.066-.093l-.489-.092c-.04-.013-.092.026-.092.066-.014.039.026.092.066.092l.488.093h.013zm62.459-.013h.014l.488-.093c.04-.013.079-.053.066-.092-.013-.04-.053-.08-.092-.066l-.489.092c-.039.013-.079.053-.066.093 0 .039.04.066.079.066zm-64.109-.304c.039 0 .079-.027.079-.066.013-.04-.026-.093-.066-.093l-.488-.092c-.04-.013-.093.026-.093.066-.013.039.026.092.066.092l.489.093h.013zm65.747-.027h.013l.489-.092c.039-.013.079-.053.066-.093-.014-.039-.053-.079-.093-.066l-.488.093c-.04.013-.08.053-.066.092 0 .04.039.066.079.066zm-67.398-.277c.04 0 .08-.027.08-.066.013-.04-.027-.093-.067-.093l-.488-.092c-.04-.013-.093.026-.093.066-.013.04.027.092.066.092l.489.093h.013zm69.048-.04h.014l.488-.092c.04-.013.079-.053.066-.093-.013-.039-.053-.079-.092-.066l-.489.093c-.039.013-.079.053-.066.092 0 .04.04.066.079.066zm-70.685-.277c.039 0 .079-.027.079-.066.013-.04-.026-.093-.066-.093l-.489-.092c-.039-.013-.092.026-.092.066-.013.04.026.092.066.092l.489.093h.013zm72.323-.053h.013l.489-.092c.039-.014.079-.053.066-.093-.014-.04-.053-.079-.093-.066l-.488.092c-.04.014-.08.053-.066.093 0 .04.039.066.079.066zm-73.974-.251c.04 0 .079-.026.079-.066.014-.04-.026-.092-.066-.092l-.488-.093c-.04-.013-.093.026-.093.066-.013.04.027.093.066.093l.489.092h.013zm75.611-.079h.013l.489-.093c.04-.013.079-.053.066-.092-.013-.04-.053-.079-.092-.066l-.489.092c-.04.013-.079.053-.066.093.013.039.053.066.079.066zm-77.261-.238c.039 0 .079-.026.079-.066.013-.04-.027-.093-.066-.093l-.489-.092c-.039-.013-.092.026-.092.066-.013.04.026.093.066.093l.488.092h.014zm78.912-.092h.013l.489-.093c.039-.013.079-.053.066-.092-.014-.04-.053-.08-.093-.066l-.488.092c-.04.013-.08.053-.066.092 0 .04.039.067.079.067zm1.637-.318h.013l.489-.092c.04-.013.079-.053.066-.092-.013-.04-.053-.08-.092-.067l-.489.093c-.04.013-.079.053-.066.092.013.04.04.066.079.066zm1.651-.33h.013l.489-.092c.039-.013.079-.053.066-.093-.014-.039-.053-.079-.093-.066l-.488.093c-.04.013-.08.053-.066.092 0 .04.039.066.079.066zm-82.94-.33c.053 0 .079-.04.079-.079v-.502a.076.076 0 00-.079-.08c-.039 0-.079.04-.079.08v.502c0 .039.04.079.079.079zm84.062-.449c.04 0 .08-.04.08-.079.013-.159.013-.331.026-.503 0-.052-.04-.079-.079-.092-.053 0-.08.04-.093.079-.013.172-.013.344-.026.502a.09.09 0 00.092.093c-.013 0-.013 0 0 0zm-84.049-1.229c.04 0 .08-.039.08-.079 0-.172.013-.33.013-.502 0-.053-.04-.079-.079-.093-.053 0-.08.04-.093.08 0 .171-.013.33-.013.502.013.053.053.092.092.092zm84.115-.449c.04 0 .08-.04.08-.079l.013-.502c0-.053-.04-.079-.079-.093-.04 0-.08.04-.093.08l-.013.502c.013.052.039.092.092.092zm-84.062-1.229c.04 0 .079-.039.079-.079.014-.172.014-.33.027-.502 0-.053-.04-.079-.079-.092-.04 0-.08.039-.093.079-.013.172-.013.33-.026.502.013.053.039.092.092.092zm84.115-.449c.04 0 .079-.039.079-.079l.014-.502c0-.053-.04-.079-.08-.092-.052 0-.079.039-.092.079l-.013.502c.013.053.053.092.092.092zm-84.022-1.228c.039 0 .079-.04.079-.08.013-.171.026-.33.026-.502 0-.052-.026-.092-.079-.092-.053 0-.092.026-.092.079-.014.172-.027.331-.027.502 0 .053.04.093.093.093-.014 0-.014 0 0 0zm84.075-.449c.04 0 .079-.04.079-.08l.013-.502c0-.053-.039-.079-.079-.079-.039 0-.079.04-.079.079l-.013.502c-.013.04.026.08.079.08zm-83.957-1.216c.04 0 .08-.039.08-.079l.039-.502c0-.04-.026-.093-.079-.093-.04 0-.092.027-.092.08l-.04.502c0 .039.04.079.092.092-.013 0-.013 0 0 0zm83.983-.462c.04 0 .08-.04.08-.079v-.502c0-.053-.04-.08-.08-.08-.039 0-.079.04-.079.08v.502c-.013.039.027.079.079.079zm-83.837-1.216c.039 0 .079-.026.079-.079.013-.172.04-.33.053-.502 0-.039-.027-.092-.079-.092-.053 0-.093.026-.093.079-.013.172-.039.33-.053.502 0 .053.04.092.093.092-.013 0 0 0 0 0zm83.851-.462c.052 0 .079-.04.079-.079v-.502c0-.053-.04-.079-.079-.079a.076.076 0 00-.08.079v.502c-.013.039.027.079.08.079zm-83.68-1.202c.04 0 .08-.026.08-.079.013-.172.039-.331.052-.502 0-.04-.026-.093-.079-.093-.053 0-.092.027-.092.079a6.15 6.15 0 00-.053.502c.013.04.04.093.092.093zm83.666-.476c.053 0 .08-.039.08-.079v-.502c0-.04-.04-.079-.08-.079-.052 0-.079.039-.079.079v.502c0 .053.04.079.079.079zm-83.454-1.189c.039 0 .079-.026.079-.079.026-.172.04-.33.066-.502 0-.039-.026-.092-.066-.092-.053 0-.093.026-.093.066-.026.171-.039.33-.066.502-.013.053.014.092.08.105-.014 0-.014 0 0 0zm83.428-.475c.053 0 .079-.04.079-.079 0-.172-.013-.331-.013-.502 0-.053-.04-.08-.092-.08-.053 0-.08.04-.08.093 0 .172.014.33.014.502.013.026.052.066.092.066zm-83.204-1.189c.04 0 .079-.027.079-.066l.08-.502c.013-.04-.027-.093-.066-.093-.04 0-.093.027-.093.066a46.13 46.13 0 00-.079.502c-.013.04.026.093.079.093-.013 0 0 0 0 0zm83.164-.489c.053 0 .08-.04.08-.092 0-.172-.014-.331-.014-.502 0-.053-.039-.08-.092-.08s-.079.04-.079.093c.013.172.013.33.013.502 0 .039.04.079.092.079zm-82.913-1.162c.04 0 .079-.027.079-.066l.08-.502c.013-.04-.027-.093-.067-.093a.072.072 0 00-.092.066c-.026.159-.053.33-.079.502-.013.04.026.093.066.093h.013zm82.834-.516c.053 0 .093-.039.079-.092-.013-.172-.013-.33-.026-.502 0-.053-.04-.079-.093-.079-.052 0-.079.039-.079.092.013.172.013.33.027.502.013.04.052.079.092.079zm-82.557-1.149c.04 0 .08-.026.08-.066.026-.172.052-.33.092-.489.013-.039-.026-.092-.066-.092-.04-.013-.092.026-.092.066-.027.158-.053.33-.093.502-.013.039.027.092.066.092l.013-.013zm82.451-.528c.053 0 .093-.04.08-.093l-.04-.502c0-.039-.04-.079-.092-.079-.04 0-.08.04-.08.092l.04.502c.013.04.053.08.092.08zm-82.147-1.11c.04 0 .079-.026.079-.066.027-.172.066-.33.093-.489.013-.04-.027-.092-.066-.092-.04-.014-.093.026-.093.066-.026.158-.066.33-.092.488-.013.04.026.093.066.093 0-.013.013 0 .013 0zm82.002-.555s.013 0 0 0c.053 0 .093-.039.079-.092-.013-.172-.039-.331-.052-.502 0-.04-.04-.08-.093-.08-.039 0-.079.04-.079.093.013.172.04.33.053.502.013.039.053.079.092.079zm-81.672-1.096c.04 0 .079-.027.079-.066.04-.172.066-.331.106-.489.013-.04-.013-.093-.066-.106-.04-.013-.092.013-.106.066-.039.159-.066.317-.105.489-.013.04.013.092.066.106h.026zm81.487-.582c.053-.013.093-.052.08-.092-.027-.172-.04-.33-.066-.502 0-.04-.053-.079-.093-.066-.04 0-.079.053-.066.092.026.159.04.331.066.502 0 .04.04.066.079.066zm-80.945-.885c.171-.013.343-.039.515-.053.039 0 .079-.052.079-.092s-.04-.079-.093-.079c-.171.013-.343.039-.501.053-.04 0-.08.052-.08.092 0 .053.027.079.08.079zm1.663-.171l.502-.04c.04 0 .079-.04.079-.093 0-.039-.039-.079-.092-.079l-.502.04c-.039 0-.079.039-.079.092.013.053.053.08.092.08zm1.664-.133s.013 0 0 0l.502-.039c.04 0 .079-.04.079-.093 0-.039-.039-.079-.092-.079-.172.013-.344.026-.502.04-.04 0-.079.039-.079.092.013.04.053.079.092.079zm1.677-.118l.502-.027c.04 0 .079-.04.079-.092 0-.04-.039-.08-.092-.08l-.502.027c-.04 0-.079.039-.079.092.013.04.053.08.092.08zm1.677-.106l.502-.027c.053 0 .079-.039.079-.092s-.039-.079-.092-.079l-.502.026c-.04 0-.079.04-.079.093 0 .039.039.079.092.079zm1.664-.093s.013 0 0 0l.502-.026c.053 0 .079-.04.079-.093 0-.039-.04-.079-.092-.079l-.502.027c-.04 0-.079.039-.079.092.013.053.052.079.092.079zm1.677-.079l.502-.026c.053 0 .079-.04.079-.093s-.04-.079-.092-.079l-.502.026c-.053 0-.079.04-.079.093.013.053.052.079.092.079zm1.677-.066l.502-.013c.053 0 .079-.04.079-.093 0-.052-.04-.079-.092-.079l-.502.013c-.053 0-.079.04-.079.093.013.039.052.079.092.079zm68.995 0h.014c.039-.013.079-.053.066-.092l-.027-.159a.297.297 0 00-.29-.251h-.04c-.053-.013-.079.04-.079.079 0 .04.04.08.079.08h.04c.066 0 .119.039.132.105l.026.159c0 .053.04.079.079.079zm-67.318-.066l.502-.013c.053 0 .079-.04.079-.093 0-.052-.039-.079-.092-.079l-.502.013c-.053 0-.079.04-.079.093.013.053.039.079.092.079zm1.677-.053l.502-.013c.053 0 .079-.04.079-.093 0-.052-.039-.079-.092-.079l-.502.013c-.053 0-.079.04-.079.093 0 .04.039.079.092.079zm1.677-.053l.502-.013c.053 0 .079-.04.079-.092 0-.053-.039-.08-.092-.08l-.502.014c-.053 0-.079.039-.079.092 0 .04.039.079.092.079zm1.664-.039s.013 0 0 0l.502-.014c.053 0 .079-.039.079-.092 0-.04-.026-.079-.092-.079l-.502.013c-.053 0-.079.04-.079.092.013.04.052.08.092.08zm1.677-.04l.502-.013c.053 0 .079-.04.079-.079 0-.04-.026-.08-.079-.08l-.502.014c-.053 0-.079.039-.079.079 0 .039.039.079.079.079zm1.677-.04l.502-.013c.053 0 .079-.039.079-.079 0-.053-.04-.079-.079-.079l-.502.013c-.053 0-.079.04-.079.079 0 .04.039.079.079.079zm1.677-.039l.502-.013c.053 0 .079-.04.079-.08 0-.053-.04-.092-.079-.079l-.502.013c-.053 0-.079.04-.079.08 0 .039.039.079.079.079zm55.817-.027c.04 0 .079-.039.079-.079 0-.053-.039-.079-.079-.079h-.502c-.039 0-.079.04-.079.079 0 .053.04.079.079.079h.502zm-54.14 0l.502-.013c.053 0 .079-.039.079-.079s-.04-.079-.079-.079l-.502.013c-.053 0-.079.04-.079.079 0 .04.026.079.079.079zm52.463-.013c.04 0 .079-.039.079-.079 0-.053-.039-.079-.079-.079h-.502c-.053 0-.079.039-.079.079 0 .053.039.079.079.079h.502zm-50.786-.013l.502-.013c.053 0 .079-.04.079-.08a.077.077 0 00-.079-.079l-.502.013c-.04 0-.079.04-.079.08 0 .039.026.079.079.079zm49.109-.013c.039 0 .079-.04.079-.08a.077.077 0 00-.079-.079h-.502c-.053 0-.079.04-.079.079 0 .053.039.08.079.08h.502zm-1.677-.013c.039 0 .079-.04.079-.08 0-.053-.04-.079-.079-.079h-.502c-.053 0-.079.04-.079.079 0 .053.039.08.079.08h.502zm-45.755 0l.502-.014c.053 0 .079-.039.079-.079s-.04-.079-.079-.079l-.502.013c-.053 0-.079.04-.079.079-.013.04.026.08.079.08zm44.078-.014c.039 0 .079-.039.079-.079 0-.053-.04-.079-.079-.079h-.502c-.053 0-.079.039-.079.079 0 .053.039.079.079.079h.502zm-42.401-.013h.502c.053 0 .079-.04.079-.079 0-.053-.04-.093-.079-.079h-.502c-.053 0-.079.039-.079.079-.013.039.026.079.079.079zm40.724 0c.039 0 .079-.04.079-.079 0-.053-.04-.079-.079-.079h-.502a.084.084 0 00-.079.079c0 .053.039.079.079.079h.502zm-39.047-.013h.502c.053 0 .079-.04.079-.079 0-.053-.04-.08-.079-.08h-.502c-.053 0-.079.04-.079.08-.013.039.026.079.079.079zm37.37 0c.039 0 .079-.04.079-.079 0-.053-.04-.08-.079-.08h-.502c-.04 0-.079.04-.079.08 0 .053.039.079.079.079h.502zm-1.677-.013c.039 0 .079-.04.079-.08a.077.077 0 00-.079-.079h-.502c-.04 0-.079.04-.079.079 0 .053.039.08.079.08h.502zm-34.029-.014h.502c.052 0 .079-.039.079-.079 0-.039-.04-.079-.079-.079h-.502c-.053 0-.079.04-.079.079 0 .053.039.079.079.079zm32.352 0c.039 0 .079-.039.079-.079 0-.053-.04-.079-.079-.079h-.502c-.04 0-.079.04-.079.079 0 .053.039.079.079.079h.502zm-30.675-.013h.502c.053 0 .079-.039.079-.079s-.04-.079-.079-.079h-.502c-.053 0-.079.039-.079.079 0 .053.039.079.079.079zm28.998 0c.039 0 .079-.039.079-.079 0-.053-.04-.079-.079-.079h-.502c-.053 0-.079.039-.079.079 0 .053.039.079.079.079h.502zm-27.321-.013h.502c.053 0 .079-.04.079-.079 0-.053-.04-.093-.079-.079h-.502c-.053 0-.079.039-.079.079 0 .053.039.079.079.079zm25.644 0c.039 0 .079-.04.079-.079 0-.053-.04-.079-.079-.079h-.502a.084.084 0 00-.079.079c0 .053.039.079.079.079h.502zm-23.967-.013h.502c.053 0 .079-.04.079-.079 0-.053-.04-.08-.079-.08h-.502c-.053 0-.079.04-.079.08 0 .052.039.079.079.079zm22.29 0c.039 0 .079-.04.079-.079 0-.053-.04-.08-.079-.08h-.502c-.04 0-.079.04-.079.08 0 .052.039.079.079.079h.502zm-20.613 0h.502c.053 0 .079-.04.079-.079 0-.04-.04-.08-.079-.08h-.502c-.053 0-.079.04-.079.08 0 .039.039.079.079.079zm18.936 0c.039 0 .079-.04.079-.079 0-.053-.04-.08-.079-.08h-.502c-.053 0-.079.04-.079.08 0 .052.039.079.079.079h.502zm-1.677-.013c.039 0 .079-.04.079-.08a.077.077 0 00-.079-.079h-.502c-.053 0-.079.04-.079.079 0 .053.039.08.079.08h.502zm-15.582 0h.502c.053 0 .079-.04.079-.08 0-.039-.04-.079-.079-.079h-.502c-.053 0-.079.04-.079.079 0 .04.039.08.079.08zm13.905 0c.039 0 .079-.04.079-.08a.077.077 0 00-.079-.079h-.502c-.04 0-.079.04-.079.079 0 .053.039.08.079.08h.502zm-12.228 0h.502c.053 0 .079-.04.079-.08a.077.077 0 00-.079-.079h-.502c-.053 0-.079.04-.079.079 0 .04.026.08.079.08zm10.564 0c.053 0 .079-.04.079-.08a.077.077 0 00-.079-.079h-.502c-.053 0-.079.04-.079.079 0 .053.039.08.079.08h.502zm-8.887-.014h.502c.053 0 .079-.039.079-.079 0-.053-.04-.079-.079-.079h-.502c-.053 0-.079.04-.079.079 0 .053.026.079.079.079zm7.21 0c.053 0 .079-.039.079-.079 0-.053-.04-.079-.079-.079h-.502c-.053 0-.079.04-.079.079 0 .053.039.079.079.079h.502zm-5.533 0h.502c.053 0 .079-.039.079-.079 0-.053-.04-.079-.079-.079h-.502c-.053 0-.079.04-.079.079-.013.04.026.079.079.079zm3.856 0c.053 0 .079-.039.079-.079 0-.053-.04-.079-.079-.079h-.502c-.053 0-.079.04-.079.079 0 .053.039.079.079.079h.502zm-2.179 0h.502c.053 0 .079-.039.079-.079 0-.039-.04-.079-.079-.079h-.502c-.053 0-.079.04-.079.079-.013.04.026.079.079.079z" fill="#fff"/><path d="M322.396 352.574h10.987a2.842 2.842 0 002.826-2.497l1.267-10.582a2.84 2.84 0 00-2.825-3.17h-13.192c-1.664 0-2.984 1.426-2.826 3.078l.938 10.581a2.823 2.823 0 002.825 2.59z" fill="url(#paint19_linear)"/><mask id="a" maskUnits="userSpaceOnUse" x="320" y="338" width="16" height="13"><path d="M323.743 350.632h8.359c1.096 0 2.02-.819 2.152-1.902l.964-8.046c.159-1.281-.845-2.404-2.152-2.404h-10.049a2.155 2.155 0 00-2.152 2.352l.713 8.045a2.178 2.178 0 002.165 1.955z" fill="url(#paint20_linear)"/></mask><g mask="url(#a)"><path d="M323.743 350.632h8.359c1.096 0 2.02-.819 2.152-1.902l.964-8.046c.159-1.281-.845-2.404-2.152-2.404h-10.049a2.155 2.155 0 00-2.152 2.352l.713 8.045a2.178 2.178 0 002.165 1.955z" fill="url(#paint21_linear)"/></g><path d="M23.003 161.616L49.15 214.22l33.62-74.731-34.914 38.68-24.852-16.553z" fill="url(#paint22_linear)"/><path d="M181.606 178.671c.171.541-1.796 1.36-2.958-.846-.04-1.057-.687-5.601-.053-6.46 3.367-4.597 9.904-10.357 9.904-10.357 1.109 1.084.198 2.167.198 2.167l-3.169 3.302c.66 1.203 1.465 2.207 1.848 3.66.291 1.096.106 2.272-.449 3.276-.554 1.004-1.32 2.312-2.033 3.329-1.347 1.916-3.288 1.929-3.288 1.929z" fill="url(#paint23_linear)"/><path d="M184.142 168.618l-2.892 2.444-.911 2.444 2.575 2.853s.872-4.835 1.506-5.892c.66-1.043.316-1.545-.278-1.849z" fill="url(#paint24_linear)"/><path d="M124.879 359.034s-.726 4.135-1.082 8.217c-.146 1.598 1.096 2.985 2.693 3.051 5.441.225 17.087.674 21.273.476a.911.911 0 00.806-1.255 2.093 2.093 0 00-1.043-1.11l-19.24-8.851-3.407-.528z" fill="url(#paint25_linear)"/><path d="M124.285 356.603l.581 4.941s3.367 1.572 5.665-.198l-1.4-5.509-4.846.766z" fill="url(#paint26_linear)"/><path d="M124.734 263.694c-.251 1.294-1.36 64.401 5.388 92.684a.968.968 0 01-.568 1.123c-1.03.423-3.064 1.031-5.493 1.123a1.646 1.646 0 01-1.638-1.189c-1.928-6.565-11.158-39.446-12.373-70.848-1.347-35.1 0-1.189 0-1.189l.793-21.691 13.891-.013z" fill="url(#paint27_linear)"/><path d="M102.761 361.187s-1.162 2.087-2.285 7.622a1.73 1.73 0 001.519 2.061c1.796.172 4.569.41 6.787.383 1.017-.013 1.823-.898 1.691-1.915-.251-2.021-1.017-5.337-3.368-7.926l-4.344-.225z" fill="url(#paint28_linear)"/><path d="M101.732 354.833l1.373 7.477s1.36 1.004 4.027.277l-.66-8.045-4.74.291z" fill="url(#paint29_linear)"/><path d="M98.034 265.622c-5.52 33.304 1.201 82.302 3.459 91.893a1.483 1.483 0 001.202 1.136c1.017.171 2.667.304 4.318-.172.568-.159.964-.674.99-1.268.304-7.755-.237-55.352 4.899-74.164a4.28 4.28 0 011.651-2.351l9.97-7.095.766-11.466-27.255 3.487z" fill="url(#paint30_linear)"/><path d="M133.185 202.529c-16.533-.277-34.769 4.346-34.769 4.346-4.925 28.759-.858 61.931-.858 61.931 12.796 3.355 27.228-2.048 27.228-2.048 2.126-12.021 12.056-45.853 12.056-45.853 8.082-1.004 14.724-3.329 20.204-6.421-4.173-4.848-6.154-11.017-6.999-14.663-5.849 1.823-11.765 2.787-16.862 2.708z" fill="url(#paint31_linear)"/><path d="M182.003 178.169c-1.624-1.969-3.684-1.031-3.684-1.031-2.43 10.278-15.186 18.614-28.285 22.683.858 3.646 2.826 9.815 6.999 14.663 21.748-12.232 24.97-36.315 24.97-36.315z" fill="url(#paint32_linear)"/><path d="M104.755 222.886l-6.338-16.011s-15.437 10.489-17.972 23.806c2.918.211 8.226.977 13.416 3.593 1.135-6.288 10.894-11.388 10.894-11.388z" fill="url(#paint33_linear)"/><path d="M116.441 189.107l-5.255 15.219a.539.539 0 00.251.66c1.439.793 6.602 3.091 12.822-.858a2.567 2.567 0 001.188-1.85l1.703-13.171h-10.709z" fill="url(#paint34_linear)"/><path d="M127.877 175.011s5.77 10.873 5.031 15.272c-.74 4.399-7.897 4.082-14.143.515l-4.37-11.744 13.482-4.043z" fill="url(#paint35_linear)"/><path d="M119.043 185.025a.46.46 0 00.198-.66c-.462-.714-1.334-2.154-1.611-3.409 0 0-1.043-.66 2.641-1.545 3.684-.885 9.164-2.246 10.326-5.39 1.122-3.052-1.836-10.74-6.55-4.624a.445.445 0 01-.713 0c-.779-1.004-2.799-3.091-5.625-1.823-2.641 1.189-2.931 3.118-2.905 4.095a.45.45 0 01-.528.463c-1.334-.251-4.543-.476-6.035 2.813-1.228 2.709-.436 4.241.304 4.994a.446.446 0 01-.185.74c-.872.264-2.007 1.017-1.902 3.065.159 2.84 3.328 2.589 4.239 2.457a.41.41 0 01.396.145c.779.859 4.266 4.505 8.055 4.941.33.04.581-.291.476-.595l-1.638-4.755a.44.44 0 01.238-.555l.819-.357z" fill="url(#paint36_linear)"/><path d="M119.703 185.699s-4.107-2.827-4.411-.449c-.304 2.378 3.697 3.448 5.691 2.562l-1.28-2.113z" fill="url(#paint37_linear)"/><path d="M93.86 234.274s-5.4 24.36-.501 38.046c-5.995 2.774-4.886 2.259-4.886 2.259s-11.858-34.651-8.029-43.898c7.54-.806 11.277 1.215 13.416 3.593z" fill="url(#paint38_linear)"/><path d="M93.346 272.32s3.09 4.003 2.84 5.588c-.252 1.598-.305 2.246-.305 2.246s-1.558-1.057-1.452-2.418c.211 4.307 1.65 9.208.343 8.97-1.307-.238-8.094-6.486-6.563-13.157 3.487-2.431 4.464-2.167 5.137-1.229z" fill="url(#paint39_linear)"/><defs><linearGradient id="paint0_linear" x1="5.172" y1="402.161" x2="337.236" y2="24.021" gradientUnits="userSpaceOnUse"><stop stop-color="#DAE3FE"/><stop offset="1" stop-color="#E9EFFD"/></linearGradient><linearGradient id="paint1_linear" x1="112.968" y1="56.725" x2="47.307" y2="68.274" gradientUnits="userSpaceOnUse"><stop stop-color="#DAE3FE"/><stop offset="1" stop-color="#E9EFFD"/></linearGradient><linearGradient id="paint2_linear" x1="227.664" y1="347.149" x2="245.695" y2="-186.365" gradientUnits="userSpaceOnUse"><stop stop-color="#09005D"/><stop offset="1" stop-color="#1A0F91"/></linearGradient><linearGradient id="paint3_linear" x1="278.374" y1="107.862" x2="228.727" y2="-27.483" gradientUnits="userSpaceOnUse"><stop stop-color="#FF928E"/><stop offset="1" stop-color="#FE7062"/></linearGradient><linearGradient id="paint4_linear" x1="266.642" y1="112.165" x2="216.995" y2="-23.18" gradientUnits="userSpaceOnUse"><stop stop-color="#FF928E"/><stop offset="1" stop-color="#FE7062"/></linearGradient><linearGradient id="paint5_linear" x1="261.637" y1="165.375" x2="333.013" y2="287.145" gradientUnits="userSpaceOnUse"><stop stop-color="#E1473D"/><stop offset="1" stop-color="#E9605A"/></linearGradient><linearGradient id="paint6_linear" x1="248.579" y1="173.03" x2="319.955" y2="294.799" gradientUnits="userSpaceOnUse"><stop stop-color="#E1473D"/><stop offset="1" stop-color="#E9605A"/></linearGradient><linearGradient id="paint7_linear" x1="237.599" y1="203.054" x2="331.507" y2="333.934" gradientUnits="userSpaceOnUse"><stop stop-color="#E1473D"/><stop offset="1" stop-color="#E9605A"/></linearGradient><linearGradient id="paint8_linear" x1="224.397" y1="69.173" x2="295.773" y2="190.943" gradientUnits="userSpaceOnUse"><stop stop-color="#E1473D"/><stop offset="1" stop-color="#E9605A"/></linearGradient><linearGradient id="paint9_linear" x1="199.433" y1="-24.961" x2="289.583" y2="93.579" gradientUnits="userSpaceOnUse"><stop stop-color="#09005D"/><stop offset="1" stop-color="#1A0F91"/></linearGradient><linearGradient id="paint10_linear" x1="189.549" y1="-17.445" x2="279.699" y2="101.095" gradientUnits="userSpaceOnUse"><stop stop-color="#09005D"/><stop offset="1" stop-color="#1A0F91"/></linearGradient><linearGradient id="paint11_linear" x1="162.406" y1="245.163" x2="-61.184" y2="91.671" gradientUnits="userSpaceOnUse"><stop stop-color="#4F52FF"/><stop offset="1" stop-color="#4042E2"/></linearGradient><linearGradient id="paint12_linear" x1="339.573" y1="423.848" x2="331.448" y2="364.066" gradientUnits="userSpaceOnUse"><stop stop-color="#4F52FF"/><stop offset="1" stop-color="#4042E2"/></linearGradient><linearGradient id="paint13_linear" x1="345.884" y1="250.55" x2="346.11" y2="287.097" gradientUnits="userSpaceOnUse"><stop stop-color="#4F52FF"/><stop offset="1" stop-color="#4042E2"/></linearGradient><linearGradient id="paint14_linear" x1="345.922" y1="250.551" x2="346.148" y2="287.097" gradientUnits="userSpaceOnUse"><stop stop-color="#4F52FF"/><stop offset="1" stop-color="#4042E2"/></linearGradient><linearGradient id="paint15_linear" x1="311.577" y1="250.762" x2="311.802" y2="287.309" gradientUnits="userSpaceOnUse"><stop stop-color="#4F52FF"/><stop offset="1" stop-color="#4042E2"/></linearGradient><linearGradient id="paint16_linear" x1="311.617" y1="250.763" x2="311.842" y2="287.309" gradientUnits="userSpaceOnUse"><stop stop-color="#4F52FF"/><stop offset="1" stop-color="#4042E2"/></linearGradient><linearGradient id="paint17_linear" x1="326.587" y1="279.698" x2="330.012" y2="304.803" gradientUnits="userSpaceOnUse"><stop stop-color="#4F52FF"/><stop offset="1" stop-color="#4042E2"/></linearGradient><linearGradient id="paint18_linear" x1="325.555" y1="299.25" x2="338.113" y2="416.408" gradientUnits="userSpaceOnUse"><stop stop-color="#4F52FF"/><stop offset="1" stop-color="#4042E2"/></linearGradient><linearGradient id="paint19_linear" x1="331.062" y1="254.817" x2="329.482" y2="299.034" gradientUnits="userSpaceOnUse"><stop stop-color="#09005D"/><stop offset="1" stop-color="#1A0F91"/></linearGradient><linearGradient id="paint20_linear" x1="335.237" y1="344.449" x2="320.864" y2="344.449" gradientUnits="userSpaceOnUse"><stop stop-color="#fff"/><stop offset="1"/></linearGradient><linearGradient id="paint21_linear" x1="335.237" y1="344.449" x2="320.864" y2="344.449" gradientUnits="userSpaceOnUse"><stop stop-color="#4F52FF"/><stop offset="1" stop-color="#4042E2"/></linearGradient><linearGradient id="paint22_linear" x1="14.362" y1="214.208" x2="175.467" y2="19.34" gradientUnits="userSpaceOnUse"><stop stop-color="#FF928E"/><stop offset="1" stop-color="#FE7062"/></linearGradient><linearGradient id="paint23_linear" x1="186.508" y1="161.743" x2="175.459" y2="193.297" gradientUnits="userSpaceOnUse"><stop stop-color="#FEBBBA"/><stop offset="1" stop-color="#FF928E"/></linearGradient><linearGradient id="paint24_linear" x1="178.028" y1="181.905" x2="186.349" y2="165.125" gradientUnits="userSpaceOnUse"><stop stop-color="#FEBBBA"/><stop offset="1" stop-color="#FF928E"/></linearGradient><linearGradient id="paint25_linear" x1="147.152" y1="353.32" x2="76.675" y2="429.947" gradientUnits="userSpaceOnUse"><stop stop-color="#09005D"/><stop offset="1" stop-color="#1A0F91"/></linearGradient><linearGradient id="paint26_linear" x1="124.287" y1="359.013" x2="130.544" y2="359.013" gradientUnits="userSpaceOnUse"><stop stop-color="#FEBBBA"/><stop offset="1" stop-color="#FF928E"/></linearGradient><linearGradient id="paint27_linear" x1="-135.25" y1="19.497" x2="223.503" y2="422.753" gradientUnits="userSpaceOnUse"><stop stop-color="#09005D"/><stop offset="1" stop-color="#1A0F91"/></linearGradient><linearGradient id="paint28_linear" x1="131.349" y1="338.785" x2="60.873" y2="415.412" gradientUnits="userSpaceOnUse"><stop stop-color="#09005D"/><stop offset="1" stop-color="#1A0F91"/></linearGradient><linearGradient id="paint29_linear" x1="101.736" y1="358.692" x2="107.139" y2="358.692" gradientUnits="userSpaceOnUse"><stop stop-color="#FEBBBA"/><stop offset="1" stop-color="#FF928E"/></linearGradient><linearGradient id="paint30_linear" x1="-140.583" y1="24.241" x2="218.171" y2="427.497" gradientUnits="userSpaceOnUse"><stop stop-color="#09005D"/><stop offset="1" stop-color="#1A0F91"/></linearGradient><linearGradient id="paint31_linear" x1="63.944" y1="48.623" x2="123.522" y2="229.988" gradientUnits="userSpaceOnUse"><stop stop-color="#FF928E"/><stop offset="1" stop-color="#FE7062"/></linearGradient><linearGradient id="paint32_linear" x1="177.073" y1="158.439" x2="166.024" y2="189.993" gradientUnits="userSpaceOnUse"><stop stop-color="#FEBBBA"/><stop offset="1" stop-color="#FF928E"/></linearGradient><linearGradient id="paint33_linear" x1="37.025" y1="57.466" x2="96.603" y2="238.831" gradientUnits="userSpaceOnUse"><stop stop-color="#FF928E"/><stop offset="1" stop-color="#FE7062"/></linearGradient><linearGradient id="paint34_linear" x1="111.148" y1="197.733" x2="127.143" y2="197.733" gradientUnits="userSpaceOnUse"><stop stop-color="#FEBBBA"/><stop offset="1" stop-color="#FF928E"/></linearGradient><linearGradient id="paint35_linear" x1="130.947" y1="187.554" x2="113.357" y2="176.83" gradientUnits="userSpaceOnUse"><stop stop-color="#FEBBBA"/><stop offset="1" stop-color="#FF928E"/></linearGradient><linearGradient id="paint36_linear" x1="104.052" y1="165.512" x2="126.779" y2="183.454" gradientUnits="userSpaceOnUse"><stop stop-color="#09005D"/><stop offset="1" stop-color="#1A0F91"/></linearGradient><linearGradient id="paint37_linear" x1="126.327" y1="191.555" x2="110.501" y2="181.907" gradientUnits="userSpaceOnUse"><stop stop-color="#FEBBBA"/><stop offset="1" stop-color="#FF928E"/></linearGradient><linearGradient id="paint38_linear" x1="97.755" y1="315.386" x2="84.741" y2="221.961" gradientUnits="userSpaceOnUse"><stop stop-color="#FEBBBA"/><stop offset="1" stop-color="#FF928E"/></linearGradient><linearGradient id="paint39_linear" x1="96.207" y1="306.398" x2="85.822" y2="231.845" gradientUnits="userSpaceOnUse"><stop stop-color="#FEBBBA"/><stop offset="1" stop-color="#FF928E"/></linearGradient></defs></svg>